<svg width="128" height="128" viewBox="0 0 128 128" fill="none" xmlns="http://www.w3.org/2000/svg">
<path d="M35.903 17.847L39.1993 14.5507C41.2984 12.4516 44.7016 12.4516 46.8007 14.5507L60.6993 28.4493C62.7984 30.5484 62.7984 33.9516 60.6993 36.0507L51.0651 45.6849C49.4586 47.2914 49.0603 49.7457 50.0764 51.7777C55.9499 63.5249 65.4751 73.0501 77.2223 78.9236C79.2543 79.9397 81.7086 79.5414 83.3151 77.9349L92.9493 68.3007C95.0484 66.2016 98.4516 66.2016 100.551 68.3007L114.449 82.1993C116.548 84.2984 116.548 87.7016 114.449 89.8007L111.153 93.097C99.8045 104.446 81.8382 105.722 68.9988 96.0928L62.5036 91.2214C53.1321 84.1928 44.8072 75.8679 37.7786 66.4964L32.9072 60.0012C23.2776 47.1618 24.5545 29.1955 35.903 17.847Z" fill="#FFBAC4"/>
</svg>
