<svg width="128" height="128" viewBox="0 0 128 128" fill="none" xmlns="http://www.w3.org/2000/svg">
<path fill-rule="evenodd" clip-rule="evenodd" d="M64.4031 95.8123C68.4279 93.9005 101.335 77.3714 101.335 47.9994C101.335 27.3807 84.6199 10.666 64.0013 10.666C43.3827 10.666 26.668 27.3807 26.668 47.9994C26.668 77.3714 59.5747 93.9005 63.5995 95.8123C63.8568 95.9345 64.1458 95.9345 64.4031 95.8123ZM64.0011 63.9995C72.8377 63.9995 80.0011 56.836 80.0011 47.9995C80.0011 39.1629 72.8377 31.9995 64.0011 31.9995C55.1645 31.9995 48.0011 39.1629 48.0011 47.9995C48.0011 56.836 55.1645 63.9995 64.0011 63.9995Z" fill="#FFBAC4"/>
<path d="M96.3329 88C99.6096 90.4323 101.335 93.1914 101.335 96C101.335 98.8086 99.6096 101.568 96.3329 104C93.0562 106.432 88.3434 108.452 82.668 109.856C76.9926 111.261 70.5547 112 64.0013 112C57.4479 112 51.01 111.261 45.3346 109.856C39.6593 108.452 34.9464 106.432 31.6697 104C28.393 101.568 26.668 98.8086 26.668 96C26.668 93.1914 28.393 90.4323 31.6697 88" stroke="#FFBAC4" stroke-width="9" stroke-linecap="round"/>
</svg>
