<svg width="128" height="128" viewBox="0 0 128 128" fill="none" xmlns="http://www.w3.org/2000/svg">
<path fill-rule="evenodd" clip-rule="evenodd" d="M16.8787 27.5457C16 28.4244 16 29.8386 16 32.667V38.6663C16.6584 38.6657 17.3262 38.8279 17.9426 39.1704L64 64.7578L110.057 39.1704C110.674 38.8279 111.342 38.6657 112 38.6663V32.667C112 29.8386 112 28.4244 111.121 27.5457C110.243 26.667 108.828 26.667 106 26.667H22C19.1716 26.667 17.7574 26.667 16.8787 27.5457ZM112 47.2428L66.4282 72.5605C64.9181 73.3995 63.0819 73.3994 61.5718 72.5605L63.5144 69.0639L61.5718 72.5605L16 47.2428V95.3337C16 98.1621 16 99.5763 16.8787 100.455C17.7574 101.334 19.1716 101.334 22 101.334H106C108.828 101.334 110.243 101.334 111.121 100.455C112 99.5763 112 98.1621 112 95.3337V47.2428Z" fill="#FFBAC4"/>
</svg>
