<svg width="126" height="133" viewBox="0 0 126 133" fill="none" xmlns="http://www.w3.org/2000/svg">
<g filter="url(#filter0_d_512_52853)">
<path d="M62.7116 86.8365C62.5912 86.701 62.6438 86.4978 62.5008 86.3699C62.4428 86.4926 62.4095 86.6256 62.403 86.7612V87.1902C62.403 87.4385 62.403 87.4686 62.1246 87.4912H61.8913C61.6371 87.4787 61.3827 87.5092 61.1387 87.5815C60.8589 87.6564 60.5705 87.6943 60.2808 87.6944C60.1228 87.6944 59.9723 87.6944 59.8218 87.6944C59.2724 87.6944 58.7231 87.6944 58.1812 87.7621C57.7598 87.7621 57.3384 87.7621 56.9169 87.7621C56.9077 87.7808 56.9028 87.8014 56.9028 87.8223C56.9028 87.8432 56.9077 87.8638 56.9169 87.8825C56.9355 87.9032 56.9457 87.93 56.9457 87.9578C56.9457 87.9855 56.9355 88.0123 56.9169 88.033C56.9169 88.033 56.8642 88.033 56.8492 88.033C56.8341 88.033 56.7213 87.9578 56.7514 87.8675C56.7815 87.7771 56.7965 87.8223 56.8342 87.7696C56.5836 87.7523 56.3322 87.7523 56.0816 87.7696H56.0364C55.7956 87.7696 55.5623 87.7696 55.2839 87.7696C54.7496 87.7696 54.2153 87.7696 53.6885 87.8298C53.6243 87.8244 53.5597 87.8338 53.4997 87.8573C53.4396 87.8808 53.3858 87.9177 53.3423 87.9653C53.3423 88.0104 53.2595 87.9653 53.2144 87.9653C52.2436 87.9653 51.2803 87.9653 50.3171 87.9653C49.9709 87.9653 49.6323 87.9653 49.2861 87.9653C48.9399 87.9653 48.7894 87.9653 48.5335 87.9051C48.4955 87.8979 48.4595 87.8825 48.4282 87.8599C48.3214 87.7919 48.1947 87.7623 48.0688 87.776C47.9429 87.7897 47.8255 87.8458 47.7358 87.9352C47.7131 87.9572 47.6858 87.9739 47.6559 87.9843C47.626 87.9947 47.5943 87.9985 47.5628 87.9954C47.2617 87.9954 46.9607 87.9954 46.6672 87.9954H46.1705C46.0984 87.9885 46.03 87.9596 45.9749 87.9126C45.8844 87.848 45.7794 87.8066 45.6691 87.7922C45.5589 87.7777 45.4468 87.7907 45.3427 87.8298C45.3427 87.8298 45.4631 87.9051 45.4406 87.9578C45.418 88.0104 45.3277 87.9578 45.2675 87.9578C44.4095 88.0029 43.5441 87.9578 42.6787 87.9578C42.34 87.9578 41.9939 88.0255 41.6552 88.0104C41.3166 87.9954 41.0005 87.9502 40.6694 87.9201C40.5565 87.9201 40.5189 87.8148 40.4662 87.747C40.4136 87.6793 40.2555 87.446 40.1351 87.3106C40.0952 87.2389 40.072 87.1592 40.0674 87.0773C40.0674 84.481 40.0674 81.8847 40.0674 79.2884C40.0674 77.2415 40.0674 75.1945 40.0674 73.1401C40.0674 72.6434 40.0674 72.1392 40.0674 71.635C40.0674 71.3565 40.0674 71.0781 40.0674 70.7996C40.0647 70.6328 40.0471 70.4666 40.0147 70.3029C39.9973 70.079 40.01 69.8538 40.0523 69.6332C40.0523 69.5805 40.0523 69.5278 40.0523 69.4751V68.6172C40.0523 68.3689 40.0523 68.1206 40.0523 67.8647C40.0523 67.6088 40.0523 67.5862 40.1652 67.4809C40.1833 67.4529 40.193 67.4202 40.193 67.3868C40.193 67.3534 40.1833 67.3208 40.1652 67.2928C40.1469 67.2263 40.1469 67.1561 40.1652 67.0896C40.1707 66.7881 40.1378 66.4872 40.0674 66.194C40.0674 66.0435 40.0222 65.893 40.0147 65.7425C40.0147 65.4039 40.0147 65.0652 40.0147 64.7266C39.9951 64.6731 39.9951 64.6145 40.0147 64.561C40.2197 64.3347 40.4384 64.1211 40.6694 63.9213C40.7432 63.8607 40.8376 63.831 40.9328 63.8386C41.5875 63.8386 42.2347 63.8386 42.8894 63.8386C45.1471 63.8988 47.4047 63.8386 49.6624 63.8386C50.2343 63.8386 50.8063 63.8386 51.3782 63.8386C51.9501 63.8386 52.6123 63.8386 53.2294 63.8837C53.634 63.8889 54.0385 63.8713 54.441 63.831C54.807 63.8123 55.1738 63.8123 55.5398 63.831C56.0741 63.831 56.6009 63.831 57.1276 63.8912C57.9554 63.9364 58.7908 63.8912 59.6186 63.8912C59.8594 63.8912 59.897 63.9514 59.8519 64.1922C59.8152 64.4014 59.7901 64.6125 59.7766 64.8244C59.7766 65.1555 59.6939 65.4791 59.6487 65.8027C59.6035 66.1263 59.5132 66.5553 59.453 66.9165C59.3552 67.4433 59.2423 67.9625 59.1219 68.4818C58.9241 69.3716 58.6728 70.2486 58.3694 71.1082C58.0754 71.9169 57.6996 72.6935 57.2481 73.426C56.9388 73.9301 56.5995 74.4151 56.2321 74.8784C56.059 75.1042 55.8709 75.3149 55.6828 75.5256C55.2513 75.9922 54.8073 76.4437 54.3507 76.8802C53.9669 77.249 53.5982 77.6328 53.2069 77.994C52.8156 78.3552 52.6425 78.5659 52.3414 78.8293C52.0404 79.0927 51.6566 79.5217 51.2954 79.8453C50.9342 80.1689 50.445 80.6881 50.016 81.1096C49.858 81.2601 49.7828 81.2525 49.6473 81.1096C49.6236 81.0769 49.5925 81.0503 49.5565 81.032C49.5205 81.0137 49.4807 81.0042 49.4404 81.0042C49.4 81.0042 49.3602 81.0137 49.3243 81.032C49.2883 81.0503 49.2571 81.0769 49.2334 81.1096C49.0237 81.318 48.8393 81.5503 48.6841 81.8019C48.2479 82.4534 47.863 83.1378 47.5326 83.8488C47.2987 84.2858 47.1505 84.7635 47.0962 85.2561C46.9936 85.8126 47.1037 86.3874 47.4047 86.8666C47.5097 87.0093 47.6397 87.1317 47.7885 87.2278C47.7991 87.2392 47.8119 87.2483 47.8261 87.2545C47.8404 87.2607 47.8557 87.2639 47.8713 87.2639C47.8868 87.2639 47.9022 87.2607 47.9164 87.2545C47.9307 87.2483 47.9435 87.2392 47.9541 87.2278C48.0817 87.0846 48.1859 86.922 48.2626 86.7461C48.6088 86.1291 48.9474 85.5044 49.2936 84.8798C49.6732 84.1725 50.1219 83.5045 50.6331 82.8856C50.9191 82.5469 51.1976 82.1932 51.5061 81.8696C51.8147 81.546 52.0856 81.2224 52.4017 80.9139C52.7177 80.6053 53.2445 80.1011 53.6735 79.7023C54.1024 79.3034 54.426 79.04 54.7647 78.724C55.3216 78.2499 55.901 77.8059 56.5031 77.3844C56.9519 77.0614 57.4193 76.7649 57.9028 76.4964C58.0232 76.4362 58.0683 76.4513 58.1059 76.5792C58.2213 77.0982 58.2391 77.6341 58.1586 78.1596C58.0359 78.9991 57.8446 79.8272 57.5867 80.6355C57.4436 81.1604 57.3305 81.693 57.2481 82.2309C57.2217 82.4055 57.2217 82.583 57.2481 82.7576C57.2634 83.1009 57.1477 83.4372 56.9245 83.6983C56.845 83.817 56.7769 83.943 56.7213 84.0746C56.6709 84.1689 56.6539 84.2775 56.673 84.3827C56.6922 84.4879 56.7463 84.5835 56.8266 84.6541C57.2691 85.0821 57.7589 85.4583 58.2866 85.7754C58.7013 86.0539 59.1337 86.3053 59.581 86.5279C59.9733 86.734 60.3907 86.8883 60.8227 86.987C61.2212 87.0549 61.6283 87.0549 62.0267 86.987C62.0945 86.987 62.1923 86.987 62.2073 86.8816C62.2224 86.7763 62.1321 86.7311 62.0644 86.6784C61.7257 86.4 61.3494 86.1742 60.9807 85.9259C60.6304 85.6945 60.2938 85.4432 59.9723 85.1733C59.5123 84.7953 59.2114 84.258 59.1294 83.6682C59.0918 83.3281 59.0918 82.9849 59.1294 82.6448C59.2034 82.017 59.3241 81.3957 59.4907 80.786C59.6881 80.0485 59.9396 79.3266 60.2432 78.6261C60.8979 77.0533 61.7031 75.5557 62.4557 74.0281C62.5611 73.8249 62.6739 73.6217 62.7793 73.411C62.7793 73.411 62.7793 73.411 62.7793 73.3734C62.7793 73.3357 62.8621 73.2379 62.9298 73.2605C62.9975 73.283 62.9825 73.3658 62.9825 73.4336C62.9373 74.8182 62.9825 76.2029 62.9825 77.5952C62.9825 78.7842 62.9825 79.9807 62.9825 81.1773C62.9825 81.7793 62.9825 82.3889 62.9373 82.9909C62.9373 83.3747 62.9373 83.7435 62.9373 84.1273C62.9373 84.5111 62.9373 84.9325 62.9373 85.3389C62.9373 85.7453 62.8847 86.1366 62.8847 86.5354C62.7492 86.5956 62.7191 86.7085 62.7116 86.8365ZM40.3307 85.0905C40.4135 85.0078 40.4963 84.925 40.3759 84.8347C40.2555 84.7444 40.2781 84.8347 40.2555 84.9024C40.2329 84.9701 40.3232 85.0153 40.3307 85.0905Z" fill="white"/>
<path d="M73.8192 60.3163H73.8568C74.504 60.3163 75.1587 60.369 75.8059 60.3163H75.8887C75.9013 60.3181 75.9129 60.3244 75.9212 60.3341C75.9295 60.3438 75.934 60.3562 75.9339 60.369C75.9339 60.369 75.9338 60.369 75.8962 60.369C75.8336 60.3732 75.7707 60.3732 75.7081 60.369C75.4146 60.369 75.1136 60.369 74.8126 60.369L73.172 60.4367C72.886 60.4367 72.5925 60.4367 72.3066 60.4367C72.1561 60.4367 72.013 60.4367 71.9378 60.2486C71.8625 60.0604 71.7647 60.1507 71.6744 60.1507C71.1928 60.1507 70.7112 60.1507 70.2295 60.1507H70.1844L70.7638 60.2561C70.1679 60.4983 69.501 60.4983 68.905 60.2561C69.033 60.2034 69.1759 60.2561 69.3039 60.1658C69.1513 60.075 68.9772 60.0271 68.7997 60.0271C68.6222 60.0271 68.448 60.075 68.2955 60.1658C68.3539 60.1946 68.4073 60.2327 68.4535 60.2787C68.4535 60.2787 68.5363 60.3238 68.5062 60.384C68.4807 60.4189 68.4432 60.4431 68.4008 60.4517C68.2809 60.4667 68.1595 60.4667 68.0396 60.4517H67.6257C67.3924 60.4517 67.3397 60.4066 67.3699 60.1733C67.4301 59.6992 67.5053 59.2326 67.573 58.766C67.6182 58.4199 67.6483 58.0737 67.6934 57.7275C67.7386 57.3813 67.7913 56.975 67.8364 56.5686C67.8364 56.3052 67.874 56.0343 67.8966 55.7709C67.9869 54.6797 67.9568 53.581 67.9493 52.4898C67.9682 52.1162 67.9682 51.742 67.9493 51.3685C67.9192 50.9426 67.9192 50.5151 67.9493 50.0891C67.9952 49.4592 68.1452 48.8413 68.3933 48.2604C68.7185 47.5972 69.0829 46.9539 69.4845 46.3339C69.8003 45.7851 70.0866 45.2199 70.3424 44.6407C70.6208 44.0085 70.8617 43.3538 71.1326 42.7217C71.4035 42.0895 71.6819 41.3972 71.9679 40.735C72.2539 40.0727 72.4721 39.5384 72.7205 38.9288C72.9079 38.4332 73.0613 37.9253 73.1795 37.4087C73.1905 37.3238 73.1905 37.2378 73.1795 37.1528C73.1795 37.1077 73.1795 37.0399 73.1795 37.0249C73.1631 37.0217 73.1462 37.0219 73.1299 37.0255C73.1136 37.0292 73.0982 37.0362 73.0848 37.0461C73.0714 37.056 73.0601 37.0686 73.0518 37.0831C73.0435 37.0976 73.0383 37.1136 73.0366 37.1302C73.0366 37.2507 72.9688 37.3786 72.9387 37.5065C72.7939 38.0868 72.5384 38.6336 72.1861 39.117C72.0808 39.2306 71.9476 39.3147 71.7998 39.3609C71.6519 39.4071 71.4945 39.4138 71.3433 39.3804C71.2756 39.384 71.2078 39.384 71.1401 39.3804C71.0799 39.3804 71.0347 39.4255 71.0197 39.4933C71.0122 39.5406 71.0122 39.5889 71.0197 39.6362C71.0562 40.3818 70.9304 41.1264 70.651 41.8186C70.4929 42.21 70.3349 42.5712 70.1618 42.97C69.7819 43.7958 69.3259 44.5843 68.7997 45.3255C68.5363 45.7018 68.2578 46.0781 67.9643 46.4017C67.7344 46.6889 67.4828 46.9581 67.2118 47.2069C66.6824 47.6635 66.0495 47.9839 65.368 48.14C65.3078 48.14 65.2928 48.14 65.2853 48.0798C65.2738 47.9798 65.2738 47.8788 65.2853 47.7788V38.0709C65.2805 37.7691 65.2603 37.4677 65.2251 37.1679C65.2098 37.0464 65.2223 36.9231 65.2613 36.8072C65.3004 36.6912 65.3652 36.5855 65.4508 36.4981C65.5787 36.3626 65.7067 36.2347 65.8422 36.1068C65.8835 36.0689 65.9323 36.0399 65.9854 36.0218C66.0385 36.0037 66.0948 35.9967 66.1507 36.0014C66.9634 36.0014 67.7762 36.0014 68.589 36.0014C70.3349 36.0541 72.0883 36.0014 73.8568 36.0014C76.0618 36.0541 78.2742 36.0014 80.4792 36.0014C81.7134 36.0014 82.9401 36.0014 84.1667 36.0014C84.2613 35.9955 84.356 36.0114 84.4434 36.0479C84.5308 36.0845 84.6087 36.1407 84.671 36.2121C84.8588 36.3839 85.03 36.5729 85.1826 36.7765C85.2729 36.9346 85.273 36.9496 85.0999 37.0023C85.0714 37.0109 85.0469 37.0291 85.0304 37.0538C85.0139 37.0785 85.0065 37.1082 85.0096 37.1378C85.0048 37.4797 85.0224 37.8216 85.0623 38.1612C85.0623 38.1612 85.0623 38.1612 85.0623 38.1989C85.0623 38.6504 85.115 39.1019 85.0623 39.5535C85.0475 39.791 85.0173 40.0273 84.972 40.2609C84.9386 40.4369 84.9234 40.616 84.9268 40.7952C84.9268 42.9399 84.8741 45.0772 84.9268 47.2219C84.9268 48.5389 84.9268 49.8634 84.9268 51.1803C84.9418 51.4736 84.9418 51.7675 84.9268 52.0608C84.8816 52.5951 84.9268 53.1294 84.9268 53.6637C84.9268 54.0551 85.0096 54.4163 85.0322 54.8377C85.0386 55.105 85.0185 55.3722 84.972 55.6354C84.9462 55.7745 84.9311 55.9154 84.9268 56.0569C84.9268 56.4858 84.9268 56.9072 84.8892 57.3362C84.8516 57.7651 84.8365 58.0887 84.829 58.4199C84.84 58.5199 84.84 58.6208 84.829 58.7209C84.829 58.7811 84.8817 58.9542 84.6936 58.8789C84.6936 58.8789 84.6935 58.8789 84.6484 58.9316C84.6032 58.9843 84.6484 59.0068 84.6484 59.0445C84.6484 59.2928 84.6484 59.5487 84.6484 59.797C84.6484 59.8798 84.6032 59.9024 84.5355 59.9099C84.3283 59.9383 84.1198 59.9559 83.9109 59.9626C83.6249 59.9626 83.3389 59.9626 83.0605 60.0077C82.6541 60.0077 82.2477 60.0077 81.8414 60.0077C80.6749 60.0679 79.5084 60.0077 78.342 60.0077C77.7475 60.0077 77.153 60.0077 76.5584 60.0077C76.2725 60.0077 75.9865 60.0077 75.693 60.0077L74.045 60.1056L73.8192 60.3163Z" fill="white"/>
<path d="M82.5047 84.2191C82.462 84.4676 82.4494 84.7202 82.4671 84.9717C82.4671 85.1899 82.4144 85.2426 82.2112 85.2501C81.8575 85.2501 81.5038 85.2501 81.1577 85.3179C80.5932 85.3781 80.0288 85.363 79.472 85.3706L77.9669 85.4308C77.8841 85.4283 77.8018 85.4447 77.7262 85.4786C77.6506 85.5125 77.5837 85.563 77.5304 85.6264C77.5164 85.651 77.4976 85.6725 77.4751 85.6896C77.4526 85.7068 77.427 85.7193 77.3996 85.7263C77.3722 85.7333 77.3437 85.7348 77.3157 85.7305C77.2878 85.7263 77.261 85.7165 77.2369 85.7017C77.1767 85.7017 77.2369 85.5436 77.3046 85.4684C77.0975 85.4382 76.8871 85.4382 76.68 85.4684H72.7065C72.4854 85.4624 72.2654 85.5008 72.0594 85.5813C72.1248 85.6281 72.205 85.6495 72.2851 85.6415C72.5659 85.6564 72.8473 85.6564 73.128 85.6415C73.3786 85.6258 73.63 85.6258 73.8806 85.6415H74.2493C74.2869 85.6415 74.3546 85.6415 74.3621 85.6866C74.3696 85.7318 74.3621 85.7769 74.2718 85.7995C74.1482 85.8432 74.0189 85.8686 73.888 85.8748C73.1376 85.945 72.3833 85.9626 71.6304 85.9274C71.3035 85.9326 70.9766 85.915 70.6521 85.8748C70.6085 85.8734 70.5658 85.8626 70.5268 85.8431C70.4878 85.8236 70.4536 85.7959 70.4263 85.7619C70.3999 85.7122 70.3593 85.6714 70.3098 85.6446C70.2603 85.6178 70.2039 85.6063 70.1479 85.6114H68.8761C68.8692 85.6091 68.8618 85.6083 68.8546 85.6089C68.8473 85.6096 68.8403 85.6118 68.834 85.6153C68.8276 85.6189 68.822 85.6237 68.8176 85.6295C68.8132 85.6353 68.8101 85.6419 68.8083 85.649L69.2373 85.7242C69.2373 85.7242 69.3201 85.7242 69.3276 85.7242C69.3351 85.7242 69.2824 85.7694 69.2599 85.7845C69.116 85.8592 68.9553 85.8955 68.7933 85.8898C68.4489 85.9213 68.1017 85.9035 67.7623 85.8371C67.6554 85.8297 67.5556 85.7811 67.4838 85.7017L67.672 85.6038C67.6096 85.5744 67.5415 85.5591 67.4725 85.5591C67.4036 85.5591 67.3355 85.5744 67.2732 85.6038C67.2481 85.6121 67.2263 85.6283 67.2114 85.6501C67.1964 85.6718 67.189 85.6979 67.1903 85.7242C67.1903 85.8447 67.1302 85.8597 67.0323 85.8672C66.7388 85.8672 66.4378 85.9425 66.1368 85.9575C65.8358 85.9726 65.5423 85.9575 65.2488 86.0177C65.1656 86.0216 65.0828 86.0035 65.0088 85.9651C64.9348 85.9268 64.8722 85.8697 64.8274 85.7995C64.6769 85.6264 64.5339 85.4458 64.3909 85.2727C64.3188 85.1924 64.281 85.087 64.2855 84.9792V70.3196C64.3108 70.0348 64.3873 69.7569 64.5113 69.4993C64.9477 68.2275 65.3918 66.9632 65.8057 65.6839C66.0992 64.7658 66.3701 63.8401 66.6259 62.907C66.7012 62.6285 66.7764 62.3501 66.8668 62.0716C66.9194 61.9061 67.0775 61.891 67.2205 61.891C68.2138 61.891 69.2147 61.891 70.2307 61.891C74.2568 61.8308 78.2829 61.891 82.2714 61.891C82.3383 61.8864 82.4051 61.9 82.4648 61.9305C82.5245 61.961 82.5747 62.0072 82.6101 62.0641C82.7599 62.2174 82.8958 62.3836 83.0164 62.5608C83.0647 62.6565 83.0899 62.7622 83.0899 62.8693C83.0899 62.9765 83.0647 63.0822 83.0164 63.1779C82.9456 63.3494 82.9299 63.5388 82.9713 63.7197C82.9713 63.8627 82.9713 64.0132 83.0164 64.1562C83.054 64.6396 83.054 65.1252 83.0164 65.6086C83.0164 66.1053 83.0165 66.602 82.9563 67.1137C82.8961 67.6254 82.9563 68.0393 82.9563 68.4984C82.9563 69.5294 82.9563 70.5529 82.9563 71.5839C82.9186 72.7804 82.9563 73.9845 82.9563 75.181C82.9563 75.6025 82.9563 76.0164 82.9563 76.4303C82.9563 76.8442 82.9563 77.1828 82.9563 77.5666C82.9563 77.9504 82.9563 78.1009 82.9563 78.3718C82.9563 78.8459 82.9562 79.3201 83.024 79.7942C83.024 80.0124 83.024 80.2306 83.0692 80.4489C83.0967 80.7212 83.0633 80.9963 82.9713 81.2541C82.9442 81.3523 82.929 81.4533 82.9261 81.5551C82.9261 82.1346 82.9261 82.7216 82.9261 83.301C82.9301 83.6085 82.9074 83.9156 82.8584 84.2191C82.6251 84.2944 82.5875 84.2869 82.5047 84.2191Z" fill="white"/>
<path d="M47.2689 40.6142C47.3431 40.8175 47.4527 41.006 47.5925 41.1711L48.458 42.2698L49.5416 43.6545L50.6027 45.0016C50.9695 45.5684 51.385 46.1023 51.8444 46.597C52.2699 46.9901 52.7875 47.2696 53.3495 47.4097C53.9666 47.5678 54.5837 47.7032 55.1932 47.8914C55.7282 48.0694 56.235 48.3228 56.6983 48.6439C57.3067 49.0475 57.8921 49.4847 58.4518 49.9534C58.798 50.2468 59.1291 50.5479 59.4678 50.8489C59.8101 51.1585 60.1342 51.4877 60.4385 51.8347C60.8174 52.2575 61.174 52.6996 61.5071 53.1592C61.8279 53.6073 62.0439 54.1216 62.1393 54.6643C62.1634 54.7782 62.176 54.8941 62.1769 55.0105C62.1769 55.2362 62.1769 55.462 62.1769 55.6878C62.175 56.1065 62.0826 56.5198 61.906 56.8994C61.5975 57.5917 61.1535 58.2389 60.8299 58.9162C60.6247 59.3248 60.4705 59.757 60.3708 60.2031C60.278 60.623 60.2077 61.0475 60.1601 61.4749C60.1601 61.7232 60.0999 61.964 60.0773 62.2274C60.0739 62.2662 60.057 62.3026 60.0295 62.3301C60.0019 62.3576 59.9656 62.3746 59.9268 62.3779C59.9268 62.3779 59.9268 62.3779 59.8816 62.3779C59.0463 62.3779 58.211 62.3779 57.3756 62.3779C56.6231 62.3779 55.9383 62.3779 55.2234 62.3779C54.5084 62.3779 53.8913 62.3779 53.2216 62.3779C53.1945 62.3702 53.1658 62.3702 53.1388 62.3779H53.1839H54.1246C54.2636 62.3901 54.4018 62.4102 54.5385 62.4381C54.5837 62.4381 54.6063 62.4607 54.6063 62.5059C54.6063 62.5586 54.6062 62.551 54.5385 62.5586C54.3481 62.5988 54.1536 62.6164 53.9591 62.6112C52.9657 62.6112 51.9724 62.6112 50.9489 62.6112C50.7663 62.6195 50.5862 62.5665 50.4372 62.4607C50.377 62.4231 50.3167 62.3855 50.264 62.4156C50.2114 62.4457 50.264 62.5059 50.264 62.5586C50.27 62.5688 50.2731 62.5805 50.2731 62.5924C50.2731 62.6043 50.27 62.616 50.264 62.6263C50.2419 62.6561 50.2118 62.679 50.1771 62.6923C50.1425 62.7057 50.1048 62.7088 50.0684 62.7015C49.9931 62.7015 49.8878 62.7542 49.8577 62.6338C49.805 62.393 49.6093 62.3704 49.4287 62.3478C48.7055 62.2865 47.9794 62.2664 47.2538 62.2876C47.0732 62.2876 46.9001 62.2876 46.6819 62.2876C46.7771 62.313 46.8702 62.3458 46.9603 62.3855C46.998 62.3855 47.0507 62.3855 47.0507 62.4683C47.0507 62.551 46.998 62.5285 46.9603 62.5435C46.7949 62.6075 46.6184 62.6382 46.4411 62.6338C45.8315 62.6865 45.2295 62.7015 44.6199 62.694C44.4877 62.6968 44.3562 62.6728 44.2334 62.6237C44.1106 62.5746 43.9989 62.5012 43.905 62.408C43.7781 62.2961 43.6789 62.1563 43.6149 61.9997C43.551 61.843 43.524 61.6737 43.5363 61.505C43.5363 57.8401 43.5363 54.1676 43.5363 50.5027C43.4986 46.6798 43.5363 42.8568 43.5363 39.0263C43.5297 38.88 43.56 38.7344 43.6244 38.6029C43.6889 38.4714 43.7853 38.3582 43.905 38.2738C44.1588 38.1392 44.4522 38.0992 44.7328 38.1609C45.1994 38.1609 45.6735 38.1609 46.1476 38.1609C49.0299 38.2211 51.9197 38.1609 54.8019 38.1609C55.1105 38.1609 55.419 38.1985 55.7276 38.1609C56.608 38.1007 57.481 38.1609 58.3615 38.1609C59.0388 38.1609 59.7085 38.1609 60.3783 38.1609C61.0481 38.1609 61.8834 38.1609 62.6962 38.1609C62.8273 38.1576 62.9545 38.2063 63.0498 38.2964C63.2154 38.4394 63.3659 38.5974 63.5315 38.7479C63.5811 38.7867 63.6203 38.8374 63.6453 38.8952C63.6702 38.9531 63.6803 39.0163 63.6745 39.079C63.6293 39.8918 63.6745 40.7045 63.6745 41.5098C63.6369 43.2632 63.6745 45.0091 63.6369 46.7776C63.6389 47.0308 63.6112 47.2834 63.5541 47.5301C63.5541 47.5828 63.5541 47.6506 63.4713 47.6581C63.3885 47.6656 63.3584 47.6129 63.3208 47.5678C63.2333 47.4584 63.1832 47.3239 63.1778 47.184C63.0815 46.7112 63.0411 46.2288 63.0574 45.7466C63.0574 45.3026 63.1326 44.8511 63.1628 44.4071C63.2181 43.998 63.1977 43.5821 63.1025 43.1804C63.057 43.0214 62.9804 42.8729 62.877 42.7437C62.7737 42.6146 62.6457 42.5072 62.5005 42.4279C62.2085 42.242 61.8883 42.1047 61.5523 42.0215C61.235 41.926 60.8962 41.9287 60.5805 42.0295C60.2649 42.1302 59.9871 42.3242 59.7838 42.5859C59.4371 43.0257 59.1999 43.5416 59.0915 44.091C58.9645 44.6561 58.9852 45.2445 59.1517 45.7993C59.2674 46.0991 59.4657 46.3601 59.7236 46.5518C59.9216 46.7111 60.1077 46.8847 60.2805 47.0711C60.3708 47.1764 60.3482 47.2216 60.2203 47.2668C60.1933 47.2745 60.1645 47.2745 60.1375 47.2668C59.8139 47.2668 59.4828 47.3044 59.1592 47.2668C58.0449 47.24 56.9441 47.0158 55.9082 46.6045C55.2114 46.295 54.533 45.9458 53.8763 45.5585C53.1237 45.137 52.4163 44.7081 51.724 44.2265C51.2055 43.8914 50.7215 43.5057 50.2791 43.0751C49.9619 42.7416 49.6911 42.367 49.4739 41.9613C49.3986 41.8183 49.3083 41.6904 49.2255 41.5549C49.1427 41.4194 49.0901 41.4345 48.9998 41.5549L48.917 41.6377C48.7891 41.7656 48.7213 41.7581 48.5859 41.6377C48.2322 41.3291 47.9086 40.983 47.5699 40.6518C47.457 40.7497 47.3517 40.697 47.2689 40.6142Z" fill="white"/>
</g>
<defs>
<filter id="filter0_d_512_52853" x="0" y="0" width="125.242" height="132.033" filterUnits="userSpaceOnUse" color-interpolation-filters="sRGB">
<feFlood flood-opacity="0" result="BackgroundImageFix"/>
<feColorMatrix in="SourceAlpha" type="matrix" values="0 0 0 0 0 0 0 0 0 0 0 0 0 0 0 0 0 0 127 0" result="hardAlpha"/>
<feOffset dy="4"/>
<feGaussianBlur stdDeviation="20"/>
<feComposite in2="hardAlpha" operator="out"/>
<feColorMatrix type="matrix" values="0 0 0 0 0 0 0 0 0 0 0 0 0 0 0 0 0 0 0.2 0"/>
<feBlend mode="normal" in2="BackgroundImageFix" result="effect1_dropShadow_512_52853"/>
<feBlend mode="normal" in="SourceGraphic" in2="effect1_dropShadow_512_52853" result="shape"/>
</filter>
</defs>
</svg>
