<svg width="394" height="690" viewBox="0 0 394 690" fill="none" xmlns="http://www.w3.org/2000/svg">
<g filter="url(#filter0_d_508_46373)">
<path d="M93.4617 421.586L88.2716 543.586L111.627 567.596L190.777 558.511L204.401 505.299L211.537 434.565L223.864 421.586L219.322 394.98L280.955 340.47L285.496 314.512L304.31 283.364L334.154 272.981L343.885 262.598L331.559 246.375L280.955 250.917L247.219 291.151H238.785L229.054 262.598V229.502L219.322 208.088V143.194L210.239 97.1202V73.1097L197.264 44.5566H186.235L176.504 57.5353V97.1202V143.194L170.016 208.088H126.549L103.842 222.364V234.045H93.4617L76.5938 250.917L61.0235 253.513L45.4531 266.491L50.6432 296.991V331.385L93.4617 421.586Z" fill="#F6AC95"/>
<path d="M97.6414 424.372L92.4513 546.372L115.807 570.382L194.956 561.297L208.58 508.085L215.717 437.351L228.043 424.372L223.502 397.766L285.135 343.256L289.676 317.299L308.49 286.15L338.333 275.767L348.065 265.384L335.738 249.161L285.135 253.703L251.399 293.937H242.965L233.233 265.384V232.288L223.502 210.874V145.98L214.419 99.9063V75.8958L201.444 47.3428H190.415L180.683 60.3214V99.9063V145.98L174.196 210.874H130.728L108.022 225.15V236.831H97.6414L80.7735 253.703L65.2032 256.299L49.6328 269.278L54.8229 299.777V334.171L97.6414 424.372Z" fill="#FFC3AF"/>
<path d="M205.342 72.7627L187.881 101.896L195.641 139.446L207.282 164.695L217.63 139.446L224.097 145.273L214.396 101.896V80.5316L205.342 72.7627Z" fill="#F6AC95"/>
<path d="M324.041 262.22L321.444 281.7L338.325 275.856L348.065 265.467L343.52 259.623L324.041 262.22Z" fill="white"/>
<path d="M194.833 76.5143L189.639 74.5663L186.392 71.3197L185.094 53.1387L189.639 46.6455H201.326L204.572 54.4374V68.7224L200.677 74.5663L194.833 76.5143Z" fill="white"/>
<path d="M341.971 269.513L321.6 281.527L338.837 275.955L348.936 266.727L343.712 259.763L341.971 269.513Z" fill="#D9D9D9"/>
<path d="M191.014 46.6455C191.652 53.098 192.929 66.132 192.929 66.6482L196.121 68.5839L198.036 66.6482L198.675 46.6455H191.014Z" fill="#11426D"/>
<path d="M133.931 478.138L119.627 452.208L133.931 548.148L163.839 567.595L207.4 508.605L215.738 437.532L227.926 424.821L223.225 397.485L170.34 413.962L152.136 432.113V459.987L133.931 478.138Z" fill="#F6AC95"/>
<path d="M275.98 305.53C278.578 317.602 283.903 342.134 284.423 343.686L289.618 317.171L308.45 286.128L321.438 281.601L324.036 262.2L298.709 269.961L275.98 305.53Z" fill="#F6AC95"/>
<path d="M100.256 254.887C104.584 256.184 113.89 259.039 116.487 260.076L130.77 335.328L92.4648 267.861L100.256 254.887Z" fill="#F6AC95"/>
<path d="M54.8984 299.785L51.0254 276.477L83.3002 303.022L103.956 363.882L54.8984 326.977V299.785Z" fill="#F6AC95"/>
<path d="M72.4181 507.862L60.7773 522.104L85.3523 545.408L92.4662 546.703L91.8194 496.21L72.4181 507.862Z" fill="#A60A23"/>
<path d="M63.1788 607.763V645.077H161.762L159.168 592.229L161.762 562.456L145.548 548.863H110.525L84.5818 545.627L60.5845 522.326L57.9902 596.113L63.1788 607.763Z" fill="#F8506B"/>
<path d="M152.709 590.961L161.763 561.676L159.176 592.263L161.838 644.206H156.017L152.709 619.596V590.961Z" fill="#A60A23"/>
<path d="M79.5817 559.189L60.7773 522.326L85.4175 545.608L109.409 548.195H145.721L154.799 567.596L128.214 559.189H79.5817Z" fill="#FFB8C4"/>
<path d="M207.224 509.92V502.129L214.344 506.674L207.224 590.429L213.05 599.519V644.903H161.913L159.324 592.377L161.913 561.212L163.208 556.018L207.224 509.92Z" fill="#F8506B"/>
<path d="M207.956 518.194L171.512 557.846L200.146 535.095H207.956L211.21 509.094L207.956 518.194Z" fill="#FFB8C4"/>
<ellipse cx="179.348" cy="579.958" rx="7.13869" ry="12.3621" fill="#FFB8C4"/>
</g>
<defs>
<filter id="filter0_d_508_46373" x="0.97646" y="0.0799751" width="392.436" height="689.474" filterUnits="userSpaceOnUse" color-interpolation-filters="sRGB">
<feFlood flood-opacity="0" result="BackgroundImageFix"/>
<feColorMatrix in="SourceAlpha" type="matrix" values="0 0 0 0 0 0 0 0 0 0 0 0 0 0 0 0 0 0 127 0" result="hardAlpha"/>
<feOffset/>
<feGaussianBlur stdDeviation="22.2383"/>
<feComposite in2="hardAlpha" operator="out"/>
<feColorMatrix type="matrix" values="0 0 0 0 0 0 0 0 0 0 0 0 0 0 0 0 0 0 0.2 0"/>
<feBlend mode="normal" in2="BackgroundImageFix" result="effect1_dropShadow_508_46373"/>
<feBlend mode="normal" in="SourceGraphic" in2="effect1_dropShadow_508_46373" result="shape"/>
</filter>
</defs>
</svg>
