<svg width="460" height="713" viewBox="0 0 460 713" fill="none" xmlns="http://www.w3.org/2000/svg">
<g filter="url(#filter0_d_508_46247)">
<path d="M113.389 223.644L151.503 192.71L206.124 195.126L242.225 250.552L234.642 399.117L194.851 405.558L156.334 399.117L113.389 223.644Z" fill="white"/>
<path d="M193.979 402.247H136.892L91.582 430.992L101.433 658.143H233.771V395.806L193.979 402.247Z" fill="#3E4F67"/>
<path d="M151.368 172.775V181.23L184.785 204.112L202.5 184.384V181.23L207.801 179.016L213.169 169.018L215.988 125.401L209.076 104.398L192.099 83.0596H163.581L147.61 92.4539L131.909 109.699V138.889L127.547 146.404L139.759 160.563L147.61 162.71L151.368 172.775Z" fill="#FFC2AF"/>
<path d="M202.502 181.299L207.803 179.084L198.14 177.742H181.633L160.361 168.684L184.787 204.181L202.502 184.453V181.299Z" fill="#F6AC95"/>
<path d="M200.824 140.165L187.806 145.131L198.14 147.412L206.192 145.131L200.824 140.165Z" fill="#F6AC95"/>
<path d="M133.385 144.527L140.565 140.836L145.329 144.527L147.409 149.895H142.242L143.047 145.533L133.385 144.527Z" fill="#F6AC95"/>
<path d="M140.498 136.341L132.043 138.756V109.097L163.514 82.793H189.281L197.065 91.7847L173.915 95.0056L153.449 108.023L152.375 122.92L149.02 128.355V140.904L140.498 136.341Z" fill="#E7E7E7"/>
<path d="M181.296 202.706L164.387 222.434L169.688 229.077L178.411 223.172L181.296 259.131L192.838 254.173L181.296 202.706Z" fill="#E5E5E5"/>
<path d="M202.635 184.186L185.792 216.26L203.642 226.259L214.982 265.648L209.077 341.876L218.471 350.197L227.463 265.648L208.473 199.015L202.635 184.186Z" fill="#E5E5E5"/>
<path d="M186.666 202.435L181.767 202.167L176.734 210.286L182.035 215.185L184.787 245.582L179.821 322.079L198.274 337.982L207.669 318.992L198.274 245.582L187.404 215.856L191.631 208.072L186.666 202.435Z" fill="#DE546A"/>
<path d="M80.776 220.486L145.328 193.511L160.426 209.548L185.794 260.329L193.441 319.999L171.822 414.224L130.163 503.523L69.2246 545.165L82.0509 426.892L83.8627 323.624L80.776 220.486Z" fill="#818D9F"/>
<path d="M218.201 266.585L205.855 193.511L222.362 206.73L273.561 230.081L268.26 269.269L284.23 358.314L236.185 531.975L212.028 382.001L218.201 266.585Z" fill="#818D9F"/>
<path d="M80.709 221.429L113.858 251.625L121.44 308.058L181.161 331.208L179.148 361.941L168.277 393.009L140.631 419.582L81.9839 407.034L83.7957 324.567L80.709 221.429Z" fill="#6F7D90"/>
<path d="M235.044 331.208L247.324 270.212L263.898 235.453L273.494 231.024L268.193 270.212L284.163 359.257L236.118 532.917L211.961 382.944L235.044 331.208Z" fill="#6F7D90"/>
<path d="M125.133 217.334L143.988 189.084L159.556 208.745L186.195 260.929L193.51 319.262L189.819 327.449L180.806 299.852L120.637 224.715L136.607 217.334H125.133Z" fill="#98A3B2"/>
<path d="M214.244 240.686L206.192 194.788L220.552 205.054L238.133 233.371L216.257 311.479L218.002 265.849L214.244 240.686Z" fill="#98A3B2"/>
<path d="M150.632 180.628L145.465 191.566L169.689 225.989L182.17 201.966L150.632 180.628Z" fill="white"/>
<path d="M202.569 184.184L185.592 201.966L202.569 223.171L206.394 194.048L202.569 184.184Z" fill="white"/>
<path d="M266.785 237.195V259.808L268.463 292.085L280.407 339.123H296.377L288.194 265.318L273.093 229.411L266.785 237.195Z" fill="#98A3B2"/>
<path d="M117.073 104.326L112.308 116.539L131.899 122.376L134.381 112.378L163.37 100.635L204.91 99.3686L210.218 108.092L232.891 96.341L220.209 88.9595L204.91 86.3428L200.01 52.592L187.797 44.8752L148.073 49.0136L129.22 62.1977L129.218 96.3415L117.073 104.326Z" fill="#342B2E"/>
<path d="M193.375 85.3438L204.916 86.4175L199.951 52.4637L187.939 44.9482L194.381 55.5504L193.375 85.3438Z" fill="#52464A"/>
<path d="M266.822 280.922L270.005 314.621L235.428 330.977V338.331H260.455L294.594 323.952L290.971 311.767L272.64 314.621L268.908 279.824L242.234 234.27L243.77 229.11L240.807 222.634L236.635 221.207L234.001 222.634L232.903 229.11L235.428 233.391L239.489 235.587L266.822 280.922Z" fill="#342B2E"/>
<path d="M274.677 318.684L292.24 311.988L273.909 311.22L274.677 318.684Z" fill="#6C6B6B"/>
<path d="M271.164 311.22L271.604 315.391L249.759 325.051L271.164 311.22Z" fill="#6C6B6B"/>
<path d="M240.978 231.417L243.722 234.381L245.369 229.112L243.722 225.38L242.515 222.636L242.734 227.575L240.978 231.417Z" fill="#6C6B6B"/>
<path d="M309.138 285.313L312.322 319.013L277.744 335.368V342.723H302.772L336.91 328.343L333.288 316.159L314.956 319.013L311.224 284.216L297.725 236.856L299.262 231.696L296.298 225.22L292.127 223.793L289.492 225.22L288.394 231.696L290.919 235.977L294.981 238.173L309.138 285.313Z" fill="#342B2E"/>
<path d="M315.394 323.075L332.957 316.379L314.625 315.611L315.394 323.075Z" fill="#6C6B6B"/>
<path d="M311.881 315.611L312.32 319.782L290.476 329.442L311.881 315.611Z" fill="#6C6B6B"/>
<path d="M295.03 234.011L297.774 236.975L299.421 231.706L297.774 227.974L296.567 225.229L296.786 230.169L295.03 234.011Z" fill="#6C6B6B"/>
<path d="M152.662 501.492V660.937L289.778 667.723L414.744 660.937L407.563 486.948L399.035 475.392L392.639 349.531H403.991V326.34L289.778 309.831H253.59L171.102 347.959L164.014 362.502V486.948L152.662 501.492Z" fill="#EDA767"/>
<path d="M288.51 457.861L169.41 486.162V365.49L176.671 355.663L255.087 323.589H288.51V457.861Z" fill="#C78548"/>
<path d="M163.129 504.637L160.445 663.932L300.208 659.54L288.51 473.82L163.129 504.637Z" fill="#C78548"/>
<path d="M300.208 406.133V330.979L392.292 344.579V365.49H356.219L330.922 393.791L300.208 406.133Z" fill="#C78548"/>
<path d="M163.312 334.626L157.004 333.62L146.268 331.875L135.33 353.684L154.454 355.562L163.312 364.957L181.362 362.608L198.809 372.472L211.424 361.534V352.543L214.444 343.283L196.058 324.695L163.312 334.626Z" fill="#FFC2AF"/>
<path d="M163.312 349.393V334.564L146.268 331.812L135.33 353.621L154.454 355.5L163.312 364.894L181.362 362.545L198.809 372.409L204.982 367.108L202.835 361.472L194.85 358.788H178.41L163.312 349.393Z" fill="#F6AC95"/>
<path d="M104.665 234.176L80.7098 220.151L59.6397 263.365L44.4746 331.139L53.8018 343.418V359.187L80.7098 389.585L143.786 399.516L165.997 366.837H162.508L143.786 392.537V366.837L156.67 331.139L109.899 317.114L89.4331 320.067L104.665 313.625V234.176Z" fill="#98A3B2"/>
</g>
<defs>
<filter id="filter0_d_508_46247" x="-0.00205612" y="0.398335" width="459.223" height="711.802" filterUnits="userSpaceOnUse" color-interpolation-filters="sRGB">
<feFlood flood-opacity="0" result="BackgroundImageFix"/>
<feColorMatrix in="SourceAlpha" type="matrix" values="0 0 0 0 0 0 0 0 0 0 0 0 0 0 0 0 0 0 127 0" result="hardAlpha"/>
<feOffset/>
<feGaussianBlur stdDeviation="22.2383"/>
<feComposite in2="hardAlpha" operator="out"/>
<feColorMatrix type="matrix" values="0 0 0 0 0 0 0 0 0 0 0 0 0 0 0 0 0 0 0.1 0"/>
<feBlend mode="normal" in2="BackgroundImageFix" result="effect1_dropShadow_508_46247"/>
<feBlend mode="normal" in="SourceGraphic" in2="effect1_dropShadow_508_46247" result="shape"/>
</filter>
</defs>
</svg>
