<svg width="146" height="134" viewBox="0 0 146 134" fill="none" xmlns="http://www.w3.org/2000/svg">
<g filter="url(#filter0_d_512_52852)">
<path d="M77.332 46.1071C77.2961 46.052 77.2525 46.0023 77.2024 45.9596L76.1739 45.2799L75.9682 45.1636C75.9682 45.0429 76.0621 45.0384 76.1337 45.0161C76.5135 44.8951 76.9141 44.8529 77.3109 44.8921C77.7076 44.9313 78.0922 45.0511 78.441 45.2441C78.9412 45.5244 79.394 45.8821 79.7825 46.3039C80.5692 47.1304 81.2442 48.0564 81.7902 49.0584C82.4453 50.2169 82.8832 51.4852 83.0825 52.8011C83.2151 53.6994 83.2496 54.6095 83.1853 55.5153C83.1853 55.7926 83.1004 56.0653 83.0691 56.3381C83.0378 56.6109 83.0333 56.7853 83.0244 57.0357C83.0328 57.103 83.0493 57.1691 83.0735 57.2324H83.1317C83.1608 57.1872 83.182 57.1373 83.1943 57.0849C83.3662 56.1711 83.4426 55.242 83.4223 54.3125C83.3529 51.526 82.3032 48.8533 80.4577 46.7645C80.0582 46.3067 79.6165 45.8875 79.1386 45.5124C79.1084 45.4891 79.0814 45.4621 79.0581 45.4319C79.0581 45.4319 79.0581 45.4051 79.0581 45.3738C79.1046 45.3587 79.1526 45.3482 79.2012 45.3425C79.873 45.3282 80.5325 45.5236 81.0882 45.9015C81.6356 46.2955 82.1031 46.7902 82.4654 47.3592C83.2417 48.4943 83.8095 49.7587 84.1423 51.093C84.4648 52.3197 84.6153 53.5854 84.5894 54.8536C84.5686 55.8907 84.4184 56.9211 84.1423 57.9211C84.1374 57.9671 84.1374 58.0136 84.1423 58.0597C84.2764 58.0597 84.3211 57.9613 84.3524 57.8763C84.4289 57.6893 84.4902 57.4964 84.5358 57.2995C85.0293 54.9176 84.8749 52.4469 84.0886 50.145C83.7811 49.1964 83.3639 48.287 82.8455 47.4352C82.6666 47.149 82.461 46.8763 82.2731 46.599C82.2392 46.5485 82.2079 46.4962 82.1792 46.4425L82.215 46.3978L82.4207 46.4559C83.3318 46.7645 84.1067 47.3812 84.6118 48.1998C85.0674 48.9075 85.4028 49.6856 85.6044 50.5027C85.856 51.415 86.006 52.3522 86.0516 53.2974C86.0849 54.4827 85.9829 55.6679 85.7475 56.83C85.6313 57.465 85.4882 58.0954 85.3585 58.7259C85.3585 58.8243 85.3183 58.9227 85.3004 59.0211H85.3585C85.4046 58.949 85.4464 58.8744 85.4837 58.7975C85.7942 58.0012 86.0103 57.1713 86.1276 56.3247C86.2811 55.2693 86.323 54.2007 86.2528 53.1365C86.191 52.0209 85.9928 50.9172 85.6626 49.8499C85.5295 49.4029 85.3496 48.9713 85.126 48.562C85.1085 48.5171 85.095 48.4707 85.0858 48.4234C85.148 48.4352 85.2093 48.4517 85.2691 48.4726C85.947 48.7916 86.4971 49.3306 86.8297 50.0019C87.1897 50.6971 87.407 51.4573 87.4691 52.2377C87.6282 53.9071 87.4935 55.5916 87.0711 57.2145C86.8565 58.0552 86.5793 58.8824 86.3333 59.7142C86.2886 59.8662 86.2394 60.0137 86.1992 60.1613C86.1992 60.2284 86.1992 60.2999 86.1679 60.3894C86.2975 60.3581 86.3154 60.2686 86.3467 60.2016C86.6857 59.5069 86.9597 58.7824 87.1651 58.0373C87.613 56.4379 87.8077 54.7782 87.7419 53.1186C87.7227 52.5177 87.6539 51.9195 87.5362 51.3299C87.5322 51.3003 87.5322 51.2702 87.5362 51.2405C87.5485 51.1871 87.5649 51.1348 87.5854 51.084C87.6449 51.0982 87.7021 51.1208 87.7553 51.1511C87.8046 51.2073 87.8454 51.2706 87.876 51.3389C88.4796 52.3521 88.7892 53.5133 88.7703 54.6926C88.8074 56.3535 88.5156 58.0054 87.9118 59.5532C87.7061 60.0764 87.4333 60.5727 87.2008 61.0825C87.0845 61.3373 86.9906 61.5967 86.8923 61.856C86.8775 61.9086 86.8685 61.9625 86.8654 62.017C86.9862 62.017 87.013 61.9231 87.0488 61.856C87.8355 60.5162 88.413 59.0641 88.7614 57.5499C88.9948 56.5566 89.1444 55.5455 89.2085 54.5271C89.2184 54.4785 89.2318 54.4307 89.2488 54.384C89.3651 54.4153 89.3651 54.5092 89.3919 54.5808C89.744 55.519 89.8622 56.5289 89.7362 57.5231C89.599 58.6404 89.2977 59.7312 88.8419 60.7605C88.4557 61.6639 88.0075 62.5394 87.5004 63.3808C87.4289 63.4926 87.3752 63.6089 87.2902 63.7699C87.7636 63.3103 88.1552 62.7735 88.4484 62.1825C88.7659 61.6146 89.0565 61.0288 89.3427 60.443C89.6013 59.8565 89.8049 59.2472 89.9508 58.6231H90.0134C90.0301 58.6771 90.042 58.7325 90.0492 58.7885C90.2116 60.2746 89.9135 61.7747 89.1951 63.0857C88.7392 63.9069 88.1933 64.6748 87.5675 65.3752C87.4825 65.4691 87.3663 65.5496 87.3663 65.7195C87.4289 65.6792 87.4959 65.639 87.5585 65.5898C87.8968 65.3059 88.2068 64.9899 88.4841 64.6463C88.7748 64.3154 89.0744 63.989 89.3785 63.6626C89.4409 63.602 89.5082 63.5466 89.5797 63.4971C89.5844 63.5551 89.5844 63.6135 89.5797 63.6715C89.2998 64.7141 88.7472 65.6633 87.9789 66.4215C87.5317 66.8687 87.0845 67.2443 86.6374 67.6601L86.4541 67.8345C86.5614 67.9016 86.6195 67.8345 86.6821 67.8345C87.1598 67.585 87.6095 67.2852 88.0236 66.9402C88.3008 66.7211 88.5691 66.4931 88.8463 66.274C88.9033 66.2312 88.963 66.1924 89.0252 66.1577C89.0221 66.221 89.0131 66.2839 88.9984 66.3455C88.7842 66.9241 88.4482 67.4499 88.0131 67.8874C87.5779 68.3248 87.0539 68.6636 86.4764 68.8809L85.9577 69.1045C85.9961 69.1356 86.0426 69.155 86.0918 69.1606C86.1409 69.1661 86.1906 69.1575 86.235 69.1358C86.5882 69.015 86.9459 68.8988 87.2902 68.7602C87.4915 68.6797 87.6793 68.5634 87.8715 68.465L87.9923 68.4158C88.0638 68.5008 87.9923 68.5589 87.9655 68.6036C87.786 68.8224 87.5934 69.03 87.3886 69.2252C86.9094 69.646 86.3405 69.9519 85.7252 70.1195C85.5786 70.1594 85.4291 70.1878 85.278 70.2045C85.0446 70.244 84.805 70.1893 84.6118 70.0524L84.0528 69.6768C83.8041 69.5056 83.5135 69.4052 83.2122 69.3862C83.1647 69.3742 83.115 69.3741 83.0674 69.3858C83.0199 69.3975 82.9759 69.4206 82.9394 69.4532C83.0065 69.5472 83.1048 69.5382 83.1853 69.5516C83.6913 69.6384 84.1643 69.861 84.5536 70.1955C84.6396 70.2688 84.7203 70.348 84.7951 70.4325C84.9605 70.6248 84.9516 70.6516 84.7146 70.7411C84.6746 70.7621 84.6371 70.7876 84.6028 70.8171L84.8622 70.8886C85.0321 70.9378 85.2109 70.9736 85.3809 71.0362C85.5508 71.0988 85.5463 71.1435 85.524 71.3C85.4792 71.5638 85.4256 71.8277 85.3809 72.096C85.3767 72.157 85.3767 72.2182 85.3809 72.2793C85.4882 72.3419 85.5463 72.2793 85.6 72.2346L86.6329 71.3403C86.6955 71.2866 86.7492 71.2285 86.8029 71.1793C86.9057 71.2285 86.8744 71.2866 86.8565 71.3447C86.7519 71.6505 86.5774 71.9277 86.3467 72.1541C86.1634 72.3329 85.9711 72.4984 85.7833 72.6683L85.6044 72.8382C85.6523 72.8498 85.7024 72.8485 85.7495 72.8344C85.7967 72.8202 85.8392 72.7938 85.8728 72.7577L86.4854 72.2659L86.7358 72.0736C86.7483 72.0607 86.7632 72.0505 86.7797 72.0436C86.7963 72.0366 86.814 72.033 86.8319 72.033C86.8498 72.033 86.8676 72.0366 86.8841 72.0436C86.9006 72.0505 86.9155 72.0607 86.928 72.0736C86.9323 72.1062 86.9323 72.1393 86.928 72.172C86.7132 72.6361 86.3497 73.0153 85.8951 73.2496C85.7983 73.3045 85.7043 73.3642 85.6134 73.4285C85.6794 73.4496 85.7497 73.4537 85.8177 73.4404C85.8857 73.4271 85.9492 73.3969 86.0024 73.3525C86.1053 73.3033 86.2036 73.2407 86.302 73.1825L86.3467 73.2138C86.2661 73.3946 86.1541 73.5596 86.0159 73.7012C85.8246 73.8339 85.6226 73.9505 85.4122 74.05C85.3564 74.0683 85.3088 74.1057 85.2777 74.1556C85.2466 74.2054 85.2341 74.2646 85.2423 74.3228C85.2645 74.616 85.2141 74.9102 85.0956 75.1792C84.977 75.4483 84.794 75.684 84.5626 75.8655C84.5222 75.9095 84.4691 75.9401 84.4107 75.9529C84.3523 75.9657 84.2913 75.9601 84.2361 75.937L83.4581 75.6419C83.2479 75.5614 83.0378 75.4809 82.8231 75.4183C82.537 75.3378 82.4431 75.4183 82.376 75.6911C82.3669 75.722 82.3549 75.7519 82.3402 75.7805C82.0764 75.6195 82.054 75.3334 81.9467 75.0651C81.8174 75.2879 81.773 75.5499 81.8215 75.8029C81.7857 75.8029 81.7589 75.8029 81.7455 75.8029C81.6197 75.6744 81.5228 75.5207 81.4611 75.3518C81.3994 75.1829 81.3744 75.0029 81.3878 74.8236C81.3885 74.7441 81.4157 74.667 81.4651 74.6047C81.5145 74.5423 81.5833 74.4982 81.6605 74.4793C82.0158 74.3787 82.3919 74.3787 82.7471 74.4793L82.9618 74.5374C83.0214 74.0647 83.1217 73.5979 83.2613 73.1423C83.2841 73.0878 83.2958 73.0292 83.2958 72.9701C83.2958 72.911 83.2841 72.8525 83.2613 72.798L83.0422 72.8293C82.3559 72.9718 81.6433 72.9191 80.9853 72.6773C80.5944 72.5393 80.2461 72.302 79.9748 71.9886C79.9292 71.9274 79.875 71.8732 79.8138 71.8277C79.8113 71.8823 79.8204 71.9368 79.8404 71.9876C79.8605 72.0385 79.891 72.0845 79.93 72.1228C80.2779 72.534 80.7478 72.8238 81.2715 72.95L81.4951 73.0126V73.0663C81.4483 73.0914 81.3988 73.1109 81.3475 73.1244C80.9176 73.2239 80.4696 73.2146 80.0441 73.0975C79.6186 72.9804 79.229 72.7591 78.9105 72.4537C78.5938 72.1767 78.3129 71.8612 78.0743 71.5146C78.0424 71.4547 77.9947 71.4047 77.9364 71.37C77.8781 71.3353 77.8113 71.3173 77.7434 71.3179C77.6227 71.3179 77.5959 71.2463 77.6003 71.139C77.6093 71.02 77.6093 70.9004 77.6003 70.7813C77.5924 70.6338 77.5416 70.4918 77.4543 70.3727C77.3669 70.2536 77.2467 70.1625 77.1085 70.1106C76.952 70.0524 76.9341 70.0211 76.9788 69.8602C77.0235 69.6992 77.0816 69.5293 77.1398 69.3683C77.1979 69.2073 77.1934 69.1134 77.0369 69.0061C76.9547 68.9549 76.8679 68.9115 76.7776 68.8764C76.63 68.8093 76.6121 68.7691 76.6971 68.6394C76.782 68.5097 76.9609 68.2593 77.0995 68.0715C77.2382 67.8837 77.2203 67.8748 77.0995 67.7272C77.0369 67.6646 76.9654 67.611 76.8983 67.5484C76.7373 67.4008 76.7418 67.3695 76.8983 67.2175C77.0548 67.0654 77.2337 66.9402 77.3902 66.7703C77.5467 66.6004 77.5601 66.5512 77.4349 66.3679C77.2516 66.0951 77.256 66.0459 77.5556 65.9207C77.9387 65.7418 78.2708 65.4697 78.5215 65.1292C78.5919 65.0513 78.6576 64.9691 78.7182 64.8833C78.8121 64.7581 78.8077 64.7044 78.678 64.6061C78.5483 64.5077 78.517 64.4987 78.4365 64.4451C78.3995 64.4251 78.3718 64.3915 78.3593 64.3514C78.3468 64.3113 78.3504 64.2679 78.3694 64.2304C78.4142 64.0963 78.441 63.9487 78.4857 63.7833C78.6259 63.7822 78.7646 63.8111 78.8926 63.8682C78.9865 63.8951 79.0715 63.9398 79.1654 63.9756C79.1852 63.9865 79.2073 63.9928 79.2299 63.9938C79.2526 63.9949 79.2751 63.9907 79.2959 63.9816C79.3166 63.9725 79.335 63.9588 79.3496 63.9414C79.3642 63.9241 79.3746 63.9037 79.38 63.8817C79.3925 63.8465 79.403 63.8107 79.4113 63.7743C79.4605 63.5597 79.4113 63.5016 79.1967 63.4926C79.0835 63.4859 78.97 63.4859 78.8569 63.4926C78.7856 63.4994 78.7141 63.4819 78.654 63.4429C78.594 63.404 78.5488 63.3458 78.526 63.278C78.4538 63.1631 78.418 63.0291 78.4231 62.8934C78.5125 62.9739 78.5751 63.0231 78.6288 63.0768C78.6987 63.1503 78.7849 63.2064 78.8804 63.2406C78.9759 63.2748 79.0781 63.286 79.1788 63.2735C79.3577 63.2735 79.4203 63.1752 79.3845 63.0008C79.3534 62.8377 79.2776 62.6865 79.1654 62.5641C79.0533 62.4417 78.9093 62.3529 78.7495 62.3077C78.598 62.2494 78.4349 62.2276 78.2733 62.2439C78.1118 62.2602 77.9563 62.3142 77.8194 62.4016C77.7864 62.4169 77.752 62.4289 77.7166 62.4373C77.7166 62.406 77.6853 62.3837 77.6898 62.3658C77.7198 61.9751 77.8294 61.5947 78.0117 61.2479C78.0848 61.0825 78.2171 60.9505 78.3825 60.8777C78.548 60.8049 78.7348 60.7966 78.906 60.8544C79.2737 60.9465 79.624 61.0975 79.9434 61.3016C80.4739 61.5961 80.9742 61.9421 81.437 62.3345C81.6516 62.5134 81.8841 62.6743 82.1032 62.8308C82.2589 62.9437 82.4359 63.0237 82.6235 63.066C82.811 63.1082 83.0053 63.1119 83.1943 63.0768C83.2479 63.0722 83.3017 63.0722 83.3553 63.0768C83.3233 63.2816 83.247 63.4769 83.1317 63.6491C83.0718 63.7056 82.9946 63.7402 82.9126 63.7475C82.7427 63.7475 82.5727 63.7743 82.3983 63.7922C82.3357 63.7922 82.2597 63.7922 82.2284 63.8772C82.3089 63.9577 82.4073 63.9219 82.5012 63.9219C82.7426 63.9219 82.7829 63.9443 82.8544 64.1723C82.9597 64.4964 82.9597 64.8454 82.8544 65.1695C82.7874 65.3707 82.7024 65.563 82.6219 65.7553C82.4585 66.1019 82.3557 66.4739 82.3179 66.8553C82.3 66.9672 82.2746 67.0777 82.2418 67.1862C82.3313 67.0967 82.4028 67.0386 82.4609 66.9671C83.0181 66.2926 83.3909 65.4854 83.5431 64.6239C83.7421 63.5129 83.5359 62.3673 82.9618 61.3955C82.6925 60.8929 82.2414 60.5122 81.7008 60.3312C81.5561 60.286 81.4026 60.2768 81.2536 60.3044C80.9916 60.3646 80.7192 60.363 80.458 60.2996C80.1968 60.2362 79.9539 60.1128 79.7486 59.9392C79.5434 59.7656 79.3814 59.5466 79.2755 59.2995C79.1696 59.0525 79.1227 58.7841 79.1386 58.5158C79.1402 58.2067 79.2099 57.9018 79.3429 57.6228C79.4758 57.3438 79.6687 57.0975 79.9077 56.9015C79.9609 56.8617 80.0045 56.8106 80.0354 56.7518C80.0664 56.693 80.0838 56.6281 80.0865 56.5617C80.2052 55.4868 80.1781 54.4008 80.0061 53.3332C79.7732 51.8813 79.1848 50.5096 78.2934 49.3401C77.2985 48.0848 76.0527 47.0507 74.6357 46.3039C74.2332 46.0803 73.8174 45.8925 73.4105 45.6868L73.2227 45.575C73.2874 45.5364 73.3546 45.5021 73.4239 45.4722C73.9435 45.271 74.5015 45.1887 75.0571 45.2313C75.6126 45.2738 76.1516 45.4402 76.6345 45.7181L77.3455 46.1027C77.4707 46.2189 77.5959 46.3397 77.7255 46.4515C78.244 46.8834 78.7228 47.3608 79.1564 47.8779C80.5888 49.5552 81.4845 51.6239 81.7276 53.8161C81.82 54.6594 81.8454 55.5087 81.8036 56.356C81.8036 56.4141 81.7678 56.4901 81.8662 56.5393C81.9055 56.5069 81.9377 56.4668 81.9607 56.4214C81.9838 56.376 81.9973 56.3263 82.0004 56.2755C82.0272 55.9536 82.0585 55.6316 82.0719 55.3097C82.145 53.7454 81.859 52.1852 81.2357 50.7486C80.4706 49.0204 79.2817 47.5131 77.7792 46.3665C77.637 46.2687 77.4875 46.182 77.332 46.1071ZM83.9947 63.5463H84.0305C84.035 63.4987 84.035 63.4508 84.0305 63.4032C83.9858 63.1349 83.941 62.8711 83.8784 62.6073C83.7405 62.0218 83.4788 61.4726 83.1109 60.9967C82.743 60.5208 82.2774 60.1292 81.7455 59.8483C81.6858 59.812 81.6192 59.7885 81.5499 59.7793C81.4806 59.77 81.4102 59.7753 81.3431 59.7946C81.0774 59.8708 80.7955 59.8691 80.5308 59.7899C80.2661 59.7106 80.0296 59.5571 79.8495 59.3475C79.6588 59.1397 79.5384 58.877 79.5055 58.5968C79.4725 58.3167 79.5288 58.0333 79.6662 57.7869C79.7467 57.6528 79.8406 57.5231 79.9211 57.3889C79.9436 57.3342 79.9601 57.2773 79.9703 57.219C79.9174 57.2364 79.8676 57.2621 79.8227 57.295C79.7185 57.4127 79.6257 57.54 79.5455 57.6751C79.4015 57.9858 79.3474 58.3305 79.3892 58.6704C79.4311 59.0102 79.5674 59.3315 79.7825 59.5979C79.92 59.7887 80.1216 59.9236 80.3503 59.978C80.6799 60.0537 81.0224 60.0537 81.352 59.978C81.4408 59.9421 81.5381 59.9331 81.632 59.9522C81.7258 59.9712 81.812 60.0176 81.8796 60.0853L81.9914 60.1613C82.8441 60.7362 83.4677 61.5925 83.7532 62.5804C83.8427 62.9024 83.9142 63.2243 83.9947 63.5418V63.5463ZM84.0349 63.9935H83.9679V64.2573H84.0305L84.0349 63.9935ZM82.7516 74.7252V74.676H82.5414V74.7118L82.7516 74.7252Z" fill="white"/>
<path d="M93.1623 84.108C93.1772 84.1638 93.1739 84.2229 93.153 84.2767C93.1321 84.3306 93.0947 84.3764 93.0461 84.4076C92.8404 84.6178 92.6347 84.8279 92.4111 85.0157C91.6837 85.6421 90.8853 86.1808 90.0322 86.621C88.7724 87.2672 87.3634 87.5666 85.9497 87.4885C85.5741 87.4885 85.1985 87.4528 84.8318 87.3991C84.4088 87.338 83.9894 87.2545 83.5753 87.1487C82.8919 86.9794 82.2313 86.7287 81.6078 86.4019C80.6727 85.9178 79.7758 85.3632 78.9248 84.743C78.2943 84.2603 77.6119 83.8493 76.8903 83.5178C76.2111 83.2018 75.4443 83.1276 74.7171 83.3076C74.6646 83.3298 74.6151 83.3584 74.5695 83.3926C74.6724 83.4507 74.7439 83.4999 74.8199 83.5401C75.446 83.88 76.0809 84.1974 76.6935 84.5552C77.1049 84.7966 77.494 85.0828 77.883 85.3645C78.6476 85.9279 79.4122 86.4958 80.1635 87.0771C80.548 87.3767 80.8968 87.721 81.2635 88.043L81.3395 88.1235C81.581 88.3828 81.5944 88.4454 81.3663 88.7093C81.1453 88.9645 80.9078 89.205 80.6554 89.4292C80.4228 89.6349 80.3066 89.6215 80.0606 89.4292C79.9458 89.3441 79.8368 89.2515 79.7342 89.152C79.2557 88.7048 78.7728 88.2308 78.3033 87.7523C77.5665 87.0156 76.779 86.3313 75.9468 85.7044C75.4996 85.3466 75.0078 84.9844 74.5248 84.6446C74.1219 84.3469 73.667 84.127 73.1834 83.9962C73.0015 83.9553 72.8151 83.9388 72.6289 83.947C72.5337 83.9616 72.4433 83.9984 72.365 84.0544C72.1146 84.1974 71.8687 84.3361 71.6273 84.5015C71.3858 84.667 71.0951 84.8324 70.8403 85.0157C70.3037 85.3958 69.7492 85.7625 69.2484 86.1873C68.113 87.1207 67.0571 88.1467 66.0914 89.2548C65.9886 89.3755 65.8857 89.4918 65.7739 89.6036C65.6622 89.7154 65.5682 89.7422 65.4296 89.6528C65.0384 89.3955 64.677 89.0955 64.352 88.7585C64.2313 88.6377 64.2313 88.5617 64.352 88.4276C64.4727 88.2934 64.7187 88.0296 64.9199 87.8463C66.0424 86.8149 67.2379 85.8659 68.4971 85.0068C69.2367 84.5249 70.0025 84.0845 70.791 83.6877C70.933 83.6174 71.0704 83.5383 71.2024 83.4507C71.3008 83.3836 71.2919 83.2987 71.2024 83.2539C71.1355 83.221 71.0623 83.2027 70.9878 83.2003C70.7262 83.1971 70.4648 83.212 70.2053 83.245C69.1849 83.437 68.2207 83.8557 67.3837 84.4702C66.4894 85.0694 65.5951 85.6552 64.7008 86.2231C64.0241 86.6408 63.3026 86.9813 62.5499 87.2381C62.1727 87.3608 61.7871 87.4564 61.3963 87.5243C61.0654 87.5958 60.73 87.6271 60.3991 87.6987C60.0683 87.7672 59.7286 87.7823 59.393 87.7434C58.7062 87.6927 58.0244 87.588 57.354 87.4304C56.8765 87.3004 56.4136 87.1221 55.9723 86.8983C55.3311 86.5946 54.7203 86.2308 54.1479 85.8117C53.6701 85.4612 53.2322 85.0593 52.8421 84.6133C52.8158 84.5712 52.799 84.5239 52.793 84.4747C52.8422 84.4747 52.9048 84.43 52.9495 84.4434C53.077 84.4878 53.201 84.5416 53.3206 84.6044C53.8797 84.8935 54.4691 85.1199 55.0779 85.2796C56.0855 85.5524 57.137 85.6238 58.1723 85.4897C58.7299 85.4165 59.2824 85.309 59.8268 85.1678C60.439 84.9967 61.037 84.7785 61.6154 84.5149C62.1654 84.269 62.7288 84.0409 63.2878 83.8129C63.6276 83.6743 63.9674 83.5357 64.3117 83.4104C64.9109 83.2003 65.5146 82.9991 66.1004 82.8023C66.4044 82.7039 66.7175 82.6279 67.0305 82.5474C67.5725 82.4276 68.1254 82.3632 68.6805 82.3552C69.3288 82.3328 69.9817 82.3328 70.6345 82.3552C71.1377 82.3518 71.6384 82.4257 72.1191 82.5743C72.1692 82.588 72.2184 82.6044 72.2667 82.6234C72.4502 82.7109 72.6499 82.7592 72.8532 82.7654C73.0564 82.7716 73.2587 82.7354 73.4472 82.6592C73.9951 82.4793 74.5625 82.3652 75.1374 82.3194C75.6293 82.2747 76.1212 82.2165 76.6175 82.221C77.1858 82.2277 77.7532 82.268 78.3167 82.3417C78.7319 82.403 79.1426 82.4911 79.5464 82.6056C79.922 82.7039 80.2976 82.8068 80.6643 82.932C81.1517 83.1019 81.6346 83.2942 82.1131 83.4865C82.5915 83.6787 83.0074 83.8576 83.4814 84.0544C83.9554 84.2511 84.3265 84.4344 84.7558 84.6088C85.2944 84.8117 85.8515 84.9615 86.4192 85.056C87.2242 85.1905 88.0403 85.2474 88.8562 85.2259C89.5096 85.2276 90.1615 85.1616 90.8013 85.0292C91.3029 84.9039 91.7878 84.7193 92.2457 84.4792L92.9924 84.117C93.0487 84.1091 93.1055 84.1061 93.1623 84.108Z" fill="white"/>
<path d="M92.3805 78.558C92.4398 78.5184 92.4965 78.4751 92.5504 78.4284C93.4938 77.5815 94.5339 76.8491 95.6492 76.2462C96.5927 75.7231 97.563 75.2535 98.5155 74.7438C99.061 74.4531 99.62 74.167 100.134 73.8226C100.588 73.5055 101.019 73.1558 101.422 72.7763C101.89 72.3752 102.314 71.9255 102.687 71.4348C102.902 71.1352 103.076 70.8088 103.269 70.5003C103.313 70.4242 103.363 70.3572 103.416 70.2722C103.449 70.299 103.472 70.3359 103.482 70.3771C103.492 70.4184 103.487 70.4616 103.47 70.5003C102.935 72.9229 101.607 75.0976 99.696 76.68C98.8646 77.3811 97.9779 78.0136 97.0443 78.5715C96.594 78.8403 96.1157 79.0592 95.6179 79.2243C95.1797 79.3734 94.7325 79.512 94.2764 79.6402C93.6743 79.794 93.0636 79.9119 92.4476 79.9934C91.902 80.0828 91.3609 80.1946 90.8154 80.3019C90.6385 80.3326 90.4638 80.3744 90.2922 80.4272C90.0284 80.5032 89.7646 80.5926 89.5008 80.6731C89.3564 80.7257 89.198 80.7257 89.0536 80.6731C89.0223 80.5568 89.1073 80.5032 89.1609 80.4406C89.4695 80.0918 89.7869 79.7519 90.0776 79.3897C90.4758 78.8719 90.812 78.3091 91.0792 77.7129C91.276 77.2971 91.4638 76.8722 91.6337 76.4385C91.8036 76.0048 91.9333 75.5442 92.0809 75.1239C92.3536 74.3503 92.6264 73.5722 92.9171 72.7986C93.0691 72.3694 93.2437 71.9485 93.4402 71.5377C93.9185 70.5604 94.4906 69.6319 95.1484 68.7653C95.3317 68.5194 95.5016 68.2645 95.6805 68.0141C95.7431 67.9204 95.8133 67.8322 95.8906 67.7502C95.9147 67.7246 95.9438 67.7042 95.9762 67.6904C96.0085 67.6765 96.0433 67.6695 96.0785 67.6697C96.1768 67.6697 96.1589 67.7994 96.15 67.8799C96.1445 67.9319 96.1324 67.983 96.1142 68.0319C95.8463 68.7556 95.653 69.5048 95.5374 70.2677C95.3645 71.2634 95.1931 72.2606 95.0232 73.2592C94.7324 74.9517 93.9945 76.5357 92.8858 77.8471C92.7561 78.0036 92.6085 78.1422 92.4744 78.2942C92.4197 78.3613 92.369 78.4315 92.3223 78.5044L92.3805 78.558Z" fill="white"/>
<path d="M56.7457 80.8114C56.6589 80.8295 56.5705 80.8385 56.4819 80.8383C56.1197 80.7801 55.7575 80.7265 55.3997 80.6505C54.6753 80.5029 53.9554 80.3196 53.2221 80.2033C52.3681 80.0894 51.5226 79.9192 50.6912 79.6935C50.0382 79.4996 49.4038 79.2482 48.7952 78.9423C46.9106 77.9802 45.2803 76.5858 44.0375 74.8732C43.4693 74.0899 42.9993 73.2399 42.6379 72.3423C42.4591 71.9216 42.3286 71.4821 42.2488 71.0321C42.2396 70.961 42.2537 70.8888 42.2891 70.8264C42.327 70.8634 42.3614 70.9038 42.3919 70.9471C42.5976 71.2601 42.7899 71.5821 43.009 71.8862C43.618 72.7176 44.3761 73.4288 45.2448 73.9833C46.1298 74.5597 47.0548 75.0722 48.0127 75.5171C48.594 75.7943 49.1798 76.0626 49.7432 76.3667C50.1904 76.5992 50.5704 76.8809 50.9774 77.1447C51.3843 77.4086 51.7286 77.6411 52.0952 77.896C52.4619 78.1508 52.9091 78.4907 53.316 78.7903C53.392 78.8439 53.4814 78.8887 53.5843 78.9513C53.585 78.9123 53.5764 78.8738 53.5593 78.8388C53.5422 78.8038 53.5171 78.7734 53.4859 78.75C53.3482 78.6051 53.1987 78.472 53.0387 78.3521C52.5873 78.0122 52.2125 77.581 51.9387 77.0866C51.7302 76.7425 51.5406 76.3872 51.3709 76.0224C51.1994 75.6149 51.0501 75.1984 50.9237 74.7748C50.8074 74.4081 50.718 74.0281 50.633 73.648C50.5704 73.3707 50.5302 73.089 50.4855 72.8073C50.4184 72.3602 50.3647 71.913 50.2887 71.4971C50.1904 70.9516 50.092 70.4061 49.9623 69.865C49.8639 69.4447 49.7164 69.0333 49.5956 68.6174C49.5577 68.4873 49.5308 68.3542 49.5152 68.2195C49.5152 68.1748 49.5509 68.1166 49.5688 68.0674C49.6269 68.0674 49.6851 68.1077 49.7432 68.1345C49.7432 68.1345 49.8013 68.1614 49.7432 68.1345C50.2127 68.7695 50.6912 69.4089 51.1607 70.0484C51.6351 70.7232 52.0411 71.4437 52.3725 72.1992C52.7615 73.0496 53.1019 73.9215 53.392 74.8106C53.6201 75.4947 53.8392 76.1789 54.1164 76.8407C54.3891 77.4649 54.6982 78.0726 55.042 78.6606C55.3276 79.1232 55.6366 79.5709 55.9676 80.0021C56.1433 80.2567 56.3646 80.4766 56.6205 80.6505C56.6698 80.6978 56.712 80.752 56.7457 80.8114Z" fill="white"/>
<path d="M98.3671 71.5731C98.4968 71.4032 98.6399 71.2422 98.7606 71.0634C99.1497 70.5044 99.5118 69.9231 99.9232 69.382C100.335 68.841 100.692 68.4475 101.104 67.9959C101.85 67.1686 102.615 66.3548 103.375 65.5365C103.819 65.0679 104.215 64.5556 104.556 64.0072C104.764 63.6356 104.944 63.2484 105.092 62.8491C105.248 62.4905 105.34 62.1078 105.365 61.7178C105.364 61.6725 105.375 61.6278 105.396 61.5881C105.43 61.5438 105.477 61.511 105.531 61.4942C105.531 61.4942 105.611 61.5568 105.616 61.6015C105.665 61.8808 105.695 62.1632 105.705 62.4466C105.69 63.2192 105.603 63.9886 105.446 64.745C105.163 66.1993 104.563 67.5734 103.688 68.7694C103.036 69.6674 102.286 70.4907 101.452 71.2243C100.944 71.6785 100.402 72.0926 99.8293 72.463C98.9752 73.0219 98.1435 73.6077 97.2939 74.1666C96.7171 74.5467 96.1269 74.9 95.5411 75.2666C95.4771 75.3012 95.4115 75.3326 95.3443 75.3605C95.3331 75.2969 95.3331 75.2319 95.3443 75.1683C95.4128 75.0016 95.4904 74.8389 95.5769 74.6809C95.7779 74.3138 95.9283 73.9212 96.024 73.5138C96.1448 73.0666 96.261 72.6195 96.3549 72.1723C96.4667 71.6223 96.5606 71.0678 96.65 70.5134C96.8065 69.5654 96.7931 68.5995 96.896 67.6471C96.9541 67.1552 96.9944 66.6633 97.0525 66.1715C97.1196 65.5902 97.2045 65.0133 97.2716 64.432C97.3333 63.9408 97.438 63.4561 97.5846 62.9832C97.6919 62.6166 97.7724 62.2454 97.8797 61.8787C97.9647 61.597 98.072 61.3287 98.1749 61.056C98.2077 60.9899 98.2466 60.927 98.2911 60.8682C98.4074 60.9218 98.394 61.0113 98.3984 61.0873C98.3984 61.4003 98.4208 61.7178 98.4476 62.0308C98.4834 62.4779 98.5147 62.9251 98.5862 63.3722C98.7383 64.3023 98.9216 65.2279 99.0781 66.158C99.2734 67.1932 99.2643 68.2565 99.0513 69.2881C98.9585 69.8039 98.8178 70.3099 98.6309 70.7995C98.5326 71.0321 98.4208 71.2467 98.3179 71.4926L98.2911 71.5731H98.3671Z" fill="white"/>
<path d="M40.1977 62.0256C40.2424 62.1821 40.2872 62.3028 40.3095 62.4236C40.488 63.3152 40.8639 64.1555 41.4095 64.8829C41.5169 65.0439 41.6108 65.2138 41.7315 65.3659C41.8522 65.5179 42.0356 65.7415 42.1786 65.9159C43.1579 66.9577 44.1506 67.9907 45.1209 69.046C45.8144 69.7935 46.4274 70.6118 46.9498 71.4874C47.0487 71.6424 47.1562 71.7917 47.2718 71.9346C47.2718 71.9659 47.3388 71.9793 47.3701 72.0017C47.4372 71.9122 47.3701 71.8631 47.3478 71.8049C47.1958 71.5143 47.0348 71.2236 46.9006 70.9106C46.6967 70.4269 46.5815 69.9104 46.5608 69.3858C46.4825 68.2782 46.4825 67.1665 46.5608 66.059C46.5819 65.789 46.6253 65.5213 46.6905 65.2585C46.9625 64.1442 47.1523 63.0113 47.2583 61.8691C47.2896 61.8154 47.3075 61.7305 47.3522 61.7126C47.397 61.6947 47.4864 61.7618 47.5132 61.8333C47.6121 62.035 47.6943 62.2443 47.7592 62.4593C47.9246 63.1167 48.0945 63.7785 48.2063 64.4492C48.3181 65.1199 48.4165 65.7638 48.5059 66.4256C48.5775 66.9309 48.6356 67.4362 48.6893 67.9415C48.7519 68.5541 48.7966 69.1667 48.8592 69.7793C48.9218 70.3919 48.9933 70.8972 49.0693 71.4517C49.1141 71.787 49.1722 72.1179 49.2348 72.4488C49.3555 73.205 49.5844 73.94 49.9145 74.631C50.0665 74.9306 50.1962 75.2391 50.3348 75.5476C50.3348 75.5476 50.3348 75.5745 50.3348 75.5879C50.3348 75.6013 50.3348 75.7176 50.3348 75.7802C50.2784 75.7873 50.2213 75.7873 50.1649 75.7802C50.062 75.7265 49.9592 75.6549 49.8608 75.5923C49.3779 75.2749 48.9128 74.9306 48.4165 74.6399C47.4283 74.0675 46.5205 73.3744 45.586 72.7305C45.3624 72.5785 45.1388 72.4265 44.9242 72.2834C43.6934 71.397 42.6202 70.3102 41.7494 69.0683C41.3257 68.431 40.9647 67.7541 40.6717 67.0472C40.2849 66.0944 40.0743 65.0793 40.0502 64.0512C40.0502 63.5146 40.0189 62.9736 40.0099 62.4325C39.991 62.3534 39.9993 62.2703 40.0333 62.1965C40.0674 62.1227 40.1253 62.0625 40.1977 62.0256Z" fill="white"/>
<path d="M91.6553 74.5667C91.6106 74.6517 91.5749 74.7366 91.5257 74.8171C91.311 75.1972 91.0785 75.5639 90.8818 75.9529C90.6492 76.4001 90.4346 76.8875 90.2379 77.3614C89.9086 78.0847 89.5086 78.7737 89.0439 79.4184C88.9679 79.5302 88.8785 79.633 88.8069 79.7448C88.4661 80.2505 88.0052 80.6637 87.4655 80.9476C86.9624 81.2621 86.4254 81.5187 85.8646 81.7123C85.8646 81.7123 85.8199 81.7436 85.7886 81.7615C85.8468 81.8643 85.9362 81.842 86.0077 81.833C86.2403 81.833 86.4549 81.7928 86.7008 81.7659C87.8098 81.6318 88.9366 81.4887 90.0232 81.359C90.8728 81.2562 91.7269 81.1846 92.572 81.0818C93.4831 80.9976 94.3825 80.8162 95.255 80.5407C96.2679 80.2211 97.1884 79.6611 97.9379 78.9086C98.0646 78.7813 98.199 78.6618 98.3404 78.5509C98.3973 78.5109 98.4571 78.475 98.5192 78.4436L98.5684 78.4749C98.5515 78.5422 98.529 78.608 98.5013 78.6716C98.0985 79.4435 97.578 80.1479 96.9586 80.7598C96.3031 81.4193 95.5704 81.9974 94.7765 82.4814C94.209 82.8239 93.6101 83.1114 92.9879 83.3399C92.4587 83.548 91.9084 83.698 91.3468 83.7871C90.7316 83.8854 90.1096 83.9348 89.4866 83.9347C88.7369 83.9289 87.989 83.8601 87.2508 83.729C86.2939 83.5546 85.3415 83.3668 84.3846 83.17C83.8524 83.0582 83.3248 82.9151 82.7927 82.7855C82.1847 82.6233 81.5638 82.5141 80.937 82.459C80.8393 82.4535 80.7429 82.4339 80.6508 82.4009C80.6292 82.3892 80.6107 82.3726 80.5967 82.3524C80.5827 82.3322 80.5737 82.309 80.5703 82.2846C80.5703 82.2489 80.6284 82.1952 80.6687 82.1863C80.7972 82.1469 80.9288 82.1184 81.0622 82.1013C81.5298 82.0317 81.9886 81.9118 82.4305 81.7436C83.0838 81.5015 83.7042 81.1785 84.2772 80.7822C85.1521 80.1759 85.968 79.4887 86.7143 78.7297C87.6086 77.8623 88.5029 77.0082 89.424 76.1988C89.8712 75.8143 90.3183 75.4208 90.7655 75.0496C90.9901 74.8741 91.2245 74.7113 91.4675 74.5622C91.5228 74.5341 91.5814 74.513 91.6419 74.4996L91.6553 74.5667Z" fill="white"/>
<path d="M60.0189 82.0354C60.0112 81.9821 59.9858 81.9329 59.9469 81.8957C59.908 81.8584 59.8578 81.8352 59.8042 81.8298C58.4119 81.4555 57.2231 80.5478 56.4953 79.3033C55.905 78.3553 55.4221 77.3448 54.89 76.3655C54.6798 75.9809 54.4428 75.6053 54.2147 75.2252L54.0582 74.9525C54.018 74.8854 53.9778 74.8049 54.0582 74.7557C54.0868 74.7419 54.1182 74.7347 54.1499 74.7347C54.1817 74.7347 54.213 74.7419 54.2416 74.7557C54.4651 74.8915 54.6802 75.0408 54.8855 75.2029C55.6009 75.8021 56.3253 76.3968 57.0184 77.0273C58.038 77.9574 59.0306 78.9143 60.0367 79.8578C60.4715 80.3028 60.9686 80.6824 61.5123 80.9846C61.9148 81.1859 62.3262 81.3647 62.742 81.5346C63.1579 81.7046 63.5067 81.8342 63.8957 81.9818C64.2847 82.1294 64.6559 82.2098 65.036 82.3216C65.0867 82.3422 65.136 82.3661 65.1835 82.3932C65.1006 82.4309 65.0155 82.4638 64.9286 82.4915C64.6514 82.5542 64.3697 82.6078 64.0925 82.6749L62.1518 83.1489L60.3408 83.596C60.2916 83.596 60.238 83.6184 60.1888 83.6363C59.3344 83.8677 58.46 84.0174 57.5774 84.0834C57.3538 84.1058 57.1302 84.1147 56.9066 84.1281C56.098 84.1826 55.2859 84.1541 54.483 84.0432C53.7386 83.9484 53.0113 83.7482 52.3233 83.4485C51.1135 82.9192 50.0057 82.1822 49.0501 81.2708C48.4154 80.665 47.8486 79.9917 47.3598 79.2631C47.2972 79.1736 47.1899 79.0887 47.2391 78.9366C47.3598 78.9366 47.4358 78.9948 47.5163 79.0574C47.7265 79.2139 47.9322 79.3749 48.1334 79.5448C48.7 80.0011 49.3335 80.3676 50.0115 80.6314C50.76 80.9395 51.5466 81.1456 52.3501 81.244C53.1684 81.3424 53.9867 81.4094 54.8095 81.4944L56.6652 81.6733C57.251 81.7314 57.8412 81.7895 58.4314 81.8566C58.8071 81.8968 59.1871 81.9594 59.5672 82.0086C59.7014 82.0131 59.8489 82.022 60.0189 82.0354Z" fill="white"/>
<path d="M40.8036 52.643C40.8036 52.7593 40.8438 52.8576 40.8528 52.9605C40.8975 53.4568 40.9243 53.9621 40.9869 54.4585C41.0555 55.0546 41.2059 55.6384 41.4341 56.1934C41.5727 56.5243 41.68 56.8686 41.8142 57.1995C41.9483 57.5304 42.1451 57.8926 42.2613 58.2504C42.4983 58.939 42.8829 59.565 43.1556 60.2447C43.3976 60.8987 43.5845 61.5718 43.7146 62.2569C43.7995 62.704 43.88 63.1512 43.9694 63.6252C43.9827 63.6716 44.0007 63.7166 44.0231 63.7593C44.1438 63.737 44.1438 63.652 44.1483 63.5805C44.1528 63.5089 44.1483 63.339 44.1483 63.2227C44.0961 62.5559 44.1201 61.8853 44.2199 61.224C44.2932 60.8497 44.3964 60.4818 44.5284 60.124C44.8414 59.3504 45.1857 58.5813 45.5256 57.8166C45.8237 57.1518 46.1352 56.4871 46.4601 55.8223C46.752 55.2027 47.0883 54.6049 47.4662 54.0337C47.5101 53.9671 47.5595 53.9042 47.6138 53.8459C47.6549 53.8651 47.6883 53.8976 47.7086 53.9382C47.7289 53.9788 47.7349 54.025 47.7256 54.0694C47.7256 54.369 47.7479 54.6686 47.7256 54.9638C47.7241 55.2267 47.7091 55.4893 47.6809 55.7507C47.6227 56.1979 47.5512 56.6451 47.4886 57.0922C47.4349 57.4678 47.3768 57.8479 47.3365 58.228C47.2667 58.7325 47.156 59.2305 47.0057 59.717C46.9028 60.1016 46.7955 60.4817 46.6882 60.8662C46.5406 61.3894 46.3975 61.9171 46.241 62.4447C46.1203 62.8606 45.9638 63.2675 45.852 63.6833C45.6944 64.2857 45.6029 64.9034 45.5792 65.5256C45.5792 66.1651 45.5524 66.8 45.5345 67.4394C45.5285 67.5818 45.5135 67.7237 45.4898 67.8642C45.4735 67.9375 45.451 68.0093 45.4227 68.0789C45.2841 68.0789 45.2394 68.0163 45.1947 67.9358C44.8651 67.3639 44.4897 66.8195 44.0723 66.3081C43.9337 66.1337 43.7951 65.9549 43.6251 65.7939C42.7115 64.8196 41.957 63.7074 41.3894 62.4984C41.0738 61.8276 40.8049 61.1358 40.5845 60.428C40.2742 59.3708 40.0999 58.2784 40.0658 57.1772C40.0215 56.1565 40.1101 55.1343 40.3296 54.1365C40.4101 53.7207 40.5129 53.3048 40.6113 52.8889C40.6099 52.832 40.6284 52.7764 40.6634 52.7316C40.6985 52.6867 40.748 52.6554 40.8036 52.643Z" fill="white"/>
<path d="M104.809 52.06C104.912 52.3641 105.015 52.6279 105.096 52.8962C105.506 54.3657 105.638 55.8989 105.485 57.4169C105.413 58.419 105.231 59.4101 104.944 60.3727C104.772 60.9465 104.558 61.507 104.304 62.0495C104.092 62.4626 103.843 62.8562 103.562 63.2255C102.538 64.6341 101.505 66.0337 100.476 67.4333C100.418 67.5093 100.365 67.6434 100.235 67.5942C100.105 67.5451 100.146 67.4154 100.146 67.3125C100.146 66.8877 100.146 66.4585 100.172 66.0337C100.212 65.2535 100.129 64.4719 99.9265 63.7174C99.7744 63.2076 99.6045 62.7068 99.448 62.1971C99.2915 61.6873 99.1663 61.2357 99.0322 60.7527C98.9248 60.3771 98.822 60.0015 98.7281 59.6259C98.6118 59.1787 98.5001 58.7316 98.3972 58.2844C98.2944 57.8373 98.187 57.3499 98.1065 56.8759C97.9233 56.0259 97.82 55.1606 97.798 54.2913C97.7913 54.202 97.7913 54.1123 97.798 54.023C97.8038 53.9544 97.8254 53.888 97.8611 53.829C97.8967 53.7701 97.9456 53.7201 98.0037 53.6832C98.0451 53.7303 98.0797 53.783 98.1065 53.8397C98.2506 54.2804 98.441 54.7046 98.6744 55.1051C98.983 55.6909 99.3049 56.2633 99.6313 56.8356C99.7878 57.1084 99.9712 57.3678 100.15 57.6226C100.379 57.9658 100.572 58.3313 100.727 58.7137C100.861 59.0312 100.991 59.3531 101.134 59.6617C101.373 60.1736 101.503 60.7291 101.518 61.2938C101.518 61.6739 101.559 62.054 101.585 62.4385C101.581 62.4952 101.589 62.5522 101.607 62.606C101.625 62.6598 101.655 62.7093 101.693 62.7515C101.721 62.6954 101.745 62.6371 101.764 62.5771C101.84 62.2418 101.907 61.9064 101.988 61.571C102.133 60.9611 102.324 60.3631 102.56 59.7824C102.891 58.982 103.253 58.1905 103.571 57.3812C103.781 56.8535 103.955 56.3125 104.112 55.7669C104.441 54.6752 104.621 53.5442 104.648 52.4043C104.675 52.221 104.675 52.221 104.809 52.06Z" fill="white"/>
<path d="M101.888 59.1506C101.843 59.0807 101.802 59.0074 101.768 58.9315C101.647 58.6006 101.535 58.2697 101.415 57.9388C101.163 57.2566 100.842 56.6018 100.458 55.9847C99.9255 55.0904 99.3039 54.3079 98.7092 53.4806C98.2173 52.795 97.7389 52.1049 97.2738 51.4103C96.9812 50.9481 96.7413 50.4547 96.5584 49.9391C96.4063 49.5456 96.2588 49.1566 96.1112 48.7542C95.9636 48.3517 95.9145 47.9716 95.8161 47.5781C95.8113 47.5636 95.8113 47.5479 95.8161 47.5334C95.8161 47.4753 95.8161 47.3859 95.8653 47.3546C95.9145 47.3233 95.9994 47.3814 96.0486 47.4351C96.3437 47.7659 96.6165 48.1147 96.9429 48.4277C97.5287 49.018 98.1279 49.5904 98.7316 50.1627C99.2419 50.6254 99.7242 51.1182 100.176 51.6383C100.758 52.2986 101.171 53.0904 101.379 53.9457C101.389 53.9904 101.404 54.0339 101.423 54.0753C101.423 54.0753 101.455 54.1022 101.477 54.1201C101.589 54.0619 101.571 53.9591 101.575 53.8652C101.575 53.5209 101.575 53.1766 101.575 52.8322C101.575 51.7099 101.575 50.5965 101.62 49.4607C101.62 48.6066 101.692 47.7525 101.719 46.8985C101.741 46.4784 101.741 46.0575 101.719 45.6375C101.662 45.0113 101.479 44.403 101.182 43.8489C101.128 43.7415 101.07 43.6342 101.025 43.5269C100.981 43.4196 100.976 43.3793 101.057 43.3525C101.137 43.3257 101.173 43.3525 101.209 43.4062C101.374 43.5895 101.54 43.7728 101.696 43.9696C102.192 44.6278 102.616 45.3368 102.962 46.0846C103.325 46.8427 103.573 47.6504 103.699 48.4814C103.874 49.539 103.931 50.6128 103.869 51.683C103.84 52.3206 103.743 52.9532 103.579 53.5701C103.471 53.9591 103.31 54.3302 103.19 54.7192C103.069 55.1083 102.953 55.5062 102.85 55.9042C102.671 56.6018 102.51 57.3038 102.322 57.9969C102.228 58.3323 102.09 58.6587 101.969 58.9896C101.946 59.0449 101.919 59.0987 101.888 59.1506Z" fill="white"/>
<path d="M43.766 59.5027C43.7352 59.4312 43.7084 59.358 43.6855 59.2836C43.5648 58.8051 43.4619 58.3222 43.3323 57.8437C43.2026 57.3653 43.0685 56.9896 42.9209 56.5648C42.7376 56.0193 42.5408 55.4738 42.3485 54.9327L42.0623 54.1278C41.9183 53.69 41.8092 53.2414 41.7359 52.7864C41.5885 51.8444 41.5525 50.8884 41.6286 49.938C41.6639 49.2112 41.7687 48.4895 41.9416 47.7827C42.072 47.3376 42.252 46.9086 42.4782 46.5038C42.7957 45.9001 43.1221 45.3054 43.4709 44.7152C43.6331 44.4719 43.814 44.2417 44.0119 44.0265C44.0699 43.9736 44.1345 43.9285 44.2042 43.8924C44.2346 43.9364 44.2509 43.9887 44.2509 44.0422C44.2509 44.0957 44.2346 44.1479 44.2042 44.192C44.0335 44.5417 43.9016 44.9091 43.8107 45.2875C43.6338 46.04 43.5675 46.8143 43.614 47.5859C43.6542 48.2075 43.7302 48.8245 43.8063 49.4416C43.9663 50.5014 44.0485 51.5715 44.0522 52.6433C44.0522 53.2738 43.9762 53.8998 43.9359 54.5303C43.9137 54.7354 43.9137 54.9423 43.9359 55.1474C43.9942 55.0425 44.0407 54.9315 44.0745 54.8165C44.4577 53.2898 45.2527 51.8977 46.3729 50.792C46.9486 50.1986 47.5674 49.6486 48.2242 49.1465C48.3444 49.0449 48.4551 48.9327 48.5551 48.8111C48.7652 48.5697 48.9664 48.3148 49.1677 48.0644C49.1988 48.0229 49.2348 47.9854 49.275 47.9526C49.3287 47.9168 49.4091 47.8721 49.4449 47.89C49.4703 47.9094 49.4907 47.9345 49.5047 47.9632C49.5187 47.9919 49.5257 48.0235 49.5254 48.0554C49.4922 48.3456 49.4429 48.6337 49.3778 48.9184C49.1623 49.6044 48.9086 50.2776 48.6177 50.9351C48.2419 51.7842 47.7644 52.5845 47.1957 53.3185C46.829 53.8417 46.4937 54.3827 46.1449 54.9148C45.7961 55.447 45.3802 56.0461 45.018 56.623C44.5961 57.2788 44.2764 57.995 44.0701 58.747C44.0164 58.9482 43.9315 59.1405 43.8599 59.3372C43.8346 59.3956 43.8031 59.451 43.766 59.5027Z" fill="white"/>
<path d="M67.0132 75.4409C66.9059 75.4409 66.7941 75.4141 66.6867 75.3917C65.3154 75.0589 63.9981 74.5335 62.7741 73.8311C61.0064 72.8231 59.4565 71.4738 58.2145 69.8618C56.9725 68.2498 56.0631 66.4072 55.5391 64.4408C55.3781 63.8372 55.2842 63.2246 55.168 62.612C54.9938 61.4098 54.9519 60.1923 55.0428 58.981C55.0724 58.6918 55.1217 58.405 55.1903 58.1225C55.4787 56.2803 56.1 54.506 57.0237 52.8863C57.9556 51.2453 59.1855 49.7925 60.6501 48.6025C62.1602 47.3558 63.9017 46.4198 65.7746 45.848C66.3603 45.6692 66.9595 45.5395 67.5632 45.4009C67.7013 45.3847 67.8409 45.3847 67.979 45.4009C67.9164 45.45 67.8941 45.4769 67.8628 45.4858C66.9507 45.8319 66.062 46.2367 65.2022 46.6976C64.3324 47.1669 63.4971 47.6973 62.7026 48.285C61.9604 48.8332 61.2635 49.4403 60.6188 50.1005C59.6489 51.0926 58.8076 52.2028 58.1147 53.405C57.586 54.3056 57.1557 55.2606 56.8314 56.2534C56.4807 57.2753 56.2613 58.3376 56.1786 59.4148C56.1361 60.1863 56.1361 60.9595 56.1786 61.7311C56.2147 62.2622 56.291 62.7899 56.4066 63.3095C56.6159 64.3689 56.9491 65.4 57.3993 66.3815C58.4961 68.7615 60.1328 70.8529 62.1794 72.4897C62.8297 73.0079 63.5123 73.4844 64.2229 73.9161C65.0663 74.4142 65.9383 74.8621 66.8343 75.2576L67.0445 75.3649L67.0132 75.4409Z" fill="white"/>
<path d="M44.7242 51.7084C44.7066 51.6033 44.6947 51.4973 44.6884 51.3909C44.6884 50.9438 44.7197 50.4966 44.6884 50.0182C44.6392 49.1239 44.5543 48.2564 44.5051 47.371C44.4671 46.9082 44.4671 46.4431 44.5051 45.9803C44.5812 45.2879 44.6932 44.5998 44.8404 43.9189C45.0271 43.0951 45.4246 42.3339 45.9941 41.71C46.363 41.2971 46.7541 40.9045 47.1657 40.534C47.6019 40.157 48.0975 39.8548 48.6323 39.6396C48.7427 39.5957 48.8585 39.5671 48.9766 39.5547C49.0019 39.5527 49.0271 39.5575 49.0499 39.5685C49.0727 39.5795 49.0922 39.5963 49.1063 39.6173C49.1063 39.6486 49.084 39.7067 49.0661 39.7514C49.053 39.7696 49.0362 39.7848 49.0169 39.7962C48.5494 40.1743 48.1708 40.6506 47.9079 41.1913C47.6951 41.5837 47.5371 42.0035 47.4384 42.4389C47.2193 43.3332 47.0315 44.1872 46.8034 45.0592C46.6425 45.6807 46.4413 46.2934 46.2535 46.9104C46.173 47.1832 46.0791 47.4515 45.9986 47.7243C45.9836 47.7936 45.9732 47.8638 45.9673 47.9344C46.0209 47.9344 46.0522 47.9076 46.0567 47.8942C46.4829 47.082 47.0774 46.3701 47.8006 45.806C48.6323 45.1263 49.4864 44.4645 50.3226 43.8072C50.8397 43.4159 51.3094 42.9657 51.7222 42.4657C51.8295 42.3315 51.9189 42.184 52.0263 42.0454C52.0775 41.9726 52.1376 41.9066 52.2051 41.8486C52.3124 41.7681 52.4242 41.8128 52.4242 41.947C52.4233 42.0752 52.4068 42.2028 52.375 42.3271C52.0532 43.4632 51.5141 44.5262 50.7876 45.4572C49.8601 46.6078 48.7868 47.6329 47.5949 48.5068C46.7584 49.1547 46.0164 49.9163 45.3904 50.7694C45.2405 50.9941 45.1032 51.227 44.9791 51.467C44.9164 51.5743 44.8896 51.6727 44.7242 51.7084Z" fill="white"/>
<path d="M76.1886 70.4096C76.1019 70.3673 76.0122 70.3314 75.9203 70.3023C75.3345 70.1234 74.7398 69.9669 74.1585 69.7746C73.3028 69.492 72.4799 69.1187 71.7036 68.6612C71.6102 68.615 71.5297 68.5463 71.4696 68.4612C71.4095 68.376 71.3716 68.2773 71.3593 68.1738C71.3146 67.8295 71.243 67.4852 71.1715 67.0827C71.2362 67.1113 71.2989 67.1442 71.3593 67.1811C72.1494 67.8395 73.0285 68.3829 73.9707 68.7953C74.4517 69.0031 74.948 69.1735 75.4552 69.3051C75.5072 69.3114 75.5598 69.3114 75.6117 69.3051C75.6117 69.3051 75.652 69.3051 75.6833 69.2827C75.6386 69.1709 75.5313 69.1665 75.4463 69.1307C74.8784 68.8937 74.306 68.6835 73.7426 68.4242C72.8757 68.0464 72.0647 67.5514 71.3324 66.953C71.2757 66.9096 71.229 66.8543 71.1958 66.7909C71.1626 66.7276 71.1436 66.6578 71.1402 66.5864C71.1402 66.1973 71.0999 65.8083 71.082 65.4193C71.088 65.3809 71.0985 65.3434 71.1133 65.3075C71.1633 65.3434 71.2111 65.3822 71.2564 65.4238C72.3057 66.6278 73.6314 67.5592 75.1199 68.138C75.2464 68.1832 75.3765 68.2176 75.5089 68.2409C75.562 68.2515 75.6167 68.2515 75.6699 68.2409V68.1961C75.623 68.1678 75.5736 68.1439 75.5223 68.1246C73.8692 67.5301 72.3981 66.518 71.252 65.1868C71.195 65.1277 71.1509 65.0575 71.1225 64.9805C71.094 64.9035 71.0817 64.8215 71.0865 64.7396C71.1133 64.3953 71.1223 64.051 71.1446 63.7067C71.1446 63.6396 71.1446 63.5681 71.1849 63.4473C71.2564 63.5368 71.2922 63.577 71.3235 63.6262C72.1886 65.0065 73.4128 66.1255 74.865 66.8636C75.3807 67.1548 75.939 67.3631 76.5195 67.4807C76.7021 67.5313 76.8607 67.6455 76.9666 67.8026C77.0248 67.8742 77.0114 67.9368 76.9666 68.0218C76.8012 68.2498 76.6492 68.4689 76.5195 68.7327C76.4569 68.8311 76.4837 68.8624 76.591 68.9205C76.718 68.9818 76.8406 69.0521 76.9577 69.1307C77.0009 69.1607 77.0314 69.2058 77.0429 69.2571C77.0545 69.3085 77.0465 69.3623 77.0203 69.4079C76.9487 69.6047 76.8861 69.8059 76.828 70.0071C76.7699 70.2083 76.7967 70.1771 76.9353 70.2262C77.1079 70.2832 77.2568 70.3957 77.3587 70.5461C77.4606 70.6966 77.5099 70.8766 77.4987 71.058C77.4987 71.1921 77.4987 71.3218 77.4987 71.4649C77.4467 71.4704 77.3943 71.4704 77.3422 71.4649C76.48 71.4381 75.6221 71.3303 74.78 71.1429C73.8376 70.9174 72.9336 70.5543 72.0971 70.0653C71.9962 70.0122 71.9195 69.9226 71.8824 69.8149L71.5963 68.9653C71.5916 68.9192 71.5916 68.8727 71.5963 68.8266C71.6495 68.8386 71.7007 68.8582 71.7483 68.8848C73.0484 69.6987 74.4967 70.2473 76.0097 70.499H76.1886C76.2078 70.5026 76.2275 70.5026 76.2467 70.499L76.1886 70.4096Z" fill="white"/>
<path d="M55.4006 36.4236C55.3469 36.5154 55.2872 36.6036 55.2218 36.6874C54.9848 36.9557 54.7746 37.233 54.4974 37.4834C53.96 38.0485 53.4723 38.6589 53.0396 39.3078C52.5925 39.9606 52.1051 40.6135 51.6266 41.2529C51.2055 41.8095 50.7275 42.3205 50.2002 42.7777C49.4937 43.4037 48.7738 44.0164 48.0583 44.6334C47.9709 44.7153 47.8783 44.7915 47.7811 44.8615C47.7241 44.8847 47.6636 44.8983 47.6022 44.9017C47.5799 44.8418 47.5708 44.7777 47.5754 44.7139C47.6156 44.5485 47.6827 44.3875 47.7319 44.222C47.9331 43.5647 48.1343 42.9074 48.3221 42.2456C48.4276 41.8578 48.5824 41.4851 48.7827 41.1367C49.1454 40.4986 49.5725 39.8992 50.0571 39.348C50.7046 38.6242 51.4867 38.0334 52.36 37.6086L54.2738 36.6651C54.5722 36.5266 54.8907 36.4361 55.2173 36.3968C55.2793 36.398 55.3409 36.407 55.4006 36.4236Z" fill="white"/>
<path d="M59.7148 63.3532C59.7685 63.2817 59.7864 63.2325 59.8177 63.2146C59.8663 63.1944 59.9175 63.1809 59.9697 63.1743C60.1013 63.1554 60.2208 63.0871 60.3039 62.9833C60.3869 62.8795 60.4273 62.7479 60.4169 62.6154C60.4169 62.3382 60.4169 62.0609 60.4169 61.7837V59.5121C60.4169 59.4674 60.4169 59.4227 60.4169 59.378C60.4169 59.0024 60.3051 58.8861 59.9339 58.8324C59.9116 58.8324 59.8803 58.8324 59.8669 58.8324C59.8299 58.8045 59.8007 58.7675 59.7819 58.7251C59.7819 58.7251 59.8311 58.667 59.8669 58.6491C59.9038 58.6422 59.9417 58.6422 59.9787 58.6491C60.5153 58.6491 61.0563 58.6491 61.5974 58.6491C61.6598 58.6446 61.7218 58.6617 61.7731 58.6975C61.8244 58.7334 61.8618 58.7857 61.8791 58.8459C62.2144 59.6552 62.5632 60.4601 62.9076 61.265L63.0104 61.4796C63.0596 61.3857 63.0953 61.3321 63.1177 61.2739L64.0657 58.9174C64.0813 58.8924 64.0933 58.8653 64.1015 58.8369C64.1073 58.8055 64.1194 58.7755 64.1371 58.7489C64.1548 58.7222 64.1777 58.6995 64.2045 58.6819C64.2312 58.6644 64.2612 58.6524 64.2927 58.6468C64.3242 58.6411 64.3565 58.6419 64.3876 58.6491C64.562 58.6491 64.7319 58.6491 64.9063 58.6491H65.9393C65.9912 58.6424 66.0438 58.6424 66.0958 58.6491C66.1373 58.6714 66.175 58.7 66.2076 58.7341C66.1718 58.7654 66.145 58.819 66.1092 58.8324C66.0734 58.8459 65.9438 58.8324 65.8677 58.8772C65.7899 58.8932 65.7197 58.9351 65.6686 58.9959C65.6175 59.0568 65.5884 59.1331 65.586 59.2125C65.586 59.2662 65.586 59.3198 65.586 59.3735V62.678C65.586 63.0402 65.6933 63.1565 66.0332 63.2056C66.0613 63.201 66.09 63.201 66.1181 63.2056C66.1494 63.2056 66.1897 63.2593 66.1852 63.2772C66.179 63.2958 66.1691 63.3129 66.156 63.3276C66.1429 63.3422 66.127 63.3539 66.1092 63.3621C66.0649 63.3712 66.0193 63.3712 65.9751 63.3621H63.8511C63.775 63.3621 63.6453 63.4069 63.6409 63.2727C63.6364 63.1386 63.7661 63.1967 63.8376 63.1833C64.1283 63.1386 64.258 63.0044 64.258 62.7361C64.258 61.7613 64.258 60.7865 64.258 59.8117C64.258 59.7849 64.258 59.7536 64.258 59.6776C64.2088 59.7625 64.1775 59.8028 64.1551 59.852L62.8136 63.1609C62.8136 63.1922 62.7824 63.228 62.7689 63.2638C62.7555 63.2995 62.6884 63.3756 62.6035 63.3756C62.5663 63.3821 62.5281 63.3754 62.4954 63.3566C62.4627 63.3378 62.4377 63.3081 62.4246 63.2727C62.3352 63.0536 62.2323 62.8256 62.1384 62.6154C61.7494 61.7211 61.3559 60.782 60.9669 59.8698C60.9669 59.8296 60.9266 59.7894 60.8864 59.7133C60.8663 59.7682 60.8527 59.8252 60.8461 59.8833C60.8461 60.7776 60.8461 61.7121 60.8461 62.6288C60.8333 62.6909 60.8337 62.7551 60.8476 62.817C60.8614 62.8789 60.8882 62.9372 60.9263 62.9879C60.9643 63.0387 61.0128 63.0808 61.0683 63.1114C61.1239 63.142 61.1853 63.1604 61.2486 63.1654H61.3112C61.3783 63.1654 61.4811 63.1654 61.4632 63.2817C61.4453 63.3979 61.3604 63.3532 61.2978 63.3532H59.925C59.8624 63.38 59.8177 63.3666 59.7148 63.3532Z" fill="white"/>
<path d="M71.6094 58.6514H71.8285C72.2756 58.6514 72.7228 58.6514 73.1968 58.6514C73.2671 58.6462 73.3377 58.6596 73.4012 58.6902C73.4648 58.7208 73.5192 58.7676 73.559 58.8258C74.1582 59.5905 74.7663 60.3551 75.37 61.1197C75.3961 61.1554 75.4171 61.1946 75.4326 61.236L75.4952 61.2047C75.508 61.1593 75.517 61.113 75.522 61.0661C75.522 60.6189 75.522 60.1494 75.522 59.6933C75.5201 59.5436 75.5082 59.3942 75.4862 59.2461C75.4736 59.1527 75.4318 59.0656 75.3668 58.9974C75.3017 58.9291 75.2168 58.8831 75.124 58.8661C75.0737 58.8574 75.0243 58.8439 74.9765 58.8258C74.9362 58.8258 74.9139 58.7543 74.8826 58.7185L74.9899 58.6335H76.4521C76.474 58.6377 76.4951 58.6452 76.5147 58.6559C76.5594 58.7677 76.5147 58.8303 76.4074 58.8527H76.3403C76.2296 58.8638 76.1271 58.9158 76.0526 58.9984C75.9782 59.0811 75.9373 59.1886 75.9379 59.2998C75.9379 59.3892 75.9379 59.4787 75.9379 59.5681V63.1454C75.9379 63.2348 75.9379 63.3198 75.9379 63.4047C75.8613 63.4445 75.7726 63.4536 75.6896 63.4304C75.6066 63.4071 75.5354 63.3532 75.4907 63.2795C74.7887 62.3852 74.0732 61.5177 73.3667 60.6368C73.1923 60.4222 73.0135 60.1897 72.8435 59.9884C72.8183 59.9506 72.7973 59.9101 72.7809 59.8677L72.7228 59.9035C72.706 59.948 72.6955 59.9947 72.6915 60.0421C72.6915 60.8604 72.6915 61.6787 72.6915 62.4925C72.6892 62.5297 72.6892 62.5671 72.6915 62.6043C72.6914 62.7499 72.7477 62.89 72.8485 62.995C72.9494 63.1 73.087 63.1619 73.2326 63.1677C73.3041 63.1677 73.4025 63.1677 73.398 63.2661C73.3935 63.3645 73.2862 63.3466 73.2192 63.3466H71.8016C71.7647 63.3534 71.7268 63.3534 71.6899 63.3466C71.6586 63.3466 71.6228 63.3063 71.6183 63.2795C71.6179 63.2622 71.6223 63.2451 71.6309 63.2301C71.6396 63.2151 71.6523 63.2028 71.6675 63.1945C71.7303 63.1711 71.7945 63.1517 71.8598 63.1364C71.9658 63.1172 72.0621 63.0624 72.1328 62.9811C72.2035 62.8999 72.2444 62.7969 72.2488 62.6893C72.2533 62.6073 72.2533 62.5252 72.2488 62.4433V59.5413C72.2562 59.384 72.2084 59.2291 72.1137 59.1034C72.019 58.9777 71.8833 58.889 71.7301 58.8527C71.6183 58.8214 71.6183 58.8214 71.6094 58.6514Z" fill="white"/>
<path d="M69.6353 58.6559C69.6844 58.6559 69.7426 58.6559 69.8007 58.6559C70.2479 58.6559 70.695 58.6559 71.1735 58.6559C71.245 58.6559 71.3568 58.6201 71.3747 58.7364C71.3926 58.8526 71.2718 58.8482 71.2003 58.8616C71.0649 58.8816 70.9427 58.9534 70.8592 59.0618C70.7758 59.1703 70.7378 59.3069 70.7531 59.4429C70.7531 60.1405 70.7531 60.8335 70.7531 61.5311C70.7512 61.8161 70.7242 62.1004 70.6727 62.3807C70.6289 62.6195 70.5177 62.8408 70.352 63.0184C70.1864 63.1959 69.9733 63.3222 69.7381 63.3823C69.2044 63.5432 68.6352 63.5432 68.1015 63.3823C67.8451 63.3283 67.613 63.1929 67.4398 62.9963C67.2666 62.7997 67.1614 62.5524 67.1401 62.2913C67.1222 62.0831 67.1147 61.8742 67.1178 61.6653C67.1178 60.9409 67.1178 60.212 67.1178 59.4831C67.1221 59.4012 67.1221 59.3191 67.1178 59.2372C67.1205 59.1502 67.0902 59.0654 67.0329 58.9999C66.9757 58.9344 66.8958 58.8929 66.8092 58.8839C66.7575 58.8768 66.7066 58.8648 66.6572 58.8482C66.6169 58.8482 66.5633 58.79 66.5588 58.7543C66.5543 58.7185 66.6214 58.6648 66.6795 58.6604C66.7168 58.6581 66.7541 58.6581 66.7913 58.6604H68.8125C68.8569 58.6536 68.9022 58.6536 68.9466 58.6604C68.9861 58.6855 69.0208 58.7173 69.0495 58.7543C69.0137 58.7856 68.9824 58.8303 68.9422 58.8437C68.9019 58.8571 68.7812 58.8437 68.7007 58.8839C68.626 58.8974 68.5584 58.9365 68.5095 58.9945C68.4605 59.0524 68.4333 59.1256 68.4324 59.2014C68.4324 59.2461 68.4324 59.2909 68.4324 59.3356C68.4324 60.3104 68.4324 61.2852 68.4324 62.2555C68.4314 62.4569 68.5055 62.6515 68.6403 62.8011C68.7751 62.9508 68.9609 63.0448 69.1613 63.0649C69.3003 63.0795 69.4409 63.0625 69.5725 63.0153C69.7041 62.9681 69.8234 62.8918 69.9214 62.7921C70.1027 62.6319 70.2188 62.4107 70.2479 62.1705C70.2792 61.8799 70.306 61.5892 70.3105 61.2762C70.3105 60.7128 70.3105 60.1494 70.3105 59.5904C70.3149 59.5294 70.3149 59.4681 70.3105 59.4071C70.2702 59.1209 70.1987 58.8705 69.8231 58.8437C69.6844 58.8392 69.5816 58.8213 69.6353 58.6559Z" fill="white"/>
<path d="M79.9431 74.4058C79.6837 74.7725 79.2589 74.8217 78.8565 74.9647H79.241C79.245 74.9835 79.2447 75.0029 79.2403 75.0215C79.2359 75.0402 79.2274 75.0576 79.2154 75.0726C79.2034 75.0876 79.1883 75.0997 79.1711 75.1081C79.1539 75.1165 79.135 75.121 79.1158 75.1212C78.9071 75.1783 78.6926 75.2113 78.4764 75.2196C78.38 75.2139 78.2843 75.2396 78.2037 75.2928C78.1231 75.346 78.0619 75.4239 78.0292 75.5147C77.8727 75.8546 77.8369 75.868 77.4792 75.7473C77.2735 75.6802 77.0723 75.5863 76.8666 75.5147C76.7039 75.4591 76.5382 75.4128 76.3703 75.3761C76.1378 75.3314 76.0394 75.4298 76.0394 75.6668C76.0437 75.6964 76.0437 75.7266 76.0394 75.7562H76.0081C75.8829 75.707 75.8337 75.5729 75.7711 75.4611C75.7181 75.342 75.6733 75.2195 75.6369 75.0944C75.4894 75.1838 75.5162 75.3225 75.5073 75.4387C75.4983 75.555 75.5073 75.6668 75.5073 75.783C75.5073 75.783 75.4715 75.783 75.4625 75.783C75.3657 75.7263 75.2817 75.65 75.216 75.559C75.1502 75.468 75.1041 75.3644 75.0805 75.2546C75.057 75.1448 75.0565 75.0314 75.0792 74.9214C75.1018 74.8115 75.1471 74.7075 75.2121 74.616C75.2764 74.5317 75.3579 74.4622 75.4512 74.412C75.5445 74.3619 75.6475 74.3323 75.7532 74.3253C75.954 74.3179 76.1549 74.3329 76.3524 74.37C76.4091 74.3865 76.4692 74.3869 76.5261 74.3711C76.583 74.3553 76.6343 74.324 76.6743 74.2806C76.9426 73.9899 77.2377 73.7216 77.4971 73.422C77.8284 73.0194 78.0212 72.5208 78.0471 72.0001C78.0471 71.942 78.0471 71.8838 78.0739 71.7899C78.1466 71.8245 78.2155 71.8665 78.2796 71.9151C78.4719 72.0895 78.6687 72.2639 78.8565 72.4472C79.1428 72.7568 79.5027 72.9891 79.9028 73.1224C80.037 73.1627 80.0593 73.2298 79.9609 73.3326C79.8216 73.4785 79.6722 73.6145 79.5138 73.7395C79.4324 73.7945 79.3736 73.8771 79.3483 73.972C79.6837 73.9229 79.9788 73.7798 80.2963 73.7395C79.9744 74.1867 79.4735 74.2627 79.0174 74.4505C79.169 74.5063 79.3354 74.5063 79.487 74.4505C79.6435 74.4192 79.7955 74.3611 79.9341 74.3164L79.9431 74.4058ZM76.5849 74.7054C76.5313 74.6633 76.4652 74.6405 76.3971 74.6405C76.329 74.6405 76.2629 74.6633 76.2093 74.7054C76.3479 74.7277 76.4418 74.7948 76.5849 74.7054Z" fill="white"/>
<path d="M74.9985 52.9963C75.0432 52.9114 75.0567 52.8443 75.1014 52.8085C75.1216 52.7896 75.1456 52.775 75.1718 52.7658C75.1979 52.7566 75.2257 52.7528 75.2534 52.7549C75.2797 52.764 75.3038 52.7787 75.3238 52.798C75.3439 52.8173 75.3596 52.8407 75.3697 52.8667C75.3926 52.9834 75.4091 53.1013 75.4189 53.2199C75.4412 53.5329 75.468 53.8459 75.4904 54.1634C75.4929 54.1977 75.4929 54.232 75.4904 54.2663H75.2445C75.1396 54.0483 75.0201 53.8376 74.8867 53.6358C74.7588 53.4624 74.5932 53.3204 74.4024 53.2204C74.2116 53.1204 74.0005 53.0651 73.7852 53.0587C73.5698 53.0522 73.3558 53.0948 73.1594 53.1831C72.9629 53.2715 72.789 53.4033 72.651 53.5687C72.3791 53.8721 72.206 54.2511 72.1546 54.6553C72.0582 55.2305 72.154 55.8214 72.4274 56.3366C72.531 56.5512 72.6784 56.7416 72.8602 56.8957C73.042 57.0497 73.254 57.1639 73.4827 57.2309C73.8496 57.3283 74.2401 57.2769 74.5693 57.0878C74.5975 57.0712 74.6218 57.0486 74.6403 57.0215C74.6589 56.9945 74.6713 56.9637 74.6766 56.9313C74.6766 56.4618 74.6766 55.9878 74.6498 55.5183C74.6498 55.2634 74.538 55.1874 74.292 55.1337C74.2249 55.1024 74.0953 55.1337 74.1132 55.0175C74.1311 54.9012 74.2339 54.9504 74.301 54.9504C74.8197 54.9504 75.3339 54.9504 75.8526 54.9504C75.9197 54.9504 76.0225 54.9146 76.0359 55.022C76.0494 55.1293 75.942 55.1069 75.875 55.1248C75.7762 55.1371 75.6857 55.1864 75.6218 55.2627C75.5579 55.3391 75.5254 55.4368 75.5306 55.5362C75.5306 55.7285 75.5306 55.9252 75.5306 56.1175C75.5306 56.426 75.5306 56.7346 75.5306 57.0431C75.537 57.0982 75.5245 57.1537 75.4953 57.2008C75.4661 57.2479 75.4218 57.2837 75.3697 57.3025C74.9518 57.5056 74.4928 57.6096 74.0282 57.6065C73.6767 57.6191 73.3249 57.5982 72.9774 57.5439C72.4892 57.4448 72.0482 57.1856 71.7241 56.8073C71.4001 56.429 71.2117 55.9533 71.1887 55.4557C71.1499 54.9972 71.2367 54.5367 71.44 54.1238C71.6433 53.711 71.9553 53.3614 72.3424 53.1126C72.6407 52.9216 72.9819 52.8079 73.3351 52.7817C73.8269 52.7198 74.3263 52.7813 74.7884 52.9606C74.8574 52.978 74.9276 52.99 74.9985 52.9963Z" fill="white"/>
<path d="M66.9895 53.9653C66.9478 53.9685 66.9059 53.9685 66.8643 53.9653C66.8121 53.9683 66.7599 53.9683 66.7078 53.9653C66.6925 53.5899 66.7149 53.2139 66.7748 52.843H67.0342H70.4952C70.7054 52.843 70.7277 52.843 70.7456 53.071C70.7635 53.2991 70.7456 53.4198 70.7456 53.5897C70.7456 53.7596 70.7456 53.8401 70.7456 53.9609C70.4997 54.019 70.4728 54.0056 70.4281 53.8043C70.4008 53.6436 70.3176 53.4977 70.1933 53.3922C70.069 53.2867 69.9115 53.2284 69.7484 53.2275C69.5919 53.2275 69.4354 53.2275 69.3013 53.2275C69.1671 53.2275 69.1269 53.2275 69.1224 53.4153C69.1224 53.6568 69.1224 53.8938 69.1224 54.1352C69.1224 54.9401 69.1224 55.7405 69.1224 56.541C69.1245 56.6908 69.138 56.8403 69.1627 56.9881C69.1638 57.0795 69.2003 57.1669 69.2645 57.2319C69.3287 57.297 69.4156 57.3346 69.507 57.3369C69.574 57.3325 69.6412 57.3325 69.7082 57.3369C69.7246 57.3419 69.7395 57.3512 69.7513 57.3637C69.7631 57.3763 69.7713 57.3917 69.7753 57.4084C69.7753 57.4308 69.744 57.471 69.7127 57.48C69.6699 57.489 69.6257 57.489 69.583 57.48H67.848C67.7765 57.48 67.6557 57.5158 67.6468 57.404C67.6379 57.2922 67.7586 57.319 67.8346 57.3145C67.9532 57.3145 68.0669 57.2674 68.1508 57.1836C68.2346 57.0997 68.2818 56.986 68.2818 56.8674C68.2862 56.784 68.2862 56.7004 68.2818 56.617V53.4466C68.2818 53.3706 68.2818 53.2991 68.2818 53.2052C68.0197 53.1625 67.7524 53.1625 67.4903 53.2052C67.378 53.2428 67.2776 53.3092 67.1991 53.3979C67.1206 53.4866 67.0668 53.5944 67.0431 53.7104C67.0163 53.8133 67.0073 53.8804 66.9895 53.9653Z" fill="white"/>
<path d="M66.2814 57.4252C66.2546 57.5102 66.1785 57.5012 66.1159 57.5012H64.3273C64.2979 57.5081 64.2673 57.5081 64.2379 57.5012C64.208 57.4827 64.181 57.4601 64.1574 57.4341C64.1842 57.4073 64.2066 57.3626 64.2424 57.3492C64.2944 57.3446 64.3468 57.3446 64.3988 57.3492C64.5028 57.338 64.5996 57.2907 64.6723 57.2155C64.745 57.1403 64.7891 57.0421 64.7968 56.9378C64.8013 56.8559 64.8013 56.7738 64.7968 56.6919V53.5618C64.7968 53.2353 64.7119 53.0878 64.3139 53.0162C64.2826 53.0162 64.2513 53.0162 64.2245 53.0162C64.197 52.9964 64.1715 52.974 64.1484 52.9492C64.1753 52.9178 64.1976 52.8776 64.2334 52.8642C64.2779 52.8574 64.3231 52.8574 64.3675 52.8642H66.098C66.1651 52.8642 66.2724 52.8642 66.2769 52.9447C66.2814 53.0252 66.1741 53.0252 66.107 53.0341C65.7582 53.0833 65.6598 53.2174 65.6598 53.5975C65.6598 54.4427 65.6598 55.2923 65.6598 56.1374C65.6598 56.3699 65.6598 56.5845 65.6598 56.8349C65.6598 57.1927 65.7895 57.3268 66.1517 57.3626C66.1964 57.3402 66.268 57.3313 66.2814 57.4252Z" fill="white"/>
<path d="M63.7704 52.9142C63.742 52.9459 63.7088 52.9731 63.6721 52.9946C63.62 52.999 63.5676 52.999 63.5156 52.9946C63.4057 53.0068 63.3042 53.0592 63.2307 53.1418C63.1572 53.2244 63.1169 53.3313 63.1176 53.4418C63.1176 53.5223 63.1176 53.6072 63.1176 53.6877V56.8178C63.1176 57.1264 63.2741 57.265 63.5871 57.3231C63.6586 57.3231 63.7436 57.3231 63.766 57.417C63.7883 57.5109 63.6587 57.4931 63.5961 57.4931H61.8074C61.778 57.4999 61.7474 57.4999 61.718 57.4931C61.6882 57.4746 61.6611 57.452 61.6375 57.426C61.6688 57.3991 61.6912 57.3544 61.7225 57.3455C61.7744 57.3386 61.827 57.3386 61.879 57.3455C61.9829 57.3343 62.0797 57.287 62.1524 57.2118C62.2251 57.1367 62.2692 57.0384 62.2769 56.9341C62.2814 56.8522 62.2814 56.7701 62.2769 56.6882V53.6207C62.2769 53.1467 62.2099 53.0707 61.7448 52.9812C61.7001 52.9812 61.6375 52.9365 61.633 52.9052C61.6286 52.8739 61.6956 52.8247 61.7538 52.8203H63.5424C63.6139 52.8203 63.69 52.8203 63.7615 52.8203L63.7704 52.9142Z" fill="white"/>
<path d="M89.7617 35.9998C89.8507 36.016 89.9387 36.0369 90.0255 36.0624C90.7946 36.3664 91.5816 36.6437 92.3329 36.9924C93.4308 37.4639 94.4178 38.16 95.2304 39.036C96.0959 40.0743 96.7573 41.2667 97.18 42.5506C97.3455 43.038 97.502 43.5299 97.663 44.0218C97.7032 44.1425 97.7613 44.2543 97.7971 44.3795C97.808 44.4416 97.808 44.5052 97.7971 44.5673C97.7346 44.5686 97.6724 44.558 97.6138 44.536C97.4839 44.4486 97.3585 44.3546 97.2382 44.2543C96.2351 43.444 95.2796 42.5766 94.3764 41.6563C93.5471 40.7901 92.7833 39.8634 92.0914 38.8839C91.7292 38.3608 91.3044 37.8823 90.9198 37.377C90.6609 37.0553 90.3752 36.7561 90.0658 36.4827C89.9123 36.3611 89.805 36.1907 89.7617 35.9998Z" fill="white"/>
<path d="M92.9947 41.3074C93.0446 41.3593 93.0909 41.4146 93.1333 41.4728C93.4105 41.844 93.6744 42.2285 93.9695 42.5862C94.1386 42.7853 94.3291 42.9652 94.5374 43.1228C94.7878 43.3241 95.0606 43.5029 95.3199 43.6907C95.8699 44.0887 96.4199 44.4956 96.9744 44.8891C97.5461 45.2881 98.0645 45.7585 98.5171 46.2887C98.6378 46.4318 98.7675 46.5704 98.8972 46.7046C98.9464 46.7538 99.009 46.7895 99.0626 46.8342H99.1163C99.1252 46.7675 99.1252 46.6998 99.1163 46.633C98.9329 45.9712 98.7451 45.2915 98.5663 44.6432C98.3382 43.798 98.1191 42.944 97.9 42.0988C97.7439 41.4582 97.471 40.8519 97.0951 40.3102C96.8715 40.0106 96.5943 39.7513 96.3439 39.474C96.2455 39.3667 96.1516 39.2549 96.0443 39.1297C96.0938 39.1031 96.1491 39.0892 96.2053 39.0892C96.2615 39.0892 96.3168 39.1031 96.3662 39.1297C96.814 39.2676 97.2357 39.4791 97.6138 39.7557C98.7034 40.4937 99.5942 41.4889 100.207 42.6533C100.574 43.378 100.774 44.1755 100.793 44.9875C100.869 46.9863 100.856 49.0119 100.829 50.9883C100.82 51.0725 100.807 51.1561 100.789 51.2387H100.739C100.698 51.204 100.662 51.1634 100.632 51.118C100.194 50.3732 99.6351 49.7067 98.9777 49.146C98.1728 48.3635 97.265 47.6928 96.3975 46.9818C95.4232 46.2159 94.5804 45.2961 93.9024 44.2586C93.6945 43.8954 93.5136 43.5172 93.3614 43.1273C93.1433 42.6173 93.0017 42.0778 92.941 41.5265C92.9321 41.4549 92.8918 41.3789 92.9947 41.3074Z" fill="white"/>
</g>
<defs>
<filter id="filter0_d_512_52852" x="0" y="-0.000244141" width="145.703" height="133.707" filterUnits="userSpaceOnUse" color-interpolation-filters="sRGB">
<feFlood flood-opacity="0" result="BackgroundImageFix"/>
<feColorMatrix in="SourceAlpha" type="matrix" values="0 0 0 0 0 0 0 0 0 0 0 0 0 0 0 0 0 0 127 0" result="hardAlpha"/>
<feOffset dy="4"/>
<feGaussianBlur stdDeviation="20"/>
<feComposite in2="hardAlpha" operator="out"/>
<feColorMatrix type="matrix" values="0 0 0 0 0 0 0 0 0 0 0 0 0 0 0 0 0 0 0.2 0"/>
<feBlend mode="normal" in2="BackgroundImageFix" result="effect1_dropShadow_512_52852"/>
<feBlend mode="normal" in="SourceGraphic" in2="effect1_dropShadow_512_52852" result="shape"/>
</filter>
</defs>
</svg>
