<svg width="860" height="646" viewBox="0 0 860 646" fill="none" xmlns="http://www.w3.org/2000/svg">
<g filter="url(#filter0_d_508_46280)">
<path d="M233.666 572.35L226.197 559.042L258.788 547.273H495.074L642.865 567.537L801.294 559.042L743.581 585.749L636.981 600.687L495.074 585.749L382.136 600.687H308.58L233.666 572.35Z" fill="#6C6B6B" fill-opacity="0.2"/>
<path d="M400.262 350.821L460.403 389.556L540.016 374.554L621.266 400.676L699.415 425.827L743.444 469.748L814.872 504.713L804.188 558.673L632.452 588.917L502.019 558.673L387.114 580.873L143.586 558.673L88.0234 481.501L143.586 425.827L290.557 365.822L400.262 350.821Z" fill="#AAB4E7"/>
<path d="M387.114 580.875L502.019 558.675L632.453 588.919L621.589 567.869L495.299 534.825L376.024 546.368L88.0239 481.501L45.4258 546.368L387.114 580.875Z" fill="#7F8BCB"/>
<path d="M312.199 443.615L256.07 448.142V430.035L322.158 389.07L565.685 417.814L696.955 465.795L672.964 473.49L703.518 546.594L624.53 532.335L605.519 518.529L614.346 494.991L605.519 473.49L589.676 465.795L548.032 489.786L536.037 507.213H468.818L414.952 489.786H376.703L395.488 465.795L322.158 430.035L312.199 443.615Z" fill="#7F8BCB"/>
<path d="M535.127 52.1592L548.756 56.7016L564.244 47.0908H573.669L582.873 62.4393V79.0788L554.685 111.401V122.781L582.873 167.44L598.626 199.619V223.001L603.007 284.06L617.919 327.285L591.335 424.377L483.309 464.584L379.446 424.377L309.783 396.137L294.293 435.351H241.445L209.223 424.377L281.371 396.137L318.812 327.285L367.849 318.008H443.528L477.911 208.13L483.309 161.463L477.911 116.231L483.309 87.6854L503.62 62.4393L535.127 52.1592Z" fill="#A76A57"/>
<path d="M538.326 52.0635L551.955 56.6059L567.443 46.9951H576.868L586.072 62.3436V78.9831L557.885 111.306V122.686L586.072 167.345L601.825 199.524V222.905L606.206 283.964L621.119 327.189L594.534 424.281L486.509 464.488L382.645 424.281L312.982 396.042L297.492 435.255H244.644L212.422 424.281L284.57 396.042L322.011 327.189L371.049 317.913H446.727L481.11 208.035L486.509 161.368L481.11 116.135L486.509 87.5897L506.82 62.3436L538.326 52.0635Z" fill="#F6AC95"/>
<path d="M580.856 48.7278L582.095 55.2785L578.599 63.4069L573.245 54.7047L566.076 48.7278L568.023 45.333H576.342L580.856 48.7278Z" fill="#A76A57"/>
<path d="M578.465 64.2168L579.527 76.792L580.235 81.2388L576.252 90.0845L578.465 81.2388L576.252 76.792H569.747L563.906 81.2388L569.747 74.3535L576.252 72.3453L578.465 64.2168Z" fill="#A76A57"/>
<path d="M496.292 92.7158L493.673 97.2104V103.259L490.32 105.865H486.47L484.877 101.227L486.026 96.7801L490.32 93.194L496.292 92.7158Z" fill="#A76A57"/>
<path d="M515.182 87.9414L539.315 103.835L564.045 97.0016L549.411 116.021L527.345 109.169L515.182 87.9414Z" fill="#A76A57"/>
<path d="M534.998 62.0994L532.33 64.6183L528.959 66.9221L523.271 67.022L519.584 65.8245L513.856 68.2123L520.919 62.1402L525.621 59.8766L530.501 60.0238L534.998 62.0994Z" fill="#A76A57"/>
<path d="M534.354 61.8936L532.401 67.2447L527.652 71.4713L524.811 73.8367L521.083 74.7285L516.6 73.8367L514.203 71.4713L521.083 70.3856L527.652 67.2447L534.354 61.8936Z" fill="#A76A57"/>
<path d="M598.302 215.025L612.475 235.479L645.049 329.088V375.524L633.113 428.685L678.7 449.139L697.183 462.499L658.89 469.869H605.927L586.283 428.685L605.927 352.582V272.057L598.302 215.025Z" fill="#F6AC95"/>
<path d="M486.152 158.67L503.448 177.229L512.681 278.552L559.935 328.686L600.557 307.121L605.522 264.817L607.106 355.689L583.894 430.891L486.152 464.438L334.608 405.593L311.523 408.308L297.491 435.468L244.908 436.513L215.561 424.164L285.269 395.408L321.708 327.057L370.142 318.088H447.52L481.758 209.985L486.152 158.67Z" fill="#DE9078"/>
<path d="M478.944 261.639L486.31 207.104L484.888 261.639L493.489 307.534L544.412 349.463V419.851L584.246 430.714L486.02 464.437L420.159 439.315L357.014 416.003L420.159 427.999L444.828 410.119L534.228 354.445L486.31 307.534L478.944 261.639Z" fill="#A76A57"/>
<path d="M486.309 205.292L478.943 261.638L486.309 307.533L534.227 354.444L522.144 450.019L410.5 483.448H371.271L420.597 439.677L467.008 404.686L443.687 361.185V300.576L467.008 227.925L486.309 205.292Z" fill="#F6AC95"/>
<path d="M605.926 267.759V352.582L583.793 427.32L591.035 435.694L610.5 394.276L617.742 332.262L601.899 222.041L605.926 267.759Z" fill="#A76A57"/>
<path d="M453.136 428.033L416.382 449.253L405.829 446.426L404.368 463.067L415.695 463.513L440.906 491.73L474.064 500.206L479.143 492.437L480.792 499.76L495.576 501.542L498.273 497.836L499.161 502.911L509.319 502.635L514.195 490.792L517.014 501.631L548.642 506.154L561.172 496.771L564.41 461.8L556.36 447.856L531.622 445.588L522.152 444.823L513.487 456.059L515.138 443.284L504.831 441.067L495.072 447.991L498.743 437.596L487.301 434.53L483.11 436.95L477.806 440.98L477.9 433.51L453.136 428.033Z" fill="#FFB8C3"/>
<path d="M416.382 449.254L405.876 446.507L404.355 462.861L415.741 463.595L416.382 449.254Z" fill="#F8506B"/>
<path d="M452.201 475L444.924 484.36L449.574 484.039L456.077 477.061L457.222 469.737L459.181 455.817L452.201 475Z" fill="#F8506B" fill-opacity="0.5"/>
<path d="M507.043 450.86L503.898 454.718L506.472 457.315L509.543 462.635L509.617 471.512L511.139 457.953L507.043 450.86Z" fill="#F8506B" fill-opacity="0.5"/>
<path d="M526.591 472.245L517.781 490.12L519 499.303L548.008 503.942L559.074 495.188L557.23 488.085L556.875 493.986L545.913 500.315L525.234 496.886L522.708 489.532L526.591 472.245Z" fill="#F8506B" fill-opacity="0.5"/>
<path d="M477.449 472.567L472.854 482.851L473.475 487.65L481.316 475.171L480.18 461.104L477.672 452.664L477.449 472.567Z" fill="#F8506B" fill-opacity="0.5"/>
<path d="M492.112 493.87L487.148 493.835L492.065 490.996L495.786 481.432L499.846 467.804L498.298 485.785L492.112 493.87Z" fill="#F8506B" fill-opacity="0.5"/>
<path d="M448.656 433.307L424.959 446.988L449.144 436.572C449.927 437.123 451.544 440.581 451.743 450.009C451.942 459.438 453.434 445.057 454.154 436.688L448.656 433.307Z" fill="#F8506B" fill-opacity="0.5"/>
<path d="M629.781 462.615L631.806 474.192L645.527 471.337L659.799 472.745L671.347 475.619L699.248 447.599L731.653 491.274L740.297 504.901L740.494 507.869L741.279 532.267L732.51 531.644L717.288 543.436L700.667 545.093L666.347 520.749L638.225 525.772L615.835 520.749L618.835 500.912L615.835 479.832L608.862 474.184L610.032 466.563L629.781 462.615Z" fill="#A0EDC9"/>
<path d="M698.539 452.668L685.186 469.869L700.576 459.684L710.761 479.375L700.576 481.864L697.181 490.238L727.962 492.954L698.539 452.668Z" fill="#58B78A"/>
<path d="M654.859 482.543L643.543 486.843H656.217L669.571 488.88L688.808 499.291L669.571 485.033L654.859 482.543Z" fill="#58B78A"/>
<path d="M649.199 509.702L670.248 503.817L676.87 509.821L707.592 521.924L694.465 525.771L676.87 509.821L670.248 507.212L649.199 509.702Z" fill="#58B78A"/>
</g>
<defs>
<filter id="filter0_d_508_46280" x="0.949116" y="0.856342" width="858.399" height="644.307" filterUnits="userSpaceOnUse" color-interpolation-filters="sRGB">
<feFlood flood-opacity="0" result="BackgroundImageFix"/>
<feColorMatrix in="SourceAlpha" type="matrix" values="0 0 0 0 0 0 0 0 0 0 0 0 0 0 0 0 0 0 127 0" result="hardAlpha"/>
<feOffset/>
<feGaussianBlur stdDeviation="22.2383"/>
<feComposite in2="hardAlpha" operator="out"/>
<feColorMatrix type="matrix" values="0 0 0 0 0 0 0 0 0 0 0 0 0 0 0 0 0 0 0.1 0"/>
<feBlend mode="normal" in2="BackgroundImageFix" result="effect1_dropShadow_508_46280"/>
<feBlend mode="normal" in="SourceGraphic" in2="effect1_dropShadow_508_46280" result="shape"/>
</filter>
</defs>
</svg>
