<svg width="399" height="700" viewBox="0 0 399 700" fill="none" xmlns="http://www.w3.org/2000/svg">
<g filter="url(#filter0_d_508_46336)">
<path d="M243.544 133.289L254.874 128.757L271.304 168.415L269.604 197.308L228.814 188.81L223.715 158.783L243.544 133.289Z" fill="#342B2E"/>
<path d="M166.494 195.608L188.589 188.243V160.483L173.293 136.688L164.795 116.859L157.43 174.646L166.494 195.608Z" fill="#342B2E"/>
<path d="M189.157 154.817L188.023 187.11L208.985 196.741L232.213 189.376V154.817L212.951 147.452L189.157 154.817Z" fill="#F0A891"/>
<path d="M161.965 112.893L171.029 107.795L180.094 72.1026L210.687 67.5703L238.448 78.9011L247.512 107.795H257.685L252.611 129.89L245.246 134.422L238.448 150.285L215.786 168.414H202.756L180.094 155.95L173.862 137.255L167.63 132.722L161.965 112.893Z" fill="#F0A891"/>
<path d="M215.784 168.415H202.753L188.59 160.484V173.514L193.122 175.78L216.35 173.514L232.213 155.385L215.784 168.415Z" fill="#CF7F66"/>
<path d="M165.504 115.463L172.435 110.092L175.207 119.275L174.167 133.83L165.504 115.463Z" fill="#CF7F66"/>
<path d="M210.726 139.72L203.275 137.987L205.874 143.878L212.805 142.492L217.657 137.987L210.726 139.72Z" fill="#CF7F66"/>
<path d="M212.979 73.2358L199.92 97.0305L180.658 105.529L174.993 120.259L171.027 107.795L164.229 111.76L167.061 77.7682L182.924 53.407L210.206 44.5957L220.882 47.7416L248.076 73.2358L254.217 107.795H246.943L239.04 84.0001L212.979 73.2358Z" fill="#342B2E"/>
<path d="M187.457 180.88V187.112L111.541 214.872L120.039 408.628L111.541 642.609H154.598L233.347 655.073L320.027 642.609L288.868 415.427L310.396 214.872L270.738 195.61L233.347 187.112L232.214 176.914L203.32 187.112L187.457 180.88Z" fill="#7F8BCB"/>
<g style="mix-blend-mode:multiply">
<path d="M204.488 209.72L184.562 195.339L208.647 199.844L230.998 191.527L204.488 209.72Z" fill="#D2D5E8"/>
</g>
<path d="M290.569 205.24L270.74 195.608L258.204 212.839L247.635 251.305V318.186L279.169 225.661L290.569 205.24Z" fill="#6C6B6B"/>
<path d="M159.441 239.869L155.629 199.151L135.184 205.24L137.956 239.003L136.743 297.394L145.753 346.429L157.708 316.28L159.441 239.869Z" fill="#6C6B6B"/>
<g style="mix-blend-mode:multiply">
<path d="M217.832 340.711L279.515 226.008L288.698 416.429L262.188 443.979L140.554 438.781L131.891 340.711L140.554 281.28L254.045 232.245L200.851 279.028L150.604 304.325L171.396 365.142L217.832 340.711Z" fill="#D2D5E8"/>
</g>
<g style="mix-blend-mode:multiply">
<path d="M140.555 438.781H118.897L111.793 642.198H153.204V543.089L140.555 438.781Z" fill="#D2D5E8"/>
</g>
<path d="M152.905 169.393L154.038 179.024L109.848 222.647L66.2241 298.564L55.4599 301.396L51.4941 292.898L61.6918 279.868L58.2926 268.537L70.1899 256.64L66.2241 239.644L81.5207 226.047L74.1557 218.682L70.1899 175.625L99.0834 147.864L134.775 148.997L152.905 169.393Z" fill="#342B2E"/>
<path d="M104.34 225.834L89.4453 249.43L119.472 256.795L134.202 232.433L104.34 225.834Z" fill="#FFC2AF"/>
<path d="M125.133 240.562L100.529 231.898L104.341 225.487L132.93 234.671L130.158 239.175L125.133 240.562Z" fill="#F6AC95"/>
<path d="M158.053 186.503L147.657 168.136L133.636 161.616L114.94 179.745L110.974 205.806L96.2441 212.605L105.309 231.3H114.94L144.4 240.365L156.864 233.567L159.613 203.829L155.627 196.032L158.053 186.503Z" fill="#FFC2AF"/>
<path d="M52.622 302.685L84.9147 245.465L124.006 248.298L108.143 270.959L114.941 314.016L144.401 321.381L151.2 363.305L114.941 391.065L73.0174 403.529L48.6562 361.605L52.622 344.609V302.685Z" fill="#F8506B"/>
<path d="M52.622 302.685L84.9147 245.465L109.539 247.32L77.4847 295.662L81.8164 344.609L116.47 395.984L48.6562 361.605L52.622 344.609V302.685Z" fill="#E83451"/>
<path d="M111.541 314.014L144.4 321.379L139.301 253.961L124.005 248.296L104.742 270.957L111.541 314.014Z" fill="white"/>
<path d="M267.905 191.077L246.943 208.073L249.776 229.035L271.305 218.838L276.97 196.176L267.905 191.077Z" fill="#FFC2AF"/>
<path d="M114.373 277.191L125.704 248.864L191.422 238.1L247.51 206.94L257.707 231.868L201.62 273.792L127.97 302.685L114.373 277.191Z" fill="white"/>
<path d="M142.634 296.874L127.906 302.419L144.02 316.28L142.634 296.874Z" fill="#D9D9D9"/>
<path d="M344.387 267.56L325.125 257.929L275.27 331.579L286.034 412.594H319.46L354.018 293.621L344.387 267.56Z" fill="#6C6B6B"/>
<path d="M281.766 405.341L299.439 391.306L325.125 257.929L275.27 331.579L281.766 405.341Z" fill="#595961"/>
<path d="M76.4161 446.585L59.9844 416.775L116.074 389.931L202.754 325.346L225.982 329.878L301.899 392.197L283.203 416.558L217.832 377.79L177.827 423.357L118.34 462.448L76.4161 446.585Z" fill="#58B78A"/>
<path d="M89.9597 437.048L59.9844 416.775L177.827 423.357L156.841 437.221L89.9597 437.048Z" fill="#41A174"/>
<path d="M213.501 363.582L300.655 403.78L284.367 411.924L213.501 378.656L164.812 386.107L213.501 363.582Z" fill="#41A174"/>
<path d="M277.537 413.16L300.765 389.932L311.529 398.43L342.123 393.897L346.655 399.563L299.066 429.023L277.537 413.16Z" fill="#342B2E"/>
<path d="M89.4459 368.97L116.64 391.632L110.408 427.891L59.9859 417.126L45.2559 396.731L48.0886 361.605L70.7501 368.97L71.8832 361.605L89.4459 368.97Z" fill="#F0A891"/>
<path d="M45.2559 396.731L48.0886 361.605L70.7501 368.97L59.9859 417.126L45.2559 396.731Z" fill="#CF7F66"/>
<path d="M279.237 225.635L310.397 214.871L330.792 239.799L279.237 417.125L256.009 436.954L107.576 431.289L114.375 389.932L229.382 372.935L279.237 225.635Z" fill="#7F8BCB"/>
<path d="M253.352 113.903L246.941 112.344V118.928L249.193 128.111L253.352 113.903Z" fill="#CF7F66"/>
<path d="M102.781 215.439L111.271 211.627L108.672 217.865V227.394L102.781 215.439Z" fill="#F6AC95"/>
<path d="M148.525 193.434L154.763 187.196L152.337 193.434L155.283 210.414L148.525 193.434Z" fill="#F6AC95"/>
<path d="M153.548 215.959H145.578L146.964 218.384L153.548 218.731L155.281 214.919L153.548 215.959Z" fill="#F6AC95"/>
</g>
<defs>
<filter id="filter0_d_508_46336" x="0.779194" y="0.119038" width="397.715" height="699.43" filterUnits="userSpaceOnUse" color-interpolation-filters="sRGB">
<feFlood flood-opacity="0" result="BackgroundImageFix"/>
<feColorMatrix in="SourceAlpha" type="matrix" values="0 0 0 0 0 0 0 0 0 0 0 0 0 0 0 0 0 0 127 0" result="hardAlpha"/>
<feOffset/>
<feGaussianBlur stdDeviation="22.2383"/>
<feComposite in2="hardAlpha" operator="out"/>
<feColorMatrix type="matrix" values="0 0 0 0 0 0 0 0 0 0 0 0 0 0 0 0 0 0 0.1 0"/>
<feBlend mode="normal" in2="BackgroundImageFix" result="effect1_dropShadow_508_46336"/>
<feBlend mode="normal" in="SourceGraphic" in2="effect1_dropShadow_508_46336" result="shape"/>
</filter>
</defs>
</svg>
