<svg width="21" height="21" viewBox="0 0 21 21" fill="none" xmlns="http://www.w3.org/2000/svg">
<path d="M10.8942 8.72609C9.78637 8.72609 8.88434 9.62768 8.88434 10.7355C8.88434 11.8437 9.78637 12.7458 10.8942 12.7458C12.0024 12.7458 12.904 11.8437 12.904 10.7355C12.904 9.62768 12.0024 8.72609 10.8942 8.72609ZM10.8942 8.72609C9.78637 8.72609 8.88434 9.62768 8.88434 10.7355C8.88434 11.8437 9.78637 12.7458 10.8942 12.7458C12.0024 12.7458 12.904 11.8437 12.904 10.7355C12.904 9.62768 12.0024 8.72609 10.8942 8.72609ZM14.2425 5.44922H7.54636C6.47757 5.44922 5.60791 6.31888 5.60791 7.38767V14.0838C5.60791 15.1525 6.47757 16.0222 7.54636 16.0222H14.2425C15.3112 16.0222 16.1809 15.1525 16.1809 14.0838V7.38767C16.1809 6.31888 15.3112 5.44922 14.2425 5.44922ZM10.8942 14.2164C8.97525 14.2164 7.41376 12.6549 7.41376 10.7355C7.41376 8.81656 8.97525 7.25507 10.8942 7.25507C12.8136 7.25507 14.3751 8.81656 14.3751 10.7355C14.3751 12.6549 12.8136 14.2164 10.8942 14.2164ZM14.4868 7.97483C14.0327 7.97483 13.6633 7.60542 13.6633 7.15129C13.6633 6.69717 14.0327 6.32775 14.4868 6.32775C14.9409 6.32775 15.3104 6.69717 15.3104 7.15129C15.3104 7.60542 14.9409 7.97483 14.4868 7.97483ZM10.8942 8.72609C9.78637 8.72609 8.88434 9.62768 8.88434 10.7355C8.88434 11.8437 9.78637 12.7458 10.8942 12.7458C12.0024 12.7458 12.904 11.8437 12.904 10.7355C12.904 9.62768 12.0024 8.72609 10.8942 8.72609ZM14.2425 5.44922H7.54636C6.47757 5.44922 5.60791 6.31888 5.60791 7.38767V14.0838C5.60791 15.1525 6.47757 16.0222 7.54636 16.0222H14.2425C15.3112 16.0222 16.1809 15.1525 16.1809 14.0838V7.38767C16.1809 6.31888 15.3112 5.44922 14.2425 5.44922ZM10.8942 14.2164C8.97525 14.2164 7.41376 12.6549 7.41376 10.7355C7.41376 8.81656 8.97525 7.25507 10.8942 7.25507C12.8136 7.25507 14.3751 8.81656 14.3751 10.7355C14.3751 12.6549 12.8136 14.2164 10.8942 14.2164ZM14.4868 7.97483C14.0327 7.97483 13.6633 7.60542 13.6633 7.15129C13.6633 6.69717 14.0327 6.32775 14.4868 6.32775C14.9409 6.32775 15.3104 6.69717 15.3104 7.15129C15.3104 7.60542 14.9409 7.97483 14.4868 7.97483ZM10.8942 8.72609C9.78637 8.72609 8.88434 9.62768 8.88434 10.7355C8.88434 11.8437 9.78637 12.7458 10.8942 12.7458C12.0024 12.7458 12.904 11.8437 12.904 10.7355C12.904 9.62768 12.0024 8.72609 10.8942 8.72609ZM2.30393 0.630371C1.46729 0.630371 0.789062 1.3086 0.789062 2.14524V19.3262C0.789062 20.1628 1.46729 20.8411 2.30393 20.8411H19.4849C20.3215 20.8411 20.9998 20.1628 20.9998 19.3262V2.14524C20.9998 1.3086 20.3215 0.630371 19.4849 0.630371H2.30393ZM17.6515 14.0838C17.6515 15.9637 16.1224 17.4928 14.2425 17.4928H7.54636C5.66645 17.4928 4.13733 15.9637 4.13733 14.0838V7.38767C4.13733 5.50776 5.66645 3.97864 7.54636 3.97864H14.2425C16.1224 3.97864 17.6515 5.50776 17.6515 7.38767V14.0838ZM14.2425 5.44922H7.54636C6.47757 5.44922 5.60791 6.31888 5.60791 7.38767V14.0838C5.60791 15.1525 6.47757 16.0222 7.54636 16.0222H14.2425C15.3112 16.0222 16.1809 15.1525 16.1809 14.0838V7.38767C16.1809 6.31888 15.3112 5.44922 14.2425 5.44922ZM10.8942 14.2164C8.97525 14.2164 7.41376 12.6549 7.41376 10.7355C7.41376 8.81656 8.97525 7.25507 10.8942 7.25507C12.8136 7.25507 14.3751 8.81656 14.3751 10.7355C14.3751 12.6549 12.8136 14.2164 10.8942 14.2164ZM14.4868 7.97483C14.0327 7.97483 13.6633 7.60542 13.6633 7.15129C13.6633 6.69717 14.0327 6.32775 14.4868 6.32775C14.9409 6.32775 15.3104 6.69717 15.3104 7.15129C15.3104 7.60542 14.9409 7.97483 14.4868 7.97483ZM10.8942 8.72609C9.78637 8.72609 8.88434 9.62768 8.88434 10.7355C8.88434 11.8437 9.78637 12.7458 10.8942 12.7458C12.0024 12.7458 12.904 11.8437 12.904 10.7355C12.904 9.62768 12.0024 8.72609 10.8942 8.72609ZM10.8942 8.72609C9.78637 8.72609 8.88434 9.62768 8.88434 10.7355C8.88434 11.8437 9.78637 12.7458 10.8942 12.7458C12.0024 12.7458 12.904 11.8437 12.904 10.7355C12.904 9.62768 12.0024 8.72609 10.8942 8.72609ZM10.8942 8.72609C9.78637 8.72609 8.88434 9.62768 8.88434 10.7355C8.88434 11.8437 9.78637 12.7458 10.8942 12.7458C12.0024 12.7458 12.904 11.8437 12.904 10.7355C12.904 9.62768 12.0024 8.72609 10.8942 8.72609ZM14.2425 5.44922H7.54636C6.47757 5.44922 5.60791 6.31888 5.60791 7.38767V14.0838C5.60791 15.1525 6.47757 16.0222 7.54636 16.0222H14.2425C15.3112 16.0222 16.1809 15.1525 16.1809 14.0838V7.38767C16.1809 6.31888 15.3112 5.44922 14.2425 5.44922ZM10.8942 14.2164C8.97525 14.2164 7.41376 12.6549 7.41376 10.7355C7.41376 8.81656 8.97525 7.25507 10.8942 7.25507C12.8136 7.25507 14.3751 8.81656 14.3751 10.7355C14.3751 12.6549 12.8136 14.2164 10.8942 14.2164ZM14.4868 7.97483C14.0327 7.97483 13.6633 7.60542 13.6633 7.15129C13.6633 6.69717 14.0327 6.32775 14.4868 6.32775C14.9409 6.32775 15.3104 6.69717 15.3104 7.15129C15.3104 7.60542 14.9409 7.97483 14.4868 7.97483ZM10.8942 8.72609C9.78637 8.72609 8.88434 9.62768 8.88434 10.7355C8.88434 11.8437 9.78637 12.7458 10.8942 12.7458C12.0024 12.7458 12.904 11.8437 12.904 10.7355C12.904 9.62768 12.0024 8.72609 10.8942 8.72609ZM10.8942 8.72609C9.78637 8.72609 8.88434 9.62768 8.88434 10.7355C8.88434 11.8437 9.78637 12.7458 10.8942 12.7458C12.0024 12.7458 12.904 11.8437 12.904 10.7355C12.904 9.62768 12.0024 8.72609 10.8942 8.72609ZM10.8942 8.72609C9.78637 8.72609 8.88434 9.62768 8.88434 10.7355C8.88434 11.8437 9.78637 12.7458 10.8942 12.7458C12.0024 12.7458 12.904 11.8437 12.904 10.7355C12.904 9.62768 12.0024 8.72609 10.8942 8.72609ZM14.2425 5.44922H7.54636C6.47757 5.44922 5.60791 6.31888 5.60791 7.38767V14.0838C5.60791 15.1525 6.47757 16.0222 7.54636 16.0222H14.2425C15.3112 16.0222 16.1809 15.1525 16.1809 14.0838V7.38767C16.1809 6.31888 15.3112 5.44922 14.2425 5.44922ZM10.8942 14.2164C8.97525 14.2164 7.41376 12.6549 7.41376 10.7355C7.41376 8.81656 8.97525 7.25507 10.8942 7.25507C12.8136 7.25507 14.3751 8.81656 14.3751 10.7355C14.3751 12.6549 12.8136 14.2164 10.8942 14.2164ZM14.4868 7.97483C14.0327 7.97483 13.6633 7.60542 13.6633 7.15129C13.6633 6.69717 14.0327 6.32775 14.4868 6.32775C14.9409 6.32775 15.3104 6.69717 15.3104 7.15129C15.3104 7.60542 14.9409 7.97483 14.4868 7.97483ZM10.8942 8.72609C9.78637 8.72609 8.88434 9.62768 8.88434 10.7355C8.88434 11.8437 9.78637 12.7458 10.8942 12.7458C12.0024 12.7458 12.904 11.8437 12.904 10.7355C12.904 9.62768 12.0024 8.72609 10.8942 8.72609Z" fill="#60E1A4"/>
</svg>
