<svg width="21" height="21" viewBox="0 0 21 21" fill="none" xmlns="http://www.w3.org/2000/svg">
<path d="M17.7439 17.8524H14.7495V13.1611C14.7495 12.0425 14.7293 10.6022 13.1918 10.6022C11.6321 10.6022 11.3933 11.8207 11.3933 13.0789V17.852H8.39883V8.20724H11.2735V9.52547H11.3123C11.6 9.03351 12.0158 8.62882 12.5153 8.35449C13.0149 8.08015 13.5794 7.94646 14.1489 7.96764C17.1841 7.96764 17.7439 9.96437 17.7439 12.5617V17.8524ZM5.01979 6.88863C4.67603 6.8887 4.33997 6.78683 4.05411 6.59589C3.76825 6.40495 3.54543 6.13351 3.41382 5.81592C3.28222 5.49833 3.24775 5.14884 3.31476 4.81165C3.38178 4.47446 3.54728 4.16472 3.79032 3.9216C4.03337 3.67848 4.34304 3.5129 4.68019 3.4458C5.01734 3.3787 5.36681 3.4131 5.68441 3.54464C6.002 3.67619 6.27346 3.89897 6.46445 4.18481C6.65544 4.47065 6.75738 4.80671 6.75738 5.1505C6.75738 5.61141 6.57432 6.05345 6.24847 6.3794C5.92262 6.70535 5.48066 6.88852 5.01979 6.88863ZM6.51702 17.852H3.51945V8.20724H6.51741L6.51702 17.852ZM19.2353 0.631685H2.01447C1.82074 0.62933 1.62845 0.665212 1.44862 0.737278C1.26878 0.809344 1.10492 0.916178 0.966418 1.05166C0.82792 1.18715 0.717504 1.34862 0.64149 1.52684C0.565477 1.70506 0.525361 1.89652 0.523438 2.09027V19.3823C0.528039 19.7735 0.687698 20.1468 0.967342 20.4203C1.24699 20.6938 1.62374 20.8451 2.01485 20.8409H19.2353C19.6275 20.8462 20.0057 20.6955 20.2867 20.422C20.5678 20.1485 20.7287 19.7745 20.7341 19.3823V2.08717C20.7285 1.69524 20.5675 1.32159 20.2864 1.04842C20.0053 0.775251 19.6272 0.624929 19.2353 0.630522" fill="#60E1A4"/>
</svg>
