<svg width="468" height="381" viewBox="0 0 468 381" fill="none" xmlns="http://www.w3.org/2000/svg">
<path d="M265.538 71.691C265.283 71.2996 264.973 70.9471 264.616 70.6442L257.301 65.8227L255.838 64.9979C255.838 64.1415 256.506 64.1098 257.015 63.9512C259.717 63.0926 262.566 62.7933 265.388 63.0715C268.21 63.3496 270.945 64.1995 273.426 65.5689C276.984 67.5574 280.204 70.0947 282.967 73.0867C288.562 78.9497 293.363 85.519 297.247 92.6266C301.906 100.845 305.021 109.842 306.438 119.177C307.381 125.549 307.626 132.006 307.169 138.431C307.169 140.398 306.565 142.333 306.342 144.268C306.12 146.203 306.088 147.44 306.024 149.216C306.084 149.694 306.202 150.162 306.374 150.612H306.788C306.995 150.291 307.145 149.937 307.233 149.565C308.456 143.083 308.999 136.492 308.855 129.898C308.361 110.132 300.895 91.1718 287.769 76.3539C284.928 73.1068 281.787 70.1331 278.387 67.4722C278.173 67.3069 277.98 67.1151 277.815 66.9012C277.815 66.9012 277.815 66.7109 277.815 66.4888C278.146 66.3813 278.487 66.3069 278.832 66.2668C283.611 66.1652 288.302 67.5511 292.253 70.2318C296.147 73.0273 299.472 76.5368 302.049 80.5728C307.57 88.6251 311.609 97.5942 313.975 107.059C316.27 115.762 317.34 124.74 317.156 133.737C317.007 141.094 315.939 148.404 313.975 155.497C313.941 155.824 313.941 156.153 313.975 156.48C314.929 156.48 315.247 155.782 315.47 155.18C316.014 153.853 316.45 152.484 316.774 151.088C320.284 134.191 319.186 116.664 313.594 100.335C311.407 93.6058 308.439 87.1546 304.752 81.112C303.48 79.0819 302.017 77.147 300.681 75.1803C300.44 74.8216 300.217 74.4511 300.014 74.07L300.268 73.7528L301.731 74.1652C308.211 76.3539 313.722 80.729 317.315 86.5362C320.555 91.5561 322.941 97.076 324.375 102.872C326.164 109.344 327.231 115.993 327.555 122.698C327.792 131.106 327.066 139.513 325.393 147.757C324.566 152.261 323.548 156.734 322.626 161.207C322.626 161.904 322.34 162.602 322.212 163.3H322.626C322.953 162.789 323.251 162.26 323.516 161.714C325.725 156.065 327.262 150.178 328.096 144.173C329.187 136.686 329.486 129.105 328.986 121.556C328.547 113.642 327.137 105.813 324.788 98.2412C323.842 95.0707 322.563 92.0086 320.972 89.1056C320.847 88.7871 320.752 88.4579 320.686 88.1223C321.129 88.2061 321.564 88.3227 321.99 88.4712C326.811 90.7337 330.724 94.5573 333.089 99.3197C335.649 104.251 337.196 109.644 337.637 115.18C338.769 127.023 337.811 138.972 334.807 150.485C333.28 156.448 331.308 162.317 329.559 168.217C329.241 169.295 328.891 170.342 328.605 171.389C328.605 171.865 328.605 172.372 328.382 173.007C329.305 172.785 329.432 172.15 329.654 171.674C332.065 166.747 334.014 161.607 335.475 156.322C338.661 144.976 340.045 133.202 339.577 121.429C339.441 117.167 338.951 112.923 338.114 108.741C338.086 108.53 338.086 108.317 338.114 108.106C338.201 107.728 338.319 107.356 338.464 106.996C338.888 107.097 339.294 107.257 339.672 107.472C340.024 107.871 340.313 108.32 340.531 108.804C344.824 115.992 347.026 124.229 346.892 132.595C347.155 144.377 345.08 156.095 340.786 167.075C339.323 170.786 337.383 174.307 335.729 177.923C334.902 179.731 334.234 181.571 333.534 183.411C333.429 183.784 333.365 184.167 333.344 184.553C334.202 184.553 334.393 183.887 334.648 183.411C340.243 173.906 344.35 163.605 346.828 152.864C348.489 145.818 349.553 138.645 350.009 131.421C350.078 131.076 350.174 130.737 350.295 130.406C351.122 130.628 351.122 131.294 351.313 131.802C353.817 138.457 354.658 145.621 353.762 152.674C352.786 160.599 350.643 168.338 347.401 175.639C344.654 182.048 341.466 188.259 337.86 194.228C337.351 195.021 336.969 195.845 336.365 196.987C339.731 193.727 342.517 189.919 344.602 185.727C346.86 181.698 348.927 177.543 350.963 173.387C352.802 169.227 354.25 164.905 355.288 160.477H355.733C355.852 160.86 355.937 161.253 355.988 161.651C357.143 172.193 355.023 182.834 349.913 192.134C346.67 197.959 342.788 203.407 338.337 208.375C337.732 209.041 336.906 209.612 336.906 210.818C337.351 210.532 337.828 210.247 338.273 209.898C340.679 207.884 342.884 205.642 344.856 203.205C346.924 200.857 349.054 198.542 351.217 196.226C351.661 195.796 352.14 195.404 352.648 195.052C352.682 195.464 352.682 195.878 352.648 196.29C350.658 203.686 346.728 210.419 341.263 215.798C338.082 218.97 334.902 221.634 331.722 224.584L330.418 225.821C331.181 226.297 331.594 225.821 332.04 225.821C335.437 224.051 338.636 221.925 341.581 219.477C343.553 217.923 345.461 216.305 347.432 214.751C347.837 214.448 348.262 214.172 348.705 213.926C348.683 214.375 348.619 214.821 348.514 215.259C346.99 219.363 344.601 223.093 341.506 226.196C338.411 229.299 334.684 231.703 330.577 233.244L326.888 234.83C327.161 235.051 327.491 235.189 327.841 235.228C328.19 235.268 328.544 235.206 328.859 235.052C331.372 234.196 333.916 233.371 336.365 232.388C337.796 231.817 339.132 230.992 340.499 230.294L341.358 229.945C341.867 230.548 341.358 230.96 341.167 231.277C339.891 232.829 338.521 234.302 337.065 235.687C333.657 238.672 329.61 240.842 325.234 242.031C324.191 242.314 323.128 242.515 322.053 242.633C320.393 242.914 318.689 242.526 317.315 241.555L313.339 238.89C311.57 237.676 309.504 236.963 307.36 236.829C307.022 236.744 306.669 236.743 306.331 236.826C305.993 236.909 305.68 237.073 305.42 237.304C305.897 237.97 306.597 237.907 307.169 238.002C310.768 238.618 314.132 240.197 316.901 242.57C317.512 243.09 318.086 243.651 318.619 244.251C319.795 245.615 319.732 245.805 318.046 246.44C317.761 246.589 317.495 246.77 317.251 246.979L319.096 247.487C320.304 247.836 321.576 248.089 322.785 248.533C323.993 248.978 323.962 249.295 323.802 250.405C323.484 252.276 323.103 254.148 322.785 256.051C322.755 256.484 322.755 256.919 322.785 257.352C323.548 257.796 323.962 257.352 324.343 257.035L331.69 250.69C332.135 250.31 332.517 249.897 332.898 249.549C333.63 249.897 333.407 250.31 333.28 250.722C332.536 252.891 331.295 254.858 329.654 256.464C328.35 257.732 326.983 258.906 325.647 260.111L324.375 261.317C324.715 261.399 325.071 261.39 325.407 261.289C325.742 261.189 326.045 261.001 326.283 260.746L330.64 257.257L332.421 255.893C332.51 255.802 332.617 255.729 332.734 255.68C332.851 255.63 332.977 255.605 333.105 255.605C333.232 255.605 333.359 255.63 333.476 255.68C333.594 255.729 333.7 255.802 333.789 255.893C333.819 256.124 333.819 256.359 333.789 256.59C332.261 259.883 329.676 262.573 326.442 264.235C325.754 264.624 325.085 265.048 324.439 265.504C324.908 265.654 325.408 265.683 325.892 265.589C326.375 265.494 326.827 265.28 327.205 264.965C327.937 264.616 328.637 264.172 329.336 263.759L329.654 263.981C329.081 265.263 328.284 266.434 327.301 267.439C325.94 268.38 324.504 269.207 323.007 269.913C322.61 270.043 322.272 270.308 322.051 270.662C321.83 271.015 321.741 271.435 321.799 271.848C321.957 273.928 321.599 276.015 320.755 277.924C319.912 279.832 318.61 281.504 316.965 282.792C316.677 283.104 316.3 283.321 315.884 283.412C315.469 283.502 315.035 283.463 314.643 283.299L309.109 281.206C307.615 280.635 306.12 280.064 304.593 279.62C302.558 279.049 301.89 279.62 301.413 281.555C301.348 281.773 301.263 281.986 301.158 282.189C299.282 281.047 299.123 279.017 298.36 277.114C297.44 278.694 297.124 280.553 297.469 282.348C297.215 282.348 297.024 282.348 296.928 282.348C296.034 281.436 295.345 280.346 294.906 279.148C294.467 277.95 294.289 276.673 294.384 275.401C294.389 274.836 294.583 274.29 294.934 273.848C295.286 273.405 295.775 273.092 296.324 272.958C298.851 272.245 301.526 272.245 304.053 272.958L305.579 273.371C306.004 270.017 306.716 266.706 307.71 263.474C307.872 263.087 307.955 262.672 307.955 262.253C307.955 261.833 307.872 261.418 307.71 261.031L306.152 261.253C301.27 262.264 296.202 261.891 291.522 260.175C288.742 259.196 286.265 257.513 284.334 255.29C284.011 254.856 283.625 254.471 283.19 254.148C283.172 254.535 283.237 254.922 283.379 255.283C283.522 255.643 283.739 255.97 284.016 256.242C286.491 259.159 289.833 261.214 293.557 262.11L295.148 262.554V262.935C294.815 263.113 294.463 263.251 294.098 263.347C291.04 264.052 287.854 263.987 284.828 263.156C281.802 262.325 279.031 260.756 276.765 258.589C274.512 256.624 272.515 254.386 270.818 251.928C270.591 251.503 270.252 251.148 269.837 250.902C269.422 250.655 268.947 250.528 268.465 250.532C267.606 250.532 267.415 250.024 267.447 249.263C267.51 248.418 267.51 247.57 267.447 246.725C267.39 245.679 267.029 244.672 266.408 243.827C265.787 242.982 264.932 242.336 263.948 241.967C262.835 241.555 262.708 241.333 263.026 240.191C263.344 239.049 263.757 237.844 264.171 236.702C264.584 235.56 264.553 234.894 263.44 234.132C262.855 233.769 262.237 233.461 261.595 233.212C260.545 232.737 260.418 232.451 261.022 231.531C261.627 230.611 262.899 228.835 263.885 227.503C264.871 226.17 264.744 226.107 263.885 225.06C263.44 224.616 262.931 224.235 262.454 223.791C261.309 222.745 261.34 222.523 262.454 221.444C263.567 220.366 264.839 219.477 265.952 218.272C267.065 217.067 267.161 216.718 266.27 215.417C264.966 213.482 264.998 213.133 267.129 212.245C269.853 210.976 272.216 209.046 273.998 206.631C274.499 206.077 274.967 205.495 275.398 204.886C276.066 203.998 276.034 203.617 275.111 202.919C274.189 202.221 273.966 202.158 273.394 201.777C273.131 201.636 272.934 201.397 272.845 201.113C272.756 200.828 272.781 200.52 272.917 200.255C273.235 199.303 273.426 198.256 273.744 197.083C274.741 197.075 275.728 197.28 276.638 197.685C277.306 197.876 277.91 198.193 278.578 198.447C278.719 198.524 278.876 198.569 279.037 198.576C279.198 198.583 279.358 198.554 279.506 198.489C279.654 198.425 279.784 198.327 279.888 198.205C279.992 198.082 280.066 197.936 280.105 197.78C280.193 197.531 280.268 197.277 280.327 197.019C280.677 195.497 280.327 195.084 278.801 195.021C277.996 194.973 277.189 194.973 276.384 195.021C275.877 195.069 275.368 194.945 274.941 194.668C274.514 194.392 274.193 193.979 274.03 193.498C273.517 192.683 273.262 191.732 273.299 190.77C273.935 191.341 274.38 191.69 274.762 192.071C275.259 192.592 275.871 192.99 276.551 193.233C277.23 193.475 277.957 193.555 278.673 193.466C279.945 193.466 280.391 192.769 280.136 191.531C279.915 190.375 279.376 189.302 278.578 188.434C277.781 187.565 276.756 186.936 275.62 186.615C274.542 186.202 273.382 186.047 272.233 186.163C271.084 186.278 269.979 186.661 269.005 187.281C268.77 187.389 268.525 187.474 268.274 187.535C268.274 187.313 268.051 187.154 268.083 187.027C268.296 184.256 269.076 181.557 270.373 179.097C270.892 177.924 271.833 176.987 273.01 176.471C274.187 175.954 275.515 175.895 276.733 176.306C279.348 176.959 281.84 178.03 284.112 179.478C287.885 181.567 291.443 184.021 294.734 186.805C296.261 188.074 297.915 189.216 299.473 190.326C300.58 191.127 301.839 191.694 303.173 191.994C304.507 192.294 305.889 192.32 307.233 192.071C307.614 192.038 307.997 192.038 308.378 192.071C308.151 193.524 307.608 194.909 306.788 196.131C306.362 196.531 305.813 196.777 305.229 196.829C304.021 196.829 302.812 197.019 301.572 197.146C301.127 197.146 300.586 197.146 300.363 197.749C300.936 198.32 301.635 198.066 302.303 198.066C304.021 198.066 304.307 198.225 304.816 199.842C305.564 202.141 305.564 204.617 304.816 206.916C304.339 208.343 303.735 209.707 303.162 211.071C302 213.53 301.269 216.17 300.999 218.875C300.873 219.668 300.692 220.453 300.459 221.222C301.095 220.588 301.604 220.175 302.017 219.668C305.98 214.884 308.631 209.157 309.714 203.046C311.13 195.164 309.662 187.038 305.579 180.144C303.664 176.579 300.456 173.878 296.611 172.594C295.582 172.273 294.49 172.208 293.43 172.404C291.567 172.831 289.629 172.819 287.771 172.37C285.913 171.92 284.186 171.045 282.726 169.813C281.266 168.582 280.114 167.028 279.361 165.276C278.608 163.523 278.274 161.619 278.387 159.716C278.399 157.523 278.895 155.36 279.84 153.381C280.786 151.402 282.157 149.655 283.857 148.265C284.236 147.982 284.546 147.619 284.766 147.202C284.986 146.785 285.11 146.325 285.13 145.854C285.973 138.229 285.781 130.525 284.557 122.952C282.901 112.652 278.716 102.921 272.376 94.625C265.3 85.7202 256.439 78.3847 246.361 73.0867C243.499 71.5007 240.541 70.1684 237.647 68.7093L236.311 67.9163C236.772 67.6423 237.25 67.3986 237.742 67.1867C241.438 65.7597 245.407 65.1758 249.358 65.4776C253.309 65.7795 257.143 66.9596 260.577 68.9313L265.634 71.6593C266.524 72.484 267.415 73.3405 268.337 74.1335C272.024 77.198 275.43 80.5843 278.514 84.2524C288.702 96.1509 295.072 110.826 296.801 126.377C297.458 132.359 297.639 138.384 297.342 144.395C297.342 144.807 297.088 145.346 297.787 145.695C298.066 145.465 298.295 145.18 298.459 144.858C298.624 144.536 298.72 144.184 298.741 143.824C298.932 141.54 299.155 139.256 299.25 136.972C299.77 125.876 297.736 114.808 293.303 104.617C287.861 92.357 279.405 81.6649 268.719 73.5308C267.707 72.8373 266.644 72.2222 265.538 71.691ZM312.926 195.401H313.18C313.212 195.064 313.212 194.724 313.18 194.386C312.862 192.483 312.544 190.612 312.099 188.74C311.118 184.587 309.257 180.691 306.64 177.315C304.023 173.939 300.712 171.161 296.928 169.168C296.504 168.911 296.03 168.744 295.537 168.679C295.045 168.613 294.544 168.65 294.066 168.788C292.177 169.328 290.172 169.316 288.289 168.754C286.406 168.192 284.725 167.103 283.444 165.616C282.087 164.142 281.231 162.278 280.997 160.291C280.763 158.303 281.163 156.293 282.14 154.545C282.712 153.594 283.38 152.674 283.953 151.722C284.113 151.334 284.23 150.93 284.303 150.517C283.926 150.64 283.572 150.822 283.253 151.056C282.512 151.891 281.852 152.794 281.281 153.752C280.257 155.956 279.872 158.402 280.17 160.812C280.468 163.223 281.437 165.502 282.967 167.392C283.945 168.745 285.379 169.702 287.006 170.088C289.35 170.626 291.786 170.626 294.13 170.088C294.761 169.834 295.454 169.77 296.121 169.905C296.789 170.041 297.401 170.369 297.883 170.85L298.678 171.389C304.742 175.467 309.178 181.541 311.208 188.55C311.844 190.834 312.353 193.118 312.926 195.37V195.401ZM313.212 198.573H312.735V200.445H313.18L313.212 198.573ZM304.084 274.703V274.354H302.59V274.608L304.084 274.703Z" fill="#FAFAFA" fill-opacity="0.3"/>
<path d="M378.073 341.286C378.179 341.682 378.156 342.101 378.007 342.483C377.858 342.865 377.592 343.19 377.246 343.412C375.783 344.902 374.321 346.393 372.73 347.726C367.557 352.169 361.878 355.991 355.811 359.113C346.85 363.697 336.829 365.821 326.774 365.267C324.103 365.267 321.431 365.013 318.823 364.633C315.815 364.2 312.831 363.607 309.886 362.856C305.026 361.656 300.328 359.877 295.893 357.559C289.242 354.124 282.863 350.19 276.811 345.791C272.326 342.366 267.472 339.451 262.34 337.099C257.509 334.857 252.055 334.331 246.883 335.608C246.51 335.766 246.158 335.968 245.834 336.211C246.565 336.623 247.074 336.972 247.615 337.258C252.067 339.669 256.583 341.921 260.941 344.458C263.866 346.171 266.633 348.201 269.4 350.2C274.839 354.197 280.277 358.225 285.62 362.349C288.355 364.474 290.836 366.917 293.444 369.201L293.985 369.772C295.702 371.611 295.797 372.055 294.175 373.927C292.604 375.738 290.914 377.444 289.119 379.034C287.465 380.493 286.638 380.398 284.889 379.034C284.072 378.43 283.296 377.773 282.567 377.067C279.164 373.895 275.729 370.533 272.39 367.139C267.149 361.912 261.549 357.058 255.629 352.611C252.449 350.073 248.951 347.504 245.516 345.093C242.65 342.981 239.414 341.421 235.975 340.493C234.682 340.203 233.355 340.086 232.031 340.144C231.354 340.248 230.711 340.508 230.155 340.906C228.374 341.921 226.625 342.904 224.907 344.078C223.19 345.251 221.122 346.425 219.31 347.726C215.493 350.422 211.55 353.023 207.988 356.036C199.913 362.658 192.402 369.936 185.534 377.797C184.803 378.653 184.071 379.478 183.276 380.271C182.481 381.064 181.813 381.254 180.827 380.62C178.045 378.795 175.474 376.667 173.163 374.276C172.304 373.419 172.304 372.88 173.163 371.929C174.021 370.977 175.771 369.105 177.202 367.805C185.185 360.488 193.688 353.757 202.645 347.662C207.905 344.244 213.351 341.119 218.96 338.305C219.969 337.806 220.947 337.245 221.886 336.623C222.585 336.148 222.522 335.545 221.886 335.228C221.41 334.994 220.889 334.864 220.359 334.847C218.499 334.824 216.639 334.93 214.793 335.164C207.536 336.527 200.678 339.497 194.725 343.856C188.365 348.106 182.004 352.262 175.643 356.29C170.83 359.254 165.699 361.669 160.346 363.491C157.662 364.361 154.92 365.039 152.14 365.521C149.787 366.028 147.402 366.251 145.048 366.758C142.695 367.244 140.279 367.351 137.892 367.075C133.007 366.715 128.158 365.973 123.39 364.855C119.994 363.932 116.701 362.668 113.563 361.08C109.003 358.926 104.658 356.345 100.587 353.372C97.1886 350.886 94.0744 348.035 91.3 344.871C91.1128 344.572 90.9934 344.237 90.9502 343.887C91.3 343.887 91.7453 343.57 92.0633 343.665C92.9703 343.981 93.8526 344.362 94.703 344.807C98.6797 346.858 102.871 348.465 107.202 349.597C114.368 351.533 121.847 352.039 129.21 351.088C133.176 350.569 137.106 349.806 140.977 348.804C145.332 347.591 149.585 346.043 153.699 344.173C157.611 342.428 161.618 340.81 165.593 339.193C168.01 338.209 170.427 337.226 172.876 336.338C177.138 334.847 181.431 333.42 185.598 332.024C187.76 331.326 189.987 330.787 192.213 330.216C196.068 329.366 200 328.909 203.948 328.852C208.56 328.693 213.203 328.693 217.847 328.852C221.425 328.828 224.986 329.352 228.405 330.406C228.761 330.503 229.112 330.62 229.455 330.755C230.76 331.375 232.181 331.718 233.626 331.762C235.072 331.806 236.51 331.549 237.851 331.009C241.748 329.732 245.784 328.923 249.873 328.598C253.371 328.281 256.87 327.868 260.4 327.9C264.442 327.948 268.477 328.234 272.485 328.757C275.438 329.191 278.36 329.816 281.231 330.628C283.903 331.326 286.574 332.056 289.182 332.944C292.649 334.149 296.084 335.513 299.487 336.877C302.889 338.241 305.847 339.51 309.218 340.906C312.59 342.301 315.229 343.602 318.283 344.839C322.113 346.278 326.076 347.341 330.113 348.011C335.839 348.966 341.643 349.369 347.446 349.217C352.094 349.228 356.73 348.761 361.281 347.821C364.849 346.933 368.297 345.623 371.554 343.919L376.865 341.35C377.265 341.294 377.669 341.273 378.073 341.286Z" fill="#FAFAFA" fill-opacity="0.3"/>
<path d="M372.544 301.937C372.966 301.656 373.37 301.348 373.753 301.017C380.462 295.009 387.86 289.813 395.792 285.537C402.503 281.826 409.404 278.495 416.178 274.879C420.058 272.817 424.034 270.787 427.691 268.345C430.92 266.095 433.981 263.614 436.85 260.922C440.18 258.077 443.197 254.887 445.851 251.406C447.377 249.281 448.618 246.965 449.985 244.776C450.303 244.237 450.653 243.761 451.035 243.159C451.268 243.349 451.432 243.61 451.501 243.903C451.57 244.195 451.54 244.502 451.416 244.776C447.611 261.962 438.165 277.389 424.574 288.614C418.662 293.588 412.355 298.075 405.715 302.032C402.512 303.939 399.11 305.492 395.57 306.663C392.453 307.72 389.273 308.704 386.029 309.613C381.746 310.704 377.403 311.541 373.021 312.119C369.141 312.753 365.293 313.546 361.413 314.308C360.155 314.525 358.912 314.821 357.692 315.196C355.816 315.735 353.939 316.369 352.063 316.94C351.036 317.314 349.909 317.314 348.882 316.94C348.66 316.116 349.264 315.735 349.646 315.291C351.84 312.817 354.098 310.406 356.165 307.837C358.998 304.163 361.389 300.17 363.289 295.941C364.689 292.991 366.024 289.978 367.233 286.901C368.442 283.824 369.364 280.557 370.413 277.575C372.353 272.088 374.293 266.568 376.361 261.081C377.442 258.036 378.684 255.05 380.081 252.136C383.483 245.203 387.552 238.617 392.23 232.469C393.534 230.724 394.743 228.916 396.015 227.14C396.46 226.475 396.96 225.849 397.51 225.268C397.681 225.086 397.888 224.942 398.118 224.843C398.348 224.745 398.595 224.695 398.846 224.697C399.545 224.697 399.418 225.617 399.354 226.188C399.315 226.557 399.229 226.919 399.1 227.267C397.194 232.4 395.82 237.715 394.997 243.127C393.768 250.19 392.548 257.264 391.34 264.348C389.272 276.354 384.023 287.59 376.138 296.893C375.216 298.003 374.166 298.987 373.212 300.065C372.823 300.541 372.462 301.039 372.131 301.556L372.544 301.937Z" fill="#FAFAFA" fill-opacity="0.3"/>
<path d="M119.053 317.88C118.436 318.008 117.807 318.072 117.177 318.07C114.601 317.658 112.025 317.277 109.48 316.738C104.328 315.691 99.2079 314.391 93.9921 313.566C87.9184 312.758 81.905 311.55 75.9914 309.95C71.3477 308.574 66.8352 306.791 62.5069 304.621C49.1026 297.795 37.5073 287.904 28.6682 275.755C24.6272 270.198 21.2841 264.169 18.7137 257.801C17.4424 254.817 16.5142 251.7 15.9468 248.507C15.8812 248.003 15.9816 247.491 16.233 247.048C16.5026 247.311 16.7474 247.597 16.9645 247.905C18.4274 250.125 19.795 252.409 21.3533 254.566C25.6845 260.464 31.0765 265.509 37.255 269.443C43.5498 273.531 50.1285 277.167 56.9413 280.323C61.0757 282.289 65.2419 284.193 69.2491 286.35C72.4295 287.999 75.1328 289.998 78.0269 291.869C80.921 293.741 83.3699 295.39 85.9777 297.198C88.5856 299.006 91.766 301.417 94.6601 303.542C95.2007 303.923 95.8367 304.24 96.5682 304.684C96.5732 304.408 96.5124 304.134 96.3908 303.886C96.2691 303.638 96.0901 303.422 95.8685 303.257C94.8894 302.229 93.8255 301.284 92.6882 300.434C89.4773 298.022 86.8116 294.964 84.8646 291.457C83.3814 289.015 82.0331 286.495 80.8256 283.907C79.6058 281.017 78.5442 278.062 77.6453 275.057C76.8184 272.456 76.1823 269.76 75.5781 267.064C75.1328 265.097 74.8465 263.099 74.5285 261.1C74.0515 257.928 73.6698 254.756 73.1292 251.806C72.4295 247.936 71.7299 244.066 70.8076 240.228C70.1079 237.246 69.0584 234.328 68.1997 231.378C67.9297 230.455 67.7383 229.51 67.6272 228.555C67.6272 228.238 67.8817 227.825 68.0089 227.477C68.4223 227.477 68.8357 227.762 69.2491 227.952C69.2491 227.952 69.6626 228.143 69.2491 227.952C72.5885 232.457 75.9915 236.993 79.3308 241.529C82.7053 246.316 85.5925 251.427 87.9495 256.786C90.7167 262.819 93.1376 269.004 95.2007 275.311C96.8226 280.164 98.381 285.017 100.353 289.712C102.293 294.14 104.491 298.451 106.936 302.622C108.967 305.904 111.165 309.08 113.519 312.138C114.769 313.945 116.343 315.504 118.163 316.738C118.513 317.074 118.813 317.458 119.053 317.88Z" fill="#FAFAFA" fill-opacity="0.3"/>
<path d="M415.137 252.331C416.059 251.126 417.077 249.984 417.936 248.715C420.703 244.75 423.279 240.626 426.204 236.788C429.13 232.95 431.675 230.159 434.601 226.955C439.912 221.087 445.35 215.314 450.757 209.509C453.916 206.185 456.729 202.55 459.153 198.66C460.635 196.024 461.911 193.277 462.969 190.445C464.075 187.901 464.732 185.186 464.909 182.419C464.9 182.099 464.977 181.781 465.132 181.5C465.374 181.185 465.707 180.953 466.086 180.833C466.086 180.833 466.658 181.278 466.69 181.595C467.043 183.576 467.256 185.579 467.326 187.59C467.22 193.07 466.603 198.528 465.482 203.894C463.469 214.211 459.201 223.958 452.983 232.443C448.34 238.813 443.007 244.653 437.081 249.857C433.466 253.079 429.607 256.017 425.537 258.644C419.462 262.609 413.547 266.764 407.504 270.729C403.401 273.425 399.203 275.931 395.037 278.532C394.582 278.778 394.115 279 393.638 279.199C393.558 278.747 393.558 278.286 393.638 277.835C394.125 276.652 394.677 275.498 395.292 274.377C396.721 271.773 397.791 268.988 398.472 266.098C399.331 262.926 400.158 259.754 400.825 256.582C401.621 252.68 402.288 248.747 402.924 244.814C404.037 238.089 403.942 231.237 404.674 224.481C405.087 220.992 405.373 217.502 405.787 214.013C406.264 209.889 406.868 205.797 407.345 201.674C407.784 198.19 408.529 194.751 409.571 191.396C410.335 188.795 410.907 186.162 411.67 183.561C412.275 181.563 413.038 179.66 413.769 177.725C414.003 177.256 414.28 176.81 414.596 176.393C415.423 176.773 415.328 177.408 415.36 177.947C415.36 180.167 415.519 182.419 415.709 184.64C415.964 187.812 416.186 190.984 416.695 194.156C417.777 200.754 419.08 207.32 420.194 213.918C421.583 221.261 421.518 228.804 420.003 236.122C419.343 239.781 418.342 243.37 417.013 246.844C416.314 248.493 415.519 250.016 414.787 251.76L414.596 252.331H415.137Z" fill="#FAFAFA" fill-opacity="0.3"/>
<path d="M1.4063 184.612C1.72433 185.723 2.04236 186.579 2.20138 187.435C3.47074 193.76 6.14408 199.722 10.0251 204.882C10.7884 206.024 11.4562 207.229 12.3149 208.307C13.1736 209.386 14.4775 210.972 15.4953 212.209C22.4602 219.6 29.5205 226.927 36.4218 234.413C41.3541 239.716 45.7139 245.521 49.4294 251.733C50.1329 252.832 50.8974 253.891 51.7192 254.905C51.7192 255.127 52.1963 255.222 52.4189 255.381C52.8959 254.746 52.4189 254.397 52.2599 253.985C51.1786 251.923 50.0337 249.861 49.0796 247.641C47.6288 244.209 46.81 240.545 46.6625 236.824C46.106 228.967 46.106 221.081 46.6625 213.224C46.8127 211.309 47.1212 209.41 47.5848 207.546C49.5198 199.641 50.8697 191.605 51.6238 183.502C51.8464 183.121 51.9736 182.519 52.2916 182.392C52.6097 182.265 53.2458 182.741 53.4366 183.248C54.1397 184.679 54.7247 186.164 55.1858 187.689C56.3625 192.352 57.571 197.047 58.3661 201.805C59.1612 206.563 59.8609 211.131 60.497 215.825C61.0058 219.41 61.4193 222.994 61.8009 226.578C62.2462 230.924 62.5642 235.27 63.0095 239.616C63.4547 243.961 63.9636 247.546 64.5042 251.479C64.8223 253.858 65.2357 256.205 65.6809 258.553C66.5394 263.917 68.1675 269.13 70.515 274.032C71.5963 276.157 72.5186 278.346 73.5045 280.535C73.5045 280.535 73.5045 280.725 73.5045 280.82C73.5045 280.916 73.5045 281.74 73.5045 282.184C73.1033 282.235 72.6972 282.235 72.296 282.184C71.5645 281.804 70.833 281.296 70.1334 280.852C66.6986 278.6 63.391 276.157 59.8609 274.096C52.8323 270.035 46.3763 265.119 39.7294 260.551C38.1392 259.473 36.549 258.394 35.0225 257.379C26.2684 251.091 18.6354 243.382 12.4421 234.572C9.42848 230.051 6.86158 225.249 4.77744 220.234C2.0265 213.475 0.528708 206.274 0.356829 198.982C0.356829 195.175 0.134217 191.337 0.0706101 187.499C-0.0638092 186.938 -0.00522094 186.348 0.237061 185.825C0.479344 185.301 0.891179 184.874 1.4063 184.612Z" fill="#FAFAFA" fill-opacity="0.3"/>
<path d="M367.441 273.583C367.122 274.186 366.868 274.789 366.518 275.36C364.992 278.056 363.338 280.657 361.939 283.417C360.285 286.589 358.758 290.046 357.359 293.409C355.017 298.539 352.172 303.427 348.867 308C348.327 308.793 347.691 309.522 347.182 310.315C344.757 313.903 341.479 316.834 337.641 318.848C334.063 321.079 330.244 322.899 326.255 324.273C326.255 324.273 325.937 324.495 325.715 324.621C326.128 325.351 326.764 325.192 327.273 325.129C328.927 325.129 330.453 324.843 332.202 324.653C340.09 323.702 348.104 322.686 355.832 321.767C361.875 321.037 367.949 320.529 373.96 319.8C380.44 319.203 386.837 317.916 393.042 315.962C400.246 313.695 406.793 309.722 412.124 304.384C413.026 303.481 413.982 302.633 414.987 301.846C415.392 301.562 415.817 301.308 416.259 301.085L416.609 301.307C416.488 301.784 416.328 302.251 416.131 302.703C413.266 308.178 409.564 313.175 405.159 317.516C400.497 322.194 395.286 326.295 389.639 329.728C385.603 332.158 381.343 334.198 376.918 335.819C373.154 337.295 369.24 338.359 365.246 338.991C360.871 339.688 356.447 340.038 352.016 340.038C346.684 339.997 341.364 339.509 336.114 338.578C329.308 337.341 322.534 336.009 315.728 334.613C311.944 333.82 308.191 332.805 304.406 331.885C300.082 330.735 295.666 329.96 291.208 329.57C290.513 329.53 289.828 329.392 289.173 329.157C289.019 329.074 288.887 328.957 288.788 328.813C288.688 328.67 288.624 328.505 288.6 328.333C288.6 328.079 289.013 327.698 289.3 327.635C290.214 327.355 291.15 327.154 292.098 327.032C295.425 326.539 298.687 325.688 301.83 324.495C306.477 322.777 310.89 320.486 314.965 317.675C321.187 313.374 326.99 308.499 332.298 303.115C338.659 296.961 345.019 290.903 351.571 285.161C354.751 282.433 357.931 279.642 361.112 277.009C362.709 275.763 364.376 274.609 366.105 273.552C366.498 273.352 366.914 273.203 367.345 273.107L367.441 273.583Z" fill="#FAFAFA" fill-opacity="0.3"/>
<path d="M142.356 326.593C142.301 326.215 142.121 325.866 141.845 325.601C141.568 325.337 141.211 325.172 140.83 325.134C130.927 322.479 122.472 316.04 117.295 307.212C113.097 300.487 109.662 293.318 105.878 286.371C104.383 283.643 102.697 280.979 101.075 278.283L99.9622 276.348C99.676 275.872 99.3898 275.301 99.9622 274.952C100.165 274.854 100.388 274.803 100.614 274.803C100.84 274.803 101.063 274.854 101.266 274.952C102.856 275.915 104.386 276.974 105.846 278.124C110.934 282.375 116.087 286.593 121.016 291.066C128.267 297.664 135.328 304.452 142.483 311.145C145.576 314.302 149.111 316.995 152.978 319.139C155.841 320.566 158.767 321.835 161.724 323.04C164.682 324.246 167.163 325.165 169.93 326.212C172.696 327.259 175.336 327.83 178.039 328.623C178.4 328.769 178.751 328.938 179.089 329.131C178.499 329.398 177.894 329.631 177.276 329.828C175.304 330.272 173.301 330.653 171.329 331.129L157.526 334.491L144.646 337.663C144.296 337.663 143.915 337.822 143.565 337.949C137.488 339.59 131.269 340.653 124.992 341.121C123.401 341.279 121.811 341.343 120.221 341.438C114.47 341.824 108.694 341.622 102.984 340.835C97.6885 340.163 92.5164 338.743 87.6226 336.617C79.0181 332.862 71.1392 327.634 64.3425 321.169C59.8283 316.871 55.7973 312.095 52.3209 306.926C51.8756 306.292 51.1123 305.689 51.4621 304.611C52.3208 304.611 52.8616 305.023 53.434 305.467C54.9288 306.577 56.3916 307.719 57.8228 308.925C61.8528 312.162 66.3579 314.761 71.1802 316.633C76.5041 318.819 82.0987 320.28 87.8134 320.978C93.6334 321.676 99.4534 322.152 105.305 322.755L118.504 324.024C122.67 324.436 126.868 324.848 131.066 325.324C133.737 325.61 136.441 326.054 139.144 326.403C140.098 326.434 141.148 326.498 142.356 326.593Z" fill="#FAFAFA" fill-opacity="0.3"/>
<path d="M5.70331 118.043C5.70331 118.868 5.98949 119.566 6.0531 120.295C6.37113 123.816 6.56201 127.4 7.00725 130.921C7.49483 135.15 8.56503 139.292 10.1876 143.229C11.1735 145.576 11.9368 148.019 12.8909 150.366C13.845 152.713 15.2443 155.283 16.0712 157.82C17.7568 162.705 20.4919 167.146 22.4319 171.968C24.1526 176.607 25.4823 181.382 26.4073 186.242C27.0116 189.414 27.584 192.586 28.22 195.948C28.3141 196.278 28.442 196.597 28.6016 196.9C29.4603 196.741 29.4604 196.139 29.4922 195.631C29.524 195.124 29.4922 193.918 29.4922 193.094C29.1208 188.363 29.2914 183.606 30.001 178.914C30.5228 176.259 31.2566 173.65 32.1954 171.111C34.4217 165.624 36.8706 160.168 39.2876 154.744C41.4078 150.028 43.6235 145.312 45.9345 140.596C48.0105 136.201 50.402 131.96 53.0903 127.908C53.4023 127.436 53.7534 126.99 54.1398 126.576C54.4322 126.712 54.6698 126.943 54.8142 127.231C54.9585 127.519 55.0011 127.847 54.9349 128.162C54.9349 130.287 55.0939 132.412 54.9349 134.506C54.9241 136.371 54.8179 138.234 54.6168 140.089C54.2034 143.261 53.6945 146.433 53.2492 149.605C52.8676 152.269 52.4542 154.966 52.1679 157.662C51.671 161.24 50.8839 164.773 49.8145 168.225C49.083 170.953 48.3198 173.649 47.5565 176.377C46.507 180.088 45.4893 183.831 44.3762 187.574C43.5175 190.524 42.4044 193.411 41.6093 196.361C40.4884 200.634 39.8379 205.016 39.6692 209.43C39.6692 213.966 39.4784 218.47 39.3512 223.006C39.3082 224.016 39.2021 225.022 39.0332 226.019C38.9172 226.539 38.7576 227.049 38.5561 227.542C37.5702 227.542 37.2522 227.098 36.9342 226.527C34.5899 222.47 31.9203 218.608 28.9515 214.981C27.9656 213.744 26.9797 212.475 25.7712 211.333C19.273 204.421 13.9067 196.532 9.86953 187.955C7.62521 183.196 5.71252 178.289 4.14497 173.268C1.93801 165.769 0.698285 158.02 0.455775 150.207C0.140629 142.967 0.771377 135.716 2.33216 128.638C2.90462 125.688 3.63611 122.738 4.33579 119.788C4.32606 119.384 4.45706 118.989 4.70644 118.671C4.95583 118.353 5.30813 118.131 5.70331 118.043Z" fill="#FAFAFA" fill-opacity="0.3"/>
<path d="M460.983 113.945C461.714 116.102 462.446 117.974 463.018 119.877C465.936 130.301 466.875 141.178 465.785 151.946C465.273 159.055 463.982 166.085 461.937 172.914C460.715 176.984 459.195 180.96 457.389 184.809C455.879 187.739 454.112 190.531 452.109 193.151C444.827 203.143 437.48 213.072 430.165 223C429.752 223.539 429.37 224.491 428.448 224.142C427.525 223.793 427.812 222.873 427.812 222.144C427.812 219.13 427.812 216.085 428.002 213.072C428.282 207.537 427.692 201.993 426.253 196.64C425.172 193.024 423.963 189.472 422.85 185.856C421.737 182.239 420.847 179.036 419.893 175.61C419.129 172.945 418.398 170.281 417.73 167.616C416.903 164.444 416.108 161.272 415.377 158.1C414.645 154.928 413.882 151.471 413.309 148.108C412.006 142.078 411.271 135.94 411.115 129.774C411.067 129.14 411.067 128.504 411.115 127.871C411.156 127.384 411.31 126.912 411.563 126.494C411.817 126.076 412.164 125.722 412.578 125.46C412.872 125.794 413.118 126.168 413.309 126.57C414.334 129.696 415.688 132.705 417.348 135.547C419.543 139.702 421.833 143.763 424.154 147.823C425.267 149.758 426.571 151.597 427.844 153.406C429.471 155.84 430.846 158.433 431.946 161.145C432.9 163.397 433.823 165.681 434.84 167.87C436.538 171.501 437.469 175.442 437.575 179.448C437.575 182.144 437.862 184.84 438.052 187.568C438.022 187.971 438.075 188.375 438.206 188.757C438.337 189.138 438.544 189.49 438.816 189.789C439.018 189.39 439.188 188.977 439.324 188.552C439.865 186.173 440.342 183.794 440.915 181.415C441.944 177.088 443.305 172.846 444.986 168.727C447.339 163.049 449.915 157.434 452.173 151.693C453.668 147.95 454.908 144.111 456.021 140.242C458.362 132.497 459.645 124.474 459.838 116.388C460.028 115.087 460.028 115.087 460.983 113.945Z" fill="#FAFAFA" fill-opacity="0.3"/>
<path d="M440.185 164.213C439.86 163.717 439.573 163.198 439.326 162.659C438.467 160.312 437.672 157.964 436.814 155.617C435.023 150.778 432.743 146.133 430.008 141.755C426.223 135.411 421.802 129.86 417.572 123.992C414.074 119.128 410.671 114.232 407.364 109.305C405.283 106.027 403.576 102.526 402.275 98.8692C401.194 96.0778 400.144 93.3181 399.095 90.4633C398.045 87.6084 397.695 84.9122 396.996 82.1208C396.962 82.0178 396.962 81.9066 396.996 81.8036C396.996 81.3912 396.996 80.7568 397.345 80.5348C397.695 80.3127 398.3 80.7251 398.65 81.1057C400.749 83.4531 402.689 85.9272 405.01 88.1477C409.176 92.3348 413.438 96.395 417.732 100.455C421.362 103.737 424.792 107.233 428.004 110.923C432.144 115.606 435.08 121.224 436.559 127.291C436.631 127.608 436.738 127.916 436.877 128.211C436.877 128.211 437.1 128.401 437.259 128.528C438.054 128.115 437.927 127.386 437.958 126.72C437.958 124.277 437.958 121.835 437.958 119.392C437.958 111.43 437.958 103.532 438.276 95.4751C438.276 89.4165 438.785 83.3579 438.976 77.2993C439.135 74.3197 439.135 71.3337 438.976 68.3541C438.571 63.912 437.273 59.5968 435.16 55.6659C434.778 54.9047 434.365 54.1434 434.047 53.3821C433.729 52.6208 433.697 52.3353 434.269 52.145C434.842 51.9547 435.096 52.145 435.35 52.5256C436.527 53.8262 437.704 55.1267 438.817 56.5224C442.342 61.1914 445.359 66.221 447.817 71.5262C450.4 76.9035 452.169 82.6333 453.065 88.5283C454.31 96.031 454.715 103.648 454.273 111.24C454.065 115.763 453.372 120.251 452.206 124.626C451.443 127.386 450.298 130.019 449.439 132.778C448.581 135.538 447.754 138.361 447.022 141.184C445.75 146.133 444.605 151.113 443.269 156.029C442.602 158.408 441.616 160.724 440.757 163.071C440.591 163.464 440.4 163.845 440.185 164.213Z" fill="#FAFAFA" fill-opacity="0.3"/>
<path d="M26.8077 166.742C26.5887 166.235 26.3976 165.716 26.2353 165.188C25.3766 161.794 24.6451 158.368 23.7228 154.974C22.8005 151.58 21.8464 148.915 20.7969 145.902C19.493 142.032 18.0935 138.162 16.726 134.324L14.6906 128.614C13.6663 125.508 12.89 122.326 12.3689 119.098C11.3208 112.416 11.0646 105.634 11.6057 98.8919C11.8566 93.7363 12.6021 88.6165 13.832 83.6026C14.7593 80.4456 16.0394 77.4024 17.6483 74.5306C19.9064 70.2483 22.228 66.0295 24.7087 61.8424C25.8624 60.117 27.149 58.4838 28.5568 56.9575C28.9689 56.5818 29.4287 56.2618 29.9245 56.0059C30.1405 56.3183 30.2562 56.6889 30.2562 57.0685C30.2562 57.4481 30.1405 57.8187 29.9245 58.1311C28.7104 60.6121 27.7719 63.2182 27.1258 65.9026C25.8671 71.2407 25.3957 76.7332 25.7264 82.207C26.0126 86.6161 26.5533 90.9935 27.0939 95.371C28.2319 102.889 28.8166 110.48 28.8432 118.083C28.8432 122.555 28.3025 126.996 28.0162 131.469C27.8578 132.924 27.8578 134.391 28.0162 135.846C28.4308 135.103 28.7615 134.315 29.0021 133.499C31.7273 122.669 37.3818 112.794 45.349 104.951C49.4434 100.741 53.8443 96.8394 58.5156 93.2774C59.3705 92.5569 60.1582 91.7606 60.8691 90.8984C62.3638 89.1855 63.795 87.3774 65.2261 85.601C65.4474 85.3068 65.7037 85.0405 65.9895 84.808C66.3711 84.5543 66.9436 84.2371 67.198 84.364C67.3782 84.5018 67.5237 84.6797 67.6231 84.8834C67.7225 85.0871 67.7729 85.3111 67.7704 85.5376C67.5343 87.5961 67.1839 89.6399 66.7209 91.6596C65.1883 96.5253 63.3833 101.301 61.3144 105.966C58.6418 111.989 55.2458 117.666 51.2009 122.873C48.593 126.584 46.2078 130.422 43.7271 134.197C41.2464 137.972 38.2887 142.222 35.7126 146.314C32.7115 150.966 30.438 156.047 28.9703 161.381C28.5887 162.809 27.9844 164.173 27.4755 165.568C27.2954 165.982 27.0715 166.376 26.8077 166.742Z" fill="#FAFAFA" fill-opacity="0.3"/>
<path d="M192.177 279.832C191.413 279.832 190.618 279.642 189.855 279.484C180.101 277.122 170.732 273.395 162.027 268.413C149.454 261.262 138.431 251.691 129.598 240.256C120.764 228.821 114.296 215.749 110.569 201.8C109.424 197.518 108.756 193.172 107.93 188.826C106.691 180.299 106.392 171.662 107.039 163.069C107.249 161.018 107.6 158.983 108.089 156.979C110.14 143.911 114.558 131.325 121.128 119.835C127.756 108.194 136.503 97.8882 146.92 89.4463C157.661 80.6028 170.047 73.9624 183.367 69.9065C187.533 68.6377 191.795 67.7178 196.088 66.7345C197.071 66.6198 198.064 66.6198 199.046 66.7345C198.601 67.0834 198.442 67.2737 198.219 67.3372C191.732 69.7922 185.411 72.6636 179.296 75.9334C173.11 79.2622 167.169 83.0253 161.518 87.1942C156.239 91.083 151.283 95.3897 146.698 100.073C139.799 107.111 133.816 114.986 128.888 123.514C125.127 129.903 122.067 136.678 119.76 143.72C117.266 150.969 115.706 158.505 115.117 166.146C114.815 171.619 114.815 177.105 115.117 182.578C115.374 186.345 115.917 190.088 116.739 193.775C118.228 201.29 120.598 208.604 123.799 215.567C131.6 232.45 143.241 247.286 157.797 258.897C162.422 262.573 167.277 265.953 172.331 269.016C178.33 272.549 184.531 275.727 190.904 278.532L192.399 279.293L192.177 279.832Z" fill="#FAFAFA" fill-opacity="0.3"/>
<path d="M33.6595 111.446C33.5346 110.7 33.4497 109.948 33.4051 109.194C33.4051 106.022 33.6277 102.85 33.4051 99.4554C33.0553 93.1114 32.451 86.9576 32.1011 80.6769C31.8309 77.3941 31.8309 74.0947 32.1011 70.8119C32.6428 65.8997 33.439 61.0188 34.4864 56.1888C35.8138 50.3445 38.6413 44.9447 42.6916 40.5189C45.3157 37.5897 48.0974 34.8047 51.0242 32.1764C54.1268 29.5024 57.6515 27.3588 61.4557 25.8323C62.2404 25.5205 63.0644 25.3177 63.9045 25.2296C64.0839 25.2157 64.2637 25.2495 64.4257 25.3275C64.5877 25.4055 64.7262 25.525 64.8268 25.6737C64.8268 25.8957 64.6678 26.3081 64.5406 26.6253C64.4474 26.7542 64.3282 26.8622 64.1907 26.9425C60.866 29.6248 58.1733 33.0035 56.3035 36.8393C54.7896 39.623 53.666 42.6008 52.9641 45.6893C51.4058 52.0334 50.07 58.092 48.448 64.2775C47.3031 68.6866 45.872 73.0323 44.5363 77.4097C43.9638 79.3447 43.2959 81.2479 42.7235 83.1829C42.6172 83.6745 42.5428 84.1725 42.5008 84.6737C42.8825 84.6737 43.1051 84.4834 43.1369 84.3882C46.168 78.6268 50.3965 73.5765 55.5402 69.5748C61.4556 64.7533 67.5301 60.0586 73.4773 55.3957C77.1551 52.6205 80.4958 49.4268 83.4317 45.8796C84.195 44.928 84.8311 43.8812 85.5944 42.8979C85.9591 42.3821 86.3863 41.9133 86.8665 41.5022C87.6298 40.9312 88.4249 41.2484 88.4249 42.2C88.4182 43.1096 88.3007 44.015 88.0751 44.8963C85.7859 52.956 81.9517 60.4965 76.7848 67.1006C70.1877 75.2628 62.5545 82.5349 54.0773 88.7339C48.1274 93.3302 42.8501 98.7325 38.3982 104.784C37.332 106.379 36.3552 108.031 35.4723 109.733C35.0271 110.494 34.8362 111.192 33.6595 111.446Z" fill="#FAFAFA" fill-opacity="0.3"/>
<path d="M257.346 244.109C256.73 243.81 256.092 243.555 255.438 243.348C251.272 242.079 247.042 240.969 242.908 239.605C236.822 237.6 230.969 234.952 225.448 231.707C224.783 231.379 224.211 230.892 223.783 230.288C223.356 229.684 223.086 228.983 222.999 228.249C222.681 225.807 222.172 223.364 221.663 220.509C222.123 220.712 222.569 220.945 222.999 221.207C228.618 225.878 234.871 229.733 241.572 232.658C244.993 234.132 248.523 235.341 252.131 236.275C252.5 236.319 252.874 236.319 253.244 236.275C253.244 236.275 253.53 236.275 253.752 236.116C253.434 235.323 252.671 235.291 252.067 235.037C248.028 233.356 243.957 231.865 239.95 230.026C233.784 227.346 228.016 223.834 222.808 219.59C222.404 219.281 222.072 218.889 221.836 218.44C221.6 217.99 221.465 217.495 221.44 216.988C221.44 214.229 221.154 211.469 221.027 208.709C221.069 208.437 221.144 208.171 221.25 207.916C221.605 208.171 221.944 208.447 222.267 208.741C229.73 217.282 239.159 223.889 249.745 227.995C250.645 228.316 251.571 228.56 252.512 228.725C252.89 228.8 253.279 228.8 253.657 228.725V228.408C253.324 228.207 252.972 228.037 252.608 227.9C240.85 223.683 230.387 216.504 222.235 207.06C221.83 206.641 221.517 206.143 221.314 205.597C221.112 205.051 221.025 204.469 221.059 203.888C221.25 201.445 221.313 199.003 221.472 196.56C221.472 196.085 221.472 195.577 221.758 194.721C222.267 195.355 222.522 195.641 222.744 195.99C228.897 205.781 237.604 213.719 247.933 218.955C251.6 221.021 255.571 222.498 259.7 223.333C260.999 223.692 262.126 224.502 262.88 225.616C263.294 226.124 263.198 226.568 262.88 227.171C261.703 228.789 260.622 230.343 259.7 232.214C259.255 232.912 259.445 233.134 260.209 233.547C261.112 233.981 261.984 234.48 262.816 235.037C263.124 235.25 263.34 235.57 263.423 235.934C263.505 236.298 263.448 236.68 263.262 237.004C262.753 238.4 262.307 239.827 261.894 241.255C261.481 242.682 261.672 242.46 262.657 242.809C263.885 243.213 264.944 244.011 265.669 245.078C266.393 246.145 266.744 247.422 266.665 248.709C266.665 249.661 266.665 250.58 266.665 251.595C266.295 251.635 265.921 251.635 265.552 251.595C259.419 251.406 253.317 250.641 247.328 249.312C240.626 247.712 234.196 245.136 228.246 241.667C227.529 241.29 226.983 240.655 226.72 239.891L224.684 233.864C224.651 233.537 224.651 233.207 224.684 232.88C225.063 232.965 225.427 233.104 225.766 233.293C235.012 239.067 245.313 242.958 256.074 244.744H257.346C257.483 244.77 257.623 244.77 257.76 244.744L257.346 244.109Z" fill="#FAFAFA" fill-opacity="0.3"/>
<path d="M109.513 3.05167C109.131 3.70297 108.706 4.32817 108.241 4.92316C106.555 6.82639 105.06 8.79305 103.088 10.5694C99.2663 14.5785 95.7975 18.9084 92.7206 23.5113C89.5402 28.1425 86.0736 32.7737 82.6707 37.3097C79.6756 41.2577 76.2755 44.8829 72.5255 48.1264C67.5006 52.5673 62.3802 56.913 57.2917 61.2904C56.6699 61.8714 56.0113 62.4117 55.3199 62.9081C54.9146 63.073 54.4846 63.1695 54.0477 63.1936C53.8892 62.7683 53.8242 62.3139 53.8568 61.8613C54.1431 60.6877 54.6201 59.5458 54.97 58.3721C56.4011 53.7092 57.8323 49.0463 59.168 44.3517C59.9182 41.6005 61.0191 38.9567 62.4438 36.485C65.0236 31.9585 68.0608 27.707 71.5078 23.7968C76.1126 18.6624 81.6757 14.4714 87.8865 11.4576L101.498 4.76455C103.621 3.78234 105.886 3.14005 108.209 2.86133C108.65 2.86987 109.088 2.93383 109.513 3.05167Z" fill="#FAFAFA" fill-opacity="0.3"/>
<path d="M140.231 194.042C140.613 193.534 140.74 193.185 140.963 193.058C141.309 192.915 141.672 192.819 142.044 192.773C142.98 192.639 143.83 192.154 144.421 191.418C145.011 190.681 145.299 189.748 145.225 188.808C145.225 186.841 145.225 184.874 145.225 182.908V166.794C145.225 166.477 145.225 166.159 145.225 165.842C145.225 163.178 144.429 162.353 141.79 161.972C141.631 161.972 141.408 161.972 141.313 161.972C141.05 161.774 140.842 161.512 140.708 161.211C140.708 161.211 141.058 160.799 141.313 160.672C141.575 160.623 141.845 160.623 142.108 160.672C145.924 160.672 149.772 160.672 153.621 160.672C154.064 160.64 154.506 160.761 154.87 161.015C155.235 161.269 155.501 161.641 155.624 162.067C158.009 167.809 160.49 173.519 162.939 179.228L163.67 180.751C164.02 180.085 164.275 179.704 164.434 179.292L171.176 162.575C171.287 162.397 171.373 162.205 171.431 162.004C171.472 161.781 171.558 161.569 171.684 161.38C171.81 161.191 171.973 161.029 172.163 160.905C172.353 160.78 172.567 160.695 172.791 160.655C173.015 160.615 173.244 160.621 173.466 160.672C174.706 160.672 175.915 160.672 177.155 160.672H184.502C184.871 160.624 185.245 160.624 185.615 160.672C185.91 160.83 186.178 161.033 186.41 161.274C186.155 161.496 185.965 161.877 185.71 161.972C185.456 162.067 184.534 161.972 183.993 162.289C183.439 162.403 182.94 162.7 182.577 163.132C182.213 163.564 182.006 164.105 181.989 164.669C181.989 165.049 181.989 165.43 181.989 165.81V189.252C181.989 191.821 182.753 192.646 185.17 192.995C185.37 192.962 185.574 192.962 185.774 192.995C185.996 192.995 186.283 193.376 186.251 193.502C186.207 193.634 186.136 193.756 186.043 193.86C185.95 193.963 185.837 194.047 185.71 194.105C185.395 194.169 185.071 194.169 184.756 194.105H169.65C169.109 194.105 168.186 194.422 168.155 193.471C168.123 192.519 169.045 192.931 169.554 192.836C171.621 192.519 172.544 191.567 172.544 189.664C172.544 182.749 172.544 175.834 172.544 168.919C172.544 168.729 172.544 168.507 172.544 167.967C172.194 168.57 171.971 168.856 171.812 169.205L162.271 192.678C162.271 192.9 162.049 193.154 161.953 193.407C161.858 193.661 161.381 194.2 160.776 194.2C160.512 194.247 160.24 194.199 160.008 194.065C159.775 193.932 159.597 193.722 159.504 193.471C158.868 191.916 158.137 190.299 157.469 188.808C154.702 182.464 151.903 175.802 149.136 169.331C149.136 169.046 148.85 168.76 148.564 168.221C148.421 168.61 148.325 169.015 148.278 169.427C148.278 175.771 148.278 182.4 148.278 188.903C148.186 189.344 148.189 189.799 148.288 190.238C148.386 190.677 148.577 191.091 148.848 191.451C149.118 191.811 149.463 192.109 149.858 192.326C150.253 192.543 150.69 192.674 151.14 192.709H151.585C152.062 192.709 152.794 192.709 152.666 193.534C152.539 194.359 151.935 194.042 151.49 194.042H141.726C141.281 194.232 140.963 194.137 140.231 194.042Z" fill="#FAFAFA" fill-opacity="0.3"/>
<path d="M224.774 160.687H226.332C229.513 160.687 232.693 160.687 236.064 160.687C236.565 160.65 237.066 160.745 237.518 160.962C237.97 161.179 238.357 161.511 238.64 161.925C242.902 167.349 247.227 172.773 251.521 178.197C251.706 178.45 251.856 178.728 251.966 179.022L252.411 178.8C252.502 178.478 252.566 178.149 252.602 177.816C252.602 174.644 252.602 171.314 252.602 168.078C252.589 167.016 252.504 165.957 252.347 164.906C252.258 164.243 251.961 163.626 251.498 163.141C251.035 162.657 250.431 162.331 249.771 162.21C249.413 162.149 249.062 162.053 248.722 161.925C248.436 161.925 248.277 161.417 248.054 161.163L248.817 160.561H259.217C259.373 160.59 259.523 160.644 259.662 160.719C259.98 161.512 259.662 161.956 258.899 162.115H258.422C257.635 162.194 256.905 162.562 256.376 163.149C255.847 163.736 255.556 164.498 255.56 165.287C255.56 165.921 255.56 166.556 255.56 167.19V192.566C255.56 193.201 255.56 193.804 255.56 194.406C255.015 194.688 254.384 194.753 253.794 194.588C253.203 194.424 252.697 194.041 252.379 193.518C247.386 187.174 242.298 181.02 237.273 174.771C236.032 173.249 234.76 171.599 233.552 170.172C233.372 169.904 233.223 169.616 233.106 169.315L232.693 169.569C232.574 169.885 232.499 170.216 232.47 170.552C232.47 176.357 232.47 182.162 232.47 187.935C232.454 188.199 232.454 188.464 232.47 188.728C232.469 189.761 232.87 190.755 233.587 191.5C234.305 192.245 235.284 192.684 236.319 192.725C236.827 192.725 237.527 192.725 237.495 193.423C237.463 194.121 236.7 193.994 236.223 193.994H226.141C225.879 194.042 225.609 194.042 225.346 193.994C225.124 193.994 224.869 193.708 224.838 193.518C224.834 193.395 224.866 193.274 224.927 193.167C224.989 193.061 225.079 192.974 225.187 192.915C225.634 192.749 226.091 192.611 226.555 192.503C227.309 192.367 227.994 191.978 228.497 191.402C229 190.825 229.291 190.095 229.322 189.331C229.353 188.75 229.353 188.167 229.322 187.586V167C229.374 165.884 229.034 164.786 228.361 163.894C227.687 163.002 226.722 162.372 225.633 162.115C224.838 161.893 224.838 161.893 224.774 160.687Z" fill="#FAFAFA" fill-opacity="0.3"/>
<path d="M210.715 160.738C211.065 160.738 211.478 160.738 211.892 160.738C215.072 160.738 218.253 160.738 221.656 160.738C222.164 160.738 222.96 160.484 223.087 161.309C223.214 162.134 222.355 162.102 221.846 162.197C220.884 162.339 220.014 162.848 219.421 163.618C218.827 164.387 218.557 165.356 218.666 166.321C218.666 171.269 218.666 176.186 218.666 181.134C218.652 183.156 218.46 185.173 218.094 187.161C217.783 188.855 216.991 190.425 215.813 191.684C214.635 192.944 213.12 193.84 211.447 194.267C207.651 195.408 203.602 195.408 199.807 194.267C197.983 193.883 196.333 192.923 195.1 191.528C193.868 190.134 193.121 188.379 192.969 186.527C192.841 185.05 192.788 183.568 192.81 182.086C192.81 176.947 192.81 171.777 192.81 166.606C192.841 166.025 192.841 165.443 192.81 164.862C192.829 164.245 192.614 163.643 192.207 163.178C191.8 162.714 191.231 162.42 190.615 162.356C190.248 162.305 189.886 162.22 189.534 162.102C189.248 162.102 188.866 161.69 188.835 161.436C188.803 161.182 189.28 160.801 189.693 160.77C189.958 160.754 190.224 160.754 190.488 160.77H204.863C205.18 160.722 205.501 160.722 205.818 160.77C206.098 160.948 206.345 161.174 206.549 161.436C206.295 161.658 206.072 161.975 205.786 162.07C205.5 162.165 204.641 162.07 204.068 162.356C203.537 162.452 203.057 162.729 202.708 163.14C202.36 163.551 202.166 164.07 202.16 164.608C202.16 164.925 202.16 165.242 202.16 165.56C202.16 172.475 202.16 179.39 202.16 186.273C202.153 187.702 202.68 189.082 203.639 190.144C204.597 191.205 205.919 191.872 207.344 192.014C208.333 192.118 209.333 191.998 210.269 191.663C211.205 191.328 212.053 190.787 212.751 190.079C214.04 188.943 214.866 187.374 215.072 185.67C215.295 183.608 215.486 181.547 215.518 179.326C215.518 175.329 215.518 171.333 215.518 167.368C215.549 166.935 215.549 166.5 215.518 166.067C215.231 164.037 214.722 162.261 212.051 162.07C211.065 162.039 210.334 161.912 210.715 160.738Z" fill="#FAFAFA" fill-opacity="0.3"/>
<path d="M284.134 272.467C282.289 275.068 279.268 275.417 276.406 276.432H279.141C279.169 276.565 279.167 276.702 279.136 276.835C279.104 276.967 279.044 277.091 278.959 277.197C278.874 277.303 278.766 277.389 278.643 277.449C278.521 277.508 278.387 277.54 278.251 277.542C276.766 277.947 275.24 278.181 273.702 278.24C273.017 278.199 272.337 278.381 271.763 278.759C271.19 279.136 270.755 279.689 270.522 280.333C269.409 282.744 269.155 282.839 266.61 281.983C265.147 281.507 263.716 280.841 262.253 280.333C261.096 279.939 259.918 279.61 258.723 279.35C257.069 279.033 256.37 279.731 256.37 281.412C256.401 281.622 256.401 281.836 256.37 282.046H256.147C255.257 281.697 254.907 280.746 254.462 279.953C254.085 279.108 253.766 278.239 253.507 277.352C252.458 277.986 252.649 278.969 252.585 279.794C252.522 280.619 252.585 281.412 252.585 282.237C252.585 282.237 252.331 282.237 252.267 282.237C251.578 281.834 250.981 281.293 250.513 280.647C250.046 280.002 249.717 279.267 249.55 278.488C249.382 277.709 249.379 276.904 249.54 276.125C249.702 275.345 250.024 274.607 250.486 273.958C250.943 273.36 251.523 272.867 252.186 272.511C252.85 272.155 253.583 271.946 254.334 271.896C255.762 271.843 257.192 271.95 258.596 272.213C258.999 272.33 259.427 272.332 259.831 272.22C260.236 272.108 260.601 271.886 260.886 271.578C262.794 269.517 264.893 267.613 266.738 265.488C269.094 262.632 270.465 259.095 270.649 255.401C270.649 254.989 270.649 254.576 270.84 253.91C271.357 254.156 271.847 254.453 272.303 254.798C273.671 256.035 275.07 257.273 276.406 258.573C278.443 260.769 281.002 262.417 283.848 263.363C284.802 263.648 284.961 264.124 284.261 264.854C283.27 265.889 282.207 266.853 281.081 267.74C280.502 268.13 280.084 268.716 279.904 269.39C282.289 269.041 284.388 268.026 286.646 267.74C284.357 270.912 280.795 271.452 277.551 272.784C278.629 273.179 279.812 273.179 280.89 272.784C282.003 272.562 283.084 272.149 284.07 271.832L284.134 272.467ZM260.25 274.592C259.869 274.294 259.398 274.131 258.914 274.131C258.43 274.131 257.959 274.294 257.578 274.592C258.564 274.751 259.232 275.226 260.25 274.592Z" fill="#FAFAFA" fill-opacity="0.3"/>
<path d="M248.853 120.56C249.171 119.958 249.266 119.482 249.584 119.228C249.728 119.094 249.899 118.991 250.085 118.925C250.271 118.86 250.469 118.833 250.666 118.848C250.853 118.912 251.024 119.016 251.166 119.153C251.309 119.29 251.42 119.457 251.493 119.641C251.656 120.469 251.773 121.305 251.842 122.146C252.001 124.367 252.192 126.587 252.351 128.839C252.369 129.082 252.369 129.326 252.351 129.569H250.602C249.856 128.023 249.006 126.528 248.058 125.096C247.148 123.867 245.97 122.859 244.613 122.15C243.256 121.441 241.755 121.048 240.223 121.003C238.691 120.957 237.169 121.259 235.772 121.885C234.375 122.512 233.138 123.448 232.156 124.621C230.222 126.773 228.991 129.462 228.626 132.329C227.94 136.409 228.622 140.601 230.566 144.256C231.303 145.778 232.351 147.129 233.644 148.222C234.937 149.314 236.445 150.125 238.071 150.6C240.681 151.291 243.458 150.926 245.8 149.585C246.001 149.467 246.173 149.306 246.305 149.114C246.437 148.922 246.525 148.704 246.563 148.474C246.563 145.144 246.563 141.781 246.372 138.451C246.372 136.643 245.577 136.103 243.828 135.723C243.351 135.501 242.429 135.723 242.556 134.898C242.683 134.073 243.414 134.422 243.891 134.422C247.581 134.422 251.238 134.422 254.927 134.422C255.404 134.422 256.136 134.169 256.231 134.93C256.327 135.691 255.563 135.533 255.086 135.659C254.384 135.747 253.74 136.096 253.286 136.638C252.832 137.179 252.6 137.872 252.637 138.578C252.637 139.942 252.637 141.337 252.637 142.701C252.637 144.89 252.637 147.079 252.637 149.267C252.682 149.658 252.594 150.052 252.386 150.386C252.178 150.72 251.863 150.974 251.493 151.107C248.521 152.548 245.256 153.286 241.952 153.264C239.452 153.353 236.949 153.205 234.478 152.82C231.006 152.117 227.869 150.278 225.564 147.594C223.26 144.911 221.919 141.536 221.756 138.007C221.48 134.754 222.098 131.487 223.543 128.559C224.989 125.63 227.208 123.15 229.962 121.385C232.083 120.03 234.51 119.223 237.022 119.038C240.52 118.599 244.072 119.035 247.358 120.307C247.849 120.431 248.349 120.516 248.853 120.56Z" fill="#FAFAFA" fill-opacity="0.3"/>
<path d="M192.008 127.419C191.711 127.441 191.414 127.441 191.117 127.419C190.747 127.44 190.375 127.44 190.004 127.419C189.895 124.756 190.055 122.088 190.481 119.457H192.326H216.942C218.436 119.457 218.595 119.457 218.723 121.075C218.85 122.693 218.723 123.549 218.723 124.754C218.723 125.96 218.723 126.531 218.723 127.387C216.973 127.8 216.783 127.704 216.464 126.277C216.27 125.137 215.679 124.101 214.795 123.353C213.91 122.605 212.79 122.191 211.631 122.185C210.517 122.185 209.404 122.185 208.45 122.185C207.496 122.185 207.21 122.185 207.178 123.517C207.178 125.23 207.178 126.911 207.178 128.624C207.178 134.334 207.178 140.012 207.178 145.69C207.193 146.753 207.289 147.813 207.464 148.862C207.472 149.51 207.732 150.13 208.189 150.591C208.645 151.053 209.263 151.32 209.913 151.336C210.39 151.305 210.868 151.305 211.344 151.336C211.461 151.372 211.567 151.437 211.651 151.526C211.734 151.615 211.793 151.725 211.821 151.844C211.821 152.002 211.599 152.288 211.376 152.351C211.072 152.415 210.758 152.415 210.454 152.351H198.114C197.605 152.351 196.747 152.605 196.683 151.812C196.619 151.019 197.478 151.209 198.019 151.177C198.862 151.177 199.671 150.843 200.267 150.248C200.864 149.654 201.199 148.847 201.199 148.005C201.231 147.414 201.231 146.821 201.199 146.229V123.739C201.199 123.2 201.199 122.693 201.199 122.026C199.335 121.724 197.434 121.724 195.57 122.026C194.771 122.293 194.057 122.765 193.499 123.394C192.94 124.023 192.558 124.788 192.39 125.611C192.199 126.34 192.135 126.816 192.008 127.419Z" fill="#FAFAFA" fill-opacity="0.3"/>
<path d="M186.96 151.955C186.769 152.558 186.229 152.494 185.784 152.494H173.062C172.853 152.543 172.635 152.543 172.426 152.494C172.214 152.363 172.021 152.203 171.854 152.019C172.045 151.828 172.204 151.511 172.458 151.416C172.828 151.383 173.201 151.383 173.571 151.416C174.31 151.336 174.999 151.001 175.516 150.468C176.033 149.935 176.346 149.237 176.402 148.498C176.433 147.917 176.433 147.334 176.402 146.753V124.549C176.402 122.233 175.797 121.186 172.967 120.679C172.744 120.679 172.522 120.679 172.331 120.679C172.135 120.539 171.954 120.379 171.79 120.203C171.981 119.981 172.14 119.696 172.394 119.6C172.711 119.552 173.032 119.552 173.348 119.6H185.656C186.133 119.6 186.897 119.6 186.928 120.171C186.96 120.742 186.197 120.742 185.72 120.806C183.239 121.155 182.54 122.106 182.54 124.802C182.54 130.798 182.54 136.825 182.54 142.82C182.54 144.469 182.54 145.992 182.54 147.768C182.54 150.306 183.462 151.257 186.038 151.511C186.356 151.352 186.865 151.289 186.96 151.955Z" fill="#FAFAFA" fill-opacity="0.3"/>
<path d="M169.123 119.961C168.92 120.186 168.684 120.379 168.423 120.532C168.052 120.563 167.68 120.563 167.31 120.532C166.528 120.618 165.806 120.99 165.284 121.576C164.761 122.162 164.474 122.92 164.479 123.704C164.479 124.275 164.479 124.878 164.479 125.449V147.653C164.479 149.842 165.592 150.825 167.818 151.237C168.327 151.237 168.932 151.237 169.091 151.904C169.25 152.57 168.327 152.443 167.882 152.443H155.161C154.952 152.492 154.734 152.492 154.525 152.443C154.313 152.312 154.12 152.151 153.952 151.967C154.175 151.777 154.334 151.459 154.557 151.396C154.926 151.347 155.3 151.347 155.67 151.396C156.409 151.316 157.097 150.981 157.614 150.448C158.132 149.915 158.445 149.218 158.5 148.478C158.532 147.897 158.532 147.314 158.5 146.733V124.973C158.5 121.611 158.023 121.071 154.716 120.437C154.398 120.437 153.952 120.12 153.92 119.898C153.889 119.676 154.366 119.327 154.779 119.295H167.501C168.009 119.295 168.55 119.295 169.059 119.295L169.123 119.961Z" fill="#FAFAFA" fill-opacity="0.3"/>
<path d="M353.912 -0.00195312C354.545 0.113511 355.171 0.261738 355.788 0.442131C361.259 2.59912 366.856 4.56579 372.199 7.03999C380.008 10.3843 387.028 15.3223 392.808 21.5362C398.963 28.9019 403.667 37.3609 406.674 46.4685C407.85 49.926 408.964 53.4153 410.109 56.9045C410.395 57.761 410.808 58.554 411.063 59.4422C411.14 59.8829 411.14 60.3337 411.063 60.7744C410.618 60.7838 410.175 60.7084 409.759 60.5524C408.835 59.9324 407.943 59.2653 407.087 58.554C399.953 52.8062 393.157 46.6528 386.733 40.1244C380.835 33.9796 375.403 27.4059 370.482 20.4577C367.905 16.7465 364.884 13.3524 362.149 9.76795C360.308 7.48584 358.276 5.36355 356.075 3.42386C354.983 2.56128 354.22 1.35253 353.912 -0.00195312Z" fill="#FAFAFA" fill-opacity="0.3"/>
<path d="M376.877 37.673C377.232 38.0416 377.561 38.4337 377.863 38.8466C379.835 41.4794 381.711 44.2074 383.81 46.745C385.013 48.1571 386.368 49.4335 387.849 50.5515C389.63 51.9789 391.57 53.2477 393.415 54.58C397.327 57.4031 401.239 60.2897 405.182 63.0811C409.248 65.9117 412.935 69.2481 416.154 73.0095C417.013 74.0246 417.935 75.0079 418.858 75.9595C419.208 76.3085 419.653 76.5622 420.034 76.8794H420.416C420.48 76.4058 420.48 75.9257 420.416 75.452C419.112 70.7574 417.776 65.9359 416.504 61.3364C414.882 55.3413 413.324 49.2826 411.766 43.2875C410.655 38.7432 408.714 34.442 406.041 30.5993C404.451 28.474 402.479 26.6343 400.698 24.6676C399.998 23.9063 399.33 23.1133 398.567 22.2251C398.919 22.0363 399.312 21.9375 399.712 21.9375C400.112 21.9375 400.505 22.0363 400.857 22.2251C404.042 23.2029 407.041 24.7038 409.73 26.666C417.479 31.901 423.815 38.961 428.176 47.2208C430.785 52.3613 432.209 58.0187 432.342 63.7789C432.883 77.9579 432.788 92.3273 432.597 106.348C432.535 106.945 432.44 107.538 432.31 108.124H431.961C431.665 107.878 431.408 107.589 431.197 107.268C428.083 101.984 424.106 97.2562 419.43 93.2789C413.706 87.7278 407.249 82.9698 401.08 77.9262C394.15 72.4929 388.156 65.9679 383.333 58.6085C381.854 56.0316 380.568 53.3492 379.485 50.5832C377.935 46.965 376.927 43.1385 376.496 39.2273C376.432 38.7197 376.146 38.1805 376.877 37.673Z" fill="#FAFAFA" fill-opacity="0.3"/>
</svg>
