<svg width="77" height="73" viewBox="0 0 77 73" fill="none" xmlns="http://www.w3.org/2000/svg">
<path d="M8.77771 46.4807C14.6133 39.8622 20.9329 33.4191 24.3328 25.1511C26.4656 19.9646 27.5309 13.7568 28.4496 8.26975C28.7429 6.5177 28.8409 4.69825 28.9054 2.92354C28.9192 2.54478 29.1234 1.45611 28.7811 1.11384C27.5732 -0.094064 23.47 8.70296 23.3658 8.96047C22.1935 11.8591 19.5263 18.6698 21.9706 21.7251C23.3326 23.4276 25.8192 24.6315 27.6759 25.7036C30.215 27.1699 30.6522 30.8272 30.4803 33.4398C30.1279 38.7957 24.6213 41.2266 20.0365 41.7008C13.8174 42.3442 7.3187 42.3336 2.75458 37.5565C1.99446 36.7609 0.70116 35.456 0.889627 34.1996C1.09362 32.8396 1.68948 30.9366 2.58881 29.8618C4.78205 27.2406 8.3885 25.14 11.8445 26.3944C16.8438 28.2089 17.4489 34.5731 17.3013 39.0623C17.0616 46.3477 14.7917 53.4492 14.2482 60.7372C13.9807 64.3256 13.4195 68.628 15.6021 71.8026C16.1862 72.6523 18.3066 69.9812 18.5031 69.7166C22.6602 64.1195 23.2714 55.6772 24.0565 49.0502C24.5327 45.0313 27.1378 14.9007 24.9407 14.9007" stroke="#60E1A4" stroke-width="0.717083" stroke-linecap="round"/>
<path d="M27.6779 34.793C28.7042 32.6379 29.8915 30.5948 31.3526 28.7008C32.0665 27.7754 32.8776 26.6973 34.1293 26.601C35.2771 26.5127 35.7055 27.9812 36.0081 28.8666C36.9711 31.6842 37.2931 34.8487 36.9613 37.8045C36.399 42.8141 34.7427 48.152 29.1423 48.9114C24.2662 49.5726 21.2827 44.3412 20.6187 40.153C19.9919 36.1994 20.6805 32.6989 23.6441 29.9303C24.8145 28.8368 26.7872 27.2487 28.4792 28.4383C29.9745 29.4897 30.8991 31.9946 31.1039 33.7431C31.3738 36.0477 30.4771 38.3934 29.4462 40.4017C28.8078 41.6452 27.927 42.5233 26.8491 43.3856C25.5813 44.3998 27.3167 40.8322 27.4016 40.678C29.6907 36.5237 34.3397 33.2467 38.1217 30.4552C38.912 29.8719 39.9196 29.3794 40.0972 28.314C40.5435 25.6362 33.1885 28.1334 32.6788 28.3554C30.9975 29.0876 26.1792 30.7134 27.9542 31.1736C29.9192 31.683 32.4361 31.2094 34.4194 31.0631C37.3701 30.8454 40.0485 30.1958 42.8739 29.3501C44.2352 28.9426 45.1153 28.4927 46.1894 27.6371C53.1181 22.1176 60.7887 17.4173 68.4031 12.9108C69.0821 12.509 73.2345 10.0724 73.1829 10.1755" stroke="#60E1A4" stroke-width="0.717083" stroke-linecap="round"/>
<path d="M7.78125 54.9357C18.1844 47.7051 28.8411 40.7452 39.6651 34.1587C47.3681 29.4713 55.1823 24.7576 63.1221 20.4823C67.2807 18.2431 72.4408 17.1331 76.163 14.1553" stroke="#60E1A4" stroke-width="0.717083" stroke-linecap="round"/>
</svg>
