<svg width="111" height="122" viewBox="0 0 111 122" fill="none" xmlns="http://www.w3.org/2000/svg">
<g filter="url(#filter0_d_557_9112)">
<path d="M62.7116 75.8369C62.5912 75.7014 62.6438 75.4982 62.5008 75.3703C62.4428 75.493 62.4095 75.626 62.403 75.7616V76.1906C62.403 76.4389 62.403 76.469 62.1246 76.4916H61.8913C61.6371 76.4791 61.3827 76.5096 61.1387 76.5819C60.8589 76.6568 60.5705 76.6948 60.2808 76.6948C60.1228 76.6948 59.9723 76.6948 59.8218 76.6948C59.2724 76.6948 58.7231 76.6948 58.1812 76.7625C57.7598 76.7625 57.3384 76.7625 56.9169 76.7625C56.9077 76.7812 56.9028 76.8018 56.9028 76.8227C56.9028 76.8436 56.9077 76.8642 56.9169 76.8829C56.9355 76.9036 56.9457 76.9304 56.9457 76.9582C56.9457 76.9859 56.9355 77.0127 56.9169 77.0334C56.9169 77.0334 56.8642 77.0334 56.8492 77.0334C56.8341 77.0334 56.7213 76.9582 56.7514 76.8679C56.7815 76.7776 56.7965 76.8227 56.8342 76.77C56.5836 76.7527 56.3322 76.7527 56.0816 76.77H56.0364C55.7956 76.77 55.5623 76.77 55.2839 76.77C54.7496 76.77 54.2153 76.77 53.6885 76.8302C53.6243 76.8249 53.5597 76.8343 53.4997 76.8577C53.4396 76.8812 53.3858 76.9182 53.3423 76.9657C53.3423 77.0109 53.2595 76.9657 53.2144 76.9657C52.2436 76.9657 51.2803 76.9657 50.3171 76.9657C49.9709 76.9657 49.6323 76.9657 49.2861 76.9657C48.9399 76.9657 48.7894 76.9657 48.5335 76.9055C48.4955 76.8984 48.4595 76.883 48.4282 76.8604C48.3214 76.7923 48.1947 76.7627 48.0688 76.7764C47.9429 76.7901 47.8255 76.8462 47.7358 76.9356C47.7131 76.9576 47.6858 76.9744 47.6559 76.9848C47.626 76.9952 47.5943 76.9989 47.5628 76.9958C47.2617 76.9958 46.9607 76.9958 46.6672 76.9958H46.1705C46.0984 76.9889 46.03 76.96 45.9749 76.913C45.8844 76.8484 45.7794 76.807 45.6691 76.7926C45.5589 76.7782 45.4468 76.7911 45.3427 76.8302C45.3427 76.8302 45.4631 76.9055 45.4406 76.9582C45.418 77.0109 45.3277 76.9582 45.2675 76.9582C44.4095 77.0033 43.5441 76.9582 42.6787 76.9582C42.34 76.9582 41.9939 77.0259 41.6552 77.0109C41.3166 76.9958 41.0005 76.9507 40.6694 76.9206C40.5565 76.9206 40.5189 76.8152 40.4662 76.7475C40.4136 76.6797 40.2555 76.4464 40.1351 76.311C40.0952 76.2394 40.072 76.1596 40.0674 76.0777C40.0674 73.4814 40.0674 70.8851 40.0674 68.2888C40.0674 66.2419 40.0674 64.1949 40.0674 62.1405C40.0674 61.6438 40.0674 61.1396 40.0674 60.6354C40.0674 60.3569 40.0674 60.0785 40.0674 59.8001C40.0647 59.6333 40.0471 59.467 40.0147 59.3034C39.9973 59.0794 40.01 58.8542 40.0523 58.6336C40.0523 58.5809 40.0523 58.5283 40.0523 58.4756V57.6177C40.0523 57.3693 40.0523 57.121 40.0523 56.8651C40.0523 56.6093 40.0523 56.5867 40.1652 56.4813C40.1833 56.4533 40.193 56.4206 40.193 56.3872C40.193 56.3539 40.1833 56.3212 40.1652 56.2932C40.1469 56.2267 40.1469 56.1565 40.1652 56.09C40.1707 55.7885 40.1378 55.4876 40.0674 55.1945C40.0674 55.0439 40.0222 54.8934 40.0147 54.7429C40.0147 54.4043 40.0147 54.0656 40.0147 53.727C39.9951 53.6735 39.9951 53.6149 40.0147 53.5614C40.2197 53.3351 40.4384 53.1215 40.6694 52.9218C40.7432 52.8611 40.8376 52.8314 40.9328 52.839C41.5875 52.839 42.2347 52.839 42.8894 52.839C45.1471 52.8992 47.4047 52.839 49.6624 52.839C50.2343 52.839 50.8063 52.839 51.3782 52.839C51.9501 52.839 52.6123 52.839 53.2294 52.8841C53.634 52.8893 54.0385 52.8717 54.441 52.8315C54.807 52.8127 55.1738 52.8127 55.5398 52.8315C56.0741 52.8315 56.6009 52.8315 57.1276 52.8917C57.9554 52.9368 58.7908 52.8917 59.6186 52.8917C59.8594 52.8917 59.897 52.9519 59.8519 53.1927C59.8152 53.4019 59.7901 53.6129 59.7766 53.8248C59.7766 54.1559 59.6939 54.4795 59.6487 54.8031C59.6035 55.1267 59.5132 55.5557 59.453 55.9169C59.3552 56.4437 59.2423 56.9629 59.1219 57.4822C58.9241 58.372 58.6728 59.2491 58.3694 60.1086C58.0754 60.9173 57.6996 61.694 57.2481 62.4265C56.9388 62.9305 56.5995 63.4155 56.2321 63.8789C56.059 64.1046 55.8709 64.3154 55.6828 64.5261C55.2513 64.9927 54.8073 65.4442 54.3507 65.8807C53.9669 66.2494 53.5982 66.6332 53.2069 66.9944C52.8156 67.3557 52.6425 67.5664 52.3414 67.8298C52.0404 68.0932 51.6566 68.5221 51.2954 68.8457C50.9342 69.1693 50.445 69.6886 50.016 70.11C49.858 70.2605 49.7828 70.253 49.6473 70.11C49.6236 70.0773 49.5925 70.0508 49.5565 70.0324C49.5205 70.0141 49.4807 70.0046 49.4404 70.0046C49.4 70.0046 49.3602 70.0141 49.3243 70.0324C49.2883 70.0508 49.2571 70.0773 49.2334 70.11C49.0237 70.3184 48.8393 70.5508 48.6841 70.8023C48.2479 71.4539 47.863 72.1382 47.5326 72.8493C47.2987 73.2862 47.1505 73.7639 47.0962 74.2565C46.9936 74.813 47.1037 75.3878 47.4047 75.867C47.5097 76.0097 47.6397 76.1321 47.7885 76.2282C47.7991 76.2396 47.8119 76.2487 47.8261 76.2549C47.8404 76.2611 47.8557 76.2643 47.8713 76.2643C47.8868 76.2643 47.9022 76.2611 47.9164 76.2549C47.9307 76.2487 47.9435 76.2396 47.9541 76.2282C48.0817 76.085 48.1859 75.9224 48.2626 75.7466C48.6088 75.1295 48.9474 74.5049 49.2936 73.8803C49.6732 73.1729 50.1219 72.5049 50.6331 71.886C50.9191 71.5474 51.1976 71.1937 51.5061 70.8701C51.8147 70.5465 52.0856 70.2229 52.4017 69.9143C52.7177 69.6058 53.2445 69.1016 53.6735 68.7027C54.1024 68.3039 54.426 68.0405 54.7647 67.7244C55.3216 67.2503 55.901 66.8063 56.5031 66.3849C56.9519 66.0618 57.4193 65.7653 57.9028 65.4969C58.0232 65.4367 58.0683 65.4517 58.1059 65.5796C58.2213 66.0986 58.2391 66.6345 58.1586 67.16C58.0359 67.9995 57.8446 68.8276 57.5867 69.6359C57.4436 70.1608 57.3305 70.6935 57.2481 71.2313C57.2217 71.4059 57.2217 71.5835 57.2481 71.7581C57.2634 72.1013 57.1477 72.4376 56.9245 72.6988C56.845 72.8175 56.7769 72.9435 56.7213 73.075C56.6709 73.1693 56.6539 73.2779 56.673 73.3831C56.6922 73.4883 56.7463 73.5839 56.8266 73.6545C57.2691 74.0825 57.7589 74.4587 58.2866 74.7758C58.7013 75.0544 59.1337 75.3057 59.581 75.5283C59.9733 75.7344 60.3907 75.8887 60.8227 75.9874C61.2212 76.0553 61.6283 76.0553 62.0267 75.9874C62.0945 75.9874 62.1923 75.9874 62.2073 75.882C62.2224 75.7767 62.1321 75.7315 62.0644 75.6788C61.7257 75.4004 61.3494 75.1746 60.9807 74.9263C60.6304 74.6949 60.2938 74.4437 59.9723 74.1737C59.5123 73.7957 59.2114 73.2584 59.1294 72.6687C59.0918 72.3285 59.0918 71.9853 59.1294 71.6452C59.2034 71.0174 59.3241 70.3961 59.4907 69.7864C59.6881 69.0489 59.9396 68.327 60.2432 67.6266C60.8979 66.0537 61.7031 64.5562 62.4557 63.0285C62.5611 62.8253 62.6739 62.6221 62.7793 62.4114C62.7793 62.4114 62.7793 62.4114 62.7793 62.3738C62.7793 62.3362 62.8621 62.2383 62.9298 62.2609C62.9975 62.2835 62.9825 62.3663 62.9825 62.434C62.9373 63.8187 62.9825 65.2034 62.9825 66.5956C62.9825 67.7846 62.9825 68.9812 62.9825 70.1777C62.9825 70.7798 62.9825 71.3893 62.9373 71.9914C62.9373 72.3752 62.9373 72.7439 62.9373 73.1277C62.9373 73.5115 62.9373 73.9329 62.9373 74.3393C62.9373 74.7457 62.8847 75.137 62.8847 75.5359C62.7492 75.5961 62.7191 75.709 62.7116 75.8369ZM40.3307 74.091C40.4135 74.0082 40.4963 73.9254 40.3759 73.8351C40.2555 73.7448 40.2781 73.8351 40.2555 73.9028C40.2329 73.9706 40.3232 74.0157 40.3307 74.091Z" fill="#3245A9"/>
<path d="M73.8192 49.3163H73.8568C74.504 49.3163 75.1587 49.369 75.8059 49.3163H75.8887C75.9013 49.3181 75.9129 49.3244 75.9212 49.3341C75.9295 49.3438 75.934 49.3562 75.9339 49.369C75.9339 49.369 75.9338 49.369 75.8962 49.369C75.8336 49.3732 75.7707 49.3732 75.7081 49.369C75.4146 49.369 75.1136 49.369 74.8126 49.369L73.172 49.4367C72.886 49.4367 72.5925 49.4367 72.3066 49.4367C72.1561 49.4367 72.013 49.4367 71.9378 49.2486C71.8625 49.0604 71.7647 49.1507 71.6744 49.1507C71.1928 49.1507 70.7112 49.1507 70.2295 49.1507H70.1844L70.7638 49.2561C70.1679 49.4983 69.501 49.4983 68.905 49.2561C69.033 49.2034 69.1759 49.2561 69.3039 49.1658C69.1513 49.075 68.9772 49.0271 68.7997 49.0271C68.6222 49.0271 68.448 49.075 68.2955 49.1658C68.3539 49.1946 68.4073 49.2327 68.4535 49.2787C68.4535 49.2787 68.5363 49.3238 68.5062 49.384C68.4807 49.4189 68.4432 49.4431 68.4008 49.4517C68.2809 49.4667 68.1595 49.4667 68.0396 49.4517H67.6257C67.3924 49.4517 67.3397 49.4066 67.3699 49.1733C67.4301 48.6992 67.5053 48.2326 67.573 47.766C67.6182 47.4199 67.6483 47.0737 67.6934 46.7275C67.7386 46.3813 67.7913 45.975 67.8364 45.5686C67.8364 45.3052 67.874 45.0343 67.8966 44.7709C67.9869 43.6797 67.9568 42.581 67.9493 41.4898C67.9682 41.1162 67.9682 40.742 67.9493 40.3685C67.9192 39.9426 67.9192 39.5151 67.9493 39.0891C67.9952 38.4592 68.1452 37.8413 68.3933 37.2604C68.7185 36.5972 69.0829 35.9539 69.4845 35.3339C69.8003 34.7851 70.0866 34.2199 70.3424 33.6407C70.6208 33.0085 70.8617 32.3538 71.1326 31.7217C71.4035 31.0895 71.6819 30.3972 71.9679 29.735C72.2539 29.0727 72.4721 28.5384 72.7205 27.9288C72.9079 27.4332 73.0613 26.9253 73.1795 26.4087C73.1905 26.3238 73.1905 26.2378 73.1795 26.1528C73.1795 26.1077 73.1795 26.0399 73.1795 26.0249C73.1631 26.0217 73.1462 26.0219 73.1299 26.0255C73.1136 26.0292 73.0982 26.0362 73.0848 26.0461C73.0714 26.056 73.0601 26.0686 73.0518 26.0831C73.0435 26.0976 73.0383 26.1136 73.0366 26.1302C73.0366 26.2507 72.9688 26.3786 72.9387 26.5065C72.7939 27.0868 72.5384 27.6336 72.1861 28.117C72.0808 28.2306 71.9476 28.3147 71.7998 28.3609C71.6519 28.4071 71.4945 28.4138 71.3433 28.3804C71.2756 28.384 71.2078 28.384 71.1401 28.3804C71.0799 28.3804 71.0347 28.4255 71.0197 28.4933C71.0122 28.5406 71.0122 28.5889 71.0197 28.6362C71.0562 29.3818 70.9304 30.1264 70.651 30.8186C70.4929 31.21 70.3349 31.5712 70.1618 31.97C69.7819 32.7958 69.3259 33.5843 68.7997 34.3255C68.5363 34.7018 68.2578 35.0781 67.9643 35.4017C67.7344 35.6889 67.4828 35.9581 67.2118 36.2069C66.6824 36.6635 66.0495 36.9839 65.368 37.14C65.3078 37.14 65.2928 37.14 65.2853 37.0798C65.2738 36.9798 65.2738 36.8788 65.2853 36.7788V27.0709C65.2805 26.7691 65.2603 26.4677 65.2251 26.1679C65.2098 26.0464 65.2223 25.9231 65.2613 25.8072C65.3004 25.6912 65.3652 25.5855 65.4508 25.4981C65.5787 25.3626 65.7067 25.2347 65.8422 25.1068C65.8835 25.0689 65.9323 25.0399 65.9854 25.0218C66.0385 25.0037 66.0948 24.9967 66.1507 25.0014C66.9634 25.0014 67.7762 25.0014 68.589 25.0014C70.3349 25.0541 72.0883 25.0014 73.8568 25.0014C76.0618 25.0541 78.2742 25.0014 80.4792 25.0014C81.7134 25.0014 82.9401 25.0014 84.1667 25.0014C84.2613 24.9955 84.356 25.0114 84.4434 25.0479C84.5308 25.0845 84.6087 25.1407 84.671 25.2121C84.8588 25.3839 85.03 25.5729 85.1826 25.7765C85.2729 25.9346 85.273 25.9496 85.0999 26.0023C85.0714 26.0109 85.0469 26.0291 85.0304 26.0538C85.0139 26.0785 85.0065 26.1082 85.0096 26.1378C85.0048 26.4797 85.0224 26.8216 85.0623 27.1612C85.0623 27.1612 85.0623 27.1612 85.0623 27.1989C85.0623 27.6504 85.115 28.1019 85.0623 28.5535C85.0475 28.791 85.0173 29.0273 84.972 29.2609C84.9386 29.4369 84.9234 29.616 84.9268 29.7952C84.9268 31.9399 84.8741 34.0772 84.9268 36.2219C84.9268 37.5389 84.9268 38.8634 84.9268 40.1803C84.9418 40.4736 84.9418 40.7675 84.9268 41.0608C84.8816 41.5951 84.9268 42.1294 84.9268 42.6637C84.9268 43.0551 85.0096 43.4163 85.0322 43.8377C85.0386 44.105 85.0185 44.3722 84.972 44.6354C84.9462 44.7745 84.9311 44.9154 84.9268 45.0569C84.9268 45.4858 84.9268 45.9072 84.8892 46.3362C84.8516 46.7651 84.8365 47.0887 84.829 47.4199C84.84 47.5199 84.84 47.6208 84.829 47.7209C84.829 47.7811 84.8817 47.9542 84.6936 47.8789C84.6936 47.8789 84.6935 47.8789 84.6484 47.9316C84.6032 47.9843 84.6484 48.0068 84.6484 48.0445C84.6484 48.2928 84.6484 48.5487 84.6484 48.797C84.6484 48.8798 84.6032 48.9024 84.5355 48.9099C84.3283 48.9383 84.1198 48.9559 83.9109 48.9626C83.6249 48.9626 83.3389 48.9626 83.0605 49.0077C82.6541 49.0077 82.2477 49.0077 81.8414 49.0077C80.6749 49.0679 79.5084 49.0077 78.342 49.0077C77.7475 49.0077 77.153 49.0077 76.5584 49.0077C76.2725 49.0077 75.9865 49.0077 75.693 49.0077L74.045 49.1056L73.8192 49.3163Z" fill="#3245A9"/>
<path d="M82.5047 73.2191C82.462 73.4676 82.4494 73.7202 82.4671 73.9717C82.4671 74.1899 82.4144 74.2426 82.2112 74.2501C81.8575 74.2501 81.5038 74.2501 81.1577 74.3179C80.5932 74.3781 80.0288 74.363 79.472 74.3706L77.9669 74.4308C77.8841 74.4283 77.8018 74.4447 77.7262 74.4786C77.6506 74.5125 77.5837 74.563 77.5304 74.6264C77.5164 74.651 77.4976 74.6725 77.4751 74.6896C77.4526 74.7068 77.427 74.7193 77.3996 74.7263C77.3722 74.7333 77.3437 74.7348 77.3157 74.7305C77.2878 74.7263 77.261 74.7165 77.2369 74.7017C77.1767 74.7017 77.2369 74.5436 77.3046 74.4684C77.0975 74.4382 76.8871 74.4382 76.68 74.4684H72.7065C72.4854 74.4624 72.2654 74.5008 72.0594 74.5813C72.1248 74.6281 72.205 74.6495 72.2851 74.6415C72.5659 74.6564 72.8473 74.6564 73.128 74.6415C73.3786 74.6258 73.63 74.6258 73.8806 74.6415H74.2493C74.2869 74.6415 74.3546 74.6415 74.3621 74.6866C74.3696 74.7318 74.3621 74.7769 74.2718 74.7995C74.1482 74.8432 74.0189 74.8686 73.888 74.8748C73.1376 74.945 72.3833 74.9626 71.6304 74.9274C71.3035 74.9326 70.9766 74.915 70.6521 74.8748C70.6085 74.8734 70.5658 74.8626 70.5268 74.8431C70.4878 74.8236 70.4536 74.7959 70.4263 74.7619C70.3999 74.7122 70.3593 74.6714 70.3098 74.6446C70.2603 74.6178 70.2039 74.6063 70.1479 74.6114H68.8761C68.8692 74.6091 68.8618 74.6083 68.8546 74.6089C68.8473 74.6096 68.8403 74.6118 68.834 74.6153C68.8276 74.6189 68.822 74.6237 68.8176 74.6295C68.8132 74.6353 68.8101 74.6419 68.8083 74.649L69.2373 74.7242C69.2373 74.7242 69.3201 74.7242 69.3276 74.7242C69.3351 74.7242 69.2824 74.7694 69.2599 74.7845C69.116 74.8592 68.9553 74.8955 68.7933 74.8898C68.4489 74.9213 68.1017 74.9035 67.7623 74.8371C67.6554 74.8297 67.5556 74.7811 67.4838 74.7017L67.672 74.6038C67.6096 74.5744 67.5415 74.5591 67.4725 74.5591C67.4036 74.5591 67.3355 74.5744 67.2732 74.6038C67.2481 74.6121 67.2263 74.6283 67.2114 74.6501C67.1964 74.6718 67.189 74.6979 67.1903 74.7242C67.1903 74.8447 67.1302 74.8597 67.0323 74.8672C66.7388 74.8672 66.4378 74.9425 66.1368 74.9575C65.8358 74.9726 65.5423 74.9575 65.2488 75.0177C65.1656 75.0216 65.0828 75.0035 65.0088 74.9651C64.9348 74.9268 64.8722 74.8697 64.8274 74.7995C64.6769 74.6264 64.5339 74.4458 64.3909 74.2727C64.3188 74.1924 64.281 74.087 64.2855 73.9792V59.3196C64.3108 59.0348 64.3873 58.7569 64.5113 58.4993C64.9477 57.2275 65.3918 55.9632 65.8057 54.6839C66.0992 53.7658 66.3701 52.8401 66.6259 51.907C66.7012 51.6285 66.7764 51.3501 66.8668 51.0716C66.9194 50.9061 67.0775 50.891 67.2205 50.891C68.2138 50.891 69.2147 50.891 70.2307 50.891C74.2568 50.8308 78.2829 50.891 82.2714 50.891C82.3383 50.8864 82.4051 50.9 82.4648 50.9305C82.5245 50.961 82.5747 51.0072 82.6101 51.0641C82.7599 51.2174 82.8958 51.3836 83.0164 51.5608C83.0647 51.6565 83.0899 51.7622 83.0899 51.8693C83.0899 51.9765 83.0647 52.0822 83.0164 52.1779C82.9456 52.3494 82.9299 52.5388 82.9713 52.7197C82.9713 52.8627 82.9713 53.0132 83.0164 53.1562C83.054 53.6396 83.054 54.1252 83.0164 54.6086C83.0164 55.1053 83.0165 55.602 82.9563 56.1137C82.8961 56.6254 82.9563 57.0393 82.9563 57.4984C82.9563 58.5294 82.9563 59.5529 82.9563 60.5839C82.9186 61.7804 82.9563 62.9845 82.9563 64.181C82.9563 64.6025 82.9563 65.0164 82.9563 65.4303C82.9563 65.8442 82.9563 66.1828 82.9563 66.5666C82.9563 66.9504 82.9563 67.1009 82.9563 67.3718C82.9563 67.8459 82.9562 68.3201 83.024 68.7942C83.024 69.0124 83.024 69.2306 83.0692 69.4489C83.0967 69.7212 83.0633 69.9963 82.9713 70.2541C82.9442 70.3523 82.929 70.4533 82.9261 70.5551C82.9261 71.1346 82.9261 71.7216 82.9261 72.301C82.9301 72.6085 82.9074 72.9156 82.8584 73.2191C82.6251 73.2944 82.5875 73.2869 82.5047 73.2191Z" fill="#3245A9"/>
<path d="M47.2689 29.6144C47.3431 29.8176 47.4527 30.0062 47.5925 30.1713L48.458 31.27L49.5416 32.6547L50.6027 34.0018C50.9695 34.5686 51.385 35.1025 51.8444 35.5972C52.2699 35.9903 52.7875 36.2698 53.3495 36.4099C53.9666 36.568 54.5837 36.7034 55.1932 36.8916C55.7282 37.0696 56.235 37.323 56.6983 37.6441C57.3067 38.0477 57.8921 38.4848 58.4518 38.9535C58.798 39.247 59.1291 39.5481 59.4678 39.8491C59.8101 40.1587 60.1342 40.4879 60.4385 40.8349C60.8174 41.2577 61.174 41.6997 61.5071 42.1594C61.8279 42.6074 62.0439 43.1218 62.1393 43.6645C62.1634 43.7783 62.176 43.8943 62.1769 44.0107C62.1769 44.2364 62.1769 44.4622 62.1769 44.688C62.175 45.1066 62.0826 45.5199 61.906 45.8996C61.5975 46.5919 61.1535 47.2391 60.8299 47.9164C60.6247 48.3249 60.4705 48.7571 60.3708 49.2033C60.278 49.6232 60.2077 50.0477 60.1601 50.4751C60.1601 50.7234 60.0999 50.9642 60.0773 51.2276C60.0739 51.2664 60.057 51.3027 60.0295 51.3303C60.0019 51.3578 59.9656 51.3747 59.9268 51.3781C59.9268 51.3781 59.9268 51.3781 59.8816 51.3781C59.0463 51.3781 58.211 51.3781 57.3756 51.3781C56.6231 51.3781 55.9383 51.3781 55.2234 51.3781C54.5084 51.3781 53.8913 51.3781 53.2216 51.3781C53.1945 51.3704 53.1658 51.3704 53.1388 51.3781H53.1839H54.1246C54.2636 51.3903 54.4018 51.4104 54.5385 51.4383C54.5837 51.4383 54.6063 51.4609 54.6063 51.5061C54.6063 51.5587 54.6062 51.5512 54.5385 51.5587C54.3481 51.5989 54.1536 51.6166 53.9591 51.6114C52.9657 51.6114 51.9724 51.6114 50.9489 51.6114C50.7663 51.6197 50.5862 51.5667 50.4372 51.4609C50.377 51.4233 50.3167 51.3857 50.264 51.4158C50.2114 51.4459 50.264 51.5061 50.264 51.5587C50.27 51.569 50.2731 51.5807 50.2731 51.5926C50.2731 51.6045 50.27 51.6162 50.264 51.6265C50.2419 51.6563 50.2118 51.6792 50.1771 51.6925C50.1425 51.7058 50.1048 51.709 50.0684 51.7017C49.9931 51.7017 49.8878 51.7544 49.8577 51.634C49.805 51.3932 49.6093 51.3706 49.4287 51.348C48.7055 51.2867 47.9794 51.2666 47.2538 51.2878C47.0732 51.2878 46.9001 51.2878 46.6819 51.2878C46.7771 51.3132 46.8702 51.3459 46.9603 51.3857C46.998 51.3857 47.0507 51.3857 47.0507 51.4684C47.0507 51.5512 46.998 51.5286 46.9603 51.5437C46.7949 51.6077 46.6184 51.6384 46.4411 51.634C45.8315 51.6867 45.2295 51.7017 44.6199 51.6942C44.4877 51.6969 44.3562 51.673 44.2334 51.6239C44.1106 51.5748 43.9989 51.5014 43.905 51.4082C43.7781 51.2963 43.6789 51.1565 43.6149 50.9999C43.551 50.8432 43.524 50.6739 43.5363 50.5052C43.5363 46.8403 43.5363 43.1678 43.5363 39.5029C43.4986 35.68 43.5363 31.857 43.5363 28.0265C43.5297 27.8802 43.56 27.7346 43.6244 27.6031C43.6889 27.4716 43.7853 27.3584 43.905 27.274C44.1588 27.1394 44.4522 27.0994 44.7328 27.1611C45.1994 27.1611 45.6735 27.1611 46.1476 27.1611C49.0299 27.2213 51.9197 27.1611 54.8019 27.1611C55.1105 27.1611 55.419 27.1987 55.7276 27.1611C56.608 27.1009 57.481 27.1611 58.3615 27.1611C59.0388 27.1611 59.7085 27.1611 60.3783 27.1611C61.0481 27.1611 61.8834 27.1611 62.6962 27.1611C62.8273 27.1578 62.9545 27.2065 63.0498 27.2966C63.2154 27.4395 63.3659 27.5976 63.5315 27.7481C63.5811 27.7869 63.6203 27.8375 63.6453 27.8954C63.6702 27.9532 63.6803 28.0165 63.6745 28.0792C63.6293 28.892 63.6745 29.7047 63.6745 30.5099C63.6369 32.2634 63.6745 34.0093 63.6369 35.7778C63.6389 36.031 63.6112 36.2836 63.5541 36.5303C63.5541 36.583 63.5541 36.6507 63.4713 36.6583C63.3885 36.6658 63.3584 36.6131 63.3208 36.568C63.2333 36.4586 63.1832 36.3241 63.1778 36.1842C63.0815 35.7114 63.0411 35.229 63.0574 34.7468C63.0574 34.3028 63.1326 33.8513 63.1628 33.4072C63.2181 32.9981 63.1977 32.5823 63.1025 32.1806C63.057 32.0215 62.9804 31.8731 62.877 31.7439C62.7737 31.6147 62.6457 31.5074 62.5005 31.428C62.2085 31.2422 61.8883 31.1049 61.5523 31.0217C61.235 30.9261 60.8962 30.9289 60.5805 31.0297C60.2649 31.1304 59.9871 31.3244 59.7838 31.5861C59.4371 32.0259 59.1999 32.5417 59.0915 33.0912C58.9645 33.6563 58.9852 34.2447 59.1517 34.7995C59.2674 35.0993 59.4657 35.3602 59.7236 35.552C59.9216 35.7113 60.1077 35.8849 60.2805 36.0713C60.3708 36.1766 60.3482 36.2218 60.2203 36.2669C60.1933 36.2747 60.1645 36.2747 60.1375 36.2669C59.8139 36.2669 59.4828 36.3046 59.1592 36.2669C58.0449 36.2402 56.9441 36.016 55.9082 35.6047C55.2114 35.2952 54.533 34.946 53.8763 34.5587C53.1237 34.1372 52.4163 33.7083 51.724 33.2266C51.2055 32.8916 50.7215 32.5059 50.2791 32.0752C49.9619 31.7418 49.6911 31.3672 49.4739 30.9615C49.3986 30.8185 49.3083 30.6905 49.2255 30.5551C49.1427 30.4196 49.0901 30.4347 48.9998 30.5551L48.917 30.6379C48.7891 30.7658 48.7213 30.7583 48.5859 30.6379C48.2322 30.3293 47.9086 29.9832 47.5699 29.652C47.457 29.7499 47.3517 29.6972 47.2689 29.6144Z" fill="#3245A9"/>
</g>
<defs>
<filter id="filter0_d_557_9112" x="0" y="-11" width="125.244" height="132.033" filterUnits="userSpaceOnUse" color-interpolation-filters="sRGB">
<feFlood flood-opacity="0" result="BackgroundImageFix"/>
<feColorMatrix in="SourceAlpha" type="matrix" values="0 0 0 0 0 0 0 0 0 0 0 0 0 0 0 0 0 0 127 0" result="hardAlpha"/>
<feOffset dy="4"/>
<feGaussianBlur stdDeviation="20"/>
<feComposite in2="hardAlpha" operator="out"/>
<feColorMatrix type="matrix" values="0 0 0 0 0 0 0 0 0 0 0 0 0 0 0 0 0 0 0.2 0"/>
<feBlend mode="normal" in2="BackgroundImageFix" result="effect1_dropShadow_557_9112"/>
<feBlend mode="normal" in="SourceGraphic" in2="effect1_dropShadow_557_9112" result="shape"/>
</filter>
</defs>
</svg>
