<svg width="57" height="46" viewBox="0 0 57 46" fill="none" xmlns="http://www.w3.org/2000/svg">
<path d="M32.5954 8.58754C32.5649 8.54066 32.5278 8.49843 32.4853 8.46215L31.6113 7.8846L31.4365 7.7858C31.4365 7.68321 31.5163 7.67941 31.5771 7.66042C31.8999 7.55757 32.2403 7.52172 32.5774 7.55504C32.9146 7.58836 33.2414 7.69016 33.5378 7.8542C33.9629 8.09239 34.3476 8.39632 34.6777 8.75473C35.3462 9.45703 35.9198 10.2439 36.3838 11.0953C36.9404 12.0798 37.3125 13.1576 37.4819 14.2757C37.5946 15.0391 37.6239 15.8124 37.5693 16.5821C37.5693 16.8177 37.4971 17.0495 37.4705 17.2813C37.4439 17.513 37.4401 17.6612 37.4325 17.874C37.4396 17.9312 37.4537 17.9873 37.4743 18.0412H37.5237C37.5484 18.0027 37.5664 17.9603 37.5769 17.9158C37.7229 17.1394 37.7878 16.3499 37.7706 15.56C37.7117 13.1922 36.8197 10.9211 35.2514 9.1461C34.912 8.75713 34.5367 8.40093 34.1305 8.08218C34.1049 8.06239 34.0819 8.03941 34.0621 8.01379C34.0621 8.01379 34.0621 7.99099 34.0621 7.96439C34.1017 7.95151 34.1424 7.9426 34.1837 7.93779C34.7546 7.92563 35.3151 8.09164 35.7872 8.41276C36.2524 8.74761 36.6496 9.168 36.9575 9.65146C37.6171 10.616 38.0996 11.6904 38.3824 12.8242C38.6565 13.8666 38.7844 14.9421 38.7624 16.0198C38.7446 16.901 38.617 17.7767 38.3824 18.6264C38.3782 18.6655 38.3782 18.705 38.3824 18.7441C38.4964 18.7441 38.5344 18.6605 38.561 18.5884C38.626 18.4294 38.6781 18.2655 38.7168 18.0982C39.1362 16.0742 39.005 13.9747 38.3368 12.0187C38.0755 11.2126 37.721 10.4399 37.2805 9.71605C37.1285 9.47287 36.9537 9.24109 36.7941 9.00551C36.7653 8.96255 36.7387 8.91816 36.7143 8.87252L36.7447 8.83452L36.9195 8.88392C37.6937 9.14609 38.3522 9.67017 38.7814 10.3658C39.1685 10.9671 39.4535 11.6283 39.6249 12.3226C39.8386 13.0978 39.9661 13.8943 40.0049 14.6975C40.0331 15.7046 39.9465 16.7117 39.7465 17.6992C39.6477 18.2388 39.5261 18.7745 39.4159 19.3103C39.4159 19.3939 39.3817 19.4775 39.3665 19.5611H39.4159C39.455 19.4999 39.4906 19.4364 39.5223 19.3711C39.7861 18.6945 39.9698 17.9892 40.0695 17.2699C40.1999 16.373 40.2355 15.465 40.1758 14.5607C40.1233 13.6128 39.9549 12.6748 39.6743 11.7679C39.5612 11.3881 39.4084 11.0213 39.2183 10.6736C39.2034 10.6354 39.192 10.596 39.1841 10.5558C39.237 10.5658 39.2891 10.5798 39.3399 10.5976C39.916 10.8686 40.3834 11.3266 40.666 11.8971C40.9719 12.4878 41.1566 13.1338 41.2094 13.7969C41.3446 15.2156 41.2301 16.6469 40.8712 18.026C40.6888 18.7403 40.4532 19.4433 40.2442 20.15C40.2062 20.2792 40.1644 20.4046 40.1302 20.53C40.1302 20.587 40.1302 20.6478 40.1036 20.7238C40.2138 20.6972 40.229 20.6212 40.2556 20.5642C40.5437 19.974 40.7765 19.3583 40.951 18.7251C41.3317 17.3661 41.4971 15.9557 41.4412 14.5455C41.4249 14.0349 41.3664 13.5265 41.2664 13.0256C41.263 13.0004 41.263 12.9748 41.2664 12.9496C41.2768 12.9042 41.2908 12.8598 41.3082 12.8166C41.3588 12.8286 41.4074 12.8478 41.4525 12.8736C41.4945 12.9214 41.5291 12.9752 41.5551 13.0332C42.068 13.8942 42.3311 14.8809 42.3151 15.883C42.3466 17.2944 42.0986 18.698 41.5855 20.0132C41.4108 20.4578 41.179 20.8796 40.9814 21.3127C40.8826 21.5293 40.8028 21.7497 40.7192 21.9701C40.7067 22.0147 40.699 22.0606 40.6964 22.1069C40.799 22.1069 40.8218 22.0271 40.8522 21.9701C41.5207 20.8315 42.0114 19.5976 42.3075 18.311C42.5059 17.4669 42.633 16.6077 42.6874 15.7424C42.6958 15.7011 42.7072 15.6604 42.7216 15.6208C42.8204 15.6474 42.8204 15.7272 42.8432 15.788C43.1425 16.5852 43.2429 17.4434 43.1358 18.2882C43.0193 19.2376 42.7632 20.1646 42.3759 21.0392C42.0477 21.8068 41.6669 22.5508 41.236 23.2658C41.1752 23.3608 41.1296 23.4596 41.0574 23.5964C41.4596 23.2058 41.7924 22.7497 42.0415 22.2475C42.3113 21.7649 42.5583 21.2671 42.8014 20.7694C43.0212 20.271 43.1942 19.7533 43.3182 19.2229H43.3714C43.3855 19.2688 43.3957 19.3158 43.4018 19.3635C43.5398 20.6263 43.2865 21.901 42.6761 23.015C42.2886 23.7128 41.8247 24.3653 41.293 24.9604C41.2208 25.0402 41.122 25.1086 41.122 25.253C41.1752 25.2188 41.2322 25.1846 41.2854 25.1428C41.5728 24.9016 41.8362 24.6331 42.0719 24.3411C42.3189 24.0599 42.5735 23.7825 42.8318 23.5052C42.8849 23.4537 42.9421 23.4067 43.0028 23.3646C43.0068 23.4139 43.0068 23.4634 43.0028 23.5128C42.765 24.3987 42.2955 25.2053 41.6425 25.8496C41.2626 26.2296 40.8826 26.5487 40.5026 26.9021L40.3468 27.0503C40.438 27.1073 40.4874 27.0503 40.5406 27.0503C40.9465 26.8382 41.3287 26.5835 41.6805 26.2903C41.9161 26.1042 42.1441 25.9104 42.3797 25.7242C42.428 25.6879 42.4788 25.6549 42.5317 25.6254C42.529 25.6792 42.5214 25.7326 42.5089 25.785C42.3269 26.2767 42.0413 26.7235 41.6716 27.0952C41.3018 27.4669 40.8565 27.7548 40.3658 27.9394L39.9251 28.1294C39.9577 28.1558 39.9972 28.1724 40.039 28.1771C40.0807 28.1818 40.1229 28.1745 40.1607 28.156C40.4608 28.0534 40.7648 27.9546 41.0574 27.8368C41.2284 27.7684 41.3879 27.6696 41.5513 27.586L41.6539 27.5442C41.7147 27.6164 41.6539 27.6658 41.6311 27.7038C41.4787 27.8897 41.315 28.0661 41.141 28.232C40.7338 28.5896 40.2503 28.8495 39.7275 28.9919C39.6029 29.0259 39.4759 29.05 39.3475 29.0641C39.1491 29.0977 38.9455 29.0512 38.7814 28.9349L38.3064 28.6158C38.095 28.4703 37.8481 28.3849 37.5921 28.3688C37.5517 28.3586 37.5095 28.3585 37.4691 28.3684C37.4287 28.3784 37.3913 28.3981 37.3603 28.4258C37.4173 28.5056 37.5009 28.498 37.5693 28.5094C37.9992 28.5831 38.4011 28.7722 38.732 29.0565C38.805 29.1188 38.8735 29.1861 38.9371 29.2579C39.0777 29.4213 39.0701 29.4441 38.8687 29.5201C38.8347 29.5379 38.8029 29.5596 38.7738 29.5847L38.9941 29.6455C39.1385 29.6873 39.2905 29.7177 39.4349 29.7709C39.5793 29.8241 39.5755 29.8621 39.5565 29.995C39.5185 30.2192 39.4729 30.4434 39.4349 30.6714C39.4313 30.7233 39.4313 30.7753 39.4349 30.8272C39.5261 30.8804 39.5755 30.8272 39.6211 30.7892L40.4988 30.0293C40.552 29.9837 40.5976 29.9343 40.6432 29.8925C40.7306 29.9343 40.704 29.9837 40.6888 30.033C40.6 30.2929 40.4516 30.5284 40.2556 30.7208C40.0999 30.8728 39.9365 31.0134 39.7769 31.1578L39.6249 31.3021C39.6655 31.312 39.7081 31.3109 39.7481 31.2989C39.7882 31.2868 39.8244 31.2644 39.8529 31.2338L40.3734 30.8158L40.5862 30.6524C40.5968 30.6415 40.6095 30.6328 40.6236 30.6269C40.6376 30.621 40.6527 30.6179 40.6679 30.6179C40.6831 30.6179 40.6982 30.621 40.7122 30.6269C40.7263 30.6328 40.739 30.6415 40.7496 30.6524C40.7532 30.6801 40.7532 30.7082 40.7496 30.736C40.5671 31.1304 40.2582 31.4526 39.8719 31.6517C39.7896 31.6983 39.7097 31.7491 39.6325 31.8037C39.6886 31.8217 39.7483 31.8251 39.8061 31.8139C39.8639 31.8026 39.9179 31.7769 39.9631 31.7391C40.0505 31.6973 40.134 31.6441 40.2176 31.5947L40.2556 31.6213C40.1871 31.7749 40.0919 31.9151 39.9745 32.0355C39.8119 32.1482 39.6403 32.2473 39.4615 32.3319C39.4141 32.3474 39.3736 32.3792 39.3472 32.4215C39.3208 32.4639 39.3102 32.5142 39.3171 32.5637C39.336 32.8128 39.2932 33.0628 39.1925 33.2914C39.0917 33.5201 38.9362 33.7203 38.7396 33.8745C38.7052 33.912 38.6601 33.9379 38.6105 33.9488C38.5608 33.9597 38.509 33.955 38.4622 33.9353L37.801 33.6846C37.6224 33.6162 37.4439 33.5478 37.2615 33.4946C37.0183 33.4262 36.9385 33.4946 36.8815 33.7264C36.8738 33.7526 36.8636 33.778 36.8511 33.8023C36.6269 33.6656 36.6079 33.4224 36.5167 33.1944C36.4069 33.3837 36.3691 33.6064 36.4104 33.8214C36.38 33.8214 36.3571 33.8214 36.3457 33.8214C36.2389 33.7122 36.1565 33.5815 36.1041 33.438C36.0517 33.2946 36.0304 33.1416 36.0418 32.9892C36.0424 32.9216 36.0655 32.8561 36.1075 32.8032C36.1494 32.7502 36.2079 32.7127 36.2736 32.6966C36.5754 32.6112 36.8951 32.6112 37.1969 32.6966L37.3793 32.746C37.43 32.3443 37.5151 31.9477 37.6338 31.5605C37.6532 31.5142 37.6631 31.4645 37.6631 31.4142C37.6631 31.364 37.6532 31.3143 37.6338 31.268L37.4477 31.2946C36.8644 31.4156 36.2589 31.3709 35.6998 31.1654C35.3676 31.0482 35.0717 30.8465 34.8411 30.5802C34.8024 30.5282 34.7563 30.4821 34.7043 30.4434C34.7022 30.4898 34.7099 30.5361 34.7269 30.5793C34.744 30.6225 34.7699 30.6617 34.8031 30.6942C35.0987 31.0437 35.498 31.2899 35.943 31.3971L36.133 31.4503V31.4959C36.0932 31.5173 36.0512 31.5338 36.0076 31.5453C35.6422 31.6298 35.2616 31.622 34.9 31.5225C34.5385 31.423 34.2074 31.2349 33.9367 30.9754C33.6676 30.74 33.4289 30.472 33.2262 30.1774C33.1991 30.1265 33.1586 30.084 33.109 30.0545C33.0594 30.0251 33.0027 30.0097 32.945 30.0103C32.8424 30.0103 32.8196 29.9495 32.8234 29.8583C32.831 29.7571 32.831 29.6555 32.8234 29.5543C32.8167 29.4289 32.7735 29.3083 32.6993 29.2071C32.6251 29.1059 32.523 29.0285 32.4055 28.9843C32.2725 28.9349 32.2573 28.9083 32.2953 28.7716C32.3333 28.6348 32.3827 28.4904 32.4321 28.3536C32.4815 28.2168 32.4777 28.137 32.3447 28.0458C32.2748 28.0023 32.201 27.9654 32.1243 27.9356C31.9989 27.8786 31.9837 27.8444 32.0559 27.7342C32.1281 27.624 32.2801 27.4113 32.3979 27.2517C32.5157 27.0921 32.5005 27.0845 32.3979 26.9591C32.3447 26.9059 32.2839 26.8603 32.2269 26.8071C32.0901 26.6817 32.0939 26.6551 32.2269 26.5259C32.3599 26.3967 32.5118 26.2903 32.6448 26.146C32.7778 26.0016 32.7892 25.9598 32.6828 25.804C32.5271 25.5722 32.5308 25.5304 32.7854 25.424C33.111 25.272 33.3932 25.0408 33.6062 24.7515C33.666 24.6852 33.7219 24.6154 33.7734 24.5425C33.8532 24.4361 33.8493 24.3905 33.7392 24.3069C33.629 24.2233 33.6024 24.2157 33.534 24.1701C33.5026 24.1532 33.479 24.1246 33.4683 24.0905C33.4577 24.0564 33.4608 24.0196 33.477 23.9877C33.515 23.8737 33.5378 23.7483 33.5758 23.6078C33.6949 23.6068 33.8128 23.6314 33.9216 23.6799C34.0013 23.7027 34.0735 23.7407 34.1533 23.7711C34.1702 23.7805 34.1889 23.7858 34.2082 23.7866C34.2274 23.7875 34.2466 23.784 34.2642 23.7763C34.2818 23.7685 34.2975 23.7569 34.3099 23.7421C34.3223 23.7274 34.3311 23.71 34.3357 23.6913C34.3463 23.6615 34.3552 23.631 34.3623 23.6002C34.4041 23.4178 34.3623 23.3684 34.1799 23.3608C34.0838 23.3551 33.9873 23.3551 33.8912 23.3608C33.8306 23.3665 33.7698 23.3517 33.7188 23.3185C33.6677 23.2854 33.6294 23.236 33.61 23.1784C33.5487 23.0807 33.5182 22.9668 33.5226 22.8516C33.5986 22.92 33.6518 22.9618 33.6974 23.0074C33.7568 23.0699 33.83 23.1176 33.9111 23.1466C33.9923 23.1756 34.0792 23.1852 34.1647 23.1746C34.3167 23.1746 34.3699 23.091 34.3395 22.9428C34.3131 22.8042 34.2486 22.6757 34.1534 22.5717C34.0581 22.4677 33.9357 22.3923 33.8 22.3539C33.6712 22.3044 33.5326 22.2858 33.3953 22.2997C33.258 22.3135 33.1259 22.3594 33.0096 22.4336C32.9816 22.4466 32.9523 22.4568 32.9222 22.464C32.9222 22.4374 32.8956 22.4184 32.8994 22.4032C32.9249 22.0713 33.018 21.748 33.173 21.4533C33.2351 21.3128 33.3475 21.2006 33.4881 21.1387C33.6287 21.0769 33.7874 21.0698 33.9329 21.119C34.2454 21.1972 34.543 21.3256 34.8145 21.4989C35.2653 21.7492 35.6903 22.0432 36.0836 22.3767C36.266 22.5286 36.4636 22.6654 36.6497 22.7984C36.782 22.8943 36.9324 22.9623 37.0918 22.9982C37.2512 23.0341 37.4162 23.0373 37.5769 23.0074C37.6224 23.0035 37.6681 23.0035 37.7136 23.0074C37.6865 23.1814 37.6217 23.3474 37.5237 23.4938C37.4727 23.5417 37.4072 23.5712 37.3375 23.5774C37.1931 23.5774 37.0487 23.6002 36.9005 23.6154C36.8473 23.6154 36.7827 23.6154 36.7561 23.6875C36.8245 23.7559 36.9081 23.7255 36.9879 23.7255C37.1931 23.7255 37.2273 23.7445 37.2881 23.9383C37.3775 24.2137 37.3775 24.5103 37.2881 24.7857C37.2311 24.9566 37.1589 25.12 37.0905 25.2834C36.9517 25.578 36.8643 25.8941 36.8321 26.2182C36.817 26.3132 36.7954 26.4072 36.7675 26.4993C36.8435 26.4233 36.9043 26.3739 36.9537 26.3131C37.4271 25.7401 37.7439 25.0541 37.8732 24.3221C38.0424 23.378 37.8671 22.4045 37.3793 21.5787C37.1505 21.1517 36.7672 20.8282 36.3078 20.6744C36.1848 20.6359 36.0544 20.6281 35.9278 20.6516C35.7052 20.7027 35.4737 20.7013 35.2517 20.6475C35.0297 20.5936 34.8234 20.4888 34.6489 20.3413C34.4745 20.1938 34.3368 20.0077 34.2469 19.7977C34.1569 19.5878 34.1171 19.3597 34.1305 19.1317C34.1319 18.8691 34.1912 18.61 34.3041 18.3729C34.4171 18.1358 34.581 17.9265 34.7841 17.76C34.8293 17.7262 34.8664 17.6827 34.8927 17.6328C34.9189 17.5828 34.9338 17.5276 34.9361 17.4712C35.0369 16.5579 35.0139 15.6351 34.8677 14.7279C34.6698 13.4941 34.1699 12.3285 33.4124 11.3347C32.5669 10.268 31.5083 9.38936 30.3042 8.75473C29.9623 8.56474 29.6089 8.40516 29.2631 8.23037L29.1035 8.13538C29.1586 8.10256 29.2157 8.07337 29.2745 8.04798C29.716 7.87705 30.1902 7.80711 30.6623 7.84327C31.1344 7.87943 31.5924 8.02078 32.0027 8.25697L32.6069 8.58374C32.7132 8.68254 32.8196 8.78513 32.9298 8.88012C33.3703 9.2472 33.7773 9.65284 34.1457 10.0922C35.3628 11.5175 36.124 13.2754 36.3306 15.1382C36.409 15.8548 36.4306 16.5765 36.3951 17.2965C36.3951 17.3459 36.3647 17.4104 36.4483 17.4522C36.4817 17.4247 36.509 17.3906 36.5287 17.352C36.5483 17.3134 36.5597 17.2712 36.5623 17.2281C36.5851 16.9545 36.6117 16.6809 36.6231 16.4073C36.6852 15.0781 36.4422 13.7524 35.9126 12.5316C35.2624 11.0631 34.2522 9.78228 32.9754 8.80792C32.8546 8.72485 32.7276 8.65117 32.5954 8.58754ZM38.257 23.4064H38.2874C38.2913 23.3659 38.2913 23.3252 38.2874 23.2848C38.2494 23.0568 38.2114 22.8326 38.1582 22.6084C38.041 22.1109 37.8186 21.6442 37.506 21.2399C37.1934 20.8355 36.7977 20.5027 36.3457 20.264C36.295 20.2332 36.2384 20.2132 36.1796 20.2054C36.1207 20.1975 36.0608 20.202 36.0038 20.2184C35.7781 20.2831 35.5385 20.2817 35.3136 20.2144C35.0886 20.147 34.8877 20.0166 34.7347 19.8385C34.5726 19.6619 34.4703 19.4387 34.4423 19.2006C34.4143 18.9625 34.4621 18.7217 34.5789 18.5124C34.6473 18.3984 34.7271 18.2882 34.7955 18.1742C34.8146 18.1277 34.8286 18.0793 34.8373 18.0298C34.7923 18.0446 34.75 18.0664 34.7119 18.0944C34.6234 18.1944 34.5445 18.3025 34.4763 18.4174C34.3539 18.6813 34.308 18.9743 34.3435 19.2631C34.3791 19.5518 34.4949 19.8249 34.6777 20.0512C34.7945 20.2133 34.9658 20.328 35.1602 20.3742C35.4403 20.4386 35.7313 20.4386 36.0114 20.3742C36.0868 20.3437 36.1695 20.3361 36.2493 20.3523C36.329 20.3685 36.4022 20.4078 36.4598 20.4654L36.5547 20.53C37.2793 21.0185 37.8092 21.7461 38.0518 22.5856C38.1278 22.8592 38.1886 23.1328 38.257 23.4026V23.4064ZM38.2912 23.7863H38.2342V24.0105H38.2874L38.2912 23.7863ZM37.2007 32.9056V32.8638H37.0221V32.8942L37.2007 32.9056Z" fill="#626262"/>
<path d="M46.0459 40.881C46.0585 40.9285 46.0557 40.9787 46.0379 41.0244C46.0202 41.0702 45.9884 41.1091 45.9471 41.1356C45.7723 41.3142 45.5975 41.4928 45.4075 41.6524C44.7894 42.1846 44.1109 42.6424 43.3861 43.0165C42.3155 43.5655 41.1182 43.8199 39.917 43.7536C39.5978 43.7536 39.2786 43.7232 38.967 43.6776C38.6076 43.6257 38.2512 43.5547 37.8993 43.4648C37.3186 43.321 36.7573 43.108 36.2274 42.8303C35.4329 42.4189 34.6707 41.9476 33.9476 41.4206C33.4118 41.0104 32.8319 40.6612 32.2188 40.3795C31.6416 40.1109 30.99 40.0479 30.3721 40.2009C30.3275 40.2198 30.2854 40.244 30.2467 40.2731C30.3341 40.3225 30.3949 40.3643 30.4595 40.3985C30.9915 40.6872 31.531 40.957 32.0516 41.261C32.4011 41.4662 32.7317 41.7094 33.0623 41.9487C33.7121 42.4275 34.3618 42.9101 35.0001 43.404C35.3269 43.6586 35.6233 43.9512 35.9349 44.2248L35.9995 44.2932C36.2046 44.5135 36.216 44.5667 36.0223 44.7909C35.8345 45.0078 35.6327 45.2122 35.4181 45.4027C35.2205 45.5775 35.1217 45.5661 34.9128 45.4027C34.8152 45.3303 34.7225 45.2517 34.6354 45.1671C34.2288 44.7871 33.8184 44.3843 33.4195 43.9778C32.7934 43.3517 32.1242 42.7702 31.417 42.2375C31.0371 41.9335 30.6191 41.6258 30.2087 41.337C29.8664 41.084 29.4798 40.8971 29.0688 40.786C28.9143 40.7513 28.7559 40.7372 28.5977 40.7442C28.5168 40.7566 28.44 40.7878 28.3735 40.8354C28.1607 40.957 27.9517 41.0748 27.7465 41.2154C27.5413 41.356 27.2944 41.4966 27.0778 41.6524C26.6218 41.9753 26.1507 42.2869 25.7251 42.6479C24.7603 43.4411 23.8631 44.3129 23.0425 45.2545C22.9551 45.3571 22.8677 45.4559 22.7727 45.5509C22.6777 45.6458 22.5979 45.6686 22.4801 45.5927C22.1477 45.374 21.8406 45.1191 21.5644 44.8327C21.4618 44.7301 21.4618 44.6655 21.5644 44.5515C21.667 44.4375 21.876 44.2134 22.047 44.0576C23.0008 43.1812 24.0167 42.3748 25.0867 41.6448C25.7152 41.2353 26.3659 40.861 27.036 40.5239C27.1566 40.4641 27.2734 40.3969 27.3856 40.3225C27.4691 40.2655 27.4615 40.1933 27.3856 40.1553C27.3287 40.1273 27.2665 40.1117 27.2032 40.1097C26.9809 40.107 26.7587 40.1197 26.5382 40.1477C25.6711 40.3109 24.8518 40.6667 24.1406 41.1888C23.3807 41.698 22.6207 42.1957 21.8608 42.6783C21.2858 43.0333 20.6727 43.3226 20.0331 43.5408C19.7125 43.645 19.3849 43.7263 19.0528 43.784C18.7716 43.8448 18.4867 43.8714 18.2055 43.9322C17.9244 43.9904 17.6357 44.0032 17.3505 43.9702C16.7669 43.9271 16.1876 43.8381 15.6179 43.7042C15.2122 43.5937 14.8188 43.4422 14.4438 43.252C13.899 42.994 13.3799 42.6848 12.8935 42.3287C12.4875 42.0309 12.1154 41.6894 11.784 41.3104C11.7616 41.2747 11.7474 41.2344 11.7422 41.1926C11.784 41.1926 11.8372 41.1546 11.8752 41.166C11.9835 41.2038 12.0889 41.2495 12.1905 41.3028C12.6657 41.5485 13.1665 41.7409 13.6838 41.8765C14.54 42.1084 15.4335 42.1691 16.3132 42.0551C16.787 41.9929 17.2566 41.9015 17.7191 41.7816C18.2393 41.6362 18.7475 41.4508 19.239 41.2268C19.7064 41.0178 20.1851 40.824 20.6601 40.6302C20.9489 40.5125 21.2376 40.3947 21.5302 40.2883C22.0394 40.1097 22.5523 39.9387 23.0501 39.7715C23.3085 39.6879 23.5744 39.6233 23.8404 39.5549C24.301 39.4531 24.7708 39.3984 25.2425 39.3915C25.7935 39.3725 26.3482 39.3725 26.903 39.3915C27.3305 39.3887 27.756 39.4515 28.1645 39.5777C28.207 39.5894 28.2489 39.6033 28.2899 39.6195C28.4458 39.6938 28.6156 39.7349 28.7882 39.7402C28.9609 39.7454 29.1328 39.7147 29.293 39.6499C29.7586 39.497 30.2408 39.4001 30.7293 39.3611C31.1472 39.3231 31.5652 39.2738 31.987 39.2776C32.4699 39.2832 32.952 39.3175 33.4309 39.3801C33.7836 39.4322 34.1327 39.5071 34.4758 39.6043C34.795 39.6879 35.1141 39.7753 35.4257 39.8817C35.8399 40.0261 36.2502 40.1895 36.6568 40.3529C37.0634 40.5163 37.4167 40.6682 37.8195 40.8354C38.2223 41.0026 38.5377 41.1584 38.9024 41.3066C39.3601 41.479 39.8335 41.6062 40.3159 41.6866C41 41.8009 41.6934 41.8492 42.3868 41.8309C42.942 41.8324 43.4959 41.7763 44.0396 41.6638C44.4659 41.5574 44.8779 41.4005 45.2669 41.1964L45.9015 40.8886C45.9493 40.8819 45.9976 40.8794 46.0459 40.881Z" fill="#626262"/>
<path d="M45.3815 36.1663C45.4319 36.1327 45.4802 36.0959 45.5259 36.0562C46.3276 35.3365 47.2114 34.7141 48.1591 34.2019C48.9608 33.7573 49.7854 33.3584 50.5947 32.9252C51.0583 32.6782 51.5333 32.435 51.9702 32.1425C52.356 31.8729 52.7217 31.5758 53.0645 31.2533C53.4623 30.9125 53.8228 30.5304 54.1398 30.1134C54.3222 29.8588 54.4704 29.5815 54.6338 29.3193C54.6718 29.2547 54.7136 29.1977 54.7592 29.1255C54.7871 29.1483 54.8067 29.1796 54.8149 29.2146C54.8232 29.2497 54.8196 29.2865 54.8048 29.3193C54.3502 31.3779 53.2216 33.2259 51.5978 34.5705C50.8914 35.1662 50.1379 35.7037 49.3446 36.1777C48.9619 36.4062 48.5555 36.5922 48.1325 36.7325C47.7601 36.8592 47.3802 36.9769 46.9926 37.0859C46.481 37.2166 45.962 37.3168 45.4385 37.386C44.975 37.462 44.5152 37.557 44.0516 37.6482C43.9013 37.6742 43.7529 37.7098 43.6071 37.7546C43.3829 37.8192 43.1587 37.8952 42.9345 37.9636C42.8118 38.0083 42.6773 38.0083 42.5546 37.9636C42.528 37.8648 42.6001 37.8192 42.6457 37.766C42.9079 37.4696 43.1777 37.1809 43.4247 36.8731C43.7631 36.433 44.0488 35.9548 44.2758 35.4482C44.443 35.0948 44.6026 34.7339 44.747 34.3653C44.8914 33.9967 45.0016 33.6053 45.127 33.2482C45.3587 32.5908 45.5905 31.9297 45.8375 31.2723C45.9667 30.9076 46.1151 30.5499 46.2821 30.2008C46.6885 29.3704 47.1746 28.5814 47.7335 27.845C47.8893 27.636 48.0337 27.4194 48.1857 27.2066C48.2389 27.1271 48.2986 27.0521 48.3643 26.9825C48.3847 26.9607 48.4095 26.9433 48.4369 26.9316C48.4644 26.9198 48.494 26.9138 48.5239 26.9141C48.6075 26.9141 48.5923 27.0243 48.5847 27.0927C48.58 27.1368 48.5698 27.1802 48.5543 27.2218C48.3266 27.8368 48.1624 28.4734 48.0641 29.1217C47.9172 29.9678 47.7715 30.8151 47.6271 31.6637C47.3801 33.1019 46.753 34.4478 45.8109 35.5622C45.7007 35.6952 45.5753 35.813 45.4613 35.9422C45.4149 35.9992 45.3718 36.0588 45.3321 36.1207L45.3815 36.1663Z" fill="#626262"/>
<path d="M15.1022 38.0772C15.0285 38.0926 14.9533 38.1002 14.878 38.1C14.5703 38.0506 14.2625 38.005 13.9585 37.9404C13.3429 37.815 12.7312 37.6592 12.108 37.5604C11.3824 37.4637 10.6639 37.319 9.95741 37.1273C9.4026 36.9625 8.86347 36.7488 8.34634 36.4889C6.74487 35.6713 5.35952 34.4865 4.30347 33.0312C3.82068 32.3656 3.42126 31.6433 3.11416 30.8806C2.96227 30.5231 2.85137 30.1496 2.78359 29.7672C2.77575 29.7068 2.78775 29.6455 2.81778 29.5925C2.84999 29.6239 2.87923 29.6583 2.90517 29.6951C3.07996 29.961 3.24334 30.2346 3.42953 30.493C3.947 31.1995 4.59121 31.8038 5.32938 32.275C6.08145 32.7648 6.86744 33.2003 7.6814 33.5783C8.17536 33.8139 8.67311 34.0419 9.15188 34.3003C9.53185 34.4979 9.85483 34.7373 10.2006 34.9614C10.5464 35.1856 10.8389 35.3832 11.1505 35.5998C11.4621 35.8164 11.8421 36.1051 12.1878 36.3597C12.2524 36.4053 12.3284 36.4433 12.4158 36.4965C12.4164 36.4634 12.4092 36.4307 12.3946 36.401C12.3801 36.3712 12.3587 36.3454 12.3322 36.3255C12.2152 36.2024 12.0881 36.0893 11.9523 35.9874C11.5686 35.6985 11.2502 35.3321 11.0175 34.912C10.8403 34.6196 10.6792 34.3177 10.535 34.0077C10.3892 33.6615 10.2624 33.3076 10.155 32.9476C10.0562 32.636 9.98022 32.313 9.90803 31.9901C9.85483 31.7545 9.82063 31.5151 9.78263 31.2757C9.72563 30.8958 9.68004 30.5158 9.61544 30.1624C9.53185 29.6989 9.44826 29.2353 9.33807 28.7755C9.25448 28.4184 9.12908 28.0688 9.02649 27.7154C8.99424 27.6048 8.97136 27.4917 8.9581 27.3772C8.9581 27.3392 8.9885 27.2898 9.0037 27.248C9.05309 27.248 9.10248 27.2822 9.15188 27.305C9.15188 27.305 9.20127 27.3278 9.15188 27.305C9.55085 27.8446 9.95742 28.388 10.3564 28.9313C10.7595 29.5048 11.1045 30.117 11.3861 30.759C11.7167 31.4816 12.006 32.2225 12.2524 32.978C12.4462 33.5593 12.6324 34.1407 12.868 34.7031C13.0997 35.2335 13.3624 35.7498 13.6545 36.2495C13.8972 36.6426 14.1597 37.023 14.4411 37.3894C14.5903 37.6058 14.7784 37.7927 14.9958 37.9404C15.0377 37.9806 15.0735 38.0267 15.1022 38.0772Z" fill="#626262"/>
<path d="M50.4683 30.2264C50.5785 30.082 50.7001 29.9452 50.8027 29.7932C51.1333 29.3182 51.441 28.8243 51.7906 28.3645C52.1402 27.9047 52.4442 27.5704 52.7937 27.1866C53.4283 26.4837 54.078 25.7921 54.724 25.0968C55.1014 24.6986 55.4375 24.2632 55.7271 23.7973C55.9043 23.4815 56.0567 23.1525 56.1831 22.8131C56.3152 22.5085 56.3936 22.1832 56.4148 21.8518C56.4138 21.8134 56.4229 21.7754 56.4414 21.7416C56.4704 21.704 56.5101 21.6761 56.5554 21.6618C56.5554 21.6618 56.6238 21.715 56.6276 21.753C56.6698 21.9903 56.6952 22.2303 56.7036 22.4712C56.691 23.1276 56.6172 23.7815 56.4832 24.4242C56.2427 25.66 55.7329 26.8276 54.9899 27.844C54.4353 28.607 53.7981 29.3066 53.0901 29.93C52.6582 30.3159 52.1971 30.6678 51.7108 30.9825C50.9851 31.4575 50.2783 31.9552 49.5564 32.4302C49.0662 32.7532 48.5647 33.0533 48.0669 33.3649C48.0126 33.3943 47.9568 33.4209 47.8997 33.4447C47.8902 33.3907 47.8902 33.3354 47.8997 33.2813C47.9579 33.1397 48.0238 33.0014 48.0973 32.8672C48.2681 32.5552 48.3959 32.2216 48.4773 31.8754C48.5799 31.4955 48.6787 31.1155 48.7585 30.7355C48.8534 30.2682 48.9332 29.797 49.0092 29.3258C49.1422 28.5203 49.1308 27.6996 49.2182 26.8902C49.2676 26.4723 49.3018 26.0543 49.3512 25.6363C49.4082 25.1424 49.4804 24.6522 49.5374 24.1582C49.5898 23.7409 49.6788 23.3289 49.8034 22.9271C49.8946 22.6156 49.9629 22.3002 50.0541 21.9886C50.1263 21.7492 50.2175 21.5213 50.3049 21.2895C50.3328 21.2333 50.3659 21.1799 50.4037 21.1299C50.5025 21.1755 50.4911 21.2515 50.4949 21.3161C50.4949 21.582 50.5139 21.8518 50.5367 22.1178C50.5671 22.4978 50.5937 22.8777 50.6545 23.2577C50.7837 24.0481 50.9395 24.8346 51.0725 25.6249C51.2384 26.5045 51.2307 27.4081 51.0497 28.2847C50.9708 28.723 50.8513 29.153 50.6925 29.569C50.6089 29.7666 50.5139 29.949 50.4265 30.158L50.4037 30.2264H50.4683Z" fill="#626262"/>
<path d="M1.03911 22.1142C1.07711 22.2472 1.1151 22.3498 1.1341 22.4523C1.28576 23.21 1.60516 23.9241 2.06884 24.5422C2.16003 24.679 2.23982 24.8234 2.34242 24.9525C2.44501 25.0817 2.6008 25.2717 2.72239 25.4199C3.55452 26.3052 4.39805 27.183 5.22258 28.0797C5.81187 28.7149 6.33276 29.4102 6.77666 30.1543C6.86071 30.286 6.95205 30.4128 7.05024 30.5343C7.05024 30.5609 7.10723 30.5723 7.13383 30.5913C7.19083 30.5153 7.13384 30.4735 7.11484 30.4241C6.98565 30.1771 6.84886 29.9301 6.73487 29.6642C6.56154 29.2531 6.46372 28.8142 6.44609 28.3685C6.3796 27.4273 6.3796 26.4827 6.44609 25.5415C6.46404 25.3121 6.5009 25.0846 6.55628 24.8614C6.78746 23.9144 6.94875 22.9518 7.03884 21.9812C7.06544 21.9356 7.08063 21.8634 7.11863 21.8482C7.15663 21.833 7.23263 21.89 7.25543 21.9508C7.33943 22.1221 7.40932 22.3 7.46441 22.4827C7.60499 23.0413 7.74938 23.6037 7.84438 24.1736C7.93937 24.7436 8.02297 25.2907 8.09896 25.8531C8.15976 26.2824 8.20915 26.7118 8.25475 27.1412C8.30794 27.6617 8.34594 28.1823 8.39914 28.7028C8.45234 29.2234 8.51313 29.6528 8.57773 30.1239C8.61572 30.4089 8.66512 30.6901 8.71831 30.9713C8.82088 31.6139 9.01539 32.2383 9.29586 32.8255C9.42505 33.0801 9.53524 33.3423 9.65304 33.6045C9.65304 33.6045 9.65304 33.6273 9.65304 33.6387C9.65304 33.6501 9.65304 33.7488 9.65304 33.802C9.6051 33.8081 9.55659 33.8081 9.50865 33.802C9.42125 33.7564 9.33386 33.6957 9.25027 33.6425C8.8399 33.3727 8.44473 33.0801 8.02296 32.8331C7.18323 32.3468 6.41189 31.7578 5.61776 31.2106C5.42777 31.0815 5.23778 30.9523 5.0554 30.8307C4.00951 30.0775 3.09756 29.154 2.35761 28.0987C1.99756 27.5572 1.69088 26.982 1.44188 26.3812C1.11321 25.5716 0.934261 24.709 0.913726 23.8354C0.913726 23.3795 0.887129 22.9197 0.87953 22.4599C0.86347 22.3928 0.87047 22.3221 0.899417 22.2594C0.928363 22.1967 0.977567 22.1455 1.03911 22.1142Z" fill="#626262"/>
<path d="M44.7652 32.7718C44.7272 32.844 44.6968 32.9162 44.655 32.9846C44.4726 33.3076 44.275 33.6192 44.1078 33.9497C43.9102 34.3297 43.7278 34.7439 43.5607 35.1467C43.2808 35.7612 42.941 36.3467 42.5461 36.8945C42.4815 36.9895 42.4055 37.0769 42.3447 37.1719C42.0551 37.6016 41.6634 37.9528 41.2048 38.194C40.7774 38.4613 40.321 38.6792 39.8445 38.8438C39.8445 38.8438 39.8065 38.8704 39.7799 38.8856C39.8293 38.973 39.9053 38.954 39.9661 38.9464C40.1637 38.9464 40.3461 38.9122 40.5551 38.8894C41.4974 38.7754 42.4549 38.6538 43.3783 38.5436C44.1002 38.4562 44.8259 38.3954 45.5441 38.308C46.3182 38.2365 47.0825 38.0824 47.8239 37.8482C48.6846 37.5767 49.4668 37.1008 50.1037 36.4613C50.2114 36.3532 50.3256 36.2516 50.4457 36.1574C50.4941 36.1234 50.5449 36.0929 50.5977 36.0662L50.6395 36.0928C50.6251 36.15 50.606 36.2059 50.5825 36.26C50.2402 36.9158 49.7979 37.5145 49.2716 38.0344C48.7146 38.5948 48.092 39.086 47.4173 39.4973C46.9351 39.7884 46.4262 40.0327 45.8975 40.2269C45.4478 40.4037 44.9802 40.5311 44.503 40.6068C43.9802 40.6904 43.4517 40.7323 42.9223 40.7322C42.2852 40.7273 41.6497 40.6688 41.0225 40.5574C40.2093 40.4092 39.4 40.2496 38.5868 40.0825C38.1347 39.9875 37.6863 39.8659 37.2341 39.7557C36.7175 39.6179 36.1899 39.5251 35.6573 39.4783C35.5742 39.4736 35.4924 39.457 35.4141 39.4289C35.3957 39.419 35.38 39.4048 35.3681 39.3877C35.3562 39.3705 35.3486 39.3508 35.3457 39.3301C35.3457 39.2997 35.3951 39.2541 35.4293 39.2465C35.5385 39.213 35.6504 39.1889 35.7637 39.1743C36.1611 39.1152 36.5509 39.0133 36.9264 38.8704C37.4815 38.6647 38.0087 38.3902 38.4956 38.0534C39.239 37.5382 39.9324 36.9543 40.5665 36.3094C41.3264 35.5722 42.0864 34.8465 42.8691 34.1587C43.2491 33.832 43.629 33.4976 44.009 33.1822C44.1999 33.033 44.3991 32.8947 44.6056 32.768C44.6525 32.7441 44.7023 32.7262 44.7537 32.7148L44.7652 32.7718Z" fill="#626262"/>
<path d="M17.8839 39.1208C17.8773 39.0755 17.8558 39.0337 17.8228 39.002C17.7897 38.9703 17.747 38.9506 17.7015 38.946C16.5184 38.628 15.5082 37.8567 14.8897 36.7992C14.3881 35.9936 13.9778 35.1349 13.5256 34.3028C13.347 33.976 13.1456 33.6568 12.9518 33.3338L12.8189 33.1021C12.7847 33.0451 12.7505 32.9767 12.8189 32.9349C12.8431 32.9231 12.8698 32.917 12.8968 32.917C12.9237 32.917 12.9504 32.9231 12.9746 32.9349C13.1646 33.0502 13.3473 33.1771 13.5218 33.3148C14.1298 33.824 14.7453 34.3294 15.3343 34.8651C16.2006 35.6555 17.0441 36.4686 17.8991 37.2703C18.2685 37.6485 18.6909 37.971 19.1529 38.2279C19.4949 38.3988 19.8445 38.5508 20.1979 38.6952C20.5512 38.8396 20.8476 38.9498 21.1782 39.0752C21.5088 39.2006 21.8241 39.269 22.1471 39.364C22.1902 39.3814 22.2321 39.4018 22.2725 39.4248C22.202 39.4568 22.1297 39.4848 22.0559 39.5084C21.8203 39.5616 21.581 39.6071 21.3454 39.6641L19.6963 40.0669L18.1574 40.4469C18.1156 40.4469 18.07 40.4659 18.0283 40.4811C17.3023 40.6777 16.5593 40.805 15.8092 40.861C15.6192 40.88 15.4293 40.8876 15.2393 40.899C14.5521 40.9453 13.862 40.9211 13.1798 40.8269C12.5472 40.7463 11.9293 40.5762 11.3446 40.3215C10.3166 39.8717 9.37522 39.2455 8.5632 38.471C8.02387 37.9562 7.54226 37.3842 7.12691 36.765C7.07372 36.689 6.98252 36.6168 7.02431 36.4876C7.12691 36.4876 7.19151 36.537 7.25991 36.5902C7.43849 36.7232 7.61327 36.86 7.78425 37.0044C8.26574 37.3921 8.80399 37.7035 9.38013 37.9277C10.0162 38.1895 10.6846 38.3646 11.3674 38.4482C12.0627 38.5318 12.7581 38.5888 13.4572 38.661L15.0341 38.813C15.5318 38.8624 16.0334 38.9118 16.535 38.9688C16.8541 39.003 17.1771 39.0562 17.5001 39.098C17.6141 39.1018 17.7395 39.1094 17.8839 39.1208Z" fill="#626262"/>
<path d="M1.55433 14.1426C1.55433 14.2414 1.58853 14.325 1.59613 14.4124C1.63412 14.8341 1.65693 15.2635 1.71012 15.6853C1.76838 16.1918 1.89624 16.6879 2.09009 17.1595C2.20788 17.4407 2.29908 17.7333 2.41307 18.0145C2.52706 18.2957 2.69425 18.6034 2.79304 18.9074C2.99442 19.4926 3.3212 20.0245 3.55298 20.6021C3.75856 21.1578 3.91743 21.7298 4.02794 22.3119C4.10014 22.6919 4.16852 23.0719 4.24452 23.4746C4.25575 23.5141 4.27103 23.5523 4.29011 23.5886C4.3927 23.5696 4.39271 23.4974 4.39651 23.4366C4.40031 23.3758 4.39651 23.2315 4.39651 23.1327C4.35213 22.566 4.37252 21.9962 4.4573 21.4342C4.51964 21.1161 4.60731 20.8036 4.71948 20.4995C4.98546 19.8421 5.27804 19.1886 5.56682 18.5388C5.82013 17.9739 6.08484 17.4091 6.36095 16.8442C6.60899 16.3176 6.89471 15.8097 7.21589 15.3243C7.25316 15.2677 7.29511 15.2143 7.34128 15.1647C7.37622 15.181 7.4046 15.2087 7.42185 15.2431C7.43909 15.2776 7.44418 15.3169 7.43627 15.3547C7.43627 15.6093 7.45527 15.8638 7.43627 16.1146C7.43498 16.338 7.4223 16.5612 7.39827 16.7834C7.34888 17.1633 7.28807 17.5433 7.23488 17.9233C7.18928 18.2425 7.13989 18.5654 7.10569 18.8884C7.04632 19.3171 6.95229 19.7402 6.82452 20.1537C6.73712 20.4805 6.64593 20.8035 6.55474 21.1302C6.42935 21.5748 6.30776 22.0232 6.17477 22.4715C6.07218 22.8249 5.93919 23.1707 5.8442 23.524C5.71028 24.0359 5.63256 24.5608 5.61241 25.0895C5.61241 25.6329 5.58961 26.1724 5.57441 26.7158C5.56928 26.8368 5.5566 26.9573 5.53642 27.0768C5.52256 27.139 5.50349 27.2 5.47942 27.2591C5.36163 27.2591 5.32364 27.2059 5.28564 27.1376C5.00555 26.6516 4.6866 26.189 4.33191 25.7545C4.21412 25.6063 4.09633 25.4543 3.95194 25.3175C3.17558 24.4896 2.53444 23.5445 2.05209 22.5171C1.78395 21.9471 1.55543 21.3593 1.36815 20.7579C1.10448 19.8595 0.95636 18.9313 0.927386 17.9955C0.889734 17.1281 0.965093 16.2596 1.15157 15.4117C1.21996 15.0583 1.30736 14.7049 1.39095 14.3516C1.38979 14.3032 1.40544 14.2559 1.43523 14.2178C1.46503 14.1797 1.50712 14.1531 1.55433 14.1426Z" fill="#626262"/>
<path d="M55.9446 13.6484C56.032 13.9068 56.1194 14.131 56.1878 14.359C56.5365 15.6077 56.6486 16.9106 56.5184 18.2005C56.4572 19.0519 56.303 19.8942 56.0586 20.7121C55.9127 21.1997 55.7311 21.676 55.5153 22.137C55.3349 22.488 55.1238 22.8224 54.8845 23.1363C54.0144 24.3332 53.1366 25.5225 52.2627 26.7118C52.2133 26.7764 52.1677 26.8904 52.0575 26.8486C51.9474 26.8068 51.9815 26.6966 51.9815 26.6092C51.9815 26.2482 51.9815 25.8835 52.0043 25.5225C52.0377 24.8595 51.9672 24.1954 51.7954 23.5543C51.6662 23.1211 51.5218 22.6955 51.3888 22.2624C51.2558 21.8292 51.1494 21.4454 51.0354 21.0351C50.9442 20.7159 50.8568 20.3967 50.777 20.0775C50.6783 19.6976 50.5833 19.3176 50.4959 18.9376C50.4085 18.5577 50.3173 18.1435 50.2489 17.7407C50.0931 17.0184 50.0054 16.2831 49.9867 15.5445C49.981 15.4686 49.981 15.3924 49.9867 15.3165C49.9916 15.2582 50.01 15.2017 50.0403 15.1516C50.0706 15.1015 50.1121 15.0591 50.1615 15.0277C50.1967 15.0678 50.2261 15.1125 50.2489 15.1607C50.3713 15.5352 50.533 15.8957 50.7315 16.236C50.9936 16.7338 51.2672 17.2202 51.5446 17.7065C51.6776 17.9383 51.8334 18.1587 51.9853 18.3753C52.1798 18.6668 52.3441 18.9775 52.4755 19.3024C52.5895 19.5722 52.6997 19.8457 52.8213 20.1079C53.0242 20.5429 53.1354 21.015 53.1481 21.4948C53.1481 21.8178 53.1823 22.1408 53.2051 22.4675C53.2015 22.5157 53.2077 22.5642 53.2234 22.6099C53.2391 22.6556 53.2638 22.6977 53.2962 22.7335C53.3204 22.6858 53.3407 22.6362 53.357 22.5853C53.4216 22.3003 53.4786 22.0154 53.547 21.7304C53.67 21.2121 53.8327 20.704 54.0334 20.2105C54.3146 19.5304 54.6223 18.8578 54.8921 18.1701C55.0707 17.7217 55.2189 17.262 55.3519 16.7984C55.6315 15.8707 55.7849 14.9096 55.8078 13.941C55.8306 13.7852 55.8306 13.7852 55.9446 13.6484Z" fill="#626262"/>
<path d="M53.4638 19.6716C53.425 19.6122 53.3907 19.5499 53.3612 19.4854C53.2586 19.2042 53.1636 18.923 53.0611 18.6418C52.8472 18.0621 52.5747 17.5058 52.2479 16.9814C51.7957 16.2214 51.2676 15.5565 50.7622 14.8535C50.3443 14.2709 49.9377 13.6845 49.5425 13.0943C49.2939 12.7015 49.09 12.2822 48.9346 11.8442C48.8054 11.5098 48.68 11.1792 48.5546 10.8373C48.4292 10.4953 48.3874 10.1723 48.3038 9.83794C48.2998 9.8256 48.2998 9.81228 48.3038 9.79994C48.3038 9.75055 48.3038 9.67455 48.3456 9.64795C48.3874 9.62136 48.4596 9.67075 48.5014 9.71635C48.7522 9.99753 48.984 10.2939 49.2614 10.5599C49.7591 11.0614 50.2683 11.5478 50.7812 12.0342C51.2149 12.4273 51.6248 12.846 52.0085 13.2881C52.5031 13.8491 52.8539 14.522 53.0307 15.2487C53.0393 15.2867 53.052 15.3237 53.0686 15.3589C53.0686 15.3589 53.0952 15.3817 53.1142 15.3969C53.2092 15.3475 53.194 15.2601 53.1978 15.1803C53.1978 14.8877 53.1978 14.5952 53.1978 14.3026C53.1978 13.3489 53.1978 12.4027 53.2358 11.4376C53.2358 10.7119 53.2966 9.98613 53.3194 9.26039C53.3384 8.90347 53.3384 8.54579 53.3194 8.18887C53.271 7.65677 53.116 7.13986 52.8635 6.66899C52.8179 6.5778 52.7685 6.48661 52.7305 6.39541C52.6925 6.30422 52.6887 6.27002 52.7571 6.24722C52.8255 6.22443 52.8559 6.24723 52.8863 6.29282C53.0268 6.44861 53.1674 6.6044 53.3004 6.77158C53.7215 7.33087 54.082 7.93335 54.3757 8.56884C54.6843 9.21297 54.8956 9.89933 55.0027 10.6055C55.1514 11.5042 55.1998 12.4167 55.1471 13.3261C55.1222 13.8678 55.0394 14.4054 54.9001 14.9295C54.8089 15.2601 54.6721 15.5755 54.5695 15.9061C54.4669 16.2366 54.3681 16.5748 54.2807 16.913C54.1288 17.5057 53.992 18.1023 53.8324 18.6912C53.7526 18.9762 53.6348 19.2536 53.5322 19.5348C53.5123 19.5818 53.4895 19.6275 53.4638 19.6716Z" fill="#626262"/>
<path d="M4.07184 19.9718C4.04568 19.911 4.02285 19.8489 4.00345 19.7856C3.90086 19.379 3.81346 18.9687 3.70327 18.5621C3.59308 18.1555 3.4791 17.8364 3.3537 17.4754C3.19792 17.0118 3.03072 16.5483 2.86733 16.0885L2.62416 15.4045C2.50178 15.0325 2.40902 14.6513 2.34678 14.2646C2.22155 13.4642 2.19094 12.6518 2.25559 11.8442C2.28556 11.2266 2.37463 10.6134 2.52157 10.0128C2.63236 9.63459 2.7853 9.27006 2.97753 8.92605C3.24731 8.4131 3.52468 7.90774 3.82106 7.40617C3.9589 7.19949 4.11262 7.00385 4.28082 6.82102C4.33005 6.77602 4.38499 6.73769 4.44422 6.70703C4.47003 6.74446 4.48385 6.78885 4.48385 6.83432C4.48385 6.87979 4.47003 6.92418 4.44422 6.96161C4.29916 7.25881 4.18704 7.57097 4.10984 7.89254C3.95946 8.53196 3.90314 9.1899 3.94265 9.84558C3.97685 10.3737 4.04144 10.8981 4.10604 11.4225C4.242 12.323 4.31185 13.2323 4.31503 14.143C4.31503 14.6788 4.25043 15.2108 4.21623 15.7465C4.1973 15.9208 4.1973 16.0966 4.21623 16.2709C4.26577 16.1818 4.30527 16.0875 4.33402 15.9897C4.65961 14.6925 5.33518 13.5095 6.28706 12.57C6.77623 12.0657 7.30203 11.5984 7.86014 11.1717C7.96228 11.0854 8.05639 10.99 8.14132 10.8867C8.3199 10.6815 8.49089 10.4649 8.66187 10.2522C8.68831 10.2169 8.71894 10.185 8.75308 10.1572C8.79867 10.1268 8.86707 10.0888 8.89747 10.104C8.919 10.1205 8.93638 10.1418 8.94826 10.1662C8.96013 10.1906 8.96615 10.2174 8.96586 10.2446C8.93765 10.4911 8.89578 10.736 8.84046 10.9779C8.65735 11.5607 8.4417 12.1329 8.19452 12.6916C7.87521 13.4131 7.46948 14.0931 6.98622 14.7168C6.67464 15.1614 6.38966 15.6211 6.09329 16.0733C5.79691 16.5255 5.44353 17.0346 5.13575 17.5248C4.77719 18.082 4.50557 18.6906 4.33022 19.3296C4.28462 19.5006 4.21243 19.664 4.15163 19.8312C4.13011 19.8808 4.10336 19.9279 4.07184 19.9718Z" fill="#626262"/>
<path d="M23.8267 33.5162C23.7355 33.5162 23.6405 33.4934 23.5493 33.4744C22.384 33.1915 21.2646 32.7451 20.2246 32.1483C18.7225 31.2917 17.4055 30.1452 16.3501 28.7754C15.2947 27.4056 14.5219 25.8398 14.0767 24.1689C13.9399 23.656 13.8601 23.1354 13.7613 22.6148C13.6133 21.5934 13.5776 20.5587 13.6549 19.5295C13.68 19.2837 13.7219 19.04 13.7803 18.7999C14.0254 17.2346 14.5533 15.7269 15.3382 14.3505C16.1301 12.9561 17.1751 11.7216 18.4197 10.7104C19.7029 9.65104 21.1827 8.85561 22.7742 8.36977C23.2719 8.21778 23.7811 8.10759 24.2941 7.9898C24.4115 7.97606 24.53 7.97606 24.6474 7.9898C24.5942 8.03159 24.5752 8.05439 24.5486 8.06199C23.7736 8.35608 23.0184 8.70003 22.2878 9.09171C21.5487 9.49046 20.839 9.94123 20.1638 10.4406C19.5331 10.9064 18.9409 11.4223 18.3931 11.9833C17.5689 12.8263 16.854 13.7697 16.2653 14.7913C15.816 15.5566 15.4504 16.3681 15.1748 17.2117C14.8768 18.08 14.6904 18.9827 14.62 19.8981C14.5839 20.5536 14.5839 21.2107 14.62 21.8663C14.6508 22.3176 14.7155 22.766 14.8138 23.2076C14.9917 24.1078 15.2748 24.9839 15.6573 25.818C16.5894 27.8404 17.9802 29.6176 19.7192 31.0084C20.2718 31.4488 20.8518 31.8536 21.4557 32.2205C22.1723 32.6437 22.9133 33.0243 23.6747 33.3604L23.8533 33.4516L23.8267 33.5162Z" fill="#626262"/>
<path d="M4.88813 13.3475C4.87322 13.2582 4.86308 13.1681 4.85774 13.0777C4.85774 12.6977 4.88434 12.3178 4.85774 11.9112C4.81595 11.1513 4.74375 10.4141 4.70195 9.66177C4.66966 9.26853 4.66966 8.8733 4.70195 8.48006C4.76667 7.89165 4.86179 7.30698 4.98693 6.7284C5.14553 6.02834 5.48334 5.38151 5.96725 4.85135C6.28076 4.50047 6.6131 4.16687 6.96278 3.85203C7.33346 3.53172 7.75458 3.27494 8.20908 3.09209C8.30284 3.05474 8.40128 3.03045 8.50165 3.0199C8.52308 3.01823 8.54457 3.02228 8.56392 3.03162C8.58328 3.04097 8.59982 3.05528 8.61185 3.07309C8.61185 3.09969 8.59285 3.14908 8.57765 3.18708C8.56652 3.20252 8.55227 3.21546 8.53585 3.22508C8.13863 3.54638 7.81692 3.95111 7.59352 4.41058C7.41265 4.74404 7.27841 5.10074 7.19456 5.4707C7.00837 6.23064 6.84878 6.95638 6.65499 7.69733C6.5182 8.22548 6.34723 8.74604 6.18764 9.2704C6.11924 9.50218 6.03945 9.73017 5.97105 9.96195C5.95836 10.0208 5.94947 10.0805 5.94445 10.1405C5.99005 10.1405 6.01665 10.1177 6.02045 10.1063C6.38258 9.41618 6.88779 8.81123 7.50233 8.33187C8.20908 7.75432 8.93482 7.19196 9.64537 6.63341C10.0848 6.30097 10.4839 5.91841 10.8347 5.4935C10.9259 5.37951 11.0019 5.25412 11.0931 5.13633C11.1366 5.07454 11.1877 5.01838 11.245 4.96914C11.3362 4.90075 11.4312 4.93874 11.4312 5.05274C11.4304 5.16169 11.4164 5.27014 11.3894 5.37571C11.1159 6.34115 10.6578 7.24442 10.0405 8.0355C9.25234 9.01323 8.34037 9.88433 7.32755 10.6269C6.61668 11.1775 5.98618 11.8246 5.4543 12.5495C5.32691 12.7405 5.2102 12.9384 5.10472 13.1423C5.05152 13.2335 5.02872 13.3171 4.88813 13.3475Z" fill="#626262"/>
<path d="M31.6225 29.2384C31.5488 29.2025 31.4726 29.172 31.3945 29.1472C30.8967 28.9952 30.3914 28.8622 29.8974 28.6988C29.1703 28.4587 28.471 28.1415 27.8114 27.7527C27.732 27.7135 27.6636 27.6551 27.6125 27.5827C27.5615 27.5104 27.5292 27.4265 27.5188 27.3386C27.4808 27.046 27.42 26.7534 27.3592 26.4114C27.4142 26.4357 27.4675 26.4636 27.5188 26.495C28.1902 27.0545 28.9372 27.5163 29.7378 27.8667C30.1466 28.0433 30.5683 28.1881 30.9993 28.2999C31.0435 28.3052 31.0881 28.3052 31.1323 28.2999C31.1323 28.2999 31.1665 28.2999 31.1931 28.2809C31.1551 28.1859 31.0639 28.1821 30.9917 28.1517C30.5092 27.9503 30.0228 27.7717 29.544 27.5513C28.8074 27.2303 28.1182 26.8097 27.496 26.3012C27.4477 26.2643 27.4081 26.2173 27.3799 26.1635C27.3517 26.1097 27.3356 26.0503 27.3326 25.9897C27.3326 25.6591 27.2984 25.3285 27.2832 24.9979C27.2883 24.9653 27.2972 24.9334 27.3098 24.9029C27.3522 24.9335 27.3928 24.9664 27.4314 25.0017C28.323 26.0248 29.4495 26.8163 30.7143 27.3082C30.8219 27.3466 30.9324 27.3758 31.0449 27.3955C31.0901 27.4046 31.1365 27.4046 31.1817 27.3955V27.3576C31.1419 27.3335 31.0999 27.3131 31.0563 27.2968C29.6516 26.7916 28.4016 25.9316 27.4276 24.8003C27.3792 24.7501 27.3417 24.6905 27.3175 24.6251C27.2934 24.5597 27.283 24.49 27.287 24.4204C27.3098 24.1278 27.3174 23.8352 27.3364 23.5426C27.3364 23.4857 27.3364 23.4249 27.3706 23.3223C27.4314 23.3983 27.4618 23.4325 27.4884 23.4743C28.2235 24.6471 29.2638 25.5981 30.4978 26.2252C30.936 26.4727 31.4104 26.6497 31.9036 26.7496C32.0588 26.7926 32.1936 26.8897 32.2836 27.0232C32.333 27.084 32.3216 27.1372 32.2836 27.2094C32.143 27.4031 32.0138 27.5893 31.9036 27.8135C31.8505 27.8971 31.8732 27.9237 31.9644 27.9731C32.0724 28.0252 32.1765 28.0849 32.276 28.1517C32.3128 28.1772 32.3386 28.2155 32.3485 28.2591C32.3583 28.3027 32.3515 28.3485 32.3292 28.3873C32.2684 28.5545 32.2152 28.7254 32.1658 28.8964C32.1164 29.0674 32.1392 29.0408 32.257 29.0826C32.4037 29.131 32.5302 29.2266 32.6168 29.3544C32.7034 29.4823 32.7452 29.6352 32.7358 29.7894C32.7358 29.9033 32.7358 30.0135 32.7358 30.1351C32.6916 30.1399 32.647 30.1399 32.6028 30.1351C31.8701 30.1124 31.1411 30.0208 30.4256 29.8616C29.6248 29.6699 28.8566 29.3614 28.1457 28.9458C28.0601 28.9007 27.9948 28.8246 27.9633 28.733L27.7202 28.0111C27.7162 27.9719 27.7162 27.9325 27.7202 27.8933C27.7654 27.9035 27.8089 27.9201 27.8494 27.9427C28.9541 28.6343 30.1848 29.1005 31.4705 29.3144H31.6225C31.6388 29.3175 31.6555 29.3175 31.6719 29.3144L31.6225 29.2384Z" fill="#626262"/>
<path d="M13.9591 0.360691C13.9134 0.438708 13.8626 0.5136 13.8071 0.584872C13.6057 0.812854 13.4271 1.04843 13.1915 1.26122C12.7349 1.74145 12.3204 2.26013 11.9528 2.8115C11.5728 3.36625 11.1587 3.92101 10.7521 4.46436C10.3943 4.93728 9.98804 5.37153 9.54001 5.76006C8.93966 6.29202 8.3279 6.81258 7.71995 7.33694C7.64567 7.40653 7.56698 7.47126 7.48437 7.53072C7.43595 7.55048 7.38458 7.56203 7.33237 7.56492C7.31345 7.51397 7.30567 7.45954 7.30957 7.40533C7.34377 7.26474 7.40077 7.12795 7.44257 6.98736C7.61355 6.42881 7.78454 5.87025 7.94413 5.3079C8.03376 4.97835 8.16529 4.66165 8.3355 4.36557C8.64372 3.82336 9.00659 3.31409 9.41842 2.84569C9.96858 2.23066 10.6332 1.72862 11.3753 1.36761L13.0015 0.565872C13.2551 0.448216 13.5257 0.371278 13.8033 0.337891C13.856 0.338913 13.9083 0.346575 13.9591 0.360691Z" fill="#626262"/>
<path d="M17.625 23.2427C17.6706 23.1819 17.6858 23.1401 17.7124 23.1249C17.7537 23.1077 17.7972 23.0962 17.8416 23.0907C17.9534 23.0746 18.0549 23.0166 18.1255 22.9283C18.1961 22.8401 18.2304 22.7283 18.2216 22.6157C18.2216 22.3801 18.2216 22.1445 18.2216 21.909V19.9787C18.2216 19.9407 18.2216 19.9027 18.2216 19.8647C18.2216 19.5455 18.1266 19.4468 17.8112 19.4012C17.7922 19.4012 17.7656 19.4012 17.7542 19.4012C17.7228 19.3774 17.6979 19.346 17.682 19.31C17.682 19.31 17.7238 19.2606 17.7542 19.2454C17.7856 19.2395 17.8178 19.2395 17.8492 19.2454C18.3051 19.2454 18.7649 19.2454 19.2247 19.2454C19.2777 19.2416 19.3304 19.2561 19.374 19.2865C19.4176 19.317 19.4494 19.3615 19.464 19.4126C19.749 20.1003 20.0454 20.7842 20.338 21.4682L20.4254 21.6506C20.4672 21.5708 20.4976 21.5252 20.5166 21.4758L21.3221 19.4733C21.3354 19.4521 21.3456 19.4291 21.3525 19.405C21.3575 19.3782 21.3678 19.3528 21.3828 19.3302C21.3978 19.3075 21.4173 19.2882 21.44 19.2733C21.4628 19.2583 21.4883 19.2482 21.515 19.2434C21.5418 19.2386 21.5692 19.2393 21.5957 19.2454C21.7439 19.2454 21.8883 19.2454 22.0364 19.2454H22.9142C22.9583 19.2396 23.003 19.2396 23.0472 19.2454C23.0824 19.2643 23.1145 19.2886 23.1421 19.3176C23.1118 19.3442 23.089 19.3898 23.0586 19.4012C23.0282 19.4126 22.918 19.4012 22.8534 19.4392C22.7872 19.4528 22.7276 19.4884 22.6842 19.5401C22.6407 19.5918 22.616 19.6566 22.614 19.7241C22.614 19.7697 22.614 19.8153 22.614 19.8609V22.6689C22.614 22.9767 22.7052 23.0755 22.994 23.1173C23.0179 23.1133 23.0423 23.1133 23.0662 23.1173C23.0928 23.1173 23.127 23.1629 23.1232 23.1781C23.1179 23.1939 23.1095 23.2084 23.0984 23.2209C23.0873 23.2333 23.0737 23.2433 23.0586 23.2502C23.021 23.2579 22.9822 23.2579 22.9446 23.2502H21.1397C21.0751 23.2502 20.9649 23.2882 20.9611 23.1743C20.9573 23.0603 21.0675 23.1097 21.1283 23.0983C21.3753 23.0603 21.4855 22.9463 21.4855 22.7183C21.4855 21.89 21.4855 21.0616 21.4855 20.2333C21.4855 20.2105 21.4855 20.1839 21.4855 20.1193C21.4437 20.1915 21.4171 20.2257 21.3981 20.2675L20.2582 23.0793C20.2582 23.1059 20.2316 23.1363 20.2202 23.1667C20.2088 23.1971 20.1518 23.2617 20.0796 23.2617C20.048 23.2672 20.0156 23.2615 19.9878 23.2455C19.96 23.2295 19.9387 23.2043 19.9276 23.1743C19.8516 22.9881 19.7642 22.7943 19.6844 22.6157C19.3539 21.8558 19.0195 21.0578 18.6889 20.2827C18.6889 20.2485 18.6547 20.2143 18.6205 20.1497C18.6034 20.1963 18.5919 20.2448 18.5863 20.2941C18.5863 21.054 18.5863 21.8482 18.5863 22.6271C18.5754 22.6799 18.5758 22.7344 18.5875 22.787C18.5993 22.8396 18.6221 22.8891 18.6544 22.9323C18.6867 22.9754 18.7279 23.0111 18.7751 23.0371C18.8223 23.0631 18.8746 23.0788 18.9283 23.0831H18.9815C19.0385 23.0831 19.1259 23.0831 19.1107 23.1819C19.0955 23.2806 19.0233 23.2427 18.9701 23.2427H17.8036C17.7504 23.2655 17.7124 23.2541 17.625 23.2427Z" fill="#626262"/>
<path d="M27.7305 19.2496H27.9167C28.2966 19.2496 28.6766 19.2496 29.0794 19.2496C29.1391 19.2451 29.1991 19.2565 29.2531 19.2825C29.3071 19.3085 29.3533 19.3482 29.3871 19.3978C29.8963 20.0475 30.4131 20.6973 30.926 21.347C30.9482 21.3773 30.9661 21.4106 30.9792 21.4458L31.0324 21.4192C31.0433 21.3806 31.0509 21.3412 31.0552 21.3014C31.0552 20.9214 31.0552 20.5225 31.0552 20.1349C31.0536 20.0077 31.0435 19.8808 31.0248 19.7549C31.0141 19.6755 30.9786 19.6015 30.9233 19.5435C30.868 19.4855 30.7958 19.4465 30.717 19.432C30.6742 19.4246 30.6323 19.4132 30.5917 19.3978C30.5575 19.3978 30.5384 19.337 30.5119 19.3066L30.603 19.2344H31.8456C31.8642 19.2379 31.8821 19.2443 31.8988 19.2534C31.9367 19.3484 31.8988 19.4016 31.8076 19.4206H31.7506C31.6565 19.43 31.5694 19.4742 31.5061 19.5444C31.4429 19.6147 31.4081 19.706 31.4086 19.8005C31.4086 19.8765 31.4086 19.9525 31.4086 20.0285V23.0683C31.4086 23.1443 31.4086 23.2165 31.4086 23.2887C31.3436 23.3224 31.2682 23.3302 31.1976 23.3105C31.1271 23.2907 31.0666 23.2449 31.0286 23.1823C30.4321 22.4223 29.8241 21.6852 29.2237 20.9366C29.0756 20.7543 28.9236 20.5567 28.7792 20.3857C28.7577 20.3536 28.7399 20.3191 28.726 20.2831L28.6766 20.3135C28.6624 20.3513 28.6534 20.391 28.65 20.4313C28.65 21.1266 28.65 21.822 28.65 22.5135C28.648 22.5451 28.648 22.5769 28.65 22.6085C28.6499 22.7323 28.6977 22.8512 28.7834 22.9405C28.8692 23.0298 28.9861 23.0824 29.1098 23.0873C29.1706 23.0873 29.2541 23.0873 29.2503 23.1709C29.2465 23.2545 29.1554 23.2393 29.0984 23.2393H27.8939C27.8625 23.245 27.8303 23.245 27.7989 23.2393C27.7723 23.2393 27.7419 23.2051 27.7381 23.1823C27.7377 23.1675 27.7414 23.153 27.7488 23.1403C27.7562 23.1275 27.7669 23.1171 27.7799 23.1101C27.8332 23.0901 27.8878 23.0736 27.9433 23.0607C28.0333 23.0443 28.1152 22.9978 28.1753 22.9287C28.2354 22.8597 28.2701 22.7722 28.2738 22.6807C28.2776 22.6111 28.2776 22.5413 28.2738 22.4717V20.0057C28.2801 19.8721 28.2395 19.7405 28.159 19.6336C28.0785 19.5268 27.9632 19.4514 27.8331 19.4206C27.7381 19.394 27.7381 19.394 27.7305 19.2496Z" fill="#626262"/>
<path d="M26.0519 19.2525C26.0937 19.2525 26.1431 19.2525 26.1925 19.2525C26.5724 19.2525 26.9524 19.2525 27.359 19.2525C27.4198 19.2525 27.5148 19.2221 27.53 19.3209C27.5452 19.4196 27.4426 19.4158 27.3818 19.4272C27.2667 19.4442 27.1628 19.5053 27.0919 19.5974C27.0211 19.6896 26.9887 19.8057 27.0018 19.9212C27.0018 20.514 27.0018 21.1029 27.0018 21.6957C27.0001 21.9378 26.9772 22.1794 26.9334 22.4176C26.8963 22.6206 26.8017 22.8086 26.661 22.9594C26.5202 23.1103 26.3391 23.2176 26.1393 23.2687C25.6858 23.4055 25.2021 23.4055 24.7486 23.2687C24.5307 23.2228 24.3335 23.1078 24.1863 22.9407C24.0391 22.7737 23.9498 22.5635 23.9316 22.3416C23.9164 22.1647 23.91 21.9872 23.9126 21.8097C23.9126 21.1941 23.9126 20.5748 23.9126 19.9554C23.9164 19.8858 23.9164 19.816 23.9126 19.7464C23.915 19.6725 23.8892 19.6005 23.8406 19.5448C23.7919 19.4891 23.724 19.4539 23.6505 19.4462C23.6065 19.4402 23.5633 19.43 23.5213 19.4158C23.4871 19.4158 23.4415 19.3664 23.4377 19.3361C23.4339 19.3057 23.4909 19.2601 23.5403 19.2563C23.5719 19.2544 23.6036 19.2544 23.6353 19.2563H25.3527C25.3905 19.2505 25.4289 19.2505 25.4667 19.2563C25.5002 19.2776 25.5298 19.3046 25.5541 19.3361C25.5237 19.3627 25.4971 19.4006 25.4629 19.412C25.4287 19.4234 25.3261 19.412 25.2577 19.4462C25.1943 19.4577 25.1369 19.4909 25.0952 19.5402C25.0536 19.5894 25.0305 19.6516 25.0298 19.716C25.0298 19.754 25.0298 19.792 25.0298 19.83C25.0298 20.6583 25.0298 21.4867 25.0298 22.3112C25.0289 22.4824 25.0919 22.6477 25.2064 22.7749C25.321 22.902 25.4788 22.982 25.6491 22.999C25.7673 23.0114 25.8867 22.997 25.9986 22.9568C26.1104 22.9167 26.2117 22.8519 26.2951 22.7672C26.449 22.631 26.5477 22.4431 26.5724 22.239C26.599 21.992 26.6218 21.7451 26.6256 21.4791C26.6256 21.0003 26.6256 20.5216 26.6256 20.0466C26.6294 19.9947 26.6294 19.9427 26.6256 19.8908C26.5914 19.6476 26.5306 19.4348 26.2115 19.412C26.0937 19.4082 26.0063 19.393 26.0519 19.2525Z" fill="#626262"/>
<path d="M34.8152 32.6359C34.5948 32.9475 34.2339 32.9893 33.8919 33.1109H34.2186C34.222 33.1268 34.2218 33.1433 34.218 33.1591C34.2143 33.175 34.2071 33.1898 34.1969 33.2025C34.1867 33.2152 34.1738 33.2255 34.1592 33.2327C34.1446 33.2398 34.1286 33.2437 34.1123 33.2439C33.9349 33.2923 33.7526 33.3204 33.5689 33.3275C33.487 33.3226 33.4057 33.3444 33.3372 33.3896C33.2687 33.4348 33.2167 33.501 33.1889 33.5782C33.0559 33.867 33.0255 33.8784 32.7216 33.7758C32.5468 33.7188 32.3758 33.639 32.201 33.5782C32.0628 33.531 31.922 33.4916 31.7793 33.4604C31.5817 33.4225 31.4981 33.506 31.4981 33.7074C31.5018 33.7326 31.5018 33.7582 31.4981 33.7834H31.4715C31.3651 33.7416 31.3233 33.6276 31.2701 33.5326C31.2251 33.4315 31.187 33.3274 31.1561 33.2211C31.0307 33.2971 31.0535 33.4149 31.0459 33.5136C31.0383 33.6124 31.0459 33.7074 31.0459 33.8062C31.0459 33.8062 31.0155 33.8062 31.0079 33.8062C30.9256 33.758 30.8543 33.6931 30.7984 33.6158C30.7425 33.5385 30.7033 33.4505 30.6833 33.3572C30.6633 33.2639 30.6629 33.1675 30.6821 33.0741C30.7014 32.9807 30.7399 32.8923 30.7951 32.8145C30.8497 32.7429 30.919 32.6838 30.9983 32.6412C31.0776 32.5986 31.1651 32.5735 31.2549 32.5675C31.4255 32.5612 31.5963 32.574 31.764 32.6055C31.8122 32.6195 31.8633 32.6198 31.9117 32.6064C31.96 32.593 32.0036 32.5664 32.0376 32.5295C32.2656 32.2825 32.5164 32.0546 32.7368 31.8C33.0182 31.4578 33.1821 31.0342 33.2041 30.5917C33.2041 30.5423 33.2041 30.4929 33.2269 30.4131C33.2887 30.4425 33.3472 30.4781 33.4017 30.5195C33.5651 30.6677 33.7323 30.8159 33.8919 30.9716C34.1352 31.2347 34.441 31.4321 34.781 31.5454C34.895 31.5796 34.914 31.6366 34.8304 31.724C34.712 31.848 34.585 31.9635 34.4504 32.0698C34.3812 32.1165 34.3313 32.1867 34.3098 32.2673C34.5948 32.2255 34.8456 32.104 35.1154 32.0698C34.8418 32.4497 34.4162 32.5143 34.0287 32.6739C34.1574 32.7213 34.2989 32.7213 34.4276 32.6739C34.5606 32.6473 34.6898 32.5979 34.8076 32.5599L34.8152 32.6359ZM31.9616 32.8905C31.9161 32.8547 31.8599 32.8353 31.802 32.8353C31.7442 32.8353 31.688 32.8547 31.6425 32.8905C31.7603 32.9095 31.84 32.9665 31.9616 32.8905Z" fill="#626262"/>
<path d="M30.6083 14.4429C30.6463 14.3707 30.6577 14.3138 30.6957 14.2834C30.7129 14.2673 30.7333 14.2549 30.7555 14.2471C30.7778 14.2392 30.8014 14.236 30.8249 14.2378C30.8473 14.2455 30.8677 14.258 30.8847 14.2744C30.9018 14.2908 30.9151 14.3107 30.9237 14.3328C30.9432 14.432 30.9572 14.5322 30.9655 14.6329C30.9845 14.8989 31.0073 15.1649 31.0263 15.4347C31.0284 15.4638 31.0284 15.493 31.0263 15.5221H30.8173C30.7282 15.3368 30.6266 15.1578 30.5133 14.9863C30.4046 14.839 30.2639 14.7183 30.1018 14.6334C29.9396 14.5484 29.7603 14.5014 29.5773 14.4959C29.3943 14.4904 29.2125 14.5266 29.0455 14.6017C28.8785 14.6767 28.7308 14.7888 28.6135 14.9293C28.3825 15.1872 28.2354 15.5092 28.1917 15.8526C28.1098 16.3414 28.1912 16.8435 28.4235 17.2813C28.5115 17.4637 28.6368 17.6255 28.7913 17.7564C28.9457 17.8873 29.1259 17.9843 29.3202 18.0413C29.632 18.124 29.9638 18.0803 30.2435 17.9197C30.2676 17.9055 30.2882 17.8863 30.304 17.8633C30.3197 17.8403 30.3302 17.8142 30.3348 17.7867C30.3348 17.3877 30.3348 16.9849 30.312 16.586C30.312 16.3694 30.2169 16.3048 30.008 16.2592C29.951 16.2326 29.8408 16.2592 29.856 16.1604C29.8712 16.0616 29.9586 16.1034 30.0156 16.1034C30.4563 16.1034 30.8933 16.1034 31.3341 16.1034C31.3911 16.1034 31.4785 16.073 31.4899 16.1642C31.5013 16.2554 31.4101 16.2364 31.3531 16.2516C31.2691 16.2621 31.1923 16.3039 31.138 16.3688C31.0837 16.4337 31.056 16.5167 31.0605 16.6012C31.0605 16.7646 31.0605 16.9317 31.0605 17.0951C31.0605 17.3573 31.0605 17.6195 31.0605 17.8817C31.0658 17.9284 31.0553 17.9757 31.0304 18.0157C31.0056 18.0557 30.968 18.0861 30.9237 18.1021C30.5686 18.2746 30.1786 18.3631 29.7838 18.3604C29.4851 18.3711 29.1861 18.3533 28.8909 18.3072C28.4761 18.223 28.1013 18.0027 27.8259 17.6813C27.5506 17.3598 27.3905 16.9556 27.371 16.5328C27.3379 16.1431 27.4117 15.7519 27.5845 15.401C27.7572 15.0502 28.0223 14.7531 28.3513 14.5417C28.6048 14.3794 28.8947 14.2828 29.1948 14.2606C29.6127 14.208 30.0371 14.2602 30.4298 14.4125C30.4884 14.4274 30.5481 14.4376 30.6083 14.4429Z" fill="#626262"/>
<path d="M23.8078 15.2672C23.7724 15.2699 23.7368 15.2699 23.7014 15.2672C23.6571 15.2697 23.6127 15.2697 23.5684 15.2672C23.5554 14.9482 23.5745 14.6287 23.6254 14.3135H23.8458H26.7867C26.9653 14.3135 26.9843 14.3135 26.9995 14.5073C27.0147 14.701 26.9995 14.8036 26.9995 14.948C26.9995 15.0924 26.9995 15.1608 26.9995 15.2634C26.7905 15.3128 26.7677 15.3014 26.7297 15.1304C26.7065 14.9938 26.6359 14.8698 26.5302 14.7802C26.4246 14.6905 26.2907 14.641 26.1522 14.6403C26.0192 14.6403 25.8862 14.6403 25.7722 14.6403C25.6582 14.6403 25.624 14.6403 25.6202 14.7998C25.6202 15.005 25.6202 15.2064 25.6202 15.4116C25.6202 16.0955 25.6202 16.7757 25.6202 17.4558C25.622 17.5832 25.6335 17.7102 25.6544 17.8358C25.6554 17.9135 25.6864 17.9877 25.741 18.043C25.7955 18.0982 25.8694 18.1302 25.947 18.1322C26.0039 18.1284 26.0611 18.1284 26.118 18.1322C26.132 18.1364 26.1446 18.1443 26.1546 18.155C26.1646 18.1656 26.1716 18.1787 26.175 18.193C26.175 18.212 26.1484 18.2462 26.1218 18.2538C26.0855 18.2615 26.0479 18.2615 26.0116 18.2538H24.5373C24.4765 18.2538 24.3739 18.2842 24.3663 18.1892C24.3587 18.0942 24.4613 18.117 24.5259 18.1132C24.6267 18.1132 24.7233 18.0731 24.7946 18.0019C24.8658 17.9306 24.9059 17.834 24.9059 17.7332C24.9097 17.6623 24.9097 17.5913 24.9059 17.5204V14.8264C24.9059 14.7618 24.9059 14.701 24.9059 14.6213C24.6832 14.585 24.4561 14.585 24.2334 14.6213C24.1379 14.6532 24.0526 14.7097 23.9859 14.7851C23.9192 14.8604 23.8735 14.952 23.8534 15.0506C23.8306 15.138 23.823 15.195 23.8078 15.2672Z" fill="#626262"/>
<path d="M23.2031 18.2042C23.1803 18.2764 23.1157 18.2688 23.0625 18.2688H21.5426C21.5176 18.2746 21.4916 18.2746 21.4666 18.2688C21.4413 18.2531 21.4183 18.2339 21.3982 18.2118C21.421 18.189 21.44 18.151 21.4704 18.1396C21.5147 18.1357 21.5592 18.1357 21.6034 18.1396C21.6918 18.1301 21.774 18.0899 21.8358 18.026C21.8975 17.9622 21.935 17.8787 21.9416 17.79C21.9454 17.7204 21.9454 17.6507 21.9416 17.5811V14.9213C21.9416 14.6439 21.8694 14.5185 21.5312 14.4577C21.5046 14.4577 21.478 14.4577 21.4552 14.4577C21.4319 14.4409 21.4102 14.4218 21.3906 14.4007C21.4134 14.3741 21.4324 14.3399 21.4628 14.3285C21.5006 14.3228 21.539 14.3228 21.5768 14.3285H23.0473C23.1043 14.3285 23.1955 14.3285 23.1993 14.3969C23.2031 14.4653 23.1119 14.4653 23.0549 14.4729C22.7585 14.5147 22.6749 14.6287 22.6749 14.9517C22.6749 15.6698 22.6749 16.3918 22.6749 17.1099C22.6749 17.3075 22.6749 17.4899 22.6749 17.7026C22.6749 18.0066 22.7851 18.1206 23.0929 18.151C23.1309 18.132 23.1917 18.1244 23.2031 18.2042Z" fill="#626262"/>
<path d="M21.0704 14.3698C21.0462 14.3968 21.018 14.4199 20.9867 14.4382C20.9425 14.4419 20.898 14.4419 20.8538 14.4382C20.7604 14.4486 20.6742 14.4931 20.6117 14.5633C20.5493 14.6334 20.515 14.7243 20.5156 14.8182C20.5156 14.8866 20.5156 14.9588 20.5156 15.0272V17.687C20.5156 17.9492 20.6486 18.0669 20.9146 18.1163C20.9753 18.1163 21.0476 18.1163 21.0666 18.1961C21.0855 18.2759 20.9754 18.2607 20.9222 18.2607H19.4023C19.3773 18.2666 19.3513 18.2666 19.3263 18.2607C19.3009 18.245 19.2779 18.2258 19.2579 18.2037C19.2845 18.1809 19.3035 18.1429 19.3301 18.1353C19.3742 18.1295 19.4189 18.1295 19.4631 18.1353C19.5514 18.1258 19.6336 18.0856 19.6954 18.0217C19.7572 17.9579 19.7946 17.8744 19.8012 17.7858C19.805 17.7162 19.805 17.6464 19.8012 17.5768V14.9702C19.8012 14.5674 19.7442 14.5028 19.3491 14.4268C19.3111 14.4268 19.2579 14.3888 19.2541 14.3622C19.2503 14.3356 19.3073 14.2938 19.3567 14.29H20.8766C20.9374 14.29 21.002 14.29 21.0627 14.29L21.0704 14.3698Z" fill="#626262"/>
<path d="M43.1562 0C43.2318 0.0138311 43.3067 0.0315868 43.3804 0.0531956C44.034 0.311575 44.7027 0.547157 45.3411 0.843534C46.274 1.24414 47.1127 1.83565 47.8033 2.58C48.5386 3.46231 49.1007 4.47559 49.4599 5.56656C49.6005 5.98073 49.7335 6.3987 49.8703 6.81666C49.9045 6.91925 49.9539 7.01425 49.9843 7.12064C49.9935 7.17343 49.9935 7.22743 49.9843 7.28023C49.9311 7.28135 49.8783 7.27232 49.8285 7.25363C49.7181 7.17936 49.6116 7.09946 49.5093 7.01425C48.657 6.32573 47.845 5.58863 47.0775 4.80662C46.3728 4.07055 45.7238 3.28311 45.1359 2.45081C44.8281 2.00624 44.4671 1.59967 44.1404 1.17031C43.9204 0.896942 43.6776 0.642718 43.4146 0.410368C43.2842 0.307043 43.1931 0.16225 43.1562 0Z" fill="#626262"/>
<path d="M45.9023 4.50991C45.9447 4.55406 45.984 4.60103 46.0201 4.65049C46.2557 4.96587 46.4799 5.29264 46.7306 5.59662C46.8744 5.76577 47.0362 5.91867 47.2132 6.05258C47.426 6.22357 47.6578 6.37556 47.8782 6.53515C48.3455 6.87332 48.8129 7.21909 49.284 7.55347C49.7698 7.89254 50.2103 8.2922 50.5949 8.74277C50.6975 8.86436 50.8077 8.98215 50.9179 9.09614C50.9597 9.13794 51.0129 9.16834 51.0585 9.20634H51.1041C51.1117 9.1496 51.1117 9.09209 51.1041 9.03535C50.9483 8.47299 50.7887 7.89544 50.6367 7.34448C50.443 6.62634 50.2568 5.9006 50.0706 5.18245C49.9379 4.63811 49.706 4.12287 49.3866 3.66257C49.1966 3.40799 48.9611 3.18761 48.7483 2.95203C48.6647 2.86084 48.5849 2.76584 48.4937 2.65945C48.5357 2.63684 48.5827 2.625 48.6305 2.625C48.6782 2.625 48.7252 2.63684 48.7673 2.65945C49.1478 2.77658 49.5061 2.95637 49.8274 3.19141C50.7532 3.8185 51.5102 4.6642 52.0312 5.65362C52.343 6.26938 52.513 6.94707 52.529 7.63706C52.5936 9.33552 52.5822 11.0568 52.5594 12.7363C52.552 12.8078 52.5406 12.8788 52.5252 12.949H52.4834C52.4481 12.9196 52.4173 12.885 52.3922 12.8464C52.0201 12.2135 51.5449 11.6472 50.9863 11.1708C50.3024 10.5058 49.531 9.93588 48.7939 9.33173C47.9659 8.68089 47.2498 7.89927 46.6737 7.01771C46.4969 6.70903 46.3432 6.38771 46.2139 6.05638C46.0286 5.62297 45.9083 5.16461 45.8567 4.69609C45.8491 4.6353 45.8149 4.5707 45.9023 4.50991Z" fill="#626262"/>
</svg>
