<svg width="132" height="122" viewBox="0 0 132 122" fill="none" xmlns="http://www.w3.org/2000/svg">
<path d="M40.8675 11.0644C40.8282 11.004 40.7804 10.9496 40.7255 10.9029L39.5997 10.1588L39.3746 10.0316C39.3746 9.89941 39.4773 9.89452 39.5557 9.87005C39.9715 9.73756 40.41 9.69137 40.8443 9.7343C41.2786 9.77722 41.6996 9.90836 42.0814 10.1197C42.629 10.4265 43.1246 10.8181 43.5498 11.2798C44.411 12.1845 45.1499 13.1982 45.7476 14.295C46.4647 15.5631 46.9441 16.9515 47.1622 18.3919C47.3074 19.3753 47.3451 20.3715 47.2748 21.3631C47.2748 21.6665 47.1818 21.9651 47.1475 22.2637C47.1133 22.5623 47.1084 22.7532 47.0986 23.0273C47.1078 23.101 47.1259 23.1733 47.1524 23.2427H47.2161C47.2479 23.1931 47.2711 23.1385 47.2846 23.0811C47.4727 22.0809 47.5564 21.0639 47.5342 20.0464C47.4583 16.9962 46.3092 14.0705 44.289 11.7839C43.8516 11.2828 43.3682 10.824 42.845 10.4134C42.812 10.3879 42.7824 10.3583 42.7569 10.3253C42.7569 10.3253 42.7569 10.2959 42.7569 10.2616C42.8078 10.245 42.8603 10.2336 42.9135 10.2274C43.6489 10.2117 44.3709 10.4256 44.9791 10.8392C45.5784 11.2706 46.0901 11.8121 46.4867 12.4349C47.3365 13.6775 47.958 15.0615 48.3223 16.5221C48.6754 17.865 48.8401 19.2504 48.8118 20.6386C48.7889 21.7739 48.6245 22.9019 48.3223 23.9965C48.3169 24.0469 48.3169 24.0978 48.3223 24.1482C48.4691 24.1482 48.5181 24.0405 48.5523 23.9475C48.6361 23.7428 48.7032 23.5316 48.753 23.3161C49.2933 20.7087 49.1243 18.0042 48.2636 15.4844C47.927 14.4461 47.4703 13.4506 46.9028 12.5181C46.707 12.2049 46.4818 11.9063 46.2763 11.6028C46.2391 11.5475 46.2048 11.4903 46.1735 11.4315L46.2126 11.3825L46.4378 11.4462C47.4351 11.7839 48.2833 12.459 48.8362 13.3551C49.3349 14.1298 49.7021 14.9815 49.9229 15.876C50.1982 16.8746 50.3624 17.9006 50.4123 18.9352C50.4488 20.2327 50.3371 21.53 50.0795 22.8021C49.9522 23.4972 49.7956 24.1874 49.6537 24.8775C49.6537 24.9852 49.6096 25.0929 49.59 25.2006H49.6537C49.7041 25.1217 49.7498 25.04 49.7907 24.9559C50.1306 24.0842 50.3672 23.1757 50.4956 22.249C50.6636 21.0937 50.7095 19.9239 50.6326 18.759C50.565 17.5379 50.348 16.3297 49.9865 15.1613C49.8408 14.6721 49.6439 14.1996 49.3992 13.7516C49.38 13.7025 49.3652 13.6517 49.3551 13.5999C49.4232 13.6128 49.4903 13.6308 49.5558 13.6537C50.2979 14.0029 50.9 14.5929 51.2641 15.3278C51.6581 16.0888 51.8961 16.9209 51.964 17.7752C52.1382 19.6026 51.9907 21.4465 51.5284 23.2231C51.2934 24.1433 50.9899 25.0489 50.7207 25.9593C50.6718 26.1257 50.6179 26.2872 50.5739 26.4488C50.5739 26.5222 50.5739 26.6005 50.5396 26.6984C50.6816 26.6641 50.7012 26.5662 50.7354 26.4928C51.1065 25.7325 51.4064 24.9394 51.6312 24.1237C52.1216 22.373 52.3346 20.5562 52.2626 18.7394C52.2416 18.0817 52.1663 17.4268 52.0374 16.7815C52.0331 16.749 52.0331 16.7161 52.0374 16.6836C52.0509 16.6252 52.0689 16.5679 52.0913 16.5123C52.1565 16.5278 52.2191 16.5525 52.2773 16.5857C52.3313 16.6473 52.3759 16.7166 52.4094 16.7913C53.0701 17.9004 53.4091 19.1716 53.3884 20.4624C53.4289 22.2806 53.1096 24.0888 52.4486 25.7831C52.2234 26.3558 51.9248 26.8991 51.6703 27.4571C51.5431 27.7361 51.4403 28.02 51.3326 28.3039C51.3164 28.3614 51.3066 28.4205 51.3032 28.4801C51.4354 28.4801 51.4648 28.3773 51.5039 28.3039C52.3651 26.8372 52.9972 25.2477 53.3786 23.5902C53.6342 22.5029 53.7979 21.396 53.8681 20.2813C53.8789 20.2281 53.8936 20.1757 53.9122 20.1247C54.0394 20.1589 54.0394 20.2617 54.0688 20.34C54.4543 21.3671 54.5836 22.4726 54.4457 23.5608C54.2955 24.7838 53.9657 25.978 53.4667 27.1047C53.044 28.0935 52.5534 29.0519 51.9983 29.973C51.92 30.0954 51.8612 30.2227 51.7682 30.3989C52.2864 29.8958 52.7151 29.3082 53.036 28.6612C53.3835 28.0396 53.7017 27.3984 54.015 26.7571C54.298 26.1151 54.5209 25.4482 54.6806 24.765H54.7492C54.7674 24.8241 54.7805 24.8847 54.7883 24.9461C54.9661 26.5728 54.6398 28.2149 53.8534 29.65C53.3543 30.5489 52.7567 31.3894 52.0717 32.1561C51.9787 32.2589 51.8514 32.347 51.8514 32.533C51.92 32.489 51.9934 32.4449 52.0619 32.3911C52.4322 32.0803 52.7715 31.7344 53.0751 31.3583C53.3933 30.996 53.7212 30.6387 54.0541 30.2814C54.1224 30.2151 54.1961 30.1545 54.2744 30.1003C54.2795 30.1638 54.2795 30.2277 54.2744 30.2912C53.968 31.4325 53.3631 32.4715 52.522 33.3015C52.0325 33.791 51.543 34.2021 51.0536 34.6574L50.8529 34.8483C50.9704 34.9217 51.034 34.8483 51.1025 34.8483C51.6254 34.5751 52.1177 34.2469 52.571 33.8693C52.8745 33.6294 53.1681 33.3798 53.4716 33.14C53.5339 33.0932 53.5993 33.0506 53.6674 33.0127C53.664 33.082 53.6542 33.1508 53.638 33.2183C53.4036 33.8517 53.0357 34.4273 52.5594 34.9061C52.0831 35.3849 51.5095 35.7558 50.8774 35.9937L50.3096 36.2384C50.3516 36.2724 50.4025 36.2937 50.4563 36.2998C50.5101 36.3059 50.5645 36.2965 50.6131 36.2726C50.9997 36.1405 51.3913 36.0132 51.7682 35.8615C51.9885 35.7734 52.1941 35.6461 52.4045 35.5384L52.5367 35.4846C52.615 35.5776 52.5367 35.6412 52.5073 35.6902C52.311 35.9296 52.1001 36.1569 51.8759 36.3705C51.3514 36.8312 50.7286 37.166 50.055 37.3495C49.8946 37.3932 49.7309 37.4243 49.5656 37.4425C49.31 37.4858 49.0477 37.4259 48.8362 37.2761L48.2244 36.8649C47.9521 36.6775 47.634 36.5676 47.3042 36.5468C47.2522 36.5337 47.1978 36.5335 47.1457 36.5463C47.0937 36.5591 47.0456 36.5845 47.0056 36.6202C47.079 36.723 47.1867 36.7132 47.2748 36.7279C47.8287 36.8229 48.3464 37.0665 48.7726 37.4327C48.8667 37.5129 48.955 37.5996 49.0369 37.6922C49.218 37.9026 49.2082 37.932 48.9488 38.0299C48.905 38.0529 48.8639 38.0808 48.8264 38.1131L49.1103 38.1914C49.2963 38.2453 49.4921 38.2844 49.6781 38.3529C49.8641 38.4215 49.8592 38.4704 49.8348 38.6417C49.7858 38.9305 49.7271 39.2193 49.6781 39.513C49.6736 39.5798 49.6736 39.6469 49.6781 39.7137C49.7956 39.7822 49.8593 39.7137 49.918 39.6648L51.0487 38.6858C51.1172 38.6271 51.176 38.5634 51.2347 38.5096C51.3473 38.5634 51.313 38.6271 51.2934 38.6907C51.179 39.0254 50.9879 39.3288 50.7354 39.5766C50.5347 39.7724 50.3243 39.9536 50.1187 40.1396L49.9229 40.3256C49.9752 40.3383 50.03 40.3368 50.0817 40.3213C50.1333 40.3058 50.1799 40.2769 50.2166 40.2374L50.8872 39.699L51.1613 39.4885C51.175 39.4745 51.1913 39.4633 51.2094 39.4557C51.2275 39.448 51.2469 39.4441 51.2665 39.4441C51.2861 39.4441 51.3055 39.448 51.3236 39.4557C51.3417 39.4633 51.3581 39.4745 51.3717 39.4885C51.3764 39.5243 51.3764 39.5605 51.3717 39.5962C51.1366 40.1043 50.7387 40.5194 50.241 40.7759C50.135 40.8359 50.0321 40.9013 49.9327 40.9717C50.0049 40.9948 50.0818 40.9993 50.1563 40.9847C50.2307 40.9702 50.3003 40.9371 50.3585 40.8885C50.4711 40.8346 50.5788 40.7661 50.6865 40.7025L50.7354 40.7367C50.6471 40.9345 50.5245 41.1152 50.3732 41.2703C50.1638 41.4154 49.9428 41.5431 49.7124 41.652C49.6513 41.6721 49.5992 41.713 49.5652 41.7676C49.5312 41.8221 49.5174 41.887 49.5264 41.9506C49.5507 42.2716 49.4956 42.5936 49.3658 42.8881C49.236 43.1827 49.0357 43.4407 48.7824 43.6393C48.7381 43.6876 48.6801 43.721 48.6161 43.735C48.5522 43.749 48.4854 43.743 48.4251 43.7177L47.5734 43.3946C47.3433 43.3065 47.1133 43.2184 46.8783 43.1499C46.565 43.0618 46.4623 43.1499 46.3888 43.4484C46.3788 43.4822 46.3657 43.515 46.3497 43.5463C46.0609 43.3701 46.0364 43.0569 45.9189 42.7632C45.7774 43.0071 45.7287 43.2939 45.7819 43.5708C45.7427 43.5708 45.7133 43.5708 45.6986 43.5708C45.561 43.4302 45.4549 43.2619 45.3873 43.077C45.3198 42.8922 45.2925 42.6951 45.3071 42.4988C45.3078 42.4118 45.3376 42.3274 45.3917 42.2592C45.4458 42.1909 45.5211 42.1426 45.6057 42.1219C45.9945 42.0119 46.4063 42.0119 46.7951 42.1219L47.0301 42.1856C47.0954 41.6681 47.2051 41.1571 47.358 40.6584C47.3829 40.5987 47.3957 40.5346 47.3957 40.4699C47.3957 40.4053 47.3829 40.3412 47.358 40.2815L47.1182 40.3158C46.3668 40.4717 45.5868 40.4141 44.8666 40.1493C44.4386 39.9984 44.0574 39.7386 43.7603 39.3955C43.7105 39.3285 43.6511 39.2692 43.5841 39.2193C43.5814 39.2791 43.5914 39.3388 43.6133 39.3944C43.6352 39.4501 43.6686 39.5005 43.7114 39.5424C44.0922 39.9926 44.6065 40.3097 45.1798 40.4479L45.4245 40.5164V40.5752C45.3734 40.6027 45.3192 40.624 45.263 40.6388C44.7924 40.7477 44.302 40.7376 43.8363 40.6094C43.3705 40.4812 42.944 40.239 42.5954 39.9046C42.2486 39.6014 41.9411 39.2561 41.68 38.8767C41.6451 38.8111 41.5929 38.7563 41.529 38.7184C41.4652 38.6804 41.3921 38.6607 41.3178 38.6613C41.1857 38.6613 41.1563 38.583 41.1612 38.4655C41.171 38.3352 41.171 38.2043 41.1612 38.0739C41.1525 37.9125 41.0969 37.757 41.0013 37.6267C40.9057 37.4963 40.7741 37.3966 40.6227 37.3397C40.4514 37.2761 40.4318 37.2418 40.4808 37.0656C40.5297 36.8894 40.5934 36.7034 40.657 36.5272C40.7206 36.351 40.7157 36.2482 40.5444 36.1307C40.4544 36.0747 40.3594 36.0272 40.2605 35.9888C40.099 35.9153 40.0794 35.8713 40.1724 35.7293C40.2654 35.5874 40.4612 35.3133 40.613 35.1077C40.7647 34.9021 40.7451 34.8923 40.613 34.7308C40.5444 34.6623 40.4661 34.6035 40.3927 34.535C40.2165 34.3735 40.2214 34.3392 40.3927 34.1728C40.564 34.0064 40.7598 33.8693 40.9311 33.6833C41.1024 33.4973 41.1171 33.4434 40.9801 33.2428C40.7794 32.9442 40.7843 32.8903 41.1122 32.7533C41.5316 32.5575 41.8951 32.2596 42.1695 31.8869C42.2466 31.8015 42.3185 31.7116 42.3849 31.6177C42.4877 31.4806 42.4828 31.4219 42.3408 31.3142C42.1989 31.2065 42.1646 31.1967 42.0765 31.138C42.036 31.1162 42.0057 31.0794 41.992 31.0355C41.9782 30.9916 41.9822 30.944 42.0031 30.903C42.052 30.7562 42.0814 30.5947 42.1303 30.4136C42.2838 30.4123 42.4357 30.444 42.5758 30.5066C42.6786 30.5359 42.7716 30.5849 42.8744 30.624C42.8961 30.636 42.9202 30.6429 42.945 30.644C42.9698 30.6452 42.9945 30.6406 43.0172 30.6306C43.0399 30.6207 43.06 30.6057 43.076 30.5867C43.092 30.5677 43.1034 30.5453 43.1093 30.5212C43.123 30.4828 43.1344 30.4436 43.1436 30.4038C43.1974 30.1688 43.1436 30.1052 42.9086 30.0954C42.7847 30.0881 42.6605 30.0881 42.5366 30.0954C42.4586 30.1028 42.3803 30.0837 42.3146 30.041C42.2488 29.9983 42.1994 29.9347 42.1744 29.8605C42.0954 29.7346 42.0562 29.5879 42.0618 29.4395C42.1597 29.5276 42.2282 29.5814 42.287 29.6402C42.3635 29.7207 42.4578 29.7821 42.5624 29.8195C42.6669 29.8569 42.7788 29.8693 42.889 29.8556C43.0848 29.8556 43.1534 29.7479 43.1142 29.557C43.0802 29.3785 42.9971 29.2129 42.8744 29.0789C42.7516 28.9449 42.594 28.8478 42.4191 28.7983C42.2532 28.7345 42.0747 28.7106 41.8978 28.7285C41.721 28.7463 41.5508 28.8055 41.401 28.9011C41.3649 28.9178 41.3272 28.9309 41.2884 28.9402C41.2884 28.906 41.2542 28.8815 41.2591 28.8619C41.2919 28.4343 41.4119 28.0178 41.6115 27.6382C41.6915 27.4572 41.8363 27.3126 42.0174 27.2329C42.1986 27.1532 42.403 27.1442 42.5905 27.2075C42.9929 27.3083 43.3764 27.4736 43.7261 27.6969C44.3068 28.0193 44.8544 28.3981 45.3609 28.8276C45.5959 29.0234 45.8504 29.1997 46.0903 29.371C46.2607 29.4945 46.4544 29.5821 46.6597 29.6283C46.8651 29.6746 47.0777 29.6787 47.2846 29.6402C47.3432 29.6351 47.4022 29.6351 47.4608 29.6402C47.4259 29.8644 47.3423 30.0782 47.2161 30.2667C47.1505 30.3285 47.066 30.3665 46.9762 30.3744C46.7902 30.3744 46.6042 30.4038 46.4133 30.4234C46.3448 30.4234 46.2616 30.4234 46.2273 30.5164C46.3154 30.6045 46.4231 30.5653 46.5259 30.5653C46.7902 30.5653 46.8343 30.5898 46.9126 30.8394C47.0278 31.1941 47.0278 31.5762 46.9126 31.931C46.8392 32.1512 46.7461 32.3617 46.658 32.5722C46.4792 32.9516 46.3666 33.3589 46.3252 33.7763C46.3057 33.8988 46.2779 34.0198 46.242 34.1385C46.3399 34.0406 46.4182 33.977 46.4818 33.8987C47.0917 33.1604 47.4998 32.2767 47.6664 31.3338C47.8843 30.1176 47.6585 28.8635 47.0301 27.7997C46.7353 27.2496 46.2415 26.8329 45.6497 26.6348C45.4914 26.5852 45.3233 26.5752 45.1602 26.6054C44.8734 26.6713 44.5753 26.6695 44.2893 26.6001C44.0033 26.5307 43.7375 26.3957 43.5128 26.2057C43.2881 26.0156 43.1108 25.7759 42.9948 25.5054C42.8789 25.235 42.8276 24.9412 42.845 24.6475C42.8468 24.3092 42.9231 23.9754 43.0686 23.67C43.2142 23.3645 43.4253 23.095 43.6869 22.8804C43.7451 22.8369 43.7929 22.7809 43.8268 22.7165C43.8606 22.6522 43.8797 22.5811 43.8827 22.5084C44.0126 21.3318 43.9829 20.1431 43.7946 18.9744C43.5397 17.3851 42.8956 15.8835 41.9199 14.6033C40.8307 13.2292 39.4671 12.0973 37.9159 11.2798C37.4754 11.035 37.0202 10.8294 36.5747 10.6043L36.3691 10.4819C36.44 10.4396 36.5136 10.402 36.5894 10.3693C37.1582 10.1491 37.769 10.059 38.3772 10.1056C38.9853 10.1522 39.5753 10.3343 40.1039 10.6385L40.8822 11.0595C41.0192 11.1868 41.1563 11.3189 41.2982 11.4413C41.8657 11.9142 42.3899 12.4367 42.8646 13.0027C44.4325 14.8388 45.413 17.1033 45.6791 19.503C45.7802 20.4261 45.808 21.3558 45.7623 22.2833C45.7623 22.3469 45.7231 22.4301 45.8308 22.484C45.8738 22.4485 45.909 22.4045 45.9343 22.3548C45.9595 22.3052 45.9743 22.2508 45.9777 22.1952C46.007 21.8428 46.0413 21.4903 46.056 21.1379C46.136 19.4256 45.8229 17.7177 45.1407 16.1452C44.3031 14.2534 43.0017 12.6035 41.357 11.3483C41.2013 11.2413 41.0377 11.1463 40.8675 11.0644ZM48.1607 30.1541H48.1999C48.2049 30.102 48.2049 30.0496 48.1999 29.9975C48.151 29.7038 48.102 29.415 48.0335 29.1262C47.8825 28.4853 47.596 27.8841 47.1933 27.3632C46.7906 26.8423 46.2809 26.4136 45.6986 26.1061C45.6333 26.0664 45.5604 26.0407 45.4846 26.0306C45.4087 26.0205 45.3316 26.0262 45.2581 26.0474C44.9674 26.1307 44.6588 26.1289 44.369 26.0422C44.0792 25.9554 43.8204 25.7873 43.6233 25.5579C43.4144 25.3304 43.2826 25.0429 43.2466 24.7362C43.2106 24.4295 43.2722 24.1193 43.4226 23.8496C43.5107 23.7028 43.6135 23.5608 43.7016 23.414C43.7262 23.3541 43.7443 23.2918 43.7554 23.228C43.6975 23.247 43.643 23.2751 43.5939 23.3112C43.4799 23.44 43.3783 23.5793 43.2904 23.7273C43.1328 24.0673 43.0736 24.4447 43.1194 24.8167C43.1653 25.1887 43.3144 25.5404 43.5498 25.832C43.7004 26.0409 43.921 26.1885 44.1715 26.2481C44.5322 26.331 44.9072 26.331 45.2679 26.2481C45.3651 26.2088 45.4717 26.1989 45.5744 26.2198C45.6771 26.2407 45.7714 26.2914 45.8455 26.3656L45.9679 26.4488C46.9013 27.0781 47.5839 28.0154 47.8964 29.0969C47.9943 29.4493 48.0726 29.8017 48.1607 30.1492V30.1541ZM48.2048 30.6436H48.1314V30.9324H48.1999L48.2048 30.6436ZM46.8 42.3912V42.3373H46.5699V42.3765L46.8 42.3912Z" fill="#212121"/>
<path d="M58.1942 52.6635C58.2105 52.7246 58.2069 52.7893 58.184 52.8482C58.1612 52.9072 58.1202 52.9573 58.067 52.9915C57.8418 53.2215 57.6167 53.4516 57.3719 53.6572C56.5756 54.3428 55.7016 54.9325 54.7679 55.4144C53.3888 56.1217 51.8464 56.4494 50.2989 56.364C49.8877 56.364 49.4766 56.3249 49.0752 56.2661C48.6122 56.1993 48.153 56.1078 47.6998 55.992C46.9517 55.8067 46.2286 55.5323 45.546 55.1746C44.5225 54.6446 43.5407 54.0375 42.6092 53.3586C41.9189 52.8302 41.1719 52.3804 40.382 52.0174C39.6386 51.6715 38.7991 51.5903 38.0032 51.7874C37.9457 51.8117 37.8915 51.8429 37.8416 51.8804C37.9542 51.944 38.0325 51.9978 38.1157 52.0419C38.801 52.4139 39.4961 52.7614 40.1667 53.153C40.617 53.4173 41.0428 53.7306 41.4687 54.039C42.3057 54.6557 43.1427 55.2774 43.965 55.9137C44.386 56.2416 44.7678 56.6185 45.1692 56.971L45.2524 57.0591C45.5167 57.343 45.5314 57.4115 45.2817 57.7003C45.0398 57.9797 44.7799 58.243 44.5035 58.4884C44.2489 58.7135 44.1217 58.6988 43.8525 58.4884C43.7268 58.3952 43.6074 58.2938 43.4951 58.1849C42.9714 57.6954 42.4428 57.1765 41.9288 56.6528C41.1222 55.8463 40.2603 55.0972 39.3492 54.411C38.8597 54.0194 38.3213 53.6229 37.7927 53.2509C37.3516 52.925 36.8536 52.6843 36.3242 52.5412C36.1252 52.4964 35.9211 52.4783 35.7173 52.4873C35.6131 52.5032 35.5142 52.5435 35.4285 52.6048C35.1544 52.7614 34.8852 52.9132 34.6209 53.0943C34.3565 53.2754 34.0384 53.4565 33.7594 53.6572C33.172 54.0732 32.565 54.4746 32.0168 54.9396C30.774 55.9614 29.6181 57.0845 28.5611 58.2975C28.4485 58.4296 28.3359 58.5569 28.2135 58.6793C28.0912 58.8016 27.9884 58.831 27.8366 58.7331C27.4084 58.4514 27.0128 58.1231 26.657 57.7541C26.5248 57.622 26.5248 57.5388 26.657 57.3919C26.7892 57.2451 27.0584 56.9563 27.2786 56.7556C28.5074 55.6266 29.8161 54.5878 31.1945 53.6474C32.0041 53.1199 32.8423 52.6378 33.7055 52.2034C33.8609 52.1265 34.0113 52.0398 34.1558 51.944C34.2635 51.8706 34.2537 51.7776 34.1558 51.7286C34.0826 51.6925 34.0025 51.6725 33.9209 51.6699C33.6346 51.6664 33.3483 51.6827 33.0643 51.7188C31.9473 51.9291 30.8918 52.3874 29.9757 53.06C28.9967 53.7159 28.0177 54.3571 27.0388 54.9788C26.298 55.4361 25.5083 55.8088 24.6844 56.0899C24.2714 56.2241 23.8494 56.3288 23.4215 56.4032C23.0593 56.4815 22.6922 56.5157 22.33 56.5941C21.9678 56.669 21.596 56.6856 21.2286 56.643C20.4768 56.5875 19.7305 56.4729 18.9966 56.3004C18.474 56.158 17.9672 55.9629 17.4841 55.7179C16.7823 55.3855 16.1136 54.9872 15.487 54.5285C14.964 54.1448 14.4847 53.7049 14.0577 53.2166C14.0289 53.1706 14.0106 53.1188 14.0039 53.0649C14.0577 53.0649 14.1263 53.016 14.1752 53.0306C14.3148 53.0793 14.4506 53.1382 14.5815 53.2069C15.1935 53.5233 15.8387 53.7712 16.5051 53.946C17.6081 54.2447 18.7591 54.3228 19.8924 54.176C20.5027 54.0959 21.1076 53.9782 21.7034 53.8236C22.3736 53.6364 23.0282 53.3975 23.6614 53.109C24.2634 52.8397 24.8802 52.5901 25.492 52.3405C25.864 52.1887 26.236 52.037 26.6129 51.8999C27.2688 51.6699 27.9296 51.4496 28.5708 51.2342C28.9037 51.1266 29.2463 51.0433 29.589 50.9552C30.1824 50.8241 30.7875 50.7535 31.3952 50.7448C32.1049 50.7203 32.8195 50.7203 33.5342 50.7448C34.085 50.7411 34.633 50.822 35.1593 50.9846C35.2141 50.9996 35.268 51.0176 35.3208 51.0385C35.5217 51.1342 35.7403 51.1871 35.9628 51.1939C36.1853 51.2006 36.4067 51.161 36.613 51.0776C37.2128 50.8806 37.8339 50.7557 38.4633 50.7056C39.0017 50.6567 39.5401 50.593 40.0834 50.5979C40.7055 50.6052 41.3266 50.6494 41.9435 50.7301C42.3979 50.7972 42.8476 50.8936 43.2895 51.0189C43.7007 51.1266 44.1119 51.2391 44.5132 51.3762C45.0468 51.5622 45.5754 51.7727 46.0992 51.9832C46.6229 52.1936 47.0781 52.3894 47.597 52.6048C48.1158 52.8202 48.5221 53.0209 48.992 53.2117C49.5816 53.4338 50.1914 53.5978 50.8129 53.7012C51.6941 53.8485 52.5874 53.9108 53.4805 53.8872C54.1958 53.8891 54.9093 53.8169 55.6098 53.6719C56.1589 53.5348 56.6896 53.3327 57.1908 53.0698L58.0082 52.6733C58.0698 52.6647 58.1321 52.6614 58.1942 52.6635Z" fill="#212121"/>
<path d="M57.3386 46.5907C57.4035 46.5474 57.4656 46.5 57.5246 46.4488C58.5573 45.5218 59.6959 44.72 60.9167 44.0601C61.9495 43.4874 63.0116 42.9735 64.0542 42.4155C64.6514 42.0973 65.2633 41.784 65.8262 41.4071C66.3232 41.0599 66.7943 40.6771 67.2359 40.2618C67.7483 39.8227 68.2127 39.3305 68.6211 38.7933C68.8561 38.4654 69.0469 38.108 69.2574 37.7703C69.3064 37.6871 69.3602 37.6137 69.419 37.5207C69.4549 37.55 69.4801 37.5904 69.4908 37.6355C69.5014 37.6806 69.4968 37.728 69.4777 37.7703C68.8921 40.4222 67.4382 42.8028 65.3465 44.5349C64.4365 45.3024 63.4658 45.9948 62.4439 46.6054C61.9509 46.8997 61.4273 47.1393 60.8824 47.3201C60.4027 47.4832 59.9132 47.635 59.414 47.7753C58.7549 47.9437 58.0864 48.0728 57.412 48.162C56.8148 48.2599 56.2226 48.3822 55.6254 48.4997C55.4318 48.5332 55.2405 48.579 55.0527 48.6368C54.7639 48.72 54.4751 48.8179 54.1863 48.906C54.0282 48.9636 53.8549 48.9636 53.6968 48.906C53.6626 48.7787 53.7556 48.72 53.8143 48.6515C54.152 48.2697 54.4996 47.8977 54.8177 47.5012C55.2537 46.9343 55.6217 46.3182 55.9142 45.6656C56.1296 45.2104 56.3351 44.7454 56.5211 44.2706C56.7071 43.7958 56.8491 43.2917 57.0106 42.8315C57.3092 41.9847 57.6078 41.133 57.926 40.2862C58.0924 39.8163 58.2835 39.3556 58.4986 38.9059C59.0222 37.8361 59.6484 36.8198 60.3685 35.8711C60.5691 35.6019 60.7551 35.3229 60.9509 35.0488C61.0194 34.9463 61.0964 34.8497 61.181 34.76C61.2073 34.7319 61.2392 34.7096 61.2746 34.6944C61.31 34.6793 61.3481 34.6716 61.3866 34.6719C61.4943 34.6719 61.4747 34.8138 61.4649 34.9019C61.4588 34.9588 61.4457 35.0147 61.4257 35.0684C61.1325 35.8605 60.9209 36.6806 60.7943 37.5158C60.605 38.6057 60.4174 39.6972 60.2314 40.7904C59.9131 42.6431 59.1053 44.377 57.8917 45.8125C57.7497 45.9838 57.5882 46.1355 57.4414 46.302C57.3816 46.3754 57.326 46.4522 57.2749 46.532L57.3386 46.5907Z" fill="#212121"/>
<path d="M18.331 49.0518C18.236 49.0716 18.1392 49.0814 18.0422 49.0811C17.6457 49.0175 17.2492 48.9588 16.8576 48.8756C16.0647 48.714 15.2766 48.5133 14.4738 48.3861C13.5391 48.2614 12.6135 48.075 11.7034 47.8281C10.9887 47.6158 10.2942 47.3406 9.62799 47.0057C7.56495 45.9525 5.78034 44.4262 4.41992 42.5515C3.79798 41.694 3.28345 40.7636 2.88784 39.781C2.69218 39.3206 2.54932 38.8394 2.462 38.3468C2.4519 38.269 2.46735 38.19 2.50605 38.1217C2.54753 38.1622 2.58521 38.2064 2.61862 38.2538C2.84378 38.5965 3.05426 38.9489 3.29411 39.2817C3.96071 40.1919 4.79059 40.9703 5.74151 41.5774C6.71033 42.2083 7.72286 42.7693 8.7714 43.2563C9.40772 43.5598 10.0489 43.8535 10.6657 44.1863C11.1552 44.4409 11.5712 44.7492 12.0167 45.038C12.4621 45.3268 12.839 45.5813 13.2404 45.8604C13.6417 46.1394 14.1312 46.5114 14.5767 46.8393C14.6599 46.8981 14.7577 46.947 14.8703 47.0155C14.8711 46.9729 14.8617 46.9307 14.843 46.8924C14.8243 46.8541 14.7967 46.8208 14.7626 46.7953C14.6119 46.6366 14.4482 46.4909 14.2732 46.3596C13.779 45.9875 13.3687 45.5156 13.069 44.9744C12.8408 44.5977 12.6333 44.2088 12.4474 43.8094C12.2597 43.3634 12.0963 42.9075 11.9579 42.4438C11.8307 42.0424 11.7328 41.6263 11.6398 41.2103C11.5712 40.9068 11.5272 40.5984 11.4782 40.2901C11.4048 39.8006 11.3461 39.3111 11.2629 38.8559C11.1552 38.2587 11.0475 37.6616 10.9055 37.0693C10.7979 36.6092 10.6363 36.1588 10.5042 35.7036C10.4626 35.5611 10.4331 35.4154 10.4161 35.268C10.4161 35.219 10.4552 35.1554 10.4748 35.1016C10.5384 35.1016 10.6021 35.1456 10.6657 35.175C10.6657 35.175 10.7293 35.2044 10.6657 35.175C11.1796 35.8701 11.7034 36.57 12.2173 37.27C12.7367 38.0087 13.1811 38.7974 13.5438 39.6244C13.9697 40.5553 14.3423 41.5097 14.6599 42.4829C14.9095 43.2318 15.1493 43.9807 15.4528 44.7052C15.7514 45.3885 16.0897 46.0537 16.466 46.6974C16.7787 47.2037 17.1169 47.6938 17.4793 48.1658C17.6715 48.4446 17.9138 48.6852 18.1939 48.8756C18.2479 48.9274 18.294 48.9867 18.331 49.0518Z" fill="#212121"/>
<path d="M63.8923 38.9369C64.0343 38.7509 64.1909 38.5747 64.3231 38.3789C64.7489 37.7671 65.1454 37.1307 65.5957 36.5385C66.046 35.9462 66.4376 35.5155 66.8879 35.0211C67.7054 34.1155 68.5424 33.2247 69.3745 32.3289C69.8607 31.816 70.2937 31.2552 70.6667 30.6549C70.8949 30.2481 71.0913 29.8243 71.2541 29.3872C71.4244 28.9947 71.5254 28.5757 71.5527 28.1488C71.5513 28.0992 71.5631 28.0503 71.5869 28.0068C71.6242 27.9583 71.6755 27.9224 71.7338 27.904C71.7338 27.904 71.8219 27.9726 71.8268 28.0215C71.8812 28.3272 71.9139 28.6363 71.9247 28.9466C71.9084 29.7923 71.8134 30.6346 71.6408 31.4626C71.331 33.0545 70.6742 34.5586 69.7171 35.8679C69.0026 36.8509 68.1818 37.7521 67.2697 38.5551C66.7134 39.0523 66.1193 39.5056 65.4929 39.911C64.558 40.5228 63.6476 41.1641 62.7175 41.7759C62.0861 42.192 61.44 42.5787 60.7988 42.98C60.7288 43.0179 60.6569 43.0522 60.5834 43.0828C60.5712 43.0132 60.5712 42.942 60.5834 42.8724C60.6583 42.6899 60.7433 42.5118 60.838 42.3388C61.058 41.937 61.2226 41.5072 61.3274 41.0613C61.4596 40.5718 61.5869 40.0823 61.6896 39.5928C61.812 38.9908 61.9148 38.3838 62.0127 37.7769C62.184 36.7392 62.1693 35.6819 62.2819 34.6393C62.3455 34.1009 62.3896 33.5624 62.4532 33.024C62.5267 32.3877 62.6197 31.7562 62.6931 31.1199C62.7606 30.5823 62.8753 30.0516 63.0357 29.534C63.1532 29.1326 63.2413 28.7264 63.3588 28.325C63.4518 28.0166 63.5693 27.7229 63.6818 27.4243C63.7178 27.352 63.7603 27.2832 63.8091 27.2188C63.9363 27.2775 63.9217 27.3754 63.9266 27.4586C63.9266 27.8012 63.951 28.1488 63.9804 28.4914C64.0196 28.9809 64.0538 29.4704 64.1322 29.9598C64.2986 30.978 64.4992 31.9912 64.6706 33.0093C64.8843 34.1424 64.8744 35.3064 64.6412 36.4357C64.5396 37.0003 64.3856 37.5542 64.1811 38.0901C64.0734 38.3447 63.9511 38.5796 63.8385 38.8488L63.8091 38.9369H63.8923Z" fill="#212121"/>
<path d="M0.216441 28.4865C0.265389 28.6578 0.314337 28.7899 0.338811 28.9221C0.534177 29.8981 0.945628 30.818 1.54295 31.6142C1.66042 31.7905 1.76321 31.9765 1.89537 32.1429C2.02753 32.3093 2.22822 32.5541 2.38485 32.7449C3.45682 33.8854 4.54346 35.0161 5.60563 36.1713C6.36476 36.9896 7.03577 37.8853 7.60761 38.8439C7.71589 39.0135 7.83355 39.1769 7.96003 39.3334C7.96003 39.3676 8.03346 39.3823 8.06772 39.4068C8.14114 39.3089 8.06773 39.255 8.04325 39.1914C7.87683 38.8732 7.70062 38.5551 7.55377 38.2124C7.33049 37.6829 7.20447 37.1175 7.18176 36.5433C7.09611 35.3309 7.09611 34.114 7.18176 32.9016C7.20488 32.6061 7.25237 32.3131 7.32372 32.0254C7.62152 30.8056 7.82929 29.5655 7.94535 28.3151C7.97961 28.2564 7.99919 28.1634 8.04814 28.1438C8.09709 28.1242 8.19499 28.1977 8.22436 28.276C8.33257 28.4967 8.4226 28.7259 8.49357 28.9613C8.67467 29.6808 8.86068 30.4052 8.98305 31.1395C9.10542 31.8737 9.21311 32.5785 9.31101 33.303C9.38932 33.8561 9.45296 34.4092 9.5117 34.9623C9.58022 35.6329 9.62917 36.3035 9.6977 36.9741C9.76623 37.6447 9.84455 38.1978 9.92776 38.8047C9.97671 39.1718 10.0403 39.534 10.1089 39.8963C10.241 40.7241 10.4916 41.5285 10.8529 42.2849C11.0193 42.6129 11.1612 42.9506 11.313 43.2884C11.313 43.2884 11.313 43.3177 11.313 43.3324C11.313 43.3471 11.313 43.4744 11.313 43.5429C11.2512 43.5507 11.1887 43.5507 11.127 43.5429C11.0144 43.4842 10.9018 43.4058 10.7941 43.3373C10.2655 42.9898 9.75643 42.6129 9.2131 42.2947C8.13135 41.6682 7.13771 40.9095 6.1147 40.2046C5.86996 40.0382 5.62521 39.8718 5.39026 39.7152C4.04294 38.7449 2.86815 37.5552 1.91494 36.1958C1.45112 35.4982 1.05606 34.7572 0.73529 33.9833C0.311896 32.9403 0.0813728 31.8292 0.054919 30.7038C0.054919 30.1164 0.0206571 29.5242 0.0108675 28.9319C-0.00982078 28.8453 -0.000803547 28.7544 0.0364858 28.6736C0.0737751 28.5928 0.13716 28.5269 0.216441 28.4865Z" fill="#212121"/>
<path d="M56.5463 42.218C56.4974 42.311 56.4582 42.404 56.4044 42.4921C56.1694 42.9081 55.9149 43.3095 55.6995 43.7353C55.445 44.2248 55.2101 44.7584 54.9947 45.2772C54.6342 46.0689 54.1964 46.8231 53.6878 47.5288C53.6045 47.6512 53.5067 47.7638 53.4283 47.8861C53.0552 48.4397 52.5507 48.8921 51.9599 49.2028C51.4093 49.5471 50.8214 49.8279 50.2075 50.0399C50.2075 50.0399 50.1586 50.0741 50.1243 50.0937C50.188 50.2063 50.2859 50.1818 50.3642 50.172C50.6187 50.172 50.8537 50.128 51.1229 50.0986C52.3368 49.9518 53.5703 49.7951 54.7597 49.6532C55.6897 49.5406 56.6246 49.4623 57.5498 49.3497C58.547 49.2576 59.5316 49.059 60.4867 48.7574C61.5954 48.4076 62.6031 47.7946 63.4235 46.9708C63.5623 46.8314 63.7094 46.7007 63.8641 46.5792C63.9265 46.5354 63.9919 46.4962 64.0599 46.4618L64.1137 46.496C64.0952 46.5697 64.0706 46.6417 64.0403 46.7114C63.5993 47.5563 63.0296 48.3275 62.3516 48.9973C61.634 49.7192 60.832 50.3519 59.9629 50.8818C59.3417 51.2567 58.6861 51.5714 58.005 51.8216C57.4257 52.0494 56.8234 52.2135 56.2086 52.3111C55.5352 52.4187 54.8543 52.4727 54.1724 52.4726C53.3517 52.4663 52.533 52.391 51.725 52.2474C50.6775 52.0565 49.6349 51.8509 48.5874 51.6356C48.0049 51.5132 47.4273 51.3566 46.8448 51.2146C46.1793 51.0371 45.4996 50.9175 44.8135 50.8573C44.7065 50.8512 44.601 50.8298 44.5002 50.7937C44.4766 50.7808 44.4563 50.7627 44.441 50.7405C44.4257 50.7184 44.4158 50.693 44.4121 50.6664C44.4121 50.6272 44.4757 50.5685 44.5198 50.5587C44.6605 50.5156 44.8046 50.4845 44.9505 50.4657C45.4625 50.3895 45.9646 50.2582 46.4483 50.0741C47.1635 49.8092 47.8427 49.4556 48.4699 49.0217C49.4275 48.358 50.3207 47.6058 51.1376 46.775C52.1165 45.8254 53.0955 44.8905 54.1038 44.0046C54.5933 43.5836 55.0828 43.1529 55.5723 42.7466C55.8182 42.5544 56.0747 42.3763 56.3408 42.2131C56.4012 42.1822 56.4654 42.1592 56.5316 42.1445L56.5463 42.218Z" fill="#212121"/>
<path d="M21.9152 50.398C21.9068 50.3397 21.879 50.2858 21.8365 50.245C21.7939 50.2042 21.7389 50.1788 21.6802 50.1729C20.1562 49.7632 18.8548 48.7696 18.0581 47.4073C17.412 46.3696 16.8833 45.2634 16.3008 44.1914C16.0708 43.7705 15.8114 43.3593 15.5617 42.9432L15.3904 42.6447C15.3464 42.5712 15.3023 42.4831 15.3904 42.4293C15.4217 42.4141 15.456 42.4062 15.4908 42.4062C15.5255 42.4062 15.5598 42.4141 15.5911 42.4293C15.8358 42.5779 16.0712 42.7414 16.2959 42.9188C17.0791 43.5747 17.8721 44.2257 18.6308 44.9158C19.7468 45.934 20.8334 46.9815 21.9348 48.0143C22.4107 48.5014 22.9548 48.9169 23.55 49.2478C23.9906 49.468 24.4409 49.6638 24.8961 49.8498C25.3513 50.0358 25.7331 50.1778 26.159 50.3393C26.5848 50.5008 26.9911 50.5889 27.4072 50.7113C27.4627 50.7338 27.5166 50.76 27.5687 50.7896C27.4779 50.831 27.3847 50.8669 27.2897 50.8973C26.9862 50.9658 26.6778 51.0246 26.3744 51.098L24.25 51.6168L22.2676 52.1063C22.2138 52.1063 22.155 52.1308 22.1012 52.1504C21.166 52.4037 20.2088 52.5676 19.2426 52.6399C18.9979 52.6643 18.7532 52.6741 18.5084 52.6888C17.6232 52.7484 16.7343 52.7172 15.8554 52.5958C15.0405 52.4921 14.2444 52.2729 13.4912 51.9448C12.1669 51.3654 10.9543 50.5586 9.90823 49.561C9.21345 48.8978 8.59304 48.1609 8.05799 47.3633C7.98946 47.2654 7.87198 47.1724 7.92582 47.0059C8.05798 47.0059 8.1412 47.0696 8.22931 47.1381C8.45937 47.3094 8.68451 47.4856 8.90478 47.6716C9.52503 48.1711 10.2184 48.5723 10.9606 48.8611C11.78 49.1984 12.6411 49.424 13.5206 49.5317C14.4163 49.6393 15.3121 49.7128 16.2127 49.8058L18.2441 50.0016C18.8853 50.0652 19.5314 50.1288 20.1775 50.2022C20.5887 50.2463 21.0048 50.3148 21.4208 50.3687C21.5677 50.3736 21.7292 50.3833 21.9152 50.398Z" fill="#212121"/>
<path d="M0.880319 18.2188C0.880319 18.346 0.924365 18.4537 0.934155 18.5663C0.983103 19.1096 1.01248 19.6627 1.08101 20.206C1.15605 20.8586 1.32076 21.4977 1.57049 22.1052C1.72223 22.4674 1.83971 22.8443 1.98655 23.2066C2.1334 23.5688 2.34877 23.9653 2.47603 24.3568C2.73546 25.1106 3.15641 25.7959 3.45499 26.5399C3.71982 27.2559 3.92448 27.9926 4.06685 28.7426C4.15985 29.2321 4.24794 29.7216 4.34584 30.2404C4.36032 30.2912 4.38 30.3404 4.40457 30.3872C4.53673 30.3628 4.53675 30.2698 4.54164 30.1915C4.54654 30.1131 4.54164 29.9271 4.54164 29.7999C4.48447 29.0699 4.51073 28.3359 4.61995 27.6119C4.70025 27.2022 4.81319 26.7995 4.95769 26.4078C5.30033 25.561 5.67723 24.7191 6.04924 23.882C6.37556 23.1543 6.71656 22.4267 7.07225 21.699C7.39177 21.0207 7.75984 20.3663 8.17358 19.741C8.2216 19.6681 8.27564 19.5994 8.33512 19.5355C8.38013 19.5565 8.41669 19.5921 8.43891 19.6365C8.46112 19.6809 8.46768 19.7316 8.45749 19.7802C8.45749 20.1081 8.48197 20.4361 8.45749 20.7592C8.45583 21.047 8.43949 21.3345 8.40854 21.6206C8.34491 22.1101 8.26658 22.5996 8.19805 23.0891C8.13931 23.5002 8.07568 23.9163 8.03163 24.3324C7.95514 24.8846 7.83401 25.4297 7.66942 25.9623C7.55684 26.3833 7.43937 26.7993 7.32189 27.2203C7.16036 27.793 7.00373 28.3706 6.83241 28.9482C6.70025 29.4034 6.52893 29.8488 6.40656 30.304C6.23405 30.9634 6.13393 31.6396 6.10797 32.3207C6.10797 33.0207 6.0786 33.7157 6.05902 34.4157C6.05241 34.5715 6.03607 34.7268 6.01009 34.8807C5.99223 34.9609 5.96766 35.0395 5.93665 35.1156C5.78491 35.1156 5.73597 35.0471 5.68703 34.959C5.32621 34.3329 4.91534 33.7371 4.45842 33.1773C4.30669 32.9864 4.15495 32.7906 3.96894 32.6144C2.96882 31.5478 2.1429 30.3304 1.52154 29.0069C1.17612 28.2726 0.881737 27.5154 0.640478 26.7406C0.300808 25.5834 0.110003 24.3876 0.0726783 23.1821C0.0241745 22.0648 0.121252 20.9459 0.36147 19.8536C0.449577 19.3984 0.56216 18.9432 0.669846 18.488C0.668348 18.4257 0.68851 18.3648 0.726893 18.3157C0.765276 18.2666 0.819499 18.2323 0.880319 18.2188Z" fill="#212121"/>
<path d="M70.9462 17.582C71.0588 17.9149 71.1714 18.2037 71.2595 18.4974C71.7086 20.1059 71.8531 21.7843 71.6853 23.446C71.6065 24.5429 71.4079 25.6278 71.093 26.6815C70.905 27.3097 70.6711 27.9232 70.3931 28.517C70.1607 28.9693 69.8888 29.4 69.5806 29.8044C68.4596 31.3462 67.3289 32.8783 66.2031 34.4104C66.1395 34.4936 66.0808 34.6404 65.9388 34.5866C65.7969 34.5328 65.8409 34.3908 65.8409 34.2782C65.8409 33.8132 65.8409 33.3433 65.8703 32.8783C65.9133 32.0243 65.8225 31.1688 65.6011 30.3428C65.4346 29.7848 65.2486 29.2366 65.0773 28.6786C64.906 28.1206 64.769 27.6262 64.6221 27.0975C64.5046 26.6864 64.3921 26.2752 64.2893 25.864C64.162 25.3746 64.0396 24.8851 63.9271 24.3956C63.8145 23.9061 63.697 23.3726 63.6089 22.8537C63.4082 21.9233 63.2952 20.9761 63.2711 20.0245C63.2638 19.9268 63.2638 19.8286 63.2711 19.7309C63.2775 19.6557 63.3011 19.583 63.3402 19.5185C63.3792 19.4539 63.4327 19.3993 63.4963 19.3588C63.5416 19.4104 63.5795 19.4681 63.6089 19.5302C63.7666 20.0126 63.9749 20.4769 64.2305 20.9154C64.5683 21.5566 64.9207 22.1832 65.278 22.8097C65.4493 23.1083 65.65 23.3922 65.8458 23.6712C66.0964 24.0468 66.3079 24.447 66.4772 24.8655C66.6241 25.213 66.766 25.5655 66.9227 25.9032C67.184 26.4636 67.3273 27.0717 67.3436 27.6898C67.3436 28.1059 67.3877 28.5219 67.4171 28.9429C67.4124 29.005 67.4205 29.0674 67.4407 29.1262C67.4609 29.1851 67.4928 29.2393 67.5345 29.2855C67.5656 29.224 67.5918 29.1602 67.6128 29.0946C67.696 28.7275 67.7695 28.3604 67.8576 27.9933C68.0161 27.3256 68.2255 26.671 68.4841 26.0354C68.8463 25.1592 69.2428 24.2928 69.5904 23.4069C69.8204 22.8293 70.0113 22.237 70.1826 21.6398C70.5428 20.4448 70.7404 19.2067 70.77 17.9589C70.7994 17.7582 70.7994 17.7582 70.9462 17.582Z" fill="#212121"/>
<path d="M67.7487 25.34C67.6987 25.2635 67.6546 25.1833 67.6166 25.1002C67.4844 24.738 67.362 24.3758 67.2299 24.0136C66.9544 23.2668 66.6034 22.5501 66.1824 21.8745C65.5999 20.8956 64.9195 20.039 64.2685 19.1334C63.7301 18.3829 63.2064 17.6275 62.6973 16.8671C62.377 16.3612 62.1143 15.821 61.9141 15.2567C61.7477 14.826 61.5862 14.4001 61.4246 13.9596C61.2631 13.5191 61.2093 13.103 61.1016 12.6723C61.0963 12.6564 61.0963 12.6392 61.1016 12.6233C61.1016 12.5597 61.1016 12.4618 61.1554 12.4275C61.2093 12.3933 61.3023 12.4569 61.3561 12.5156C61.6792 12.8779 61.9778 13.2597 62.3351 13.6023C62.9763 14.2484 63.6322 14.8749 64.293 15.5015C64.8517 16.008 65.3796 16.5473 65.874 17.1168C66.5112 17.8395 66.9631 18.7063 67.1907 19.6425C67.2019 19.6914 67.2183 19.739 67.2397 19.7844C67.2397 19.7844 67.2739 19.8138 67.2984 19.8334C67.4208 19.7698 67.4012 19.6572 67.4061 19.5544C67.4061 19.1775 67.4061 18.8006 67.4061 18.4237C67.4061 17.1951 67.4061 15.9763 67.455 14.733C67.455 13.7981 67.5334 12.8632 67.5627 11.9283C67.5872 11.4685 67.5872 11.0077 67.5627 10.5479C67.5004 9.86246 67.3006 9.19658 66.9753 8.59C66.9166 8.47253 66.853 8.35505 66.804 8.23757C66.7551 8.1201 66.7502 8.07605 66.8383 8.04668C66.9264 8.01731 66.9656 8.04668 67.0047 8.10542C67.1858 8.3061 67.3669 8.50679 67.5383 8.72216C68.0807 9.44265 68.5451 10.2188 68.9235 11.0374C69.321 11.8672 69.5932 12.7514 69.7311 13.661C69.9227 14.8188 69.9851 15.9942 69.9171 17.1657C69.8851 17.8636 69.7784 18.5561 69.599 19.2313C69.4815 19.6572 69.3053 20.0634 69.1731 20.4893C69.041 20.9151 68.9137 21.3508 68.8011 21.7864C68.6053 22.55 68.4291 23.3185 68.2235 24.0772C68.1207 24.4443 67.969 24.8016 67.8368 25.1638C67.8112 25.2244 67.7818 25.2832 67.7487 25.34Z" fill="#212121"/>
<path d="M4.12237 25.7284C4.08867 25.6501 4.05926 25.5701 4.03427 25.4886C3.90211 24.9648 3.78953 24.4362 3.64758 23.9124C3.50563 23.3887 3.35879 22.9775 3.19726 22.5125C2.99658 21.9154 2.78119 21.3182 2.57071 20.7259L2.25745 19.8448C2.0998 19.3656 1.98031 18.8745 1.90013 18.3764C1.7388 17.3453 1.69938 16.2987 1.78265 15.2584C1.82127 14.4628 1.93601 13.6728 2.1253 12.8991C2.26802 12.4119 2.46504 11.9423 2.71267 11.4992C3.0602 10.8384 3.41752 10.1874 3.79931 9.54127C3.97688 9.27502 4.1749 9.02299 4.39158 8.78747C4.45499 8.7295 4.52577 8.68012 4.60207 8.64062C4.63533 8.68884 4.65313 8.74603 4.65313 8.8046C4.65313 8.86317 4.63533 8.92036 4.60207 8.96858C4.41521 9.35143 4.27077 9.75356 4.17132 10.1678C3.9776 10.9915 3.90505 11.8391 3.95595 12.6837C4.00001 13.3641 4.08321 14.0396 4.16643 14.7151C4.34157 15.8752 4.43156 17.0465 4.43565 18.2198C4.43565 18.9099 4.35243 19.5952 4.30838 20.2854C4.28399 20.5099 4.28399 20.7364 4.30838 20.9609C4.37219 20.8461 4.42308 20.7246 4.46012 20.5986C4.87954 18.9275 5.74982 17.4037 6.97604 16.1933C7.6062 15.5438 8.28354 14.9417 9.0025 14.392C9.13407 14.2808 9.2553 14.158 9.36471 14.0249C9.59477 13.7606 9.81503 13.4816 10.0353 13.2075C10.0694 13.1621 10.1088 13.121 10.1528 13.0851C10.2115 13.046 10.2996 12.997 10.3388 13.0166C10.3665 13.0379 10.3889 13.0653 10.4042 13.0967C10.4195 13.1282 10.4273 13.1627 10.4269 13.1977C10.3906 13.5153 10.3366 13.8307 10.2654 14.1424C10.0295 14.8932 9.75167 15.6302 9.43325 16.35C9.02191 17.2794 8.49924 18.1555 7.8767 18.9589C7.47533 19.5316 7.10821 20.1239 6.72642 20.7063C6.34462 21.2888 5.88939 21.9447 5.49291 22.5762C5.03101 23.294 4.68111 24.078 4.45522 24.9012C4.39648 25.1215 4.30348 25.3319 4.22516 25.5473C4.19743 25.6112 4.16298 25.6719 4.12237 25.7284Z" fill="#212121"/>
<path d="M29.5705 43.1779C29.4531 43.1779 29.3307 43.1485 29.2132 43.124C27.712 42.7597 26.2701 42.1845 24.9302 41.4157C22.9952 40.3122 21.2986 38.8353 19.9391 37.0707C18.5795 35.3062 17.584 33.2891 17.0104 31.1366C16.8342 30.4758 16.7314 29.8052 16.6042 29.1346C16.4135 27.8188 16.3676 26.486 16.4671 25.1601C16.4995 24.8435 16.5535 24.5295 16.6286 24.2203C16.9444 22.2037 17.6244 20.2615 18.6355 18.4884C19.6557 16.6921 21.0019 15.1019 22.6052 13.7992C24.2582 12.4346 26.1645 11.4099 28.2147 10.784C28.8559 10.5882 29.5118 10.4463 30.1726 10.2945C30.3238 10.2768 30.4766 10.2768 30.6278 10.2945C30.5593 10.3484 30.5348 10.3777 30.5005 10.3875C29.5021 10.7664 28.5293 11.2095 27.5881 11.714C26.636 12.2277 25.7217 12.8084 24.8519 13.4517C24.0395 14.0518 23.2766 14.7163 22.5709 15.439C21.5092 16.525 20.5883 17.7403 19.8298 19.0562C19.251 20.0421 18.7801 21.0875 18.425 22.1742C18.0411 23.2928 17.801 24.4557 17.7104 25.6349C17.6639 26.4794 17.6639 27.3258 17.7104 28.1704C17.75 28.7518 17.8334 29.3294 17.96 29.8982C18.1892 31.0579 18.5539 32.1865 19.0467 33.261C20.2473 35.8662 22.0389 38.1556 24.2792 39.9473C24.9911 40.5146 25.7382 41.0361 26.5162 41.5087C27.4394 42.0539 28.3939 42.5443 29.3747 42.9772L29.6048 43.0947L29.5705 43.1779Z" fill="#212121"/>
<path d="M5.17534 17.1952C5.15612 17.0801 5.14306 16.9641 5.13619 16.8477C5.13619 16.3582 5.17045 15.8687 5.13619 15.3449C5.08234 14.366 4.98934 13.4164 4.9355 12.4472C4.8939 11.9406 4.8939 11.4315 4.9355 10.9249C5.01886 10.1669 5.1414 9.41376 5.30261 8.66843C5.50691 7.7666 5.94208 6.93335 6.56546 6.25039C6.96933 5.79839 7.39745 5.36864 7.84792 4.96306C8.32543 4.55043 8.86792 4.21964 9.45341 3.98409C9.57419 3.93598 9.70101 3.90469 9.83031 3.8911C9.85791 3.88895 9.88559 3.89416 9.91052 3.9062C9.93546 3.91824 9.95677 3.93667 9.97226 3.95962C9.97226 3.99389 9.94779 4.05752 9.92821 4.10646C9.91386 4.12635 9.89552 4.14302 9.87436 4.15541C9.36265 4.56932 8.94822 5.09069 8.66044 5.68259C8.42744 6.11215 8.25452 6.57166 8.14649 7.04825C7.90665 8.02721 7.70106 8.96212 7.45142 9.91661C7.27521 10.597 7.05495 11.2676 6.84937 11.9431C6.76126 12.2416 6.65847 12.5353 6.57036 12.8339C6.55401 12.9098 6.54256 12.9866 6.53609 13.064C6.59483 13.064 6.6291 13.0346 6.634 13.0199C7.1005 12.1309 7.75131 11.3516 8.54297 10.734C9.45341 9.99003 10.3883 9.26559 11.3037 8.54606C11.8697 8.1178 12.3838 7.62499 12.8357 7.07761C12.9532 6.93077 13.0511 6.76924 13.1686 6.6175C13.2247 6.53791 13.2905 6.46556 13.3644 6.40213C13.4818 6.31403 13.6042 6.36297 13.6042 6.50982C13.6032 6.65017 13.5851 6.78988 13.5504 6.92588C13.198 8.16957 12.6079 9.33316 11.8127 10.3522C10.7973 11.6118 9.62254 12.7339 8.31781 13.6905C7.40207 14.3998 6.58985 15.2334 5.90467 16.1673C5.74057 16.4133 5.59023 16.6682 5.45434 16.9309C5.38582 17.0483 5.35645 17.156 5.17534 17.1952Z" fill="#212121"/>
<path d="M39.6153 37.6681C39.5204 37.6218 39.4222 37.5826 39.3216 37.5506C38.6804 37.3548 38.0293 37.1835 37.393 36.973C36.4564 36.6637 35.5555 36.2551 34.7058 35.7542C34.6035 35.7037 34.5155 35.6284 34.4497 35.5353C34.3838 35.4421 34.3423 35.334 34.3289 35.2207C34.2799 34.8438 34.2016 34.4669 34.1233 34.0264C34.1941 34.0576 34.2628 34.0936 34.3289 34.134C35.1938 34.8547 36.1561 35.4496 37.1874 35.9011C37.714 36.1285 38.2573 36.3151 38.8125 36.4591C38.8694 36.466 38.9269 36.466 38.9838 36.4591C38.9838 36.4591 39.0279 36.4591 39.0621 36.4346C39.0132 36.3122 38.8957 36.3073 38.8027 36.2682C38.1811 36.0088 37.5546 35.7787 36.9378 35.4948C35.9888 35.0813 35.1011 34.5394 34.2995 33.8844C34.2374 33.8368 34.1863 33.7763 34.15 33.7069C34.1136 33.6376 34.0928 33.5612 34.089 33.483C34.089 33.0572 34.045 32.6313 34.0254 32.2055C34.0319 32.1635 34.0434 32.1224 34.0597 32.0831C34.1143 32.1224 34.1666 32.1649 34.2163 32.2104C35.3648 33.5284 36.8161 34.5479 38.4454 35.1815C38.5839 35.231 38.7264 35.2687 38.8713 35.2941C38.9294 35.3057 38.9893 35.3057 39.0475 35.2941V35.2452C38.9961 35.2142 38.9421 35.188 38.8859 35.1669C37.0764 34.5161 35.4661 33.4082 34.2114 31.951C34.1491 31.8863 34.1008 31.8094 34.0696 31.7252C34.0385 31.6409 34.0251 31.5511 34.0303 31.4615C34.0597 31.0846 34.0695 30.7077 34.0939 30.3308C34.0939 30.2574 34.0939 30.179 34.138 30.0469C34.2163 30.1448 34.2554 30.1888 34.2897 30.2427C35.2367 31.7536 36.5768 32.9786 38.1664 33.7865C38.7309 34.1053 39.3421 34.3333 39.9775 34.462C40.1774 34.5174 40.351 34.6424 40.467 34.8144C40.5306 34.8927 40.5159 34.9613 40.467 35.0543C40.2859 35.3039 40.1194 35.5438 39.9775 35.8325C39.909 35.9402 39.9383 35.9745 40.0558 36.0381C40.1949 36.1052 40.329 36.1821 40.4572 36.2682C40.5045 36.301 40.5378 36.3504 40.5505 36.4066C40.5632 36.4628 40.5544 36.5217 40.5257 36.5717C40.4474 36.787 40.3788 37.0073 40.3152 37.2276C40.2516 37.4478 40.281 37.4136 40.4327 37.4674C40.6216 37.5297 40.7846 37.6529 40.8961 37.8176C41.0077 37.9823 41.0616 38.1793 41.0494 38.3778C41.0494 38.5247 41.0494 38.6666 41.0494 38.8233C40.9925 38.8294 40.9351 38.8294 40.8781 38.8233C39.9342 38.794 38.9952 38.676 38.0734 38.4708C37.0418 38.224 36.0522 37.8265 35.1365 37.2912C35.0261 37.2331 34.9421 37.1351 34.9016 37.0171L34.5883 36.0871C34.5832 36.0366 34.5832 35.9858 34.5883 35.9353C34.6465 35.9484 34.7026 35.9699 34.7547 35.999C36.1778 36.8899 37.7632 37.4905 39.4195 37.766H39.6153C39.6363 37.77 39.6579 37.77 39.6789 37.766L39.6153 37.6681Z" fill="#212121"/>
<path d="M16.8602 0.466871C16.8014 0.567374 16.736 0.66385 16.6644 0.755663C16.4049 1.04935 16.1749 1.35283 15.8714 1.62694C15.2831 2.24558 14.7493 2.91374 14.2757 3.62402C13.7862 4.33866 13.2527 5.05331 12.7289 5.75326C12.268 6.36247 11.7447 6.92188 11.1675 7.42239C10.3941 8.10767 9.60605 8.77826 8.82288 9.45374C8.72719 9.54339 8.62583 9.62677 8.5194 9.70337C8.45704 9.72882 8.39086 9.74371 8.3236 9.74743C8.29922 9.68179 8.2892 9.61168 8.29423 9.54184C8.33829 9.36074 8.41171 9.18452 8.46555 9.00342C8.68582 8.28388 8.90609 7.56434 9.11167 6.83991C9.22713 6.41538 9.39657 6.00741 9.61584 5.626C10.0129 4.92752 10.4803 4.27146 11.0109 3.66807C11.7196 2.87578 12.5758 2.22905 13.5317 1.76399L15.6267 0.731188C15.9534 0.579622 16.3019 0.480509 16.6595 0.4375C16.7273 0.438818 16.7948 0.448687 16.8602 0.466871Z" fill="#212121"/>
<path d="M21.582 29.9411C21.6408 29.8628 21.6603 29.809 21.6946 29.7894C21.7478 29.7673 21.8038 29.7524 21.861 29.7453C22.0051 29.7246 22.1359 29.6498 22.2268 29.5362C22.3177 29.4226 22.362 29.2786 22.3505 29.1335C22.3505 28.83 22.3505 28.5265 22.3505 28.223V25.7365C22.3505 25.6875 22.3505 25.6386 22.3505 25.5896C22.3505 25.1785 22.2281 25.0512 21.8219 24.9925C21.7974 24.9925 21.7631 24.9925 21.7485 24.9925C21.708 24.9618 21.676 24.9214 21.6555 24.875C21.6555 24.875 21.7093 24.8113 21.7485 24.7918C21.7889 24.7842 21.8304 24.7842 21.8708 24.7918C22.4582 24.7918 23.0505 24.7918 23.6427 24.7918C23.711 24.7869 23.779 24.8056 23.8351 24.8448C23.8912 24.884 23.9322 24.9413 23.9511 25.0071C24.3182 25.8931 24.7 26.7742 25.0769 27.6552L25.1895 27.8902C25.2433 27.7874 25.2825 27.7287 25.307 27.665L26.3447 25.0855C26.3618 25.058 26.3749 25.0284 26.3838 24.9973C26.3902 24.9629 26.4035 24.9301 26.4229 24.901C26.4422 24.8718 26.4673 24.8469 26.4966 24.8277C26.5259 24.8085 26.5587 24.7954 26.5932 24.7892C26.6276 24.783 26.663 24.7839 26.6971 24.7918C26.888 24.7918 27.074 24.7918 27.2649 24.7918H28.3956C28.4525 24.7844 28.51 24.7844 28.5669 24.7918C28.6123 24.8161 28.6536 24.8475 28.6893 24.8848C28.6501 24.919 28.6208 24.9778 28.5816 24.9925C28.5424 25.0071 28.4005 24.9925 28.3173 25.0414C28.2321 25.059 28.1553 25.1048 28.0993 25.1714C28.0434 25.238 28.0115 25.3216 28.0089 25.4085C28.0089 25.4673 28.0089 25.526 28.0089 25.5847V29.202C28.0089 29.5985 28.1264 29.7257 28.4984 29.7796C28.5292 29.7745 28.5606 29.7745 28.5914 29.7796C28.6257 29.7796 28.6697 29.8383 28.6648 29.8579C28.6581 29.8783 28.6472 29.897 28.6329 29.913C28.6186 29.929 28.6011 29.9419 28.5816 29.9509C28.5332 29.9608 28.4832 29.9608 28.4348 29.9509H26.1097C26.0265 29.9509 25.8846 29.9998 25.8797 29.853C25.8748 29.7062 26.0167 29.7698 26.095 29.7551C26.4132 29.7062 26.5551 29.5593 26.5551 29.2656C26.5551 28.1986 26.5551 27.1315 26.5551 26.0644C26.5551 26.035 26.5551 26.0008 26.5551 25.9176C26.5013 26.0106 26.467 26.0546 26.4426 26.1085L24.9741 29.7306C24.9741 29.7649 24.9399 29.8041 24.9252 29.8432C24.9105 29.8824 24.8371 29.9656 24.7441 29.9656C24.7034 29.9727 24.6616 29.9654 24.6258 29.9448C24.59 29.9242 24.5626 29.8917 24.5483 29.853C24.4504 29.6132 24.3378 29.3635 24.235 29.1335C23.8092 28.1545 23.3784 27.1266 22.9526 26.1281C22.9526 26.084 22.9085 26.0399 22.8645 25.9567C22.8424 26.0168 22.8276 26.0792 22.8204 26.1427C22.8204 27.1217 22.8204 28.1447 22.8204 29.1481C22.8063 29.2161 22.8068 29.2864 22.822 29.3541C22.8371 29.4219 22.8665 29.4857 22.9081 29.5413C22.9498 29.5968 23.0028 29.6429 23.0636 29.6764C23.1245 29.7099 23.1917 29.73 23.2609 29.7355H23.3295C23.4029 29.7355 23.5155 29.7355 23.4959 29.8628C23.4763 29.9901 23.3833 29.9411 23.3148 29.9411H21.8121C21.7436 29.9705 21.6946 29.9558 21.582 29.9411Z" fill="#212121"/>
<path d="M34.6016 24.7969H34.8414C35.3309 24.7969 35.8204 24.7969 36.3392 24.7969C36.4162 24.7912 36.4934 24.8058 36.563 24.8393C36.6326 24.8728 36.6921 24.924 36.7357 24.9878C37.3916 25.8248 38.0573 26.6618 38.7181 27.4989C38.7467 27.5379 38.7697 27.5808 38.7866 27.6261L38.8552 27.5919C38.8692 27.5422 38.879 27.4914 38.8845 27.4401C38.8845 26.9506 38.8845 26.4367 38.8845 25.9374C38.8825 25.7736 38.8694 25.61 38.8454 25.4479C38.8316 25.3456 38.7858 25.2503 38.7146 25.1756C38.6434 25.1009 38.5504 25.0506 38.4489 25.0319C38.3937 25.0224 38.3397 25.0077 38.2874 24.9878C38.2433 24.9878 38.2188 24.9095 38.1846 24.8703L38.302 24.7773H39.9026C39.9266 24.7819 39.9498 24.7901 39.9712 24.8018C40.0201 24.9242 39.9712 24.9927 39.8537 25.0172H39.7803C39.6591 25.0294 39.5468 25.0863 39.4654 25.1768C39.3839 25.2673 39.3391 25.3849 39.3397 25.5067C39.3397 25.6046 39.3397 25.7025 39.3397 25.8004V29.7162C39.3397 29.8141 39.3397 29.9071 39.3397 30.0001C39.256 30.0436 39.1588 30.0537 39.068 30.0282C38.9771 30.0028 38.8992 29.9437 38.8503 29.863C38.0818 28.8841 37.2986 27.9345 36.5252 26.9702C36.3343 26.7353 36.1385 26.4807 35.9525 26.2605C35.9249 26.2191 35.9019 26.1748 35.884 26.1283L35.8204 26.1675C35.802 26.2162 35.7905 26.2673 35.7861 26.3192C35.7861 27.215 35.7861 28.1107 35.7861 29.0016C35.7835 29.0423 35.7835 29.0832 35.7861 29.1239C35.786 29.2834 35.8476 29.4366 35.958 29.5516C36.0684 29.6666 36.2191 29.7344 36.3784 29.7407C36.4567 29.7407 36.5644 29.7407 36.5595 29.8484C36.5546 29.956 36.4371 29.9365 36.3637 29.9365H34.812C34.7716 29.9439 34.7301 29.9439 34.6897 29.9365C34.6554 29.9365 34.6163 29.8924 34.6114 29.863C34.6109 29.8441 34.6157 29.8254 34.6252 29.809C34.6347 29.7925 34.6485 29.7791 34.6652 29.77C34.7339 29.7444 34.8042 29.7231 34.8757 29.7064C34.9917 29.6854 35.0971 29.6254 35.1745 29.5364C35.252 29.4475 35.2967 29.3348 35.3015 29.2169C35.3064 29.1273 35.3064 29.0374 35.3015 28.9477V25.771C35.3096 25.5989 35.2573 25.4293 35.1536 25.2917C35.0499 25.154 34.9014 25.0569 34.7337 25.0172C34.6114 24.9829 34.6114 24.9829 34.6016 24.7969Z" fill="#212121"/>
<path d="M32.4382 24.8026C32.492 24.8026 32.5556 24.8026 32.6193 24.8026C33.1088 24.8026 33.5982 24.8026 34.122 24.8026C34.2003 24.8026 34.3227 24.7634 34.3423 24.8907C34.3618 25.0179 34.2297 25.013 34.1514 25.0277C34.0032 25.0496 33.8693 25.1282 33.778 25.2469C33.6867 25.3657 33.645 25.5152 33.6619 25.664C33.6619 26.4276 33.6619 27.1863 33.6619 27.9499C33.6597 28.2619 33.6302 28.5731 33.5738 28.8799C33.5259 29.1414 33.4041 29.3836 33.2228 29.5779C33.0415 29.7723 32.8082 29.9105 32.5507 29.9764C31.9666 30.1525 31.3434 30.1525 30.7593 29.9764C30.4786 29.9172 30.2246 29.769 30.0349 29.5538C29.8453 29.3386 29.7302 29.0679 29.7069 28.782C29.6872 28.5542 29.6791 28.3255 29.6824 28.0968C29.6824 27.3038 29.6824 26.506 29.6824 25.7081C29.6872 25.6184 29.6872 25.5286 29.6824 25.4389C29.6854 25.3437 29.6522 25.2509 29.5895 25.1791C29.5269 25.1074 29.4394 25.062 29.3447 25.0522C29.2881 25.0444 29.2323 25.0313 29.1782 25.013C29.1342 25.013 29.0754 24.9494 29.0705 24.9102C29.0656 24.8711 29.1391 24.8123 29.2027 24.8075C29.2435 24.805 29.2843 24.805 29.3251 24.8075H31.5375C31.5862 24.8001 31.6357 24.8001 31.6844 24.8075C31.7275 24.835 31.7656 24.8698 31.797 24.9102C31.7578 24.9445 31.7235 24.9935 31.6795 25.0081C31.6354 25.0228 31.5033 25.0081 31.4151 25.0522C31.3334 25.067 31.2594 25.1098 31.2058 25.1732C31.1522 25.2366 31.1224 25.3167 31.1215 25.3997C31.1215 25.4487 31.1215 25.4976 31.1215 25.5466C31.1215 26.6136 31.1215 27.6807 31.1215 28.7429C31.1204 28.9634 31.2015 29.1763 31.3491 29.3402C31.4966 29.504 31.6999 29.6069 31.9193 29.6288C32.0716 29.6448 32.2254 29.6263 32.3695 29.5746C32.5136 29.5229 32.6441 29.4394 32.7515 29.3303C32.9498 29.1549 33.0769 28.9128 33.1088 28.6499C33.143 28.3317 33.1724 28.0136 33.1773 27.6709C33.1773 27.0542 33.1773 26.4374 33.1773 25.8256C33.1822 25.7588 33.1822 25.6917 33.1773 25.6249C33.1332 25.3116 33.0549 25.0375 32.6437 25.0081C32.492 25.0032 32.3794 24.9837 32.4382 24.8026Z" fill="#212121"/>
<path d="M43.7273 42.0432C43.4434 42.4445 42.9784 42.4984 42.5378 42.655H42.9588C42.9631 42.6755 42.9629 42.6968 42.958 42.7172C42.9532 42.7376 42.9439 42.7567 42.9308 42.7731C42.9177 42.7894 42.9011 42.8027 42.8822 42.8119C42.8634 42.8211 42.8427 42.8261 42.8217 42.8263C42.5933 42.8888 42.3584 42.9249 42.1218 42.934C42.0162 42.9278 41.9115 42.9559 41.8233 43.0141C41.7351 43.0723 41.668 43.1576 41.6323 43.2571C41.461 43.6291 41.4218 43.6438 41.0302 43.5116C40.8051 43.4382 40.5848 43.3354 40.3596 43.2571C40.1816 43.1962 40.0002 43.1455 39.8163 43.1053C39.5618 43.0564 39.4541 43.1641 39.4541 43.4235C39.4589 43.4559 39.4589 43.4889 39.4541 43.5214H39.4199C39.2828 43.4675 39.2289 43.3207 39.1604 43.1983C39.1025 43.068 39.0534 42.9339 39.0136 42.797C38.852 42.8949 38.8814 43.0466 38.8716 43.1739C38.8618 43.3011 38.8716 43.4235 38.8716 43.5508C38.8716 43.5508 38.8325 43.5508 38.8227 43.5508C38.7167 43.4886 38.6247 43.4051 38.5527 43.3055C38.4808 43.2059 38.4303 43.0925 38.4045 42.9723C38.3787 42.8522 38.3782 42.728 38.403 42.6076C38.4278 42.4873 38.4774 42.3734 38.5486 42.2732C38.6189 42.181 38.7081 42.1049 38.8102 42.05C38.9124 41.9951 39.0251 41.9627 39.1408 41.955C39.3606 41.947 39.5806 41.9634 39.7967 42.004C39.8588 42.0221 39.9246 42.0225 39.9869 42.0052C40.0491 41.9879 40.1053 41.9536 40.1492 41.9061C40.4429 41.5879 40.7659 41.2942 41.0498 40.9663C41.4124 40.5255 41.6235 39.9798 41.6519 39.4097C41.6519 39.3461 41.6519 39.2825 41.6812 39.1797C41.7608 39.2176 41.8362 39.2635 41.9064 39.3167C42.1169 39.5076 42.3323 39.6985 42.5378 39.8992C42.8513 40.2381 43.2453 40.4923 43.6832 40.6383C43.83 40.6824 43.8545 40.7558 43.7468 40.8684C43.5943 41.0281 43.4307 41.177 43.2574 41.3138C43.1682 41.374 43.1039 41.4644 43.0763 41.5684C43.4434 41.5145 43.7664 41.3579 44.114 41.3138C43.7615 41.8033 43.2133 41.8865 42.714 42.0921C42.8799 42.1532 43.0621 42.1532 43.228 42.0921C43.3993 42.0578 43.5657 41.9942 43.7175 41.9453L43.7273 42.0432ZM40.0513 42.3711C39.9926 42.3251 39.9203 42.3 39.8457 42.3C39.7711 42.3 39.6988 42.3251 39.6401 42.3711C39.7919 42.3956 39.8946 42.469 40.0513 42.3711Z" fill="#212121"/>
<path d="M38.3073 18.6047C38.3562 18.5117 38.3709 18.4383 38.4198 18.3992C38.442 18.3784 38.4683 18.3625 38.4969 18.3524C38.5255 18.3423 38.556 18.3382 38.5863 18.3404C38.6151 18.3504 38.6414 18.3665 38.6633 18.3876C38.6853 18.4088 38.7024 18.4344 38.7135 18.4628C38.7387 18.5906 38.7566 18.7197 38.7674 18.8495C38.7918 19.1921 38.8212 19.5348 38.8457 19.8823C38.8484 19.9198 38.8484 19.9574 38.8457 19.9949H38.5765C38.4616 19.7563 38.3308 19.5257 38.1849 19.3047C38.0449 19.1149 37.8636 18.9595 37.6547 18.85C37.4458 18.7406 37.2148 18.6801 36.979 18.673C36.7433 18.6659 36.5091 18.7125 36.294 18.8092C36.0789 18.9059 35.8886 19.0503 35.7375 19.2313C35.4399 19.5635 35.2504 19.9783 35.1942 20.4207C35.0886 21.0503 35.1935 21.6972 35.4927 22.2612C35.6061 22.4961 35.7675 22.7045 35.9665 22.8732C36.1655 23.0418 36.3976 23.1668 36.6479 23.2401C37.0495 23.3468 37.477 23.2905 37.8373 23.0835C37.8683 23.0653 37.8949 23.0405 37.9152 23.0109C37.9355 22.9813 37.949 22.9476 37.9548 22.9122C37.9548 22.3982 37.9548 21.8794 37.9255 21.3654C37.9255 21.0864 37.8031 21.0032 37.5339 20.9445C37.4604 20.9102 37.3185 20.9445 37.3381 20.8172C37.3577 20.6899 37.4702 20.7438 37.5437 20.7438C38.1115 20.7438 38.6744 20.7438 39.2422 20.7438C39.3156 20.7438 39.4282 20.7046 39.4428 20.8221C39.4575 20.9396 39.3401 20.9151 39.2666 20.9347C39.1585 20.9481 39.0595 21.0021 38.9895 21.0857C38.9196 21.1692 38.8839 21.2762 38.8897 21.385C38.8897 21.5955 38.8897 21.8108 38.8897 22.0213C38.8897 22.3591 38.8897 22.6968 38.8897 23.0346C38.8966 23.0948 38.883 23.1556 38.851 23.2071C38.819 23.2587 38.7706 23.2979 38.7135 23.3184C38.2561 23.5408 37.7536 23.6547 37.2451 23.6513C36.8604 23.6651 36.4752 23.6421 36.0948 23.5828C35.5604 23.4743 35.0776 23.1905 34.7229 22.7764C34.3682 22.3623 34.162 21.8416 34.1369 21.2969C34.0943 20.795 34.1894 20.2909 34.4119 19.839C34.6344 19.387 34.9759 19.0043 35.3997 18.732C35.7263 18.5229 36.0997 18.3984 36.4864 18.3698C37.0247 18.3021 37.5714 18.3694 38.0772 18.5656C38.1527 18.5847 38.2296 18.5978 38.3073 18.6047Z" fill="#212121"/>
<path d="M29.5459 19.6661C29.5002 19.6695 29.4544 19.6695 29.4088 19.6661C29.3518 19.6693 29.2946 19.6693 29.2375 19.6661C29.2208 19.2551 29.2453 18.8435 29.3109 18.4375H29.5948H33.3834C33.6135 18.4375 33.6379 18.4375 33.6575 18.6871C33.6771 18.9368 33.6575 19.0689 33.6575 19.2549C33.6575 19.4409 33.6575 19.529 33.6575 19.6612C33.3883 19.7248 33.3589 19.7102 33.31 19.4899C33.28 19.3139 33.189 19.1542 33.053 19.0387C32.9169 18.9232 32.7445 18.8594 32.566 18.8585C32.3947 18.8585 32.2233 18.8585 32.0765 18.8585C31.9297 18.8585 31.8856 18.8585 31.8807 19.064C31.8807 19.3284 31.8807 19.5878 31.8807 19.8521C31.8807 20.7332 31.8807 21.6093 31.8807 22.4855C31.883 22.6495 31.8977 22.8132 31.9248 22.975C31.926 23.075 31.9659 23.1707 32.0362 23.2419C32.1065 23.3131 32.2016 23.3543 32.3016 23.3568C32.375 23.352 32.4486 23.352 32.5219 23.3568C32.5399 23.3623 32.5562 23.3724 32.5691 23.3861C32.582 23.3999 32.591 23.4168 32.5953 23.4351C32.5953 23.4596 32.5611 23.5036 32.5268 23.5134C32.48 23.5233 32.4317 23.5233 32.3849 23.5134H30.4857C30.4074 23.5134 30.2752 23.5526 30.2654 23.4302C30.2556 23.3078 30.3878 23.3372 30.471 23.3323C30.6008 23.3323 30.7253 23.2807 30.8171 23.1889C30.9089 23.0971 30.9605 22.9726 30.9605 22.8428C30.9653 22.7515 30.9653 22.66 30.9605 22.5687V19.0983C30.9605 19.0151 30.9605 18.9368 30.9605 18.834C30.6736 18.7873 30.381 18.7873 30.0941 18.834C29.9712 18.8752 29.8612 18.9479 29.7753 19.045C29.6894 19.1421 29.6305 19.2601 29.6046 19.3871C29.5753 19.4997 29.5654 19.5731 29.5459 19.6661Z" fill="#212121"/>
<path d="M28.7684 23.4514C28.7391 23.5444 28.6559 23.5346 28.5873 23.5346H26.6294C26.5972 23.5421 26.5637 23.5421 26.5315 23.5346C26.4988 23.5143 26.4692 23.4896 26.4434 23.4612C26.4728 23.4318 26.4972 23.3828 26.5364 23.3682C26.5934 23.3631 26.6507 23.3631 26.7077 23.3682C26.8215 23.3559 26.9274 23.3041 27.007 23.2218C27.0866 23.1396 27.1349 23.032 27.1433 22.9178C27.1482 22.8282 27.1482 22.7383 27.1433 22.6486V19.2223C27.1433 18.8649 27.0503 18.7034 26.6147 18.6251C26.5804 18.6251 26.5462 18.6251 26.5168 18.6251C26.4867 18.6034 26.4588 18.5788 26.4336 18.5517C26.463 18.5174 26.4874 18.4733 26.5266 18.4587C26.5753 18.4513 26.6248 18.4513 26.6734 18.4587H28.5677C28.6411 18.4587 28.7586 18.4587 28.7635 18.5468C28.7684 18.6349 28.6509 18.6349 28.5775 18.6447C28.1957 18.6985 28.088 18.8454 28.088 19.2614C28.088 20.1865 28.088 21.1165 28.088 22.0417C28.088 22.2962 28.088 22.5311 28.088 22.8053C28.088 23.1968 28.23 23.3437 28.6265 23.3828C28.6754 23.3584 28.7537 23.3486 28.7684 23.4514Z" fill="#212121"/>
<path d="M26.0216 18.5129C25.9905 18.5477 25.9541 18.5774 25.9139 18.6011C25.8569 18.6058 25.7996 18.6058 25.7426 18.6011C25.6223 18.6144 25.5112 18.6718 25.4308 18.7621C25.3503 18.8525 25.3062 18.9695 25.307 19.0905C25.307 19.1786 25.307 19.2716 25.307 19.3598V22.7861C25.307 23.1239 25.4783 23.2756 25.8209 23.3392C25.8992 23.3392 25.9922 23.3392 26.0167 23.442C26.0412 23.5448 25.8992 23.5252 25.8307 23.5252H23.8728C23.8406 23.5328 23.8071 23.5328 23.7749 23.5252C23.7422 23.505 23.7126 23.4803 23.6868 23.4518C23.721 23.4224 23.7455 23.3735 23.7798 23.3637C23.8366 23.3562 23.8942 23.3562 23.9511 23.3637C24.0649 23.3514 24.1708 23.2997 24.2504 23.2174C24.33 23.1351 24.3782 23.0275 24.3867 22.9134C24.3916 22.8237 24.3916 22.7338 24.3867 22.6442V19.2863C24.3867 18.7675 24.3133 18.6843 23.8042 18.5864C23.7553 18.5864 23.6868 18.5374 23.6819 18.5032C23.677 18.4689 23.7504 18.4151 23.814 18.4102H25.772C25.8503 18.4102 25.9335 18.4102 26.0118 18.4102L26.0216 18.5129Z" fill="#212121"/>
<path d="M54.4707 0C54.5681 0.0178173 54.6645 0.0406904 54.7595 0.0685271C55.6014 0.401374 56.4629 0.704853 57.2852 1.08665C58.4871 1.60271 59.5675 2.3647 60.457 3.32358C61.4044 4.46018 62.1284 5.7655 62.5912 7.1709C62.7723 7.70443 62.9436 8.24286 63.1198 8.78129C63.1639 8.91345 63.2275 9.03582 63.2667 9.17287C63.2785 9.24089 63.2785 9.31045 63.2667 9.37846C63.1982 9.3799 63.1301 9.36827 63.066 9.3442C62.9237 9.24852 62.7865 9.14559 62.6548 9.03582C61.5568 8.14887 60.5108 7.19933 59.5221 6.19194C58.6143 5.24372 57.7783 4.22934 57.0209 3.15716C56.6244 2.58446 56.1594 2.06072 55.7384 1.5076C55.455 1.15545 55.1423 0.827955 54.8035 0.52864C54.6356 0.395536 54.5181 0.209011 54.4707 0Z" fill="#212121"/>
<path d="M58.009 5.81097C58.0636 5.86784 58.1143 5.92835 58.1608 5.99207C58.4642 6.39834 58.753 6.8193 59.0761 7.21088C59.2612 7.42878 59.4697 7.62575 59.6977 7.79826C59.9718 8.01853 60.2704 8.21432 60.5543 8.4199C61.1564 8.85554 61.7585 9.30097 62.3654 9.73171C62.9912 10.1685 63.5586 10.6834 64.0541 11.2638C64.1863 11.4204 64.3282 11.5722 64.4702 11.719C64.524 11.7728 64.5925 11.812 64.6513 11.861H64.71C64.7198 11.7879 64.7198 11.7138 64.71 11.6407C64.5093 10.9163 64.3038 10.1722 64.108 9.46249C63.8583 8.53738 63.6185 7.60247 63.3786 6.67735C63.2077 5.97612 62.909 5.31239 62.4976 4.71942C62.2528 4.39147 61.9493 4.10757 61.6752 3.8041C61.5675 3.68662 61.4648 3.56425 61.3473 3.42719C61.4015 3.39806 61.462 3.38281 61.5235 3.38281C61.585 3.38281 61.6455 3.39806 61.6997 3.42719C62.1899 3.57808 62.6514 3.80968 63.0654 4.11247C64.2581 4.92029 65.2332 6.00972 65.9044 7.28431C66.3059 8.07754 66.525 8.95054 66.5456 9.83939C66.6288 12.0274 66.6141 14.2447 66.5847 16.4082C66.5753 16.5004 66.5605 16.5919 66.5407 16.6823H66.4868C66.4413 16.6444 66.4017 16.5998 66.3694 16.5502C65.89 15.7349 65.2779 15.0053 64.5583 14.3916C63.6772 13.535 62.6836 12.8008 61.734 12.0225C60.6674 11.1841 59.7449 10.1772 59.0027 9.04154C58.775 8.6439 58.577 8.22998 58.4104 7.80315C58.1717 7.24483 58.0167 6.65436 57.9503 6.05081C57.9405 5.97249 57.8964 5.88928 58.009 5.81097Z" fill="#212121"/>
</svg>
