<svg width="132" height="122" viewBox="0 0 132 122" fill="none" xmlns="http://www.w3.org/2000/svg">
<g filter="url(#filter0_d_557_9111)">
<path d="M63.334 34.1072C63.2981 34.052 63.2544 34.0023 63.2043 33.9596L62.1759 33.28L61.9702 33.1637C61.9702 33.043 62.0641 33.0385 62.1356 33.0161C62.5155 32.8951 62.9161 32.8529 63.3128 32.8921C63.7096 32.9313 64.0941 33.0511 64.443 33.2442C64.9432 33.5245 65.3959 33.8822 65.7844 34.304C66.5712 35.1304 67.2462 36.0565 67.7922 37.0585C68.4472 38.2169 68.8852 39.4853 69.0845 40.8012C69.2171 41.6995 69.2515 42.6096 69.1873 43.5154C69.1873 43.7926 69.1023 44.0654 69.071 44.3382C69.0397 44.6109 69.0353 44.7853 69.0263 45.0357C69.0348 45.1031 69.0513 45.1691 69.0755 45.2325H69.1336C69.1627 45.1872 69.1839 45.1373 69.1962 45.0849C69.3681 44.1712 69.4445 43.2421 69.4243 42.3126C69.3549 39.5261 68.3051 36.8534 66.4596 34.7645C66.0601 34.3068 65.6185 33.8876 65.1405 33.5125C65.1104 33.4892 65.0833 33.4622 65.06 33.432C65.06 33.432 65.06 33.4052 65.06 33.3739C65.1066 33.3587 65.1545 33.3482 65.2031 33.3426C65.8749 33.3283 66.5345 33.5236 67.0901 33.9015C67.6376 34.2956 68.105 34.7903 68.4674 35.3592C69.2436 36.4944 69.8115 37.7587 70.1442 39.093C70.4668 40.3198 70.6173 41.5854 70.5914 42.8536C70.5705 43.8907 70.4203 44.9212 70.1442 45.9211C70.1393 45.9672 70.1393 46.0137 70.1442 46.0597C70.2784 46.0597 70.3231 45.9614 70.3544 45.8764C70.4309 45.6894 70.4922 45.4965 70.5377 45.2996C71.0313 42.9177 70.8769 40.447 70.0906 38.145C69.7831 37.1965 69.3659 36.2871 68.8474 35.4353C68.6686 35.1491 68.4629 34.8763 68.2751 34.5991C68.2412 34.5485 68.2098 34.4963 68.1812 34.4426L68.217 34.3979L68.4226 34.456C69.3337 34.7645 70.1086 35.3813 70.6137 36.1999C71.0693 36.9075 71.4047 37.6857 71.6064 38.5028C71.858 39.415 72.0079 40.3523 72.0536 41.2975C72.0868 42.4827 71.9848 43.6679 71.7495 44.83C71.6332 45.465 71.4901 46.0955 71.3605 46.726C71.3605 46.8244 71.3202 46.9227 71.3023 47.0211H71.3605C71.4065 46.9491 71.4483 46.8744 71.4857 46.7975C71.7962 46.0013 72.0123 45.1713 72.1296 44.3248C72.283 43.2694 72.325 42.2007 72.2548 41.1365C72.193 40.021 71.9948 38.9172 71.6645 37.8499C71.5314 37.403 71.3516 36.9713 71.128 36.5621C71.1104 36.5172 71.0969 36.4708 71.0877 36.4235C71.15 36.4353 71.2112 36.4517 71.271 36.4727C71.949 36.7916 72.499 37.3306 72.8316 38.002C73.1916 38.6972 73.409 39.4573 73.4711 40.2377C73.6302 41.9072 73.4955 43.5916 73.0731 45.2146C72.8585 46.0553 72.5812 46.8825 72.3353 47.7142C72.2906 47.8662 72.2414 48.0138 72.2011 48.1614C72.2011 48.2284 72.2011 48.3 72.1698 48.3894C72.2995 48.3581 72.3174 48.2687 72.3487 48.2016C72.6877 47.507 72.9616 46.7825 73.167 46.0374C73.615 44.438 73.8096 42.7783 73.7438 41.1186C73.7247 40.5178 73.6559 39.9195 73.5381 39.33C73.5341 39.3003 73.5341 39.2703 73.5381 39.2406C73.5504 39.1872 73.5669 39.1349 73.5873 39.0841C73.6469 39.0982 73.7041 39.1208 73.7572 39.1511C73.8066 39.2074 73.8473 39.2707 73.878 39.339C74.4815 40.3522 74.7912 41.5134 74.7723 42.6926C74.8093 44.3536 74.5176 46.0055 73.9137 47.5532C73.7081 48.0764 73.4353 48.5728 73.2028 49.0825C73.0865 49.3374 72.9926 49.5967 72.8942 49.8561C72.8795 49.9086 72.8705 49.9626 72.8674 50.0171C72.9881 50.0171 73.015 49.9232 73.0507 49.8561C73.8374 48.5162 74.4149 47.0641 74.7633 45.55C74.9968 44.5567 75.1464 43.5455 75.2105 42.5272C75.2203 42.4786 75.2338 42.4307 75.2507 42.3841C75.367 42.4154 75.367 42.5093 75.3938 42.5808C75.746 43.5191 75.8642 44.529 75.7382 45.5231C75.601 46.6404 75.2996 47.7313 74.8438 48.7606C74.4577 49.6639 74.0094 50.5395 73.5024 51.3809C73.4308 51.4927 73.3772 51.609 73.2922 51.7699C73.7655 51.3104 74.1572 50.7735 74.4503 50.1825C74.7678 49.6146 75.0585 49.0289 75.3447 48.4431C75.6033 47.8566 75.8068 47.2473 75.9528 46.6232H76.0154C76.032 46.6772 76.044 46.7325 76.0511 46.7886C76.2136 48.2747 75.9155 49.7748 75.1971 51.0858C74.7412 51.907 74.1952 52.6748 73.5694 53.3752C73.4845 53.4691 73.3682 53.5496 73.3682 53.7195C73.4308 53.6793 73.4979 53.6391 73.5605 53.5899C73.8987 53.306 74.2087 52.99 74.4861 52.6464C74.7767 52.3155 75.0763 51.989 75.3804 51.6626C75.4428 51.6021 75.5101 51.5467 75.5816 51.4972C75.5864 51.5552 75.5864 51.6135 75.5816 51.6716C75.3018 52.7141 74.7492 53.6634 73.9808 54.4216C73.5336 54.8687 73.0865 55.2443 72.6393 55.6602L72.456 55.8346C72.5633 55.9017 72.6215 55.8346 72.6841 55.8346C73.1618 55.5851 73.6115 55.2853 74.0255 54.9403C74.3028 54.7212 74.5711 54.4931 74.8483 54.274C74.9052 54.2313 74.965 54.1924 75.0272 54.1578C75.0241 54.2211 75.0151 54.2839 75.0003 54.3456C74.7861 54.9242 74.4501 55.45 74.015 55.8874C73.5799 56.3249 73.0558 56.6637 72.4784 56.8809L71.9597 57.1045C71.9981 57.1356 72.0446 57.1551 72.0937 57.1606C72.1428 57.1662 72.1925 57.1576 72.2369 57.1358C72.5902 57.0151 72.9479 56.8988 73.2922 56.7602C73.4934 56.6797 73.6812 56.5635 73.8735 56.4651L73.9942 56.4159C74.0658 56.5009 73.9942 56.559 73.9674 56.6037C73.788 56.8225 73.5954 57.03 73.3906 57.2253C72.9114 57.6461 72.3425 57.9519 71.7271 58.1196C71.5805 58.1595 71.431 58.1879 71.28 58.2045C71.0465 58.2441 70.8069 58.1894 70.6137 58.0525L70.0548 57.6769C69.806 57.5057 69.5155 57.4052 69.2141 57.3862C69.1666 57.3743 69.1169 57.3741 69.0694 57.3858C69.0218 57.3975 68.9779 57.4207 68.9414 57.4533C69.0084 57.5472 69.1068 57.5383 69.1873 57.5517C69.6933 57.6385 70.1662 57.861 70.5556 58.1956C70.6415 58.2688 70.7222 58.348 70.797 58.4326C70.9625 58.6249 70.9536 58.6517 70.7166 58.7411C70.6765 58.7621 70.639 58.7876 70.6048 58.8171L70.8641 58.8887C71.0341 58.9379 71.2129 58.9736 71.3828 59.0362C71.5527 59.0988 71.5483 59.1436 71.5259 59.3001C71.4812 59.5639 71.4275 59.8277 71.3828 60.096C71.3786 60.1571 71.3786 60.2183 71.3828 60.2793C71.4901 60.3419 71.5483 60.2793 71.602 60.2346L72.6349 59.3403C72.6975 59.2867 72.7511 59.2285 72.8048 59.1793C72.9077 59.2285 72.8764 59.2867 72.8585 59.3448C72.7539 59.6506 72.5793 59.9277 72.3487 60.1541C72.1654 60.333 71.9731 60.4985 71.7853 60.6684L71.6064 60.8383C71.6542 60.8499 71.7043 60.8486 71.7515 60.8344C71.7986 60.8203 71.8412 60.7938 71.8747 60.7578L72.4873 60.2659L72.7377 60.0737C72.7502 60.0608 72.7652 60.0506 72.7817 60.0436C72.7982 60.0367 72.8159 60.0331 72.8338 60.0331C72.8518 60.0331 72.8695 60.0367 72.886 60.0436C72.9025 60.0506 72.9175 60.0608 72.93 60.0737C72.9343 60.1063 72.9343 60.1394 72.93 60.172C72.7152 60.6362 72.3517 61.0154 71.8971 61.2497C71.8002 61.3045 71.7062 61.3642 71.6154 61.4285C71.6814 61.4497 71.7516 61.4538 71.8196 61.4405C71.8876 61.4272 71.9512 61.3969 72.0044 61.3525C72.1072 61.3033 72.2056 61.2407 72.304 61.1826L72.3487 61.2139C72.268 61.3946 72.156 61.5596 72.0178 61.7013C71.8265 61.8339 71.6246 61.9506 71.4141 62.0501C71.3583 62.0684 71.3107 62.1058 71.2797 62.1556C71.2486 62.2055 71.236 62.2647 71.2442 62.3229C71.2664 62.6161 71.2161 62.9102 71.0975 63.1793C70.979 63.4484 70.7959 63.6841 70.5645 63.8655C70.5241 63.9096 70.4711 63.9401 70.4126 63.9529C70.3542 63.9657 70.2933 63.9602 70.2381 63.9371L69.4601 63.642C69.2499 63.5615 69.0397 63.481 68.8251 63.4184C68.5389 63.3379 68.445 63.4184 68.3779 63.6912C68.3688 63.722 68.3568 63.752 68.3422 63.7806C68.0783 63.6196 68.056 63.3334 67.9487 63.0651C67.8194 63.2879 67.7749 63.55 67.8235 63.8029C67.7877 63.8029 67.7608 63.8029 67.7474 63.8029C67.6217 63.6745 67.5247 63.5207 67.463 63.3519C67.4014 63.183 67.3764 63.0029 67.3897 62.8237C67.3904 62.7441 67.4176 62.6671 67.467 62.6047C67.5164 62.5424 67.5852 62.4982 67.6625 62.4794C68.0177 62.3788 68.3939 62.3788 68.7491 62.4794L68.9637 62.5375C69.0234 62.0647 69.1236 61.598 69.2633 61.1424C69.2861 61.0878 69.2978 61.0293 69.2978 60.9702C69.2978 60.9111 69.2861 60.8526 69.2633 60.798L69.0442 60.8294C68.3578 60.9718 67.6453 60.9192 66.9873 60.6773C66.5964 60.5394 66.2481 60.3021 65.9767 59.9887C65.9312 59.9275 65.877 59.8732 65.8157 59.8277C65.8133 59.8823 65.8224 59.9368 65.8424 59.9877C65.8624 60.0385 65.8929 60.0846 65.932 60.1228C66.2799 60.5341 66.7498 60.8238 67.2734 60.9501L67.497 61.0127V61.0663C67.4503 61.0914 67.4008 61.111 67.3495 61.1245C66.9195 61.2239 66.4716 61.2147 66.0461 61.0976C65.6206 60.9805 65.231 60.7592 64.9125 60.4537C64.5957 60.1768 64.3148 59.8613 64.0763 59.5147C64.0444 59.4548 63.9967 59.4048 63.9383 59.3701C63.88 59.3354 63.8133 59.3174 63.7454 59.318C63.6247 59.318 63.5978 59.2464 63.6023 59.1391C63.6112 59.02 63.6112 58.9004 63.6023 58.7814C63.5943 58.6339 63.5436 58.4919 63.4562 58.3728C63.3689 58.2536 63.2487 58.1626 63.1104 58.1106C62.9539 58.0525 62.936 58.0212 62.9807 57.8602C63.0255 57.6992 63.0836 57.5293 63.1417 57.3683C63.1998 57.2074 63.1954 57.1135 63.0389 57.0062C62.9566 56.955 62.8698 56.9116 62.7795 56.8765C62.632 56.8094 62.6141 56.7692 62.699 56.6395C62.784 56.5098 62.9629 56.2594 63.1015 56.0716C63.2401 55.8838 63.2222 55.8748 63.1015 55.7273C63.0389 55.6647 62.9673 55.611 62.9003 55.5484C62.7393 55.4009 62.7438 55.3696 62.9003 55.2175C63.0568 55.0655 63.2356 54.9403 63.3921 54.7704C63.5486 54.6004 63.5621 54.5513 63.4369 54.3679C63.2535 54.0952 63.258 54.046 63.5576 53.9208C63.9407 53.7419 64.2728 53.4698 64.5234 53.1293C64.5939 53.0513 64.6596 52.9692 64.7202 52.8834C64.8141 52.7582 64.8096 52.7045 64.6799 52.6061C64.5503 52.5077 64.519 52.4988 64.4385 52.4451C64.4015 52.4252 64.3738 52.3916 64.3612 52.3515C64.3487 52.3114 64.3524 52.268 64.3714 52.2305C64.4161 52.0964 64.4429 51.9488 64.4877 51.7833C64.6278 51.7822 64.7666 51.8112 64.8946 51.8683C64.9885 51.8951 65.0734 51.9399 65.1673 51.9756C65.1872 51.9866 65.2093 51.9928 65.2319 51.9939C65.2545 51.9949 65.2771 51.9907 65.2978 51.9817C65.3186 51.9726 65.337 51.9588 65.3516 51.9415C65.3662 51.9242 65.3766 51.9037 65.382 51.8817C65.3945 51.8466 65.4049 51.8108 65.4133 51.7744C65.4625 51.5598 65.4133 51.5016 65.1987 51.4927C65.0855 51.486 64.972 51.486 64.8588 51.4927C64.7875 51.4995 64.716 51.482 64.656 51.443C64.5959 51.404 64.5508 51.3459 64.5279 51.2781C64.4558 51.1631 64.4199 51.0291 64.4251 50.8935C64.5145 50.974 64.5771 51.0232 64.6308 51.0768C64.7006 51.1504 64.7868 51.2065 64.8823 51.2407C64.9779 51.2748 65.0801 51.2861 65.1808 51.2736C65.3596 51.2736 65.4222 51.1752 65.3865 51.0008C65.3554 50.8377 65.2795 50.6865 65.1674 50.5641C65.0552 50.4417 64.9112 50.3529 64.7515 50.3077C64.5999 50.2495 64.4368 50.2277 64.2753 50.244C64.1137 50.2603 63.9583 50.3143 63.8214 50.4016C63.7884 50.4169 63.7539 50.4289 63.7186 50.4374C63.7186 50.4061 63.6873 50.3837 63.6917 50.3659C63.7218 49.9752 63.8313 49.5948 64.0137 49.248C64.0868 49.0826 64.219 48.9506 64.3845 48.8777C64.55 48.8049 64.7367 48.7966 64.908 48.8545C65.2756 48.9466 65.626 49.0976 65.9454 49.3016C66.4759 49.5962 66.9761 49.9421 67.4389 50.3346C67.6536 50.5134 67.8861 50.6744 68.1052 50.8309C68.2609 50.9438 68.4379 51.0238 68.6254 51.066C68.813 51.1083 69.0072 51.112 69.1962 51.0768C69.2498 51.0722 69.3037 51.0722 69.3572 51.0768C69.3253 51.2816 69.249 51.477 69.1336 51.6492C69.0737 51.7057 68.9965 51.7403 68.9145 51.7476C68.7446 51.7476 68.5747 51.7744 68.4003 51.7923C68.3377 51.7923 68.2617 51.7923 68.2304 51.8773C68.3109 51.9577 68.4092 51.922 68.5031 51.922C68.7446 51.922 68.7849 51.9443 68.8564 52.1724C68.9616 52.4964 68.9616 52.8455 68.8564 53.1695C68.7893 53.3708 68.7044 53.563 68.6239 53.7553C68.4605 54.1019 68.3577 54.474 68.3198 54.8553C68.302 54.9672 68.2766 55.0778 68.2438 55.1862C68.3332 55.0968 68.4048 55.0387 68.4629 54.9671C69.02 54.2927 69.3928 53.4854 69.545 52.624C69.7441 51.513 69.5378 50.3674 68.9637 49.3955C68.6945 48.893 68.2434 48.5123 67.7027 48.3313C67.5581 48.2861 67.4046 48.2768 67.2556 48.3045C66.9936 48.3647 66.7212 48.363 66.4599 48.2996C66.1987 48.2362 65.9558 48.1129 65.7506 47.9393C65.5453 47.7657 65.3833 47.5467 65.2774 47.2996C65.1715 47.0525 65.1247 46.7842 65.1405 46.5158C65.1421 46.2068 65.2119 45.9019 65.3448 45.6228C65.4778 45.3438 65.6706 45.0976 65.9096 44.9016C65.9628 44.8618 66.0065 44.8106 66.0374 44.7519C66.0683 44.6931 66.0858 44.6281 66.0885 44.5618C66.2071 43.4869 66.1801 42.4009 66.008 41.3333C65.7751 39.8814 65.1868 38.5096 64.2954 37.3402C63.3004 36.0849 62.0547 35.0508 60.6376 34.304C60.2352 34.0804 59.8193 33.8926 59.4124 33.6869L59.2246 33.5751C59.2894 33.5365 59.3566 33.5021 59.4258 33.4722C59.9454 33.2711 60.5035 33.1888 61.059 33.2313C61.6146 33.2739 62.1535 33.4402 62.6364 33.7182L63.3474 34.1027C63.4726 34.219 63.5978 34.3397 63.7275 34.4515C64.2459 34.8835 64.7248 35.3609 65.1584 35.878C66.5907 37.5553 67.4865 39.624 67.7296 41.8162C67.8219 42.6595 67.8473 43.5088 67.8056 44.3561C67.8056 44.4142 67.7698 44.4902 67.8682 44.5394C67.9074 44.507 67.9396 44.4668 67.9627 44.4214C67.9858 44.376 67.9992 44.3264 68.0023 44.2756C68.0291 43.9536 68.0605 43.6317 68.0739 43.3097C68.1469 41.7455 67.8609 40.1853 67.2377 38.7487C66.4725 37.0204 65.2837 35.5132 63.7811 34.3666C63.6389 34.2688 63.4895 34.1821 63.334 34.1072ZM69.9966 51.5464H70.0324C70.037 51.4988 70.037 51.4509 70.0324 51.4033C69.9877 51.135 69.943 50.8712 69.8804 50.6073C69.7425 50.0218 69.4808 49.4726 69.1128 48.9967C68.7449 48.5208 68.2793 48.1293 67.7474 47.8484C67.6877 47.8121 67.6211 47.7886 67.5519 47.7793C67.4826 47.7701 67.4121 47.7753 67.345 47.7947C67.0794 47.8709 66.7975 47.8692 66.5327 47.7899C66.268 47.7107 66.0316 47.5571 65.8515 47.3475C65.6607 47.1397 65.5403 46.8771 65.5074 46.5969C65.4745 46.3167 65.5308 46.0333 65.6682 45.787C65.7487 45.6528 65.8426 45.5231 65.923 45.389C65.9456 45.3343 65.9621 45.2773 65.9722 45.2191C65.9193 45.2365 65.8695 45.2621 65.8247 45.2951C65.7205 45.4128 65.6277 45.54 65.5474 45.6752C65.4034 45.9858 65.3493 46.3306 65.3912 46.6704C65.4331 47.0103 65.5693 47.3316 65.7844 47.598C65.9219 47.7887 66.1235 47.9236 66.3523 47.978C66.6819 48.0538 67.0244 48.0538 67.354 47.978C67.4427 47.9421 67.5401 47.9331 67.6339 47.9522C67.7278 47.9713 67.8139 48.0176 67.8816 48.0854L67.9934 48.1614C68.8461 48.7363 69.4696 49.5925 69.7552 50.5805C69.8446 50.9024 69.9162 51.2244 69.9966 51.5419V51.5464ZM70.0369 51.9935H69.9698V52.2573H70.0324L70.0369 51.9935ZM68.7535 62.7253V62.6761H68.5434V62.7119L68.7535 62.7253Z" fill="#3245A9"/>
<path d="M79.1623 72.108C79.1772 72.1638 79.1739 72.2228 79.153 72.2767C79.1321 72.3305 79.0947 72.3763 79.0461 72.4075C78.8404 72.6177 78.6347 72.8279 78.4111 73.0157C77.6837 73.642 76.8853 74.1808 76.0322 74.621C74.7724 75.2671 73.3634 75.5665 71.9497 75.4885C71.5741 75.4885 71.1985 75.4527 70.8318 75.399C70.4088 75.338 69.9894 75.2544 69.5753 75.1486C68.8919 74.9794 68.2313 74.7287 67.6078 74.4019C66.6727 73.9177 65.7758 73.3631 64.9248 72.7429C64.2943 72.2602 63.6119 71.8493 62.8903 71.5177C62.2111 71.2017 61.4443 71.1275 60.7171 71.3075C60.6646 71.3298 60.6151 71.3583 60.5695 71.3925C60.6724 71.4506 60.7439 71.4998 60.8199 71.5401C61.446 71.8799 62.0809 72.1974 62.6935 72.5551C63.1049 72.7966 63.494 73.0828 63.883 73.3645C64.6476 73.9279 65.4122 74.4958 66.1635 75.0771C66.548 75.3767 66.8968 75.721 67.2635 76.0429L67.3395 76.1234C67.581 76.3828 67.5944 76.4454 67.3663 76.7092C67.1453 76.9645 66.9078 77.205 66.6554 77.4291C66.4228 77.6348 66.3066 77.6214 66.0606 77.4291C65.9458 77.344 65.8368 77.2514 65.7342 77.1519C65.2557 76.7047 64.7728 76.2307 64.3033 75.7523C63.5665 75.0155 62.779 74.3312 61.9468 73.7043C61.4996 73.3466 61.0078 72.9844 60.5248 72.6445C60.1219 72.3468 59.667 72.1269 59.1834 71.9962C59.0015 71.9553 58.8151 71.9387 58.6289 71.947C58.5337 71.9615 58.4433 71.9983 58.365 72.0543C58.1146 72.1974 57.8687 72.336 57.6273 72.5015C57.3858 72.6669 57.0951 72.8323 56.8403 73.0157C56.3037 73.3958 55.7492 73.7624 55.2484 74.1872C54.113 75.1207 53.0571 76.1467 52.0914 77.2547C51.9886 77.3755 51.8857 77.4917 51.7739 77.6035C51.6622 77.7153 51.5682 77.7421 51.4296 77.6527C51.0384 77.3954 50.677 77.0955 50.352 76.7584C50.2313 76.6377 50.2313 76.5616 50.352 76.4275C50.4727 76.2934 50.7187 76.0295 50.9199 75.8462C52.0424 74.8148 53.2379 73.8659 54.4971 73.0067C55.2367 72.5248 56.0025 72.0844 56.791 71.6876C56.933 71.6173 57.0704 71.5382 57.2024 71.4506C57.3008 71.3836 57.2919 71.2986 57.2024 71.2539C57.1355 71.2209 57.0623 71.2026 56.9878 71.2002C56.7262 71.197 56.4648 71.212 56.2053 71.2449C55.1849 71.437 54.2207 71.8557 53.3837 72.4701C52.4894 73.0693 51.5951 73.6551 50.7008 74.223C50.0241 74.6408 49.3026 74.9813 48.5499 75.2381C48.1727 75.3607 47.7871 75.4563 47.3963 75.5242C47.0654 75.5958 46.73 75.6271 46.3991 75.6986C46.0683 75.7671 45.7286 75.7822 45.393 75.7433C44.7062 75.6926 44.0244 75.5879 43.354 75.4303C42.8765 75.3003 42.4136 75.122 41.9723 74.8982C41.3311 74.5945 40.7203 74.2307 40.1479 73.8116C39.6701 73.4611 39.2322 73.0593 38.8421 72.6132C38.8158 72.5712 38.799 72.5239 38.793 72.4746C38.8422 72.4746 38.9048 72.4299 38.9495 72.4433C39.077 72.4877 39.201 72.5416 39.3206 72.6043C39.8797 72.8934 40.4691 73.1198 41.0779 73.2795C42.0855 73.5524 43.137 73.6238 44.1723 73.4897C44.7299 73.4164 45.2824 73.3089 45.8268 73.1677C46.439 72.9967 47.037 72.7784 47.6154 72.5149C48.1654 72.2689 48.7288 72.0409 49.2878 71.8128C49.6276 71.6742 49.9674 71.5356 50.3117 71.4104C50.9109 71.2002 51.5146 70.999 52.1004 70.8023C52.4044 70.7039 52.7175 70.6279 53.0305 70.5474C53.5725 70.4275 54.1254 70.3631 54.6805 70.3551C55.3288 70.3327 55.9817 70.3327 56.6345 70.3551C57.1377 70.3518 57.6384 70.4257 58.1191 70.5742C58.1692 70.5879 58.2184 70.6043 58.2667 70.6234C58.4502 70.7108 58.6499 70.7592 58.8532 70.7653C59.0564 70.7715 59.2587 70.7353 59.4472 70.6592C59.9951 70.4792 60.5625 70.3651 61.1374 70.3193C61.6293 70.2746 62.1212 70.2165 62.6175 70.2209C63.1858 70.2276 63.7532 70.2679 64.3167 70.3417C64.7319 70.403 65.1426 70.4911 65.5464 70.6055C65.922 70.7039 66.2976 70.8067 66.6643 70.9319C67.1517 71.1018 67.6346 71.2941 68.1131 71.4864C68.5915 71.6787 69.0074 71.8575 69.4814 72.0543C69.9554 72.251 70.3265 72.4344 70.7558 72.6088C71.2944 72.8116 71.8515 72.9614 72.4192 73.0559C73.2242 73.1905 74.0403 73.2474 74.8562 73.2258C75.5096 73.2275 76.1615 73.1616 76.8013 73.0291C77.3029 72.9039 77.7878 72.7192 78.2457 72.4791L78.9924 72.1169C79.0487 72.109 79.1055 72.106 79.1623 72.108Z" fill="#3245A9"/>
<path d="M78.3805 66.5582C78.4398 66.5186 78.4965 66.4753 78.5504 66.4285C79.4938 65.5817 80.5339 64.8492 81.6492 64.2464C82.5927 63.7232 83.563 63.2537 84.5155 62.744C85.061 62.4533 85.62 62.1671 86.1342 61.8228C86.5882 61.5056 87.0186 61.1559 87.422 60.7765C87.8901 60.3754 88.3143 59.9257 88.6874 59.435C88.9021 59.1354 89.0765 58.809 89.2687 58.5004C89.3135 58.4244 89.3627 58.3573 89.4163 58.2724C89.4491 58.2992 89.4722 58.3361 89.4819 58.3773C89.4916 58.4185 89.4874 58.4618 89.47 58.5004C88.935 60.923 87.6068 63.0978 85.696 64.6802C84.8646 65.3813 83.9779 66.0138 83.0443 66.5716C82.594 66.8404 82.1157 67.0593 81.6179 67.2245C81.1797 67.3735 80.7325 67.5122 80.2764 67.6403C79.6743 67.7941 79.0636 67.9121 78.4476 67.9936C77.902 68.083 77.3609 68.1948 76.8154 68.3021C76.6385 68.3327 76.4638 68.3746 76.2922 68.4273C76.0284 68.5034 75.7646 68.5928 75.5008 68.6733C75.3564 68.7259 75.198 68.7259 75.0536 68.6733C75.0223 68.557 75.1073 68.5034 75.1609 68.4408C75.4695 68.092 75.7869 67.7521 76.0776 67.3899C76.4758 66.872 76.812 66.3092 77.0792 65.7131C77.276 65.2972 77.4638 64.8724 77.6337 64.4387C77.8036 64.0049 77.9333 63.5444 78.0809 63.1241C78.3536 62.3505 78.6264 61.5724 78.9171 60.7988C79.0691 60.3696 79.2437 59.9487 79.4402 59.5378C79.9185 58.5606 80.4906 57.6321 81.1484 56.7655C81.3317 56.5195 81.5016 56.2647 81.6805 56.0142C81.7431 55.9206 81.8133 55.8323 81.8906 55.7504C81.9147 55.7248 81.9438 55.7044 81.9762 55.6905C82.0085 55.6767 82.0433 55.6697 82.0785 55.6699C82.1768 55.6699 82.1589 55.7996 82.15 55.8801C82.1445 55.9321 82.1324 55.9831 82.1142 56.0321C81.8463 56.7558 81.653 57.505 81.5374 58.2679C81.3645 59.2636 81.1931 60.2607 81.0232 61.2594C80.7324 62.9519 79.9945 64.5358 78.8858 65.8472C78.7561 66.0037 78.6085 66.1424 78.4744 66.2944C78.4197 66.3615 78.369 66.4317 78.3223 66.5046L78.3805 66.5582Z" fill="#3245A9"/>
<path d="M42.7457 68.8114C42.6589 68.8295 42.5705 68.8385 42.4819 68.8382C42.1197 68.7801 41.7575 68.7264 41.3997 68.6504C40.6753 68.5028 39.9554 68.3195 39.2221 68.2032C38.3681 68.0894 37.5226 67.9191 36.6912 67.6935C36.0382 67.4995 35.4038 67.2481 34.7952 66.9423C32.9106 65.9801 31.2803 64.5858 30.0375 62.8731C29.4693 62.0898 28.9993 61.2398 28.6379 60.3422C28.4591 59.9216 28.3286 59.4821 28.2488 59.032C28.2396 58.9609 28.2537 58.8887 28.2891 58.8263C28.327 58.8634 28.3614 58.9038 28.3919 58.9471C28.5976 59.2601 28.7899 59.582 29.009 59.8861C29.618 60.7176 30.3761 61.4287 31.2448 61.9833C32.1298 62.5596 33.0548 63.0721 34.0127 63.517C34.594 63.7943 35.1798 64.0626 35.7432 64.3666C36.1904 64.5991 36.5704 64.8809 36.9774 65.1447C37.3843 65.4085 37.7286 65.641 38.0952 65.8959C38.4619 66.1508 38.9091 66.4906 39.316 66.7902C39.392 66.8439 39.4814 66.8886 39.5843 66.9512C39.585 66.9123 39.5764 66.8737 39.5593 66.8387C39.5422 66.8038 39.5171 66.7733 39.4859 66.75C39.3482 66.6051 39.1987 66.4719 39.0387 66.352C38.5873 66.0121 38.2125 65.5809 37.9387 65.0865C37.7302 64.7424 37.5406 64.3871 37.3709 64.0223C37.1994 63.6149 37.0501 63.1984 36.9237 62.7747C36.8074 62.4081 36.718 62.028 36.633 61.6479C36.5704 61.3707 36.5302 61.089 36.4855 60.8073C36.4184 60.3601 36.3647 59.9129 36.2887 59.4971C36.1904 58.9515 36.092 58.406 35.9623 57.865C35.8639 57.4446 35.7164 57.0332 35.5956 56.6174C35.5577 56.4872 35.5308 56.3541 35.5152 56.2194C35.5152 56.1747 35.5509 56.1166 35.5688 56.0674C35.6269 56.0674 35.6851 56.1076 35.7432 56.1345C35.7432 56.1345 35.8013 56.1613 35.7432 56.1345C36.2127 56.7694 36.6912 57.4089 37.1607 58.0483C37.6351 58.7232 38.0411 59.4437 38.3725 60.1991C38.7615 61.0496 39.1019 61.9214 39.392 62.8105C39.6201 63.4947 39.8392 64.1788 40.1164 64.8406C40.3891 65.4648 40.6982 66.0725 41.042 66.6605C41.3276 67.1231 41.6366 67.5708 41.9676 68.002C42.1433 68.2567 42.3646 68.4765 42.6205 68.6504C42.6698 68.6977 42.712 68.7519 42.7457 68.8114Z" fill="#3245A9"/>
<path d="M84.3671 59.5731C84.4968 59.4032 84.6399 59.2422 84.7606 59.0634C85.1497 58.5044 85.5118 57.9231 85.9232 57.382C86.3346 56.841 86.6923 56.4475 87.1037 55.9959C87.8505 55.1686 88.6151 54.3548 89.3753 53.5365C89.8195 53.0679 90.215 52.5556 90.5558 52.0072C90.7643 51.6356 90.9437 51.2484 91.0924 50.8491C91.2479 50.4905 91.3402 50.1078 91.3651 49.7178C91.3639 49.6725 91.3747 49.6278 91.3964 49.5881C91.4305 49.5438 91.4773 49.511 91.5306 49.4942C91.5306 49.4942 91.6111 49.5568 91.6155 49.6015C91.6652 49.8808 91.6951 50.1632 91.705 50.4466C91.6901 51.2192 91.6033 51.9886 91.4456 52.745C91.1626 54.1993 90.5626 55.5734 89.6883 56.7694C89.0355 57.6674 88.2857 58.4907 87.4525 59.2243C86.9443 59.6785 86.4016 60.0926 85.8293 60.463C84.9752 61.0219 84.1435 61.6077 83.2939 62.1666C82.7171 62.5467 82.1269 62.9 81.5411 63.2666C81.4771 63.3012 81.4115 63.3326 81.3443 63.3605C81.3331 63.2969 81.3331 63.2319 81.3443 63.1683C81.4128 63.0016 81.4904 62.8389 81.5769 62.6809C81.7779 62.3138 81.9283 61.9212 82.024 61.5138C82.1448 61.0666 82.261 60.6195 82.3549 60.1723C82.4667 59.6223 82.5606 59.0678 82.65 58.5134C82.8065 57.5654 82.7931 56.5995 82.896 55.6471C82.9541 55.1552 82.9944 54.6633 83.0525 54.1715C83.1196 53.5902 83.2045 53.0133 83.2716 52.432C83.3333 51.9408 83.438 51.4561 83.5846 50.9832C83.6919 50.6166 83.7724 50.2454 83.8797 49.8787C83.9647 49.597 84.072 49.3287 84.1749 49.056C84.2077 48.9899 84.2466 48.927 84.2911 48.8682C84.4074 48.9218 84.394 49.0113 84.3984 49.0873C84.3984 49.4003 84.4208 49.7178 84.4476 50.0308C84.4834 50.4779 84.5147 50.9251 84.5862 51.3722C84.7383 52.3023 84.9216 53.2279 85.0781 54.158C85.2734 55.1932 85.2643 56.2565 85.0513 57.2881C84.9585 57.8039 84.8178 58.3099 84.6309 58.7995C84.5326 59.0321 84.4208 59.2467 84.3179 59.4926L84.2911 59.5731H84.3671Z" fill="#3245A9"/>
<path d="M26.1977 50.0259C26.2424 50.1824 26.2872 50.3031 26.3095 50.4239C26.488 51.3155 26.8639 52.1558 27.4095 52.8832C27.5169 53.0442 27.6108 53.2141 27.7315 53.3662C27.8522 53.5182 28.0356 53.7418 28.1786 53.9162C29.1579 54.958 30.1506 55.991 31.1209 57.0463C31.8144 57.7938 32.4274 58.6121 32.9498 59.4878C33.0487 59.6427 33.1562 59.792 33.2718 59.9349C33.2718 59.9662 33.3388 59.9796 33.3701 60.002C33.4372 59.9125 33.3701 59.8634 33.3478 59.8052C33.1958 59.5146 33.0348 59.2239 32.9006 58.9109C32.6967 58.4272 32.5815 57.9107 32.5608 57.3861C32.4825 56.2785 32.4825 55.1668 32.5608 54.0593C32.5819 53.7893 32.6253 53.5216 32.6905 53.2588C32.9625 52.1445 33.1523 51.0116 33.2583 49.8694C33.2896 49.8157 33.3075 49.7308 33.3522 49.7129C33.397 49.695 33.4864 49.7621 33.5132 49.8336C33.6121 50.0353 33.6943 50.2446 33.7592 50.4596C33.9246 51.117 34.0945 51.7788 34.2063 52.4495C34.3181 53.1202 34.4165 53.7641 34.5059 54.4259C34.5775 54.9312 34.6356 55.4365 34.6893 55.9418C34.7519 56.5544 34.7966 57.167 34.8592 57.7796C34.9218 58.3922 34.9933 58.8975 35.0693 59.452C35.1141 59.7873 35.1722 60.1182 35.2348 60.4491C35.3555 61.2054 35.5844 61.9403 35.9145 62.6313C36.0665 62.9309 36.1962 63.2394 36.3348 63.5479C36.3348 63.5479 36.3348 63.5748 36.3348 63.5882C36.3348 63.6016 36.3348 63.7179 36.3348 63.7805C36.2784 63.7876 36.2213 63.7876 36.1649 63.7805C36.062 63.7268 35.9592 63.6553 35.8608 63.5927C35.3779 63.2752 34.9128 62.9309 34.4165 62.6402C33.4283 62.0678 32.5205 61.3748 31.586 60.7308C31.3624 60.5788 31.1388 60.4268 30.9242 60.2837C29.6934 59.3973 28.6202 58.3105 27.7494 57.0686C27.3257 56.4313 26.9647 55.7544 26.6717 55.0475C26.2849 54.0947 26.0743 53.0796 26.0502 52.0515C26.0502 51.5149 26.0189 50.9739 26.0099 50.4328C25.991 50.3537 25.9993 50.2706 26.0333 50.1968C26.0674 50.123 26.1253 50.0628 26.1977 50.0259Z" fill="#3245A9"/>
<path d="M77.6553 62.5671C77.6106 62.652 77.5749 62.737 77.5257 62.8175C77.311 63.1976 77.0785 63.5642 76.8818 63.9533C76.6492 64.4004 76.4346 64.8878 76.2379 65.3618C75.9086 66.0851 75.5086 66.7741 75.0439 67.4187C74.9679 67.5305 74.8785 67.6334 74.8069 67.7452C74.4661 68.2508 74.0052 68.6641 73.4655 68.948C72.9624 69.2625 72.4254 69.519 71.8646 69.7127C71.8646 69.7127 71.8199 69.744 71.7886 69.7618C71.8468 69.8647 71.9362 69.8423 72.0077 69.8334C72.2403 69.8334 72.4549 69.7931 72.7008 69.7663C73.8098 69.6322 74.9366 69.4891 76.0232 69.3594C76.8728 69.2565 77.7269 69.185 78.572 69.0822C79.4831 68.998 80.3825 68.8166 81.255 68.5411C82.2679 68.2215 83.1884 67.6615 83.9379 66.909C84.0646 66.7817 84.199 66.6622 84.3404 66.5512C84.3973 66.5112 84.4571 66.4754 84.5192 66.4439L84.5684 66.4752C84.5515 66.5425 84.529 66.6083 84.5013 66.672C84.0985 67.4438 83.578 68.1483 82.9586 68.7602C82.3031 69.4197 81.5704 69.9977 80.7765 70.4818C80.209 70.8243 79.6101 71.1118 78.9879 71.3403C78.4587 71.5484 77.9084 71.6983 77.3468 71.7875C76.7316 71.8858 76.1096 71.9352 75.4866 71.935C74.7369 71.9293 73.989 71.8605 73.2508 71.7293C72.2939 71.5549 71.3415 71.3671 70.3846 71.1704C69.8524 71.0586 69.3248 70.9155 68.7927 70.7858C68.1847 70.6236 67.5638 70.5144 66.937 70.4594C66.8393 70.4539 66.7429 70.4343 66.6508 70.4013C66.6292 70.3896 66.6107 70.373 66.5967 70.3528C66.5827 70.3326 66.5737 70.3094 66.5703 70.285C66.5703 70.2492 66.6284 70.1956 66.6687 70.1866C66.7972 70.1472 66.9288 70.1188 67.0622 70.1017C67.5298 70.0321 67.9886 69.9122 68.4305 69.744C69.0838 69.5019 69.7042 69.1789 70.2772 68.7826C71.1521 68.1763 71.968 67.4891 72.7143 66.7301C73.6086 65.8626 74.5029 65.0086 75.424 64.1992C75.8712 63.8146 76.3183 63.4211 76.7655 63.05C76.9901 62.8744 77.2245 62.7117 77.4675 62.5626C77.5228 62.5344 77.5814 62.5134 77.6419 62.5L77.6553 62.5671Z" fill="#3245A9"/>
<path d="M46.0189 70.0351C46.0112 69.9818 45.9858 69.9326 45.9469 69.8954C45.908 69.8581 45.8578 69.8349 45.8042 69.8295C44.4119 69.4552 43.2231 68.5475 42.4953 67.303C41.905 66.355 41.4221 65.3445 40.89 64.3652C40.6798 63.9806 40.4428 63.605 40.2147 63.2249L40.0582 62.9522C40.018 62.8851 39.9778 62.8046 40.0582 62.7554C40.0868 62.7416 40.1182 62.7344 40.1499 62.7344C40.1817 62.7344 40.213 62.7416 40.2416 62.7554C40.4651 62.8912 40.6802 63.0405 40.8855 63.2026C41.6009 63.8018 42.3253 64.3965 43.0184 65.027C44.038 65.9571 45.0306 66.914 46.0367 67.8575C46.4715 68.3025 46.9686 68.6821 47.5123 68.9843C47.9148 69.1855 48.3262 69.3644 48.742 69.5343C49.1579 69.7042 49.5067 69.8339 49.8957 69.9815C50.2847 70.129 50.6559 70.2095 51.036 70.3213C51.0867 70.3419 51.136 70.3658 51.1835 70.3929C51.1006 70.4306 51.0155 70.4635 50.9286 70.4912C50.6514 70.5538 50.3697 70.6075 50.0925 70.6746L48.1518 71.1486L46.3408 71.5957C46.2916 71.5957 46.238 71.6181 46.1888 71.636C45.3344 71.8674 44.46 72.0171 43.5774 72.0831C43.3538 72.1055 43.1302 72.1144 42.9066 72.1278C42.098 72.1823 41.2859 72.1538 40.483 72.0429C39.7386 71.9481 39.0113 71.7479 38.3233 71.4482C37.1135 70.9189 36.0057 70.1819 35.0501 69.2705C34.4154 68.6647 33.8486 67.9914 33.3598 67.2628C33.2972 67.1733 33.1899 67.0884 33.2391 66.9363C33.3598 66.9363 33.4358 66.9945 33.5163 67.0571C33.7265 67.2136 33.9322 67.3746 34.1334 67.5445C34.7 68.0008 35.3335 68.3673 36.0115 68.6311C36.76 68.9392 37.5466 69.1453 38.3501 69.2437C39.1684 69.342 39.9867 69.4091 40.8095 69.4941L42.6652 69.6729C43.251 69.7311 43.8412 69.7892 44.4314 69.8563C44.8071 69.8965 45.1871 69.9591 45.5672 70.0083C45.7014 70.0128 45.8489 70.0217 46.0189 70.0351Z" fill="#3245A9"/>
<path d="M26.8036 40.6426C26.8036 40.7588 26.8438 40.8572 26.8528 40.9601C26.8975 41.4564 26.9243 41.9617 26.9869 42.458C27.0555 43.0542 27.2059 43.638 27.4341 44.193C27.5727 44.5239 27.68 44.8682 27.8142 45.1991C27.9483 45.53 28.1451 45.8922 28.2613 46.2499C28.4983 46.9386 28.8829 47.5646 29.1556 48.2443C29.3976 48.8983 29.5845 49.5714 29.7146 50.2565C29.7995 50.7036 29.88 51.1508 29.9694 51.6248C29.9827 51.6712 30.0007 51.7162 30.0231 51.7589C30.1438 51.7366 30.1438 51.6516 30.1483 51.5801C30.1528 51.5085 30.1483 51.3386 30.1483 51.2223C30.0961 50.5555 30.1201 49.8849 30.2199 49.2235C30.2932 48.8492 30.3964 48.4814 30.5284 48.1235C30.8414 47.3499 31.1857 46.5808 31.5256 45.8162C31.8237 45.1514 32.1352 44.4866 32.4601 43.8219C32.752 43.2022 33.0883 42.6045 33.4662 42.0332C33.5101 41.9666 33.5595 41.9038 33.6138 41.8454C33.6549 41.8646 33.6883 41.8972 33.7086 41.9378C33.7289 41.9783 33.7349 42.0246 33.7256 42.069C33.7256 42.3686 33.7479 42.6682 33.7256 42.9633C33.7241 43.2262 33.7091 43.4889 33.6809 43.7503C33.6227 44.1975 33.5512 44.6446 33.4886 45.0918C33.4349 45.4674 33.3768 45.8475 33.3365 46.2276C33.2667 46.732 33.156 47.23 33.0057 47.7166C32.9028 48.1012 32.7955 48.4812 32.6882 48.8658C32.5406 49.389 32.3975 49.9166 32.241 50.4443C32.1203 50.8601 31.9638 51.267 31.852 51.6829C31.6944 52.2853 31.6029 52.903 31.5792 53.5252C31.5792 54.1646 31.5524 54.7996 31.5345 55.439C31.5285 55.5814 31.5135 55.7233 31.4898 55.8638C31.4735 55.9371 31.451 56.0089 31.4227 56.0785C31.2841 56.0785 31.2394 56.0159 31.1947 55.9354C30.8651 55.3634 30.4897 54.8191 30.0723 54.3077C29.9337 54.1333 29.7951 53.9545 29.6251 53.7935C28.7115 52.8191 27.957 51.707 27.3894 50.4979C27.0738 49.8271 26.8049 49.1354 26.5845 48.4276C26.2742 47.3704 26.0999 46.278 26.0658 45.1768C26.0215 44.156 26.1101 43.1339 26.3296 42.1361C26.4101 41.7202 26.5129 41.3044 26.6113 40.8885C26.6099 40.8316 26.6284 40.776 26.6634 40.7311C26.6985 40.6863 26.748 40.655 26.8036 40.6426Z" fill="#3245A9"/>
<path d="M90.8114 40.0596C90.9142 40.3636 91.0171 40.6275 91.0976 40.8958C91.5079 42.3653 91.6398 43.8985 91.4866 45.4165C91.4146 46.4185 91.2331 47.4097 90.9455 48.3722C90.7738 48.9461 90.56 49.5065 90.3061 50.0491C90.0938 50.4622 89.8454 50.8557 89.5638 51.2251C88.5398 52.6336 87.5069 54.0332 86.4784 55.4328C86.4203 55.5089 86.3666 55.643 86.237 55.5938C86.1073 55.5446 86.1475 55.415 86.1475 55.3121C86.1475 54.8873 86.1475 54.458 86.1744 54.0332C86.2137 53.253 86.1307 52.4715 85.9284 51.717C85.7764 51.2072 85.6065 50.7064 85.45 50.1966C85.2935 49.6869 85.1683 49.2352 85.0341 48.7523C84.9268 48.3767 84.824 48.0011 84.7301 47.6255C84.6138 47.1783 84.502 46.7312 84.3992 46.284C84.2963 45.8368 84.189 45.3494 84.1085 44.8755C83.9252 44.0255 83.8219 43.1602 83.8 42.2909C83.7932 42.2016 83.7932 42.1119 83.8 42.0226C83.8057 41.9539 83.8273 41.8875 83.863 41.8286C83.8987 41.7696 83.9475 41.7197 84.0057 41.6828C84.047 41.7299 84.0817 41.7826 84.1085 41.8393C84.2525 42.28 84.4429 42.7042 84.6764 43.1047C84.9849 43.6905 85.3069 44.2628 85.6333 44.8352C85.7898 45.108 85.9731 45.3673 86.152 45.6222C86.3809 45.9653 86.5742 46.3309 86.7288 46.7133C86.863 47.0308 86.9927 47.3527 87.1358 47.6612C87.3745 48.1732 87.5054 48.7287 87.5203 49.2934C87.5203 49.6735 87.5606 50.0535 87.5874 50.4381C87.5832 50.4948 87.5905 50.5518 87.609 50.6056C87.6274 50.6594 87.6566 50.7089 87.6947 50.7511C87.7231 50.6949 87.747 50.6366 87.7662 50.5767C87.8423 50.2413 87.9093 49.906 87.9898 49.5706C88.1346 48.9606 88.326 48.3627 88.5622 47.782C88.8931 46.9816 89.2553 46.1901 89.5728 45.3807C89.7829 44.8531 89.9573 44.312 90.1138 43.7665C90.4429 42.6748 90.6234 41.5438 90.6504 40.4039C90.6772 40.2205 90.6772 40.2205 90.8114 40.0596Z" fill="#3245A9"/>
<path d="M87.8904 47.1504C87.8448 47.0805 87.8044 47.0072 87.7697 46.9313C87.649 46.6004 87.5372 46.2695 87.4165 45.9386C87.1648 45.2564 86.8441 44.6016 86.4595 43.9845C85.9274 43.0902 85.3059 42.3077 84.7111 41.4804C84.2193 40.7948 83.7408 40.1047 83.2758 39.4101C82.9832 38.9479 82.7432 38.4545 82.5603 37.939C82.4083 37.5455 82.2607 37.1564 82.1131 36.754C81.9656 36.3515 81.9164 35.9715 81.818 35.578C81.8133 35.5634 81.8133 35.5478 81.818 35.5332C81.818 35.4751 81.818 35.3857 81.8672 35.3544C81.9164 35.3231 82.0014 35.3812 82.0506 35.4349C82.3457 35.7658 82.6185 36.1145 82.9449 36.4276C83.5307 37.0178 84.1298 37.5902 84.7335 38.1625C85.2439 38.6252 85.7262 39.118 86.1778 39.6382C86.7599 40.2984 87.1727 41.0902 87.3807 41.9455C87.3909 41.9902 87.4058 42.0337 87.4254 42.0752C87.4254 42.0752 87.4567 42.102 87.479 42.1199C87.5908 42.0617 87.573 41.9589 87.5774 41.865C87.5774 41.5207 87.5774 41.1764 87.5774 40.8321C87.5774 39.7097 87.5774 38.5963 87.6221 37.4605C87.6221 36.6064 87.6937 35.7524 87.7205 34.8983C87.7429 34.4783 87.7429 34.0573 87.7205 33.6373C87.6636 33.0111 87.4811 32.4028 87.1839 31.8487C87.1303 31.7413 87.0721 31.634 87.0274 31.5267C86.9827 31.4194 86.9782 31.3792 87.0587 31.3523C87.1392 31.3255 87.175 31.3523 87.2108 31.406C87.3762 31.5893 87.5417 31.7726 87.6982 31.9694C88.1937 32.6276 88.6179 33.3366 88.9636 34.0845C89.3267 34.8425 89.5754 35.6502 89.7014 36.4812C89.8764 37.5389 89.9334 38.6127 89.8713 39.6829C89.8421 40.3204 89.7446 40.953 89.5807 41.5699C89.4734 41.9589 89.3124 42.33 89.1917 42.7191C89.0709 43.1081 88.9547 43.5061 88.8518 43.904C88.6729 44.6016 88.512 45.3036 88.3242 45.9967C88.2303 46.3321 88.0917 46.6585 87.9709 46.9894C87.9475 47.0447 87.9207 47.0985 87.8904 47.1504Z" fill="#3245A9"/>
<path d="M29.766 47.5029C29.7352 47.4313 29.7084 47.3582 29.6855 47.2837C29.5648 46.8053 29.4619 46.3224 29.3323 45.8439C29.2026 45.3654 29.0685 44.9898 28.9209 44.565C28.7376 44.0195 28.5408 43.474 28.3485 42.9329L28.0623 42.128C27.9183 41.6902 27.8092 41.2416 27.7359 40.7865C27.5885 39.8446 27.5525 38.8885 27.6286 37.9381C27.6639 37.2114 27.7687 36.4896 27.9416 35.7828C28.072 35.3378 28.252 34.9088 28.4782 34.504C28.7957 33.9003 29.1221 33.3056 29.4709 32.7153C29.6331 32.4721 29.814 32.2419 30.0119 32.0267C30.0699 31.9738 30.1345 31.9287 30.2042 31.8926C30.2346 31.9366 30.2509 31.9889 30.2509 32.0424C30.2509 32.0959 30.2346 32.1481 30.2042 32.1922C30.0335 32.5419 29.9016 32.9093 29.8107 33.2877C29.6338 34.0402 29.5675 34.8145 29.614 35.5861C29.6542 36.2077 29.7302 36.8247 29.8063 37.4418C29.9663 38.5016 30.0485 39.5717 30.0522 40.6435C30.0522 41.2739 29.9762 41.9 29.9359 42.5305C29.9137 42.7356 29.9137 42.9424 29.9359 43.1475C29.9942 43.0427 30.0407 42.9317 30.0745 42.8166C30.4577 41.29 31.2527 39.8979 32.3729 38.7922C32.9486 38.1988 33.5674 37.6488 34.2242 37.1467C34.3444 37.0451 34.4551 36.9329 34.5551 36.8113C34.7652 36.5698 34.9664 36.315 35.1677 36.0646C35.1988 36.0231 35.2348 35.9855 35.275 35.9528C35.3287 35.917 35.4091 35.8723 35.4449 35.8902C35.4703 35.9096 35.4907 35.9347 35.5047 35.9634C35.5187 35.9921 35.5257 36.0237 35.5254 36.0556C35.4922 36.3458 35.4429 36.6339 35.3778 36.9186C35.1623 37.6045 34.9086 38.2778 34.6177 38.9353C34.2419 39.7844 33.7644 40.5847 33.1957 41.3187C32.829 41.8418 32.4937 42.3829 32.1449 42.915C31.7961 43.4471 31.3802 44.0463 31.018 44.6232C30.5961 45.2789 30.2764 45.9951 30.0701 46.7472C30.0164 46.9484 29.9315 47.1407 29.8599 47.3374C29.8346 47.3957 29.8031 47.4512 29.766 47.5029Z" fill="#3245A9"/>
<path d="M53.0132 63.4408C52.9059 63.4408 52.7941 63.414 52.6867 63.3917C51.3154 63.0588 49.9981 62.5334 48.7741 61.8311C47.0064 60.823 45.4565 59.4738 44.2145 57.8618C42.9725 56.2498 42.0631 54.4071 41.5391 52.4408C41.3781 51.8371 41.2842 51.2245 41.168 50.6119C40.9938 49.4098 40.9519 48.1922 41.0428 46.981C41.0724 46.6918 41.1217 46.4049 41.1903 46.1224C41.4787 44.2803 42.1 42.506 43.0237 40.8862C43.9556 39.2452 45.1855 37.7925 46.6501 36.6024C48.1602 35.3558 49.9017 34.4197 51.7746 33.848C52.3603 33.6691 52.9595 33.5394 53.5632 33.4008C53.7013 33.3846 53.8409 33.3846 53.979 33.4008C53.9164 33.45 53.8941 33.4768 53.8628 33.4858C52.9507 33.8318 52.062 34.2366 51.2022 34.6976C50.3324 35.1668 49.4971 35.6973 48.7026 36.285C47.9604 36.8332 47.2635 37.4403 46.6188 38.1004C45.6489 39.0926 44.8076 40.2028 44.1147 41.4049C43.586 42.3056 43.1557 43.2605 42.8314 44.2533C42.4807 45.2752 42.2613 46.3375 42.1786 47.4147C42.1361 48.1862 42.1361 48.9595 42.1786 49.731C42.2147 50.2621 42.291 50.7898 42.4066 51.3095C42.6159 52.3688 42.9491 53.3999 43.3993 54.3814C44.4961 56.7614 46.1328 58.8529 48.1794 60.4896C48.8297 61.0079 49.5123 61.4843 50.2229 61.916C51.0663 62.4141 51.9383 62.862 52.8343 63.2575L53.0445 63.3648L53.0132 63.4408Z" fill="#3245A9"/>
<path d="M30.7261 39.7089C30.7086 39.6037 30.6966 39.4978 30.6904 39.3914C30.6904 38.9442 30.7217 38.4971 30.6904 38.0186C30.6412 37.1243 30.5562 36.2568 30.507 35.3714C30.469 34.9087 30.469 34.4435 30.507 33.9808C30.5832 33.2883 30.6951 32.6003 30.8424 31.9194C31.029 31.0955 31.4266 30.3343 31.996 29.7104C32.365 29.2975 32.7561 28.9049 33.1676 28.5344C33.6038 28.1574 34.0994 27.8553 34.6343 27.6401C34.7446 27.5961 34.8605 27.5675 34.9786 27.5551C35.0038 27.5532 35.0291 27.5579 35.0519 27.5689C35.0747 27.5799 35.0941 27.5968 35.1083 27.6177C35.1083 27.649 35.0859 27.7071 35.068 27.7519C35.0549 27.77 35.0382 27.7853 35.0188 27.7966C34.5514 28.1747 34.1728 28.651 33.9099 29.1917C33.697 29.5841 33.5391 30.0039 33.4404 30.4393C33.2213 31.3336 33.0335 32.1877 32.8054 33.0596C32.6444 33.6812 32.4432 34.2938 32.2554 34.9109C32.1749 35.1836 32.081 35.4519 32.0005 35.7247C31.9856 35.794 31.9751 35.8642 31.9692 35.9349C32.0229 35.9349 32.0542 35.908 32.0587 35.8946C32.4848 35.0824 33.0794 34.3705 33.8026 33.8064C34.6343 33.1267 35.4884 32.4649 36.3245 31.8076C36.8416 31.4164 37.3113 30.9662 37.7241 30.4661C37.8315 30.332 37.9209 30.1844 38.0282 30.0458C38.0795 29.9731 38.1396 29.907 38.2071 29.849C38.3144 29.7685 38.4262 29.8133 38.4262 29.9474C38.4252 30.0756 38.4087 30.2033 38.377 30.3275C38.0551 31.4637 37.516 32.5266 36.7896 33.4576C35.862 34.6082 34.7888 35.6333 33.5969 36.5072C32.7603 37.1551 32.0183 37.9167 31.3924 38.7698C31.2425 38.9946 31.1051 39.2275 30.981 39.4674C30.9184 39.5747 30.8916 39.6731 30.7261 39.7089Z" fill="#3245A9"/>
<path d="M62.1886 58.4095C62.1019 58.3672 62.0122 58.3314 61.9203 58.3022C61.3345 58.1233 60.7398 57.9668 60.1585 57.7745C59.3028 57.4919 58.4799 57.1187 57.7036 56.6611C57.6102 56.615 57.5297 56.5462 57.4696 56.4611C57.4095 56.376 57.3716 56.2772 57.3593 56.1737C57.3146 55.8294 57.243 55.4851 57.1715 55.0827C57.2362 55.1112 57.2989 55.1441 57.3593 55.181C58.1494 55.8394 59.0285 56.3829 59.9707 56.7953C60.4517 57.0031 60.948 57.1735 61.4552 57.305C61.5072 57.3114 61.5598 57.3114 61.6117 57.305C61.6117 57.305 61.652 57.305 61.6833 57.2827C61.6386 57.1709 61.5313 57.1664 61.4463 57.1306C60.8784 56.8936 60.306 56.6835 59.7426 56.4241C58.8757 56.0463 58.0647 55.5513 57.3324 54.953C57.2757 54.9095 57.229 54.8542 57.1958 54.7909C57.1626 54.7275 57.1436 54.6577 57.1402 54.5863C57.1402 54.1973 57.0999 53.8083 57.082 53.4192C57.088 53.3809 57.0985 53.3433 57.1133 53.3074C57.1633 53.3434 57.2111 53.3822 57.2564 53.4237C58.3057 54.6277 59.6314 55.5591 61.1199 56.138C61.2464 56.1832 61.3765 56.2176 61.5089 56.2408C61.562 56.2514 61.6167 56.2514 61.6699 56.2408V56.1961C61.623 56.1678 61.5736 56.1438 61.5223 56.1245C59.8692 55.5301 58.3981 54.518 57.252 53.1867C57.195 53.1276 57.1509 53.0574 57.1225 52.9804C57.094 52.9035 57.0817 52.8215 57.0865 52.7396C57.1133 52.3952 57.1223 52.0509 57.1446 51.7066C57.1446 51.6395 57.1446 51.568 57.1849 51.4473C57.2564 51.5367 57.2922 51.5769 57.3235 51.6261C58.1886 53.0064 59.4128 54.1255 60.865 54.8635C61.3807 55.1548 61.939 55.363 62.5195 55.4806C62.7021 55.5313 62.8607 55.6455 62.9666 55.8026C63.0248 55.8741 63.0114 55.9367 62.9666 56.0217C62.8012 56.2497 62.6492 56.4688 62.5195 56.7327C62.4569 56.831 62.4837 56.8623 62.591 56.9205C62.718 56.9818 62.8406 57.052 62.9577 57.1306C63.0009 57.1606 63.0314 57.2057 63.0429 57.2571C63.0545 57.3084 63.0465 57.3622 63.0203 57.4079C62.9487 57.6046 62.8861 57.8058 62.828 58.0071C62.7699 58.2083 62.7967 58.177 62.9353 58.2262C63.1079 58.2831 63.2568 58.3956 63.3587 58.5461C63.4606 58.6965 63.5099 58.8765 63.4987 59.0579C63.4987 59.192 63.4987 59.3217 63.4987 59.4648C63.4467 59.4704 63.3943 59.4704 63.3422 59.4648C62.48 59.4381 61.6221 59.3303 60.78 59.1429C59.8376 58.9174 58.9336 58.5542 58.0971 58.0652C57.9962 58.0121 57.9195 57.9226 57.8824 57.8148L57.5963 56.9652C57.5916 56.9191 57.5916 56.8727 57.5963 56.8266C57.6495 56.8385 57.7007 56.8581 57.7483 56.8847C59.0484 57.6986 60.4967 58.2472 62.0097 58.4989H62.1886C62.2078 58.5026 62.2275 58.5026 62.2467 58.4989L62.1886 58.4095Z" fill="#3245A9"/>
<path d="M41.4006 24.4233C41.3469 24.5151 41.2872 24.6033 41.2218 24.6871C40.9848 24.9554 40.7746 25.2327 40.4974 25.4831C39.96 26.0482 39.4723 26.6586 39.0396 27.3075C38.5925 27.9603 38.1051 28.6132 37.6266 29.2526C37.2055 29.8091 36.7275 30.3202 36.2002 30.7774C35.4937 31.4034 34.7738 32.0161 34.0583 32.6331C33.9709 32.715 33.8783 32.7912 33.7811 32.8612C33.7241 32.8844 33.6636 32.898 33.6022 32.9014C33.5799 32.8415 33.5708 32.7774 33.5754 32.7136C33.6156 32.5482 33.6827 32.3872 33.7319 32.2217C33.9331 31.5644 34.1343 30.9071 34.3221 30.2453C34.4276 29.8575 34.5824 29.4848 34.7827 29.1364C35.1454 28.4983 35.5725 27.8989 36.0571 27.3477C36.7046 26.6239 37.4867 26.0331 38.36 25.6083L40.2738 24.6648C40.5722 24.5263 40.8907 24.4358 41.2173 24.3965C41.2793 24.3977 41.3409 24.4067 41.4006 24.4233Z" fill="#3245A9"/>
<path d="M45.7148 51.3527C45.7685 51.2812 45.7864 51.232 45.8177 51.2141C45.8663 51.1939 45.9175 51.1804 45.9697 51.1739C46.1013 51.1549 46.2208 51.0866 46.3039 50.9828C46.3869 50.879 46.4273 50.7474 46.4169 50.6149C46.4169 50.3377 46.4169 50.0604 46.4169 49.7832V47.5116C46.4169 47.4669 46.4169 47.4222 46.4169 47.3775C46.4169 47.0019 46.3051 46.8856 45.9339 46.832C45.9116 46.832 45.8803 46.832 45.8669 46.832C45.8299 46.804 45.8007 46.767 45.7819 46.7246C45.7819 46.7246 45.8311 46.6665 45.8669 46.6486C45.9038 46.6417 45.9417 46.6417 45.9787 46.6486C46.5153 46.6486 47.0563 46.6486 47.5974 46.6486C47.6598 46.6441 47.7218 46.6612 47.7731 46.6971C47.8244 46.7329 47.8618 46.7852 47.8791 46.8454C48.2144 47.6547 48.5632 48.4596 48.9076 49.2645L49.0104 49.4791C49.0596 49.3852 49.0953 49.3316 49.1177 49.2734L50.0657 46.9169C50.0813 46.8919 50.0933 46.8648 50.1015 46.8364C50.1073 46.805 50.1194 46.775 50.1371 46.7484C50.1548 46.7218 50.1777 46.699 50.2045 46.6814C50.2312 46.6639 50.2612 46.6519 50.2927 46.6463C50.3242 46.6407 50.3565 46.6414 50.3876 46.6486C50.562 46.6486 50.7319 46.6486 50.9063 46.6486H51.9393C51.9912 46.6419 52.0438 46.6419 52.0958 46.6486C52.1373 46.6709 52.175 46.6995 52.2076 46.7336C52.1718 46.7649 52.145 46.8185 52.1092 46.832C52.0734 46.8454 51.9438 46.832 51.8677 46.8767C51.7899 46.8927 51.7197 46.9346 51.6686 46.9954C51.6175 47.0563 51.5884 47.1326 51.586 47.212C51.586 47.2657 51.586 47.3194 51.586 47.373V50.6775C51.586 51.0397 51.6933 51.156 52.0332 51.2052C52.0613 51.2005 52.09 51.2005 52.1181 51.2052C52.1494 51.2052 52.1897 51.2588 52.1852 51.2767C52.179 51.2953 52.1691 51.3125 52.156 51.3271C52.1429 51.3417 52.127 51.3535 52.1092 51.3617C52.0649 51.3707 52.0193 51.3707 51.9751 51.3617H49.8511C49.775 51.3617 49.6453 51.4064 49.6409 51.2722C49.6364 51.1381 49.7661 51.1962 49.8376 51.1828C50.1283 51.1381 50.258 51.0039 50.258 50.7356C50.258 49.7608 50.258 48.786 50.258 47.8112C50.258 47.7844 50.258 47.7531 50.258 47.6771C50.2088 47.762 50.1775 47.8023 50.1551 47.8515L48.8136 51.1604C48.8136 51.1917 48.7824 51.2275 48.7689 51.2633C48.7555 51.2991 48.6884 51.3751 48.6035 51.3751C48.5663 51.3816 48.5281 51.3749 48.4954 51.3561C48.4627 51.3373 48.4377 51.3076 48.4246 51.2722C48.3352 51.0531 48.2323 50.8251 48.1384 50.6149C47.7494 49.7206 47.3559 48.7816 46.9669 47.8694C46.9669 47.8291 46.9266 47.7889 46.8864 47.7128C46.8663 47.7677 46.8527 47.8247 46.8461 47.8828C46.8461 48.7771 46.8461 49.7116 46.8461 50.6283C46.8333 50.6904 46.8337 50.7546 46.8476 50.8165C46.8614 50.8784 46.8882 50.9367 46.9263 50.9875C46.9643 51.0382 47.0128 51.0803 47.0683 51.1109C47.1239 51.1415 47.1853 51.1599 47.2486 51.1649H47.3112C47.3783 51.1649 47.4811 51.1649 47.4632 51.2812C47.4453 51.3974 47.3604 51.3527 47.2978 51.3527H45.925C45.8624 51.3795 45.8177 51.3661 45.7148 51.3527Z" fill="#3245A9"/>
<path d="M57.6094 46.6517H57.8285C58.2756 46.6517 58.7228 46.6517 59.1968 46.6517C59.2671 46.6464 59.3377 46.6598 59.4012 46.6904C59.4648 46.721 59.5192 46.7678 59.559 46.8261C60.1582 47.5907 60.7663 48.3553 61.37 49.12C61.3961 49.1557 61.4171 49.1948 61.4326 49.2362L61.4952 49.2049C61.508 49.1596 61.517 49.1132 61.522 49.0663C61.522 48.6192 61.522 48.1496 61.522 47.6935C61.5201 47.5439 61.5082 47.3945 61.4862 47.2464C61.4736 47.1529 61.4318 47.0659 61.3668 46.9976C61.3017 46.9293 61.2168 46.8834 61.124 46.8663C61.0737 46.8577 61.0243 46.8442 60.9765 46.8261C60.9362 46.8261 60.9139 46.7545 60.8826 46.7188L60.9899 46.6338H62.4521C62.474 46.6379 62.4951 46.6455 62.5147 46.6561C62.5594 46.7679 62.5147 46.8305 62.4074 46.8529H62.3403C62.2296 46.864 62.1271 46.916 62.0526 46.9987C61.9782 47.0814 61.9373 47.1888 61.9379 47.3001C61.9379 47.3895 61.9379 47.4789 61.9379 47.5683V51.1456C61.9379 51.235 61.9379 51.32 61.9379 51.405C61.8613 51.4447 61.7726 51.4539 61.6896 51.4306C61.6066 51.4074 61.5354 51.3535 61.4907 51.2798C60.7887 50.3854 60.0732 49.518 59.3667 48.6371C59.1923 48.4224 59.0135 48.1899 58.8435 47.9887C58.8183 47.9509 58.7973 47.9104 58.7809 47.8679L58.7228 47.9037C58.706 47.9483 58.6955 47.9949 58.6915 48.0423C58.6915 48.8606 58.6915 49.6789 58.6915 50.4928C58.6892 50.53 58.6892 50.5673 58.6915 50.6045C58.6914 50.7502 58.7477 50.8902 58.8485 50.9952C58.9494 51.1003 59.087 51.1622 59.2326 51.168C59.3041 51.168 59.4025 51.168 59.398 51.2663C59.3935 51.3647 59.2862 51.3468 59.2192 51.3468H57.8016C57.7647 51.3536 57.7268 51.3536 57.6899 51.3468C57.6586 51.3468 57.6228 51.3066 57.6183 51.2798C57.6179 51.2624 57.6223 51.2453 57.6309 51.2303C57.6396 51.2153 57.6523 51.203 57.6675 51.1948C57.7303 51.1713 57.7945 51.1519 57.8598 51.1367C57.9658 51.1174 58.0621 51.0627 58.1328 50.9814C58.2035 50.9001 58.2444 50.7972 58.2488 50.6895C58.2533 50.6076 58.2533 50.5255 58.2488 50.4436V47.5415C58.2562 47.3843 58.2084 47.2294 58.1137 47.1036C58.019 46.9779 57.8833 46.8892 57.7301 46.8529C57.6183 46.8216 57.6183 46.8216 57.6094 46.6517Z" fill="#3245A9"/>
<path d="M55.6353 46.6556C55.6844 46.6556 55.7426 46.6556 55.8007 46.6556C56.2479 46.6556 56.695 46.6556 57.1735 46.6556C57.245 46.6556 57.3568 46.6198 57.3747 46.7361C57.3926 46.8523 57.2718 46.8479 57.2003 46.8613C57.0649 46.8813 56.9427 46.9531 56.8592 47.0615C56.7758 47.17 56.7378 47.3066 56.7531 47.4426C56.7531 48.1401 56.7531 48.8332 56.7531 49.5308C56.7512 49.8158 56.7242 50.1001 56.6727 50.3804C56.6289 50.6192 56.5177 50.8405 56.352 51.0181C56.1864 51.1956 55.9733 51.3219 55.7381 51.382C55.2044 51.5429 54.6352 51.5429 54.1015 51.382C53.8451 51.328 53.613 51.1926 53.4398 50.996C53.2666 50.7994 53.1614 50.5521 53.1401 50.291C53.1222 50.0828 53.1147 49.8739 53.1178 49.665C53.1178 48.9406 53.1178 48.2117 53.1178 47.4828C53.1221 47.4009 53.1221 47.3188 53.1178 47.2369C53.1205 47.1499 53.0902 47.0651 53.0329 46.9996C52.9757 46.9341 52.8958 46.8926 52.8092 46.8836C52.7575 46.8765 52.7066 46.8645 52.6572 46.8479C52.6169 46.8479 52.5633 46.7897 52.5588 46.754C52.5543 46.7182 52.6214 46.6645 52.6795 46.6601C52.7168 46.6578 52.7541 46.6578 52.7913 46.6601H54.8125C54.8569 46.6533 54.9022 46.6533 54.9466 46.6601C54.9861 46.6852 55.0208 46.717 55.0495 46.754C55.0137 46.7853 54.9824 46.83 54.9422 46.8434C54.9019 46.8568 54.7812 46.8434 54.7007 46.8836C54.626 46.8971 54.5584 46.9362 54.5095 46.9942C54.4605 47.0521 54.4333 47.1253 54.4324 47.2011C54.4324 47.2458 54.4324 47.2905 54.4324 47.3353C54.4324 48.3101 54.4324 49.2849 54.4324 50.2552C54.4314 50.4566 54.5055 50.6512 54.6403 50.8008C54.7751 50.9505 54.9609 51.0445 55.1613 51.0646C55.3003 51.0792 55.4409 51.0622 55.5725 51.015C55.7041 50.9678 55.8234 50.8915 55.9214 50.7918C56.1027 50.6315 56.2188 50.4104 56.2479 50.1702C56.2792 49.8796 56.306 49.5889 56.3105 49.2759C56.3105 48.7125 56.3105 48.1491 56.3105 47.5901C56.3149 47.5291 56.3149 47.4678 56.3105 47.4068C56.2702 47.1206 56.1987 46.8702 55.8231 46.8434C55.6844 46.8389 55.5816 46.821 55.6353 46.6556Z" fill="#3245A9"/>
<path d="M65.945 62.4059C65.6857 62.7726 65.2609 62.8218 64.8584 62.9649H65.243C65.2469 62.9836 65.2467 63.003 65.2423 63.0217C65.2378 63.0403 65.2293 63.0577 65.2174 63.0727C65.2054 63.0877 65.1902 63.0998 65.173 63.1082C65.1558 63.1166 65.137 63.1211 65.1178 63.1214C64.9091 63.1784 64.6945 63.2114 64.4783 63.2197C64.3819 63.214 64.2863 63.2397 64.2057 63.2929C64.1251 63.3461 64.0638 63.424 64.0312 63.5149C63.8747 63.8547 63.8389 63.8681 63.4812 63.7474C63.2755 63.6803 63.0743 63.5864 62.8686 63.5149C62.7059 63.4592 62.5402 63.413 62.3722 63.3762C62.1397 63.3315 62.0413 63.4299 62.0413 63.6669C62.0457 63.6965 62.0457 63.7267 62.0413 63.7563H62.01C61.8848 63.7071 61.8356 63.573 61.773 63.4612C61.7201 63.3422 61.6753 63.2196 61.6389 63.0945C61.4913 63.184 61.5182 63.3226 61.5092 63.4388C61.5003 63.5551 61.5092 63.6669 61.5092 63.7832C61.5092 63.7832 61.4734 63.7832 61.4645 63.7832C61.3677 63.7264 61.2837 63.6501 61.2179 63.5591C61.1521 63.4681 61.106 63.3645 61.0825 63.2547C61.0589 63.145 61.0585 63.0315 61.0811 62.9216C61.1038 62.8116 61.1491 62.7076 61.2141 62.6161C61.2783 62.5318 61.3598 62.4623 61.4531 62.4122C61.5465 62.362 61.6495 62.3325 61.7552 62.3254C61.9559 62.318 62.1569 62.333 62.3543 62.3701C62.411 62.3866 62.4712 62.387 62.528 62.3712C62.5849 62.3554 62.6363 62.3241 62.6763 62.2807C62.9446 61.9901 63.2397 61.7218 63.4991 61.4222C63.8303 61.0195 64.0232 60.5209 64.0491 60.0002C64.0491 59.9421 64.0491 59.8839 64.0759 59.79C64.1486 59.8247 64.2175 59.8666 64.2816 59.9152C64.4739 60.0896 64.6706 60.264 64.8584 60.4474C65.1448 60.7569 65.5047 60.9892 65.9048 61.1226C66.0389 61.1628 66.0613 61.2299 65.9629 61.3327C65.8235 61.4787 65.6741 61.6146 65.5157 61.7396C65.4343 61.7946 65.3756 61.8772 65.3503 61.9722C65.6857 61.923 65.9808 61.7799 66.2983 61.7396C65.9763 62.1868 65.4755 62.2628 65.0194 62.4506C65.1709 62.5064 65.3374 62.5064 65.4889 62.4506C65.6454 62.4193 65.7974 62.3612 65.9361 62.3165L65.945 62.4059ZM62.5869 62.7055C62.5333 62.6634 62.4672 62.6406 62.3991 62.6406C62.331 62.6406 62.2648 62.6634 62.2113 62.7055C62.3499 62.7279 62.4438 62.7949 62.5869 62.7055Z" fill="#3245A9"/>
<path d="M60.9966 40.9959C61.0413 40.9109 61.0547 40.8439 61.0994 40.8081C61.1197 40.7892 61.1437 40.7746 61.1698 40.7654C61.196 40.7561 61.2238 40.7524 61.2515 40.7544C61.2778 40.7635 61.3018 40.7783 61.3219 40.7976C61.3419 40.8169 61.3576 40.8403 61.3677 40.8662C61.3907 40.983 61.4071 41.1009 61.4169 41.2195C61.4393 41.5325 61.4661 41.8455 61.4884 42.163C61.4909 42.1972 61.4909 42.2316 61.4884 42.2658H61.2425C61.1376 42.0478 61.0181 41.8372 60.8848 41.6353C60.7569 41.462 60.5913 41.32 60.4004 41.22C60.2096 41.12 59.9986 41.0647 59.7832 41.0582C59.5679 41.0518 59.3539 41.0943 59.1574 41.1827C58.9609 41.271 58.7871 41.4029 58.649 41.5683C58.3771 41.8717 58.204 42.2507 58.1527 42.6549C58.0562 43.23 58.1521 43.821 58.4254 44.3362C58.529 44.5507 58.6765 44.7412 58.8582 44.8953C59.04 45.0493 59.2521 45.1635 59.4807 45.2305C59.8476 45.3279 60.2381 45.2765 60.5673 45.0874C60.5956 45.0708 60.6198 45.0481 60.6384 45.0211C60.6569 44.994 60.6693 44.9633 60.6746 44.9309C60.6746 44.4614 60.6746 43.9874 60.6478 43.5179C60.6478 43.263 60.536 43.187 60.2901 43.1333C60.223 43.102 60.0933 43.1333 60.1112 43.0171C60.1291 42.9008 60.2319 42.95 60.299 42.95C60.8177 42.95 61.332 42.95 61.8507 42.95C61.9177 42.95 62.0206 42.9142 62.034 43.0215C62.0474 43.1288 61.9401 43.1065 61.873 43.1244C61.7742 43.1367 61.6838 43.186 61.6199 43.2623C61.556 43.3386 61.5234 43.4364 61.5287 43.5358C61.5287 43.728 61.5287 43.9248 61.5287 44.1171C61.5287 44.4256 61.5287 44.7341 61.5287 45.0427C61.535 45.0977 61.5225 45.1533 61.4933 45.2004C61.4641 45.2474 61.4198 45.2833 61.3677 45.302C60.9499 45.5051 60.4908 45.6092 60.0263 45.6061C59.6748 45.6187 59.3229 45.5977 58.9754 45.5435C58.4873 45.4444 58.0462 45.1851 57.7222 44.8068C57.3982 44.4285 57.2097 43.9529 57.1868 43.4553C57.1479 42.9967 57.2348 42.5363 57.438 42.1234C57.6413 41.7106 57.9533 41.3609 58.3405 41.1122C58.6388 40.9212 58.9799 40.8074 59.3332 40.7813C59.8249 40.7194 60.3243 40.7809 60.7864 40.9601C60.8554 40.9776 60.9257 40.9896 60.9966 40.9959Z" fill="#3245A9"/>
<path d="M52.9914 41.9651C52.9497 41.9683 52.9079 41.9683 52.8662 41.9651C52.8141 41.9681 52.7619 41.9681 52.7097 41.9651C52.6944 41.5897 52.7169 41.2137 52.7768 40.8428H53.0361H56.4971C56.7073 40.8428 56.7297 40.8428 56.7476 41.0708C56.7654 41.2989 56.7476 41.4196 56.7476 41.5895C56.7476 41.7594 56.7476 41.8399 56.7476 41.9607C56.5016 42.0188 56.4748 42.0054 56.4301 41.8042C56.4027 41.6434 56.3196 41.4975 56.1953 41.392C56.071 41.2865 55.9134 41.2282 55.7504 41.2273C55.5939 41.2273 55.4374 41.2273 55.3032 41.2273C55.1691 41.2273 55.1288 41.2273 55.1244 41.4151C55.1244 41.6566 55.1244 41.8936 55.1244 42.1351C55.1244 42.9399 55.1244 43.7404 55.1244 44.5408C55.1265 44.6906 55.1399 44.8401 55.1646 44.9879C55.1658 45.0793 55.2022 45.1667 55.2665 45.2317C55.3307 45.2968 55.4176 45.3344 55.5089 45.3367C55.5759 45.3323 55.6431 45.3323 55.7101 45.3367C55.7266 45.3417 55.7415 45.351 55.7532 45.3635C55.765 45.3761 55.7733 45.3915 55.7772 45.4083C55.7772 45.4306 55.7459 45.4709 55.7146 45.4798C55.6719 45.4888 55.6277 45.4888 55.585 45.4798H53.85C53.7784 45.4798 53.6577 45.5156 53.6488 45.4038C53.6398 45.292 53.7605 45.3188 53.8366 45.3143C53.9551 45.3143 54.0689 45.2672 54.1527 45.1834C54.2366 45.0995 54.2837 44.9858 54.2837 44.8672C54.2882 44.7838 54.2882 44.7002 54.2837 44.6168V41.4464C54.2837 41.3704 54.2837 41.2989 54.2837 41.205C54.0216 41.1623 53.7544 41.1623 53.4923 41.205C53.38 41.2426 53.2795 41.3091 53.201 41.3978C53.1225 41.4864 53.0688 41.5942 53.0451 41.7103C53.0183 41.8131 53.0093 41.8802 52.9914 41.9651Z" fill="#3245A9"/>
<path d="M52.2814 45.4254C52.2546 45.5104 52.1785 45.5015 52.1159 45.5015H50.3273C50.2979 45.5083 50.2673 45.5083 50.2379 45.5015C50.208 45.483 50.181 45.4604 50.1574 45.4344C50.1842 45.4076 50.2066 45.3628 50.2424 45.3494C50.2944 45.3448 50.3468 45.3448 50.3988 45.3494C50.5028 45.3382 50.5996 45.2909 50.6723 45.2157C50.745 45.1406 50.7891 45.0423 50.7968 44.938C50.8013 44.8561 50.8013 44.774 50.7968 44.6921V41.562C50.7968 41.2356 50.7119 41.088 50.3139 41.0165C50.2826 41.0165 50.2513 41.0165 50.2245 41.0165C50.197 40.9967 50.1715 40.9742 50.1484 40.9494C50.1753 40.9181 50.1976 40.8778 50.2334 40.8644C50.2779 40.8577 50.3231 40.8577 50.3675 40.8644H52.098C52.1651 40.8644 52.2724 40.8644 52.2769 40.9449C52.2814 41.0254 52.1741 41.0254 52.107 41.0344C51.7582 41.0835 51.6598 41.2177 51.6598 41.5978C51.6598 42.4429 51.6598 43.2925 51.6598 44.1376C51.6598 44.3701 51.6598 44.5848 51.6598 44.8352C51.6598 45.1929 51.7895 45.3271 52.1517 45.3628C52.1964 45.3405 52.268 45.3315 52.2814 45.4254Z" fill="#3245A9"/>
<path d="M49.7704 40.9142C49.742 40.946 49.7088 40.9731 49.6721 40.9947C49.62 40.9991 49.5676 40.9991 49.5156 40.9947C49.4057 41.0069 49.3042 41.0593 49.2307 41.1419C49.1572 41.2244 49.1169 41.3313 49.1176 41.4419C49.1176 41.5223 49.1176 41.6073 49.1176 41.6878V44.8179C49.1176 45.1264 49.2741 45.2651 49.5871 45.3232C49.6586 45.3232 49.7436 45.3232 49.766 45.4171C49.7883 45.511 49.6587 45.4931 49.5961 45.4931H47.8074C47.778 45.5 47.7474 45.5 47.718 45.4931C47.6882 45.4746 47.6611 45.452 47.6375 45.426C47.6688 45.3992 47.6912 45.3545 47.7225 45.3455C47.7744 45.3387 47.827 45.3387 47.879 45.3455C47.9829 45.3343 48.0797 45.287 48.1524 45.2119C48.2251 45.1367 48.2692 45.0384 48.2769 44.9342C48.2814 44.8522 48.2814 44.7701 48.2769 44.6882V41.6207C48.2769 41.1467 48.2099 41.0707 47.7448 40.9813C47.7001 40.9813 47.6375 40.9366 47.633 40.9053C47.6286 40.874 47.6956 40.8248 47.7538 40.8203H49.5424C49.6139 40.8203 49.69 40.8203 49.7615 40.8203L49.7704 40.9142Z" fill="#3245A9"/>
<path d="M75.7598 24C75.8487 24.0163 75.9368 24.0372 76.0236 24.0626C76.7927 24.3667 77.5797 24.6439 78.3309 24.9927C79.4288 25.4641 80.4159 26.1602 81.2285 27.0362C82.0939 28.0745 82.7554 29.267 83.1781 30.5509C83.3435 31.0383 83.5001 31.5301 83.661 32.022C83.7013 32.1427 83.7594 32.2545 83.7952 32.3797C83.806 32.4419 83.806 32.5054 83.7952 32.5675C83.7326 32.5689 83.6704 32.5582 83.6118 32.5362C83.4819 32.4488 83.3565 32.3548 83.2362 32.2545C82.2331 31.4443 81.2776 30.5768 80.3744 29.6565C79.5451 28.7903 78.7813 27.8636 78.0894 26.8842C77.7272 26.361 77.3024 25.8825 76.9179 25.3772C76.659 25.0555 76.3733 24.7564 76.0638 24.4829C75.9104 24.3613 75.8031 24.1909 75.7598 24Z" fill="#3245A9"/>
<path d="M78.9927 29.3071C79.0426 29.359 79.0889 29.4143 79.1314 29.4725C79.4086 29.8437 79.6724 30.2282 79.9675 30.5859C80.1367 30.785 80.3271 30.9649 80.5354 31.1225C80.7858 31.3237 81.0586 31.5026 81.318 31.6904C81.868 32.0884 82.418 32.4953 82.9724 32.8888C83.5441 33.2878 84.0625 33.7582 84.5151 34.2884C84.6359 34.4315 84.7655 34.5701 84.8952 34.7043C84.9444 34.7534 85.007 34.7892 85.0607 34.8339H85.1143C85.1233 34.7672 85.1233 34.6995 85.1143 34.6327C84.931 33.9709 84.7432 33.2912 84.5643 32.6429C84.3363 31.7977 84.1172 30.9437 83.8981 30.0985C83.7419 29.4579 83.4691 28.8516 83.0932 28.3099C82.8696 28.0103 82.5923 27.751 82.3419 27.4737C82.2436 27.3664 82.1497 27.2546 82.0424 27.1294C82.0918 27.1028 82.1471 27.0889 82.2033 27.0889C82.2595 27.0889 82.3148 27.1028 82.3643 27.1294C82.8121 27.2672 83.2337 27.4788 83.6119 27.7554C84.7014 28.4934 85.5922 29.4886 86.2054 30.653C86.5722 31.3777 86.7724 32.1752 86.7912 32.9872C86.8672 34.986 86.8538 37.0116 86.8269 38.988C86.8183 39.0722 86.8048 39.1558 86.7867 39.2384H86.7375C86.6959 39.2037 86.6598 39.1631 86.6302 39.1177C86.1923 38.3729 85.6331 37.7064 84.9757 37.1457C84.1708 36.3632 83.2631 35.6925 82.3956 34.9815C81.4213 34.2156 80.5785 33.2958 79.9005 32.2583C79.6925 31.895 79.5116 31.5169 79.3594 31.127C79.1414 30.617 78.9997 30.0775 78.9391 29.5262C78.9301 29.4546 78.8899 29.3786 78.9927 29.3071Z" fill="#3245A9"/>
</g>
<defs>
<filter id="filter0_d_557_9111" x="-14" y="-12" width="145.705" height="133.706" filterUnits="userSpaceOnUse" color-interpolation-filters="sRGB">
<feFlood flood-opacity="0" result="BackgroundImageFix"/>
<feColorMatrix in="SourceAlpha" type="matrix" values="0 0 0 0 0 0 0 0 0 0 0 0 0 0 0 0 0 0 127 0" result="hardAlpha"/>
<feOffset dy="4"/>
<feGaussianBlur stdDeviation="20"/>
<feComposite in2="hardAlpha" operator="out"/>
<feColorMatrix type="matrix" values="0 0 0 0 0 0 0 0 0 0 0 0 0 0 0 0 0 0 0.2 0"/>
<feBlend mode="normal" in2="BackgroundImageFix" result="effect1_dropShadow_557_9111"/>
<feBlend mode="normal" in="SourceGraphic" in2="effect1_dropShadow_557_9111" result="shape"/>
</filter>
</defs>
</svg>
